<svg xmlns="http://www.w3.org/2000/svg" viewBox="0 0 1045.3 268.46"><defs><style>.cls-1{fill:#0e0c05;stroke:#0e0c05;stroke-width:1.5px;}</style></defs><title>circles</title><g id="Layer_2" data-name="Layer 2"><g id="Layer_1-2" data-name="Layer 1"><circle class="cls-1" cx="6.17" cy="254.26" r="5.42"/><circle class="cls-1" cx="28.45" cy="254.26" r="5.59"/><circle class="cls-1" cx="50.73" cy="254.26" r="5.77"/><circle class="cls-1" cx="73.01" cy="254.26" r="5.94"/><circle class="cls-1" cx="95.29" cy="254.26" r="6.12"/><circle class="cls-1" cx="117.57" cy="254.26" r="6.29"/><circle class="cls-1" cx="139.86" cy="254.26" r="6.47"/><circle class="cls-1" cx="162.14" cy="254.26" r="6.64"/><circle class="cls-1" cx="184.42" cy="254.26" r="6.81"/><circle class="cls-1" cx="206.7" cy="254.26" r="6.99"/><circle class="cls-1" cx="228.98" cy="254.26" r="7.16"/><circle class="cls-1" cx="251.26" cy="254.26" r="7.34"/><circle class="cls-1" cx="273.54" cy="254.26" r="7.51"/><circle class="cls-1" cx="295.82" cy="254.26" r="7.69"/><circle class="cls-1" cx="318.1" cy="254.26" r="7.86"/><circle class="cls-1" cx="340.39" cy="254.26" r="8.04"/><circle class="cls-1" cx="362.67" cy="254.26" r="8.21"/><circle class="cls-1" cx="384.95" cy="254.26" r="8.38"/><circle class="cls-1" cx="407.23" cy="254.26" r="8.56"/><circle class="cls-1" cx="429.51" cy="254.26" r="8.73"/><circle class="cls-1" cx="451.79" cy="254.26" r="8.91"/><circle class="cls-1" cx="474.07" cy="254.26" r="9.08"/><circle class="cls-1" cx="496.35" cy="254.26" r="9.26"/><circle class="cls-1" cx="518.63" cy="254.26" r="9.43"/><circle class="cls-1" cx="540.92" cy="254.26" r="9.61"/><circle class="cls-1" cx="563.2" cy="254.26" r="9.78"/><circle class="cls-1" cx="585.48" cy="254.26" r="9.96"/><circle class="cls-1" cx="607.76" cy="254.26" r="10.13"/><circle class="cls-1" cx="630.04" cy="254.26" r="10.3"/><circle class="cls-1" cx="652.32" cy="254.26" r="10.48"/><circle class="cls-1" cx="674.6" cy="254.26" r="10.65"/><circle class="cls-1" cx="696.88" cy="254.26" r="10.83"/><circle class="cls-1" cx="719.16" cy="254.26" r="11"/><circle class="cls-1" cx="741.45" cy="254.26" r="11.18"/><circle class="cls-1" cx="763.73" cy="254.26" r="11.35"/><circle class="cls-1" cx="786.01" cy="254.26" r="11.53"/><circle class="cls-1" cx="808.29" cy="254.26" r="11.7"/><circle class="cls-1" cx="830.57" cy="254.26" r="11.87"/><circle class="cls-1" cx="852.85" cy="254.26" r="12.05"/><circle class="cls-1" cx="875.13" cy="254.26" r="12.22"/><circle class="cls-1" cx="897.41" cy="254.26" r="12.4"/><circle class="cls-1" cx="919.7" cy="254.26" r="12.57"/><circle class="cls-1" cx="941.98" cy="254.26" r="12.75"/><circle class="cls-1" cx="964.26" cy="254.26" r="12.92"/><circle class="cls-1" cx="986.54" cy="254.26" r="13.1"/><circle class="cls-1" cx="1008.82" cy="254.26" r="13.27"/><circle class="cls-1" cx="1031.1" cy="254.26" r="13.44"/><circle class="cls-1" cx="6.17" cy="230.37" r="5.42"/><circle class="cls-1" cx="28.45" cy="230.37" r="5.59"/><circle class="cls-1" cx="50.73" cy="230.37" r="5.77"/><circle class="cls-1" cx="73.01" cy="230.37" r="5.94"/><circle class="cls-1" cx="95.29" cy="230.37" r="6.12"/><circle class="cls-1" cx="117.57" cy="230.37" r="6.29"/><circle class="cls-1" cx="139.86" cy="230.37" r="6.47"/><circle class="cls-1" cx="162.14" cy="230.37" r="6.64"/><circle class="cls-1" cx="184.42" cy="230.37" r="6.81"/><circle class="cls-1" cx="206.7" cy="230.37" r="6.99"/><circle class="cls-1" cx="228.98" cy="230.37" r="7.16"/><circle class="cls-1" cx="251.26" cy="230.37" r="7.34"/><circle class="cls-1" cx="273.54" cy="230.37" r="7.51"/><circle class="cls-1" cx="295.82" cy="230.37" r="7.69"/><circle class="cls-1" cx="318.1" cy="230.37" r="7.86"/><circle class="cls-1" cx="340.39" cy="230.37" r="8.04"/><circle class="cls-1" cx="362.67" cy="230.37" r="8.21"/><circle class="cls-1" cx="384.95" cy="230.37" r="8.38"/><circle class="cls-1" cx="407.23" cy="230.37" r="8.56"/><circle class="cls-1" cx="429.51" cy="230.37" r="8.73"/><circle class="cls-1" cx="451.79" cy="230.37" r="8.91"/><circle class="cls-1" cx="474.07" cy="230.37" r="9.08"/><circle class="cls-1" cx="496.35" cy="230.37" r="9.26"/><circle class="cls-1" cx="518.63" cy="230.37" r="9.43"/><circle class="cls-1" cx="540.92" cy="230.37" r="9.61"/><circle class="cls-1" cx="563.2" cy="230.37" r="9.78"/><circle class="cls-1" cx="585.48" cy="230.37" r="9.96"/><circle class="cls-1" cx="607.76" cy="230.37" r="10.13"/><circle class="cls-1" cx="630.04" cy="230.37" r="10.3"/><circle class="cls-1" cx="652.32" cy="230.37" r="10.48"/><circle class="cls-1" cx="674.6" cy="230.37" r="10.65"/><circle class="cls-1" cx="696.88" cy="230.37" r="10.83"/><circle class="cls-1" cx="719.16" cy="230.37" r="11"/><circle class="cls-1" cx="741.45" cy="230.37" r="11.18"/><circle class="cls-1" cx="763.73" cy="230.37" r="11.35"/><circle class="cls-1" cx="786.01" cy="230.37" r="11.53"/><circle class="cls-1" cx="808.29" cy="230.37" r="11.7"/><circle class="cls-1" cx="830.57" cy="230.37" r="11.87"/><circle class="cls-1" cx="852.85" cy="230.37" r="12.05"/><circle class="cls-1" cx="875.13" cy="230.37" r="12.22"/><circle class="cls-1" cx="897.41" cy="230.37" r="12.4"/><circle class="cls-1" cx="919.7" cy="230.37" r="12.57"/><circle class="cls-1" cx="941.98" cy="230.37" r="12.75"/><circle class="cls-1" cx="964.26" cy="230.37" r="12.92"/><circle class="cls-1" cx="986.54" cy="230.37" r="13.1"/><circle class="cls-1" cx="1008.82" cy="230.37" r="13.27"/><circle class="cls-1" cx="1031.1" cy="230.37" r="13.44"/><circle class="cls-1" cx="6.17" cy="205.97" r="5.42"/><circle class="cls-1" cx="28.45" cy="205.97" r="5.59"/><circle class="cls-1" cx="50.73" cy="205.97" r="5.77"/><circle class="cls-1" cx="73.01" cy="205.97" r="5.94"/><circle class="cls-1" cx="95.29" cy="205.97" r="6.12"/><circle class="cls-1" cx="117.57" cy="205.97" r="6.29"/><circle class="cls-1" cx="139.86" cy="205.97" r="6.47"/><circle class="cls-1" cx="162.14" cy="205.97" r="6.64"/><circle class="cls-1" cx="184.42" cy="205.97" r="6.81"/><circle class="cls-1" cx="206.7" cy="205.97" r="6.99"/><circle class="cls-1" cx="228.98" cy="205.97" r="7.16"/><circle class="cls-1" cx="251.26" cy="205.97" r="7.34"/><circle class="cls-1" cx="273.54" cy="205.97" r="7.51"/><circle class="cls-1" cx="295.82" cy="205.97" r="7.69"/><circle class="cls-1" cx="318.1" cy="205.97" r="7.86"/><circle class="cls-1" cx="340.39" cy="205.97" r="8.04"/><circle class="cls-1" cx="362.67" cy="205.97" r="8.21"/><circle class="cls-1" cx="384.95" cy="205.97" r="8.38"/><circle class="cls-1" cx="407.23" cy="205.97" r="8.56"/><circle class="cls-1" cx="429.51" cy="205.97" r="8.73"/><circle class="cls-1" cx="451.79" cy="205.97" r="8.91"/><circle class="cls-1" cx="474.07" cy="205.97" r="9.08"/><circle class="cls-1" cx="496.35" cy="205.97" r="9.26"/><circle class="cls-1" cx="518.63" cy="205.97" r="9.43"/><circle class="cls-1" cx="540.92" cy="205.97" r="9.61"/><circle class="cls-1" cx="563.2" cy="205.97" r="9.78"/><circle class="cls-1" cx="585.48" cy="205.97" r="9.96"/><circle class="cls-1" cx="607.76" cy="205.97" r="10.13"/><circle class="cls-1" cx="630.04" cy="205.97" r="10.3"/><circle class="cls-1" cx="652.32" cy="205.97" r="10.48"/><circle class="cls-1" cx="674.6" cy="205.97" r="10.65"/><circle class="cls-1" cx="696.88" cy="205.97" r="10.83"/><circle class="cls-1" cx="719.16" cy="205.97" r="11"/><circle class="cls-1" cx="741.45" cy="205.97" r="11.18"/><circle class="cls-1" cx="763.73" cy="205.97" r="11.35"/><circle class="cls-1" cx="786.01" cy="205.97" r="11.53"/><circle class="cls-1" cx="808.29" cy="205.97" r="11.7"/><circle class="cls-1" cx="830.57" cy="205.97" r="11.87"/><circle class="cls-1" cx="852.85" cy="205.97" r="12.05"/><circle class="cls-1" cx="875.13" cy="205.97" r="12.22"/><circle class="cls-1" cx="897.41" cy="205.97" r="12.4"/><circle class="cls-1" cx="919.7" cy="205.97" r="12.57"/><circle class="cls-1" cx="941.98" cy="205.97" r="12.75"/><circle class="cls-1" cx="964.26" cy="205.97" r="12.92"/><circle class="cls-1" cx="986.54" cy="205.97" r="13.1"/><circle class="cls-1" cx="1008.82" cy="205.97" r="13.27"/><circle class="cls-1" cx="1031.1" cy="205.97" r="13.44"/><circle class="cls-1" cx="6.17" cy="182.08" r="5.42"/><circle class="cls-1" cx="28.45" cy="182.08" r="5.59"/><circle class="cls-1" cx="50.73" cy="182.08" r="5.77"/><circle class="cls-1" cx="73.01" cy="182.08" r="5.94"/><circle class="cls-1" cx="95.29" cy="182.08" r="6.12"/><circle class="cls-1" cx="117.57" cy="182.08" r="6.29"/><circle class="cls-1" cx="139.86" cy="182.08" r="6.47"/><circle class="cls-1" cx="162.14" cy="182.08" r="6.64"/><circle class="cls-1" cx="184.42" cy="182.08" r="6.81"/><circle class="cls-1" cx="206.7" cy="182.08" r="6.99"/><circle class="cls-1" cx="228.98" cy="182.08" r="7.16"/><circle class="cls-1" cx="251.26" cy="182.08" r="7.34"/><circle class="cls-1" cx="273.54" cy="182.08" r="7.51"/><circle class="cls-1" cx="295.82" cy="182.08" r="7.69"/><circle class="cls-1" cx="318.1" cy="182.08" r="7.86"/><circle class="cls-1" cx="340.39" cy="182.08" r="8.04"/><circle class="cls-1" cx="362.67" cy="182.08" r="8.21"/><circle class="cls-1" cx="384.95" cy="182.08" r="8.38"/><circle class="cls-1" cx="407.23" cy="182.08" r="8.56"/><circle class="cls-1" cx="429.51" cy="182.08" r="8.73"/><circle class="cls-1" cx="451.79" cy="182.08" r="8.91"/><circle class="cls-1" cx="474.07" cy="182.08" r="9.08"/><circle class="cls-1" cx="496.35" cy="182.08" r="9.26"/><circle class="cls-1" cx="518.63" cy="182.08" r="9.43"/><circle class="cls-1" cx="540.92" cy="182.08" r="9.61"/><circle class="cls-1" cx="563.2" cy="182.08" r="9.78"/><circle class="cls-1" cx="585.48" cy="182.08" r="9.96"/><circle class="cls-1" cx="607.76" cy="182.08" r="10.13"/><circle class="cls-1" cx="630.04" cy="182.08" r="10.3"/><circle class="cls-1" cx="652.32" cy="182.08" r="10.48"/><circle class="cls-1" cx="674.6" cy="182.08" r="10.65"/><circle class="cls-1" cx="696.88" cy="182.08" r="10.83"/><circle class="cls-1" cx="719.16" cy="182.08" r="11"/><circle class="cls-1" cx="741.45" cy="182.08" r="11.18"/><circle class="cls-1" cx="763.73" cy="182.08" r="11.35"/><circle class="cls-1" cx="786.01" cy="182.08" r="11.53"/><circle class="cls-1" cx="808.29" cy="182.08" r="11.7"/><circle class="cls-1" cx="830.57" cy="182.08" r="11.87"/><circle class="cls-1" cx="852.85" cy="182.08" r="12.05"/><circle class="cls-1" cx="875.13" cy="182.08" r="12.22"/><circle class="cls-1" cx="897.41" cy="182.08" r="12.4"/><circle class="cls-1" cx="919.7" cy="182.08" r="12.57"/><circle class="cls-1" cx="941.98" cy="182.08" r="12.75"/><circle class="cls-1" cx="964.26" cy="182.08" r="12.92"/><circle class="cls-1" cx="986.54" cy="182.08" r="13.1"/><circle class="cls-1" cx="1008.82" cy="182.08" r="13.27"/><circle class="cls-1" cx="1031.1" cy="182.08" r="13.44"/><circle class="cls-1" cx="6.17" cy="158.53" r="5.42"/><circle class="cls-1" cx="28.45" cy="158.53" r="5.59"/><circle class="cls-1" cx="50.73" cy="158.53" r="5.77"/><circle class="cls-1" cx="73.01" cy="158.53" r="5.94"/><circle class="cls-1" cx="95.29" cy="158.53" r="6.12"/><circle class="cls-1" cx="117.57" cy="158.53" r="6.29"/><circle class="cls-1" cx="139.86" cy="158.53" r="6.47"/><circle class="cls-1" cx="162.14" cy="158.53" r="6.64"/><circle class="cls-1" cx="184.42" cy="158.53" r="6.81"/><circle class="cls-1" cx="206.7" cy="158.53" r="6.99"/><circle class="cls-1" cx="228.98" cy="158.53" r="7.16"/><circle class="cls-1" cx="251.26" cy="158.53" r="7.34"/><circle class="cls-1" cx="273.54" cy="158.53" r="7.51"/><circle class="cls-1" cx="295.82" cy="158.53" r="7.69"/><circle class="cls-1" cx="318.1" cy="158.53" r="7.86"/><circle class="cls-1" cx="340.39" cy="158.53" r="8.04"/><circle class="cls-1" cx="362.67" cy="158.53" r="8.21"/><circle class="cls-1" cx="384.95" cy="158.53" r="8.38"/><circle class="cls-1" cx="407.23" cy="158.53" r="8.56"/><circle class="cls-1" cx="429.51" cy="158.53" r="8.73"/><circle class="cls-1" cx="451.79" cy="158.53" r="8.91"/><circle class="cls-1" cx="474.07" cy="158.53" r="9.08"/><circle class="cls-1" cx="496.35" cy="158.53" r="9.26"/><circle class="cls-1" cx="518.63" cy="158.53" r="9.43"/><circle class="cls-1" cx="540.92" cy="158.53" r="9.61"/><circle class="cls-1" cx="563.2" cy="158.53" r="9.78"/><circle class="cls-1" cx="585.48" cy="158.53" r="9.96"/><circle class="cls-1" cx="607.76" cy="158.53" r="10.13"/><circle class="cls-1" cx="630.04" cy="158.53" r="10.3"/><circle class="cls-1" cx="652.32" cy="158.53" r="10.48"/><circle class="cls-1" cx="674.6" cy="158.53" r="10.65"/><circle class="cls-1" cx="696.88" cy="158.53" r="10.83"/><circle class="cls-1" cx="719.16" cy="158.53" r="11"/><circle class="cls-1" cx="741.45" cy="158.53" r="11.18"/><circle class="cls-1" cx="763.73" cy="158.53" r="11.35"/><circle class="cls-1" cx="786.01" cy="158.53" r="11.53"/><circle class="cls-1" cx="808.29" cy="158.53" r="11.7"/><circle class="cls-1" cx="830.57" cy="158.53" r="11.87"/><circle class="cls-1" cx="852.85" cy="158.53" r="12.05"/><circle class="cls-1" cx="875.13" cy="158.53" r="12.22"/><circle class="cls-1" cx="897.41" cy="158.53" r="12.4"/><circle class="cls-1" cx="919.7" cy="158.53" r="12.57"/><circle class="cls-1" cx="941.98" cy="158.53" r="12.75"/><circle class="cls-1" cx="964.26" cy="158.53" r="12.92"/><circle class="cls-1" cx="986.54" cy="158.53" r="13.1"/><circle class="cls-1" cx="1008.82" cy="158.53" r="13.27"/><circle class="cls-1" cx="1031.1" cy="158.53" r="13.44"/><circle class="cls-1" cx="6.17" cy="134.64" r="5.42"/><circle class="cls-1" cx="28.45" cy="134.64" r="5.59"/><circle class="cls-1" cx="50.73" cy="134.64" r="5.77"/><circle class="cls-1" cx="73.01" cy="134.64" r="5.94"/><circle class="cls-1" cx="95.29" cy="134.64" r="6.12"/><circle class="cls-1" cx="117.57" cy="134.64" r="6.29"/><circle class="cls-1" cx="139.86" cy="134.64" r="6.47"/><circle class="cls-1" cx="162.14" cy="134.64" r="6.64"/><circle class="cls-1" cx="184.42" cy="134.64" r="6.81"/><circle class="cls-1" cx="206.7" cy="134.64" r="6.99"/><circle class="cls-1" cx="228.98" cy="134.64" r="7.16"/><circle class="cls-1" cx="251.26" cy="134.64" r="7.34"/><circle class="cls-1" cx="273.54" cy="134.64" r="7.51"/><circle class="cls-1" cx="295.82" cy="134.64" r="7.69"/><circle class="cls-1" cx="318.1" cy="134.64" r="7.86"/><circle class="cls-1" cx="340.39" cy="134.64" r="8.04"/><circle class="cls-1" cx="362.67" cy="134.64" r="8.21"/><circle class="cls-1" cx="384.95" cy="134.64" r="8.38"/><circle class="cls-1" cx="407.23" cy="134.64" r="8.56"/><circle class="cls-1" cx="429.51" cy="134.64" r="8.73"/><circle class="cls-1" cx="451.79" cy="134.64" r="8.91"/><circle class="cls-1" cx="474.07" cy="134.64" r="9.08"/><circle class="cls-1" cx="496.35" cy="134.64" r="9.26"/><circle class="cls-1" cx="518.63" cy="134.64" r="9.43"/><circle class="cls-1" cx="540.92" cy="134.64" r="9.61"/><circle class="cls-1" cx="563.2" cy="134.64" r="9.78"/><circle class="cls-1" cx="585.48" cy="134.64" r="9.96"/><circle class="cls-1" cx="607.76" cy="134.64" r="10.13"/><circle class="cls-1" cx="630.04" cy="134.64" r="10.3"/><circle class="cls-1" cx="652.32" cy="134.64" r="10.48"/><circle class="cls-1" cx="674.6" cy="134.64" r="10.65"/><circle class="cls-1" cx="696.88" cy="134.64" r="10.83"/><circle class="cls-1" cx="719.16" cy="134.64" r="11"/><circle class="cls-1" cx="741.45" cy="134.64" r="11.18"/><circle class="cls-1" cx="763.73" cy="134.64" r="11.35"/><circle class="cls-1" cx="786.01" cy="134.64" r="11.53"/><circle class="cls-1" cx="808.29" cy="134.64" r="11.7"/><circle class="cls-1" cx="830.57" cy="134.64" r="11.87"/><circle class="cls-1" cx="852.85" cy="134.64" r="12.05"/><circle class="cls-1" cx="875.13" cy="134.64" r="12.22"/><circle class="cls-1" cx="897.41" cy="134.64" r="12.4"/><circle class="cls-1" cx="919.7" cy="134.64" r="12.57"/><circle class="cls-1" cx="941.98" cy="134.64" r="12.75"/><circle class="cls-1" cx="964.26" cy="134.64" r="12.92"/><circle class="cls-1" cx="986.54" cy="134.64" r="13.1"/><circle class="cls-1" cx="1008.82" cy="134.64" r="13.27"/><circle class="cls-1" cx="1031.1" cy="134.64" r="13.44"/><circle class="cls-1" cx="6.17" cy="110.24" r="5.42"/><circle class="cls-1" cx="28.45" cy="110.24" r="5.59"/><circle class="cls-1" cx="50.73" cy="110.24" r="5.77"/><circle class="cls-1" cx="73.01" cy="110.24" r="5.94"/><circle class="cls-1" cx="95.29" cy="110.24" r="6.12"/><circle class="cls-1" cx="117.57" cy="110.24" r="6.29"/><circle class="cls-1" cx="139.86" cy="110.24" r="6.47"/><circle class="cls-1" cx="162.14" cy="110.24" r="6.64"/><circle class="cls-1" cx="184.42" cy="110.24" r="6.81"/><circle class="cls-1" cx="206.7" cy="110.24" r="6.99"/><circle class="cls-1" cx="228.98" cy="110.24" r="7.16"/><circle class="cls-1" cx="251.26" cy="110.24" r="7.34"/><circle class="cls-1" cx="273.54" cy="110.24" r="7.51"/><circle class="cls-1" cx="295.82" cy="110.24" r="7.69"/><circle class="cls-1" cx="318.1" cy="110.24" r="7.86"/><circle class="cls-1" cx="340.39" cy="110.24" r="8.04"/><circle class="cls-1" cx="362.67" cy="110.24" r="8.21"/><circle class="cls-1" cx="384.95" cy="110.24" r="8.38"/><circle class="cls-1" cx="407.23" cy="110.24" r="8.56"/><circle class="cls-1" cx="429.51" cy="110.24" r="8.73"/><circle class="cls-1" cx="451.79" cy="110.24" r="8.91"/><circle class="cls-1" cx="474.07" cy="110.24" r="9.08"/><circle class="cls-1" cx="496.35" cy="110.24" r="9.26"/><circle class="cls-1" cx="518.63" cy="110.24" r="9.43"/><circle class="cls-1" cx="540.92" cy="110.24" r="9.61"/><circle class="cls-1" cx="563.2" cy="110.24" r="9.78"/><circle class="cls-1" cx="585.48" cy="110.24" r="9.96"/><circle class="cls-1" cx="607.76" cy="110.24" r="10.13"/><circle class="cls-1" cx="630.04" cy="110.24" r="10.3"/><circle class="cls-1" cx="652.32" cy="110.24" r="10.48"/><circle class="cls-1" cx="674.6" cy="110.24" r="10.65"/><circle class="cls-1" cx="696.88" cy="110.24" r="10.83"/><circle class="cls-1" cx="719.16" cy="110.24" r="11"/><circle class="cls-1" cx="741.45" cy="110.24" r="11.18"/><circle class="cls-1" cx="763.73" cy="110.24" r="11.35"/><circle class="cls-1" cx="786.01" cy="110.24" r="11.53"/><circle class="cls-1" cx="808.29" cy="110.24" r="11.7"/><circle class="cls-1" cx="830.57" cy="110.24" r="11.87"/><circle class="cls-1" cx="852.85" cy="110.24" r="12.05"/><circle class="cls-1" cx="875.13" cy="110.24" r="12.22"/><circle class="cls-1" cx="897.41" cy="110.24" r="12.4"/><circle class="cls-1" cx="919.7" cy="110.24" r="12.57"/><circle class="cls-1" cx="941.98" cy="110.24" r="12.75"/><circle class="cls-1" cx="964.26" cy="110.24" r="12.92"/><circle class="cls-1" cx="986.54" cy="110.24" r="13.1"/><circle class="cls-1" cx="1008.82" cy="110.24" r="13.27"/><circle class="cls-1" cx="1031.1" cy="110.24" r="13.44"/><circle class="cls-1" cx="6.17" cy="86.35" r="5.42"/><circle class="cls-1" cx="28.45" cy="86.35" r="5.59"/><circle class="cls-1" cx="50.73" cy="86.35" r="5.77"/><circle class="cls-1" cx="73.01" cy="86.35" r="5.94"/><circle class="cls-1" cx="95.29" cy="86.35" r="6.12"/><circle class="cls-1" cx="117.57" cy="86.35" r="6.29"/><circle class="cls-1" cx="139.86" cy="86.35" r="6.47"/><circle class="cls-1" cx="162.14" cy="86.35" r="6.64"/><circle class="cls-1" cx="184.42" cy="86.35" r="6.81"/><circle class="cls-1" cx="206.7" cy="86.35" r="6.99"/><circle class="cls-1" cx="228.98" cy="86.35" r="7.16"/><circle class="cls-1" cx="251.26" cy="86.35" r="7.34"/><circle class="cls-1" cx="273.54" cy="86.35" r="7.51"/><circle class="cls-1" cx="295.82" cy="86.35" r="7.69"/><circle class="cls-1" cx="318.1" cy="86.35" r="7.86"/><circle class="cls-1" cx="340.39" cy="86.35" r="8.04"/><circle class="cls-1" cx="362.67" cy="86.35" r="8.21"/><circle class="cls-1" cx="384.95" cy="86.35" r="8.38"/><circle class="cls-1" cx="407.23" cy="86.35" r="8.56"/><circle class="cls-1" cx="429.51" cy="86.35" r="8.73"/><circle class="cls-1" cx="451.79" cy="86.35" r="8.91"/><circle class="cls-1" cx="474.07" cy="86.35" r="9.08"/><circle class="cls-1" cx="496.35" cy="86.35" r="9.26"/><circle class="cls-1" cx="518.63" cy="86.35" r="9.43"/><circle class="cls-1" cx="540.92" cy="86.35" r="9.61"/><circle class="cls-1" cx="563.2" cy="86.35" r="9.78"/><circle class="cls-1" cx="585.48" cy="86.35" r="9.96"/><circle class="cls-1" cx="607.76" cy="86.35" r="10.13"/><circle class="cls-1" cx="630.04" cy="86.35" r="10.3"/><circle class="cls-1" cx="652.32" cy="86.35" r="10.48"/><circle class="cls-1" cx="674.6" cy="86.35" r="10.65"/><circle class="cls-1" cx="696.88" cy="86.35" r="10.83"/><circle class="cls-1" cx="719.16" cy="86.35" r="11"/><circle class="cls-1" cx="741.45" cy="86.35" r="11.18"/><circle class="cls-1" cx="763.73" cy="86.35" r="11.35"/><circle class="cls-1" cx="786.01" cy="86.35" r="11.53"/><circle class="cls-1" cx="808.29" cy="86.35" r="11.7"/><circle class="cls-1" cx="830.57" cy="86.35" r="11.87"/><circle class="cls-1" cx="852.85" cy="86.35" r="12.05"/><circle class="cls-1" cx="875.13" cy="86.35" r="12.22"/><circle class="cls-1" cx="897.41" cy="86.35" r="12.4"/><circle class="cls-1" cx="919.7" cy="86.35" r="12.57"/><circle class="cls-1" cx="941.98" cy="86.35" r="12.75"/><circle class="cls-1" cx="964.26" cy="86.35" r="12.92"/><circle class="cls-1" cx="986.54" cy="86.35" r="13.1"/><circle class="cls-1" cx="1008.82" cy="86.35" r="13.27"/><circle class="cls-1" cx="1031.1" cy="86.35" r="13.44"/><circle class="cls-1" cx="6.17" cy="62.48" r="5.42"/><circle class="cls-1" cx="28.45" cy="62.48" r="5.59"/><circle class="cls-1" cx="50.73" cy="62.48" r="5.77"/><circle class="cls-1" cx="73.01" cy="62.48" r="5.94"/><circle class="cls-1" cx="95.29" cy="62.48" r="6.12"/><circle class="cls-1" cx="117.57" cy="62.48" r="6.29"/><circle class="cls-1" cx="139.86" cy="62.48" r="6.47"/><circle class="cls-1" cx="162.14" cy="62.48" r="6.64"/><circle class="cls-1" cx="184.42" cy="62.48" r="6.81"/><circle class="cls-1" cx="206.7" cy="62.48" r="6.99"/><circle class="cls-1" cx="228.98" cy="62.48" r="7.16"/><circle class="cls-1" cx="251.26" cy="62.48" r="7.34"/><circle class="cls-1" cx="273.54" cy="62.48" r="7.51"/><circle class="cls-1" cx="295.82" cy="62.48" r="7.69"/><circle class="cls-1" cx="318.1" cy="62.48" r="7.86"/><circle class="cls-1" cx="340.39" cy="62.48" r="8.04"/><circle class="cls-1" cx="362.67" cy="62.48" r="8.21"/><circle class="cls-1" cx="384.95" cy="62.48" r="8.38"/><circle class="cls-1" cx="407.23" cy="62.48" r="8.56"/><circle class="cls-1" cx="429.51" cy="62.48" r="8.73"/><circle class="cls-1" cx="451.79" cy="62.48" r="8.91"/><circle class="cls-1" cx="474.07" cy="62.48" r="9.08"/><circle class="cls-1" cx="496.35" cy="62.48" r="9.26"/><circle class="cls-1" cx="518.63" cy="62.48" r="9.43"/><circle class="cls-1" cx="540.92" cy="62.48" r="9.61"/><circle class="cls-1" cx="563.2" cy="62.48" r="9.78"/><circle class="cls-1" cx="585.48" cy="62.48" r="9.96"/><circle class="cls-1" cx="607.76" cy="62.48" r="10.13"/><circle class="cls-1" cx="630.04" cy="62.48" r="10.3"/><circle class="cls-1" cx="652.32" cy="62.48" r="10.48"/><circle class="cls-1" cx="674.6" cy="62.48" r="10.65"/><circle class="cls-1" cx="696.88" cy="62.48" r="10.83"/><circle class="cls-1" cx="719.16" cy="62.48" r="11"/><circle class="cls-1" cx="741.45" cy="62.48" r="11.18"/><circle class="cls-1" cx="763.73" cy="62.48" r="11.35"/><circle class="cls-1" cx="786.01" cy="62.48" r="11.53"/><circle class="cls-1" cx="808.29" cy="62.48" r="11.7"/><circle class="cls-1" cx="830.57" cy="62.48" r="11.87"/><circle class="cls-1" cx="852.85" cy="62.48" r="12.05"/><circle class="cls-1" cx="875.13" cy="62.48" r="12.22"/><circle class="cls-1" cx="897.41" cy="62.48" r="12.4"/><circle class="cls-1" cx="919.7" cy="62.48" r="12.57"/><circle class="cls-1" cx="941.98" cy="62.48" r="12.75"/><circle class="cls-1" cx="964.26" cy="62.48" r="12.92"/><circle class="cls-1" cx="986.54" cy="62.48" r="13.1"/><circle class="cls-1" cx="1008.82" cy="62.48" r="13.27"/><circle class="cls-1" cx="1031.1" cy="62.48" r="13.44"/><circle class="cls-1" cx="6.17" cy="38.08" r="5.42"/><circle class="cls-1" cx="28.45" cy="38.08" r="5.59"/><circle class="cls-1" cx="50.73" cy="38.08" r="5.77"/><circle class="cls-1" cx="73.01" cy="38.08" r="5.94"/><circle class="cls-1" cx="95.29" cy="38.08" r="6.12"/><circle class="cls-1" cx="117.57" cy="38.08" r="6.29"/><circle class="cls-1" cx="139.86" cy="38.08" r="6.47"/><circle class="cls-1" cx="162.14" cy="38.08" r="6.64"/><circle class="cls-1" cx="184.42" cy="38.08" r="6.81"/><circle class="cls-1" cx="206.7" cy="38.08" r="6.99"/><circle class="cls-1" cx="228.98" cy="38.08" r="7.16"/><circle class="cls-1" cx="251.26" cy="38.08" r="7.34"/><circle class="cls-1" cx="273.54" cy="38.08" r="7.51"/><circle class="cls-1" cx="295.82" cy="38.08" r="7.69"/><circle class="cls-1" cx="318.1" cy="38.08" r="7.86"/><circle class="cls-1" cx="340.39" cy="38.08" r="8.04"/><circle class="cls-1" cx="362.67" cy="38.08" r="8.21"/><circle class="cls-1" cx="384.95" cy="38.08" r="8.38"/><circle class="cls-1" cx="407.23" cy="38.08" r="8.56"/><circle class="cls-1" cx="429.51" cy="38.08" r="8.73"/><circle class="cls-1" cx="451.79" cy="38.08" r="8.91"/><circle class="cls-1" cx="474.07" cy="38.08" r="9.08"/><circle class="cls-1" cx="496.35" cy="38.08" r="9.26"/><circle class="cls-1" cx="518.63" cy="38.08" r="9.43"/><circle class="cls-1" cx="540.92" cy="38.08" r="9.61"/><circle class="cls-1" cx="563.2" cy="38.08" r="9.78"/><circle class="cls-1" cx="585.48" cy="38.08" r="9.96"/><circle class="cls-1" cx="607.76" cy="38.08" r="10.13"/><circle class="cls-1" cx="630.04" cy="38.08" r="10.3"/><circle class="cls-1" cx="652.32" cy="38.08" r="10.48"/><circle class="cls-1" cx="674.6" cy="38.08" r="10.65"/><circle class="cls-1" cx="696.88" cy="38.08" r="10.83"/><circle class="cls-1" cx="719.16" cy="38.08" r="11"/><circle class="cls-1" cx="741.45" cy="38.08" r="11.18"/><circle class="cls-1" cx="763.73" cy="38.08" r="11.35"/><circle class="cls-1" cx="786.01" cy="38.08" r="11.53"/><circle class="cls-1" cx="808.29" cy="38.08" r="11.7"/><circle class="cls-1" cx="830.57" cy="38.08" r="11.87"/><circle class="cls-1" cx="852.85" cy="38.08" r="12.05"/><circle class="cls-1" cx="875.13" cy="38.08" r="12.22"/><circle class="cls-1" cx="897.41" cy="38.08" r="12.4"/><circle class="cls-1" cx="919.7" cy="38.08" r="12.57"/><circle class="cls-1" cx="941.98" cy="38.08" r="12.75"/><circle class="cls-1" cx="964.26" cy="38.08" r="12.92"/><circle class="cls-1" cx="986.54" cy="38.08" r="13.1"/><circle class="cls-1" cx="1008.82" cy="38.08" r="13.27"/><circle class="cls-1" cx="1031.1" cy="38.08" r="13.44"/><circle class="cls-1" cx="6.17" cy="14.19" r="5.42"/><circle class="cls-1" cx="28.45" cy="14.19" r="5.59"/><circle class="cls-1" cx="50.73" cy="14.19" r="5.77"/><circle class="cls-1" cx="73.01" cy="14.19" r="5.94"/><circle class="cls-1" cx="95.29" cy="14.19" r="6.12"/><circle class="cls-1" cx="117.57" cy="14.19" r="6.29"/><circle class="cls-1" cx="139.86" cy="14.19" r="6.47"/><circle class="cls-1" cx="162.14" cy="14.19" r="6.64"/><circle class="cls-1" cx="184.42" cy="14.19" r="6.81"/><circle class="cls-1" cx="206.7" cy="14.19" r="6.99"/><circle class="cls-1" cx="228.98" cy="14.19" r="7.16"/><circle class="cls-1" cx="251.26" cy="14.19" r="7.34"/><circle class="cls-1" cx="273.54" cy="14.19" r="7.51"/><circle class="cls-1" cx="295.82" cy="14.19" r="7.69"/><circle class="cls-1" cx="318.1" cy="14.19" r="7.86"/><circle class="cls-1" cx="340.39" cy="14.19" r="8.04"/><circle class="cls-1" cx="362.67" cy="14.19" r="8.21"/><circle class="cls-1" cx="384.95" cy="14.19" r="8.38"/><circle class="cls-1" cx="407.23" cy="14.19" r="8.56"/><circle class="cls-1" cx="429.51" cy="14.19" r="8.73"/><circle class="cls-1" cx="451.79" cy="14.19" r="8.91"/><circle class="cls-1" cx="474.07" cy="14.19" r="9.08"/><circle class="cls-1" cx="496.35" cy="14.19" r="9.26"/><circle class="cls-1" cx="518.63" cy="14.19" r="9.43"/><circle class="cls-1" cx="540.92" cy="14.19" r="9.61"/><circle class="cls-1" cx="563.2" cy="14.19" r="9.78"/><circle class="cls-1" cx="585.48" cy="14.19" r="9.96"/><circle class="cls-1" cx="607.76" cy="14.19" r="10.13"/><circle class="cls-1" cx="630.04" cy="14.19" r="10.3"/><circle class="cls-1" cx="652.32" cy="14.19" r="10.48"/><circle class="cls-1" cx="674.6" cy="14.19" r="10.65"/><circle class="cls-1" cx="696.88" cy="14.19" r="10.83"/><circle class="cls-1" cx="719.16" cy="14.19" r="11"/><circle class="cls-1" cx="741.45" cy="14.19" r="11.18"/><circle class="cls-1" cx="763.73" cy="14.19" r="11.35"/><circle class="cls-1" cx="786.01" cy="14.19" r="11.53"/><circle class="cls-1" cx="808.29" cy="14.19" r="11.7"/><circle class="cls-1" cx="830.57" cy="14.19" r="11.87"/><circle class="cls-1" cx="852.85" cy="14.19" r="12.05"/><circle class="cls-1" cx="875.13" cy="14.19" r="12.22"/><circle class="cls-1" cx="897.41" cy="14.19" r="12.4"/><circle class="cls-1" cx="919.7" cy="14.19" r="12.57"/><circle class="cls-1" cx="941.98" cy="14.19" r="12.75"/><circle class="cls-1" cx="964.26" cy="14.19" r="12.92"/><circle class="cls-1" cx="986.54" cy="14.19" r="13.1"/><circle class="cls-1" cx="1008.82" cy="14.19" r="13.27"/><circle class="cls-1" cx="1031.1" cy="14.19" r="13.44"/></g></g></svg>