<svg xmlns="http://www.w3.org/2000/svg" viewBox="0 0 1296.08 240.58"><defs><style>.cls-1{fill:#0e0c05;stroke:#0e0c05;stroke-width:1.5px;}</style></defs><title>circles</title><g id="Layer_2" data-name="Layer 2"><g id="Layer_1-2" data-name="Layer 1"><circle class="cls-1" cx="6.17" cy="229.41" r="5.42"/><circle class="cls-1" cx="25.54" cy="229.41" r="5.49"/><circle class="cls-1" cx="44.92" cy="229.41" r="5.57"/><circle class="cls-1" cx="64.29" cy="229.41" r="5.65"/><circle class="cls-1" cx="83.67" cy="229.41" r="5.72"/><circle class="cls-1" cx="103.04" cy="229.41" r="5.8"/><circle class="cls-1" cx="122.42" cy="229.41" r="5.87"/><circle class="cls-1" cx="141.79" cy="229.41" r="5.95"/><circle class="cls-1" cx="161.17" cy="229.41" r="6.02"/><circle class="cls-1" cx="180.54" cy="229.41" r="6.1"/><circle class="cls-1" cx="199.92" cy="229.41" r="6.18"/><circle class="cls-1" cx="219.29" cy="229.41" r="6.25"/><circle class="cls-1" cx="238.67" cy="229.41" r="6.33"/><circle class="cls-1" cx="258.04" cy="229.41" r="6.4"/><circle class="cls-1" cx="277.42" cy="229.41" r="6.48"/><circle class="cls-1" cx="296.79" cy="229.41" r="6.56"/><circle class="cls-1" cx="316.17" cy="229.41" r="6.63"/><circle class="cls-1" cx="335.54" cy="229.41" r="6.71"/><circle class="cls-1" cx="354.92" cy="229.41" r="6.78"/><circle class="cls-1" cx="374.29" cy="229.41" r="6.86"/><circle class="cls-1" cx="393.67" cy="229.41" r="6.93"/><circle class="cls-1" cx="413.04" cy="229.41" r="7.01"/><circle class="cls-1" cx="432.42" cy="229.41" r="7.09"/><circle class="cls-1" cx="451.79" cy="229.41" r="7.16"/><circle class="cls-1" cx="471.17" cy="229.41" r="7.24"/><circle class="cls-1" cx="490.54" cy="229.41" r="7.31"/><circle class="cls-1" cx="509.92" cy="229.41" r="7.39"/><circle class="cls-1" cx="529.29" cy="229.41" r="7.46"/><circle class="cls-1" cx="548.67" cy="229.41" r="7.54"/><circle class="cls-1" cx="568.04" cy="229.41" r="7.62"/><circle class="cls-1" cx="587.41" cy="229.41" r="7.69"/><circle class="cls-1" cx="606.79" cy="229.41" r="7.77"/><circle class="cls-1" cx="626.16" cy="229.41" r="7.84"/><circle class="cls-1" cx="645.54" cy="229.41" r="7.92"/><circle class="cls-1" cx="664.91" cy="229.41" r="8"/><circle class="cls-1" cx="684.29" cy="229.41" r="8.07"/><circle class="cls-1" cx="703.66" cy="229.41" r="8.15"/><circle class="cls-1" cx="723.04" cy="229.41" r="8.22"/><circle class="cls-1" cx="742.41" cy="229.41" r="8.3"/><circle class="cls-1" cx="761.79" cy="229.41" r="8.37"/><circle class="cls-1" cx="781.16" cy="229.41" r="8.45"/><circle class="cls-1" cx="800.54" cy="229.41" r="8.53"/><circle class="cls-1" cx="819.91" cy="229.41" r="8.6"/><circle class="cls-1" cx="839.29" cy="229.41" r="8.68"/><circle class="cls-1" cx="858.66" cy="229.41" r="8.75"/><circle class="cls-1" cx="878.04" cy="229.41" r="8.83"/><circle class="cls-1" cx="897.41" cy="229.41" r="8.9"/><circle class="cls-1" cx="916.79" cy="229.41" r="8.98"/><circle class="cls-1" cx="936.16" cy="229.41" r="9.06"/><circle class="cls-1" cx="955.54" cy="229.41" r="9.13"/><circle class="cls-1" cx="974.91" cy="229.41" r="9.21"/><circle class="cls-1" cx="994.29" cy="229.41" r="9.28"/><circle class="cls-1" cx="1013.66" cy="229.41" r="9.36"/><circle class="cls-1" cx="1033.04" cy="229.41" r="9.43"/><circle class="cls-1" cx="1052.41" cy="229.41" r="9.51"/><circle class="cls-1" cx="1071.79" cy="229.41" r="9.59"/><circle class="cls-1" cx="1091.16" cy="229.41" r="9.66"/><circle class="cls-1" cx="1110.54" cy="229.41" r="9.74"/><circle class="cls-1" cx="1129.91" cy="229.41" r="9.81"/><circle class="cls-1" cx="1149.29" cy="229.41" r="9.89"/><circle class="cls-1" cx="1168.66" cy="229.41" r="9.97"/><circle class="cls-1" cx="1188.04" cy="229.41" r="10.04"/><circle class="cls-1" cx="1207.41" cy="229.41" r="10.12"/><circle class="cls-1" cx="1226.79" cy="229.41" r="10.19"/><circle class="cls-1" cx="1246.16" cy="229.41" r="10.27"/><circle class="cls-1" cx="1265.54" cy="229.41" r="10.34"/><circle class="cls-1" cx="1284.91" cy="229.41" r="10.42"/><circle class="cls-1" cx="6.17" cy="209.57" r="5.42"/><circle class="cls-1" cx="25.54" cy="209.57" r="5.49"/><circle class="cls-1" cx="44.92" cy="209.57" r="5.57"/><circle class="cls-1" cx="64.29" cy="209.57" r="5.65"/><circle class="cls-1" cx="83.67" cy="209.57" r="5.72"/><circle class="cls-1" cx="103.04" cy="209.57" r="5.8"/><circle class="cls-1" cx="122.42" cy="209.57" r="5.87"/><circle class="cls-1" cx="141.79" cy="209.57" r="5.95"/><circle class="cls-1" cx="161.17" cy="209.57" r="6.02"/><circle class="cls-1" cx="180.54" cy="209.57" r="6.1"/><circle class="cls-1" cx="199.92" cy="209.57" r="6.18"/><circle class="cls-1" cx="219.29" cy="209.57" r="6.25"/><circle class="cls-1" cx="238.67" cy="209.57" r="6.33"/><circle class="cls-1" cx="258.04" cy="209.57" r="6.4"/><circle class="cls-1" cx="277.42" cy="209.57" r="6.48"/><circle class="cls-1" cx="296.79" cy="209.57" r="6.56"/><circle class="cls-1" cx="316.17" cy="209.57" r="6.63"/><circle class="cls-1" cx="335.54" cy="209.57" r="6.71"/><circle class="cls-1" cx="354.92" cy="209.57" r="6.78"/><circle class="cls-1" cx="374.29" cy="209.57" r="6.86"/><circle class="cls-1" cx="393.67" cy="209.57" r="6.93"/><circle class="cls-1" cx="413.04" cy="209.57" r="7.01"/><circle class="cls-1" cx="432.42" cy="209.57" r="7.09"/><circle class="cls-1" cx="451.79" cy="209.57" r="7.16"/><circle class="cls-1" cx="471.17" cy="209.57" r="7.24"/><circle class="cls-1" cx="490.54" cy="209.57" r="7.31"/><circle class="cls-1" cx="509.92" cy="209.57" r="7.39"/><circle class="cls-1" cx="529.29" cy="209.57" r="7.46"/><circle class="cls-1" cx="548.67" cy="209.57" r="7.54"/><circle class="cls-1" cx="568.04" cy="209.57" r="7.62"/><circle class="cls-1" cx="587.41" cy="209.57" r="7.69"/><circle class="cls-1" cx="606.79" cy="209.57" r="7.77"/><circle class="cls-1" cx="626.16" cy="209.57" r="7.84"/><circle class="cls-1" cx="645.54" cy="209.57" r="7.92"/><circle class="cls-1" cx="664.91" cy="209.57" r="8"/><circle class="cls-1" cx="684.29" cy="209.57" r="8.07"/><circle class="cls-1" cx="703.66" cy="209.57" r="8.15"/><circle class="cls-1" cx="723.04" cy="209.57" r="8.22"/><circle class="cls-1" cx="742.41" cy="209.57" r="8.3"/><circle class="cls-1" cx="761.79" cy="209.57" r="8.37"/><circle class="cls-1" cx="781.16" cy="209.57" r="8.45"/><circle class="cls-1" cx="800.54" cy="209.57" r="8.53"/><circle class="cls-1" cx="819.91" cy="209.57" r="8.6"/><circle class="cls-1" cx="839.29" cy="209.57" r="8.68"/><circle class="cls-1" cx="858.66" cy="209.57" r="8.75"/><circle class="cls-1" cx="878.04" cy="209.57" r="8.83"/><circle class="cls-1" cx="897.41" cy="209.57" r="8.9"/><circle class="cls-1" cx="916.79" cy="209.57" r="8.98"/><circle class="cls-1" cx="936.16" cy="209.57" r="9.06"/><circle class="cls-1" cx="955.54" cy="209.57" r="9.13"/><circle class="cls-1" cx="974.91" cy="209.57" r="9.21"/><circle class="cls-1" cx="994.29" cy="209.57" r="9.28"/><circle class="cls-1" cx="1013.66" cy="209.57" r="9.36"/><circle class="cls-1" cx="1033.04" cy="209.57" r="9.43"/><circle class="cls-1" cx="1052.41" cy="209.57" r="9.51"/><circle class="cls-1" cx="1071.79" cy="209.57" r="9.59"/><circle class="cls-1" cx="1091.16" cy="209.57" r="9.66"/><circle class="cls-1" cx="1110.54" cy="209.57" r="9.74"/><circle class="cls-1" cx="1129.91" cy="209.57" r="9.81"/><circle class="cls-1" cx="1149.29" cy="209.57" r="9.89"/><circle class="cls-1" cx="1168.66" cy="209.57" r="9.97"/><circle class="cls-1" cx="1188.04" cy="209.57" r="10.04"/><circle class="cls-1" cx="1207.41" cy="209.57" r="10.12"/><circle class="cls-1" cx="1226.79" cy="209.57" r="10.19"/><circle class="cls-1" cx="1246.16" cy="209.57" r="10.27"/><circle class="cls-1" cx="1265.54" cy="209.57" r="10.34"/><circle class="cls-1" cx="1284.91" cy="209.57" r="10.42"/><circle class="cls-1" cx="6.17" cy="189.73" r="5.42"/><circle class="cls-1" cx="25.54" cy="189.73" r="5.49"/><circle class="cls-1" cx="44.92" cy="189.73" r="5.57"/><circle class="cls-1" cx="64.29" cy="189.73" r="5.65"/><circle class="cls-1" cx="83.67" cy="189.73" r="5.72"/><circle class="cls-1" cx="103.04" cy="189.73" r="5.8"/><circle class="cls-1" cx="122.42" cy="189.73" r="5.87"/><circle class="cls-1" cx="141.79" cy="189.73" r="5.95"/><circle class="cls-1" cx="161.17" cy="189.73" r="6.02"/><circle class="cls-1" cx="180.54" cy="189.73" r="6.1"/><circle class="cls-1" cx="199.92" cy="189.73" r="6.18"/><circle class="cls-1" cx="219.29" cy="189.73" r="6.25"/><circle class="cls-1" cx="238.67" cy="189.73" r="6.33"/><circle class="cls-1" cx="258.04" cy="189.73" r="6.4"/><circle class="cls-1" cx="277.42" cy="189.73" r="6.48"/><circle class="cls-1" cx="296.79" cy="189.73" r="6.56"/><circle class="cls-1" cx="316.17" cy="189.73" r="6.63"/><circle class="cls-1" cx="335.54" cy="189.73" r="6.71"/><circle class="cls-1" cx="354.92" cy="189.73" r="6.78"/><circle class="cls-1" cx="374.29" cy="189.73" r="6.86"/><circle class="cls-1" cx="393.67" cy="189.73" r="6.93"/><circle class="cls-1" cx="413.04" cy="189.73" r="7.01"/><circle class="cls-1" cx="432.42" cy="189.73" r="7.09"/><circle class="cls-1" cx="451.79" cy="189.73" r="7.16"/><circle class="cls-1" cx="471.17" cy="189.73" r="7.24"/><circle class="cls-1" cx="490.54" cy="189.73" r="7.31"/><circle class="cls-1" cx="509.92" cy="189.73" r="7.39"/><circle class="cls-1" cx="529.29" cy="189.73" r="7.46"/><circle class="cls-1" cx="548.67" cy="189.73" r="7.54"/><circle class="cls-1" cx="568.04" cy="189.73" r="7.62"/><circle class="cls-1" cx="587.41" cy="189.73" r="7.69"/><circle class="cls-1" cx="606.79" cy="189.73" r="7.77"/><circle class="cls-1" cx="626.16" cy="189.73" r="7.84"/><circle class="cls-1" cx="645.54" cy="189.73" r="7.92"/><circle class="cls-1" cx="664.91" cy="189.73" r="8"/><circle class="cls-1" cx="684.29" cy="189.73" r="8.07"/><circle class="cls-1" cx="703.66" cy="189.73" r="8.15"/><circle class="cls-1" cx="723.04" cy="189.73" r="8.22"/><circle class="cls-1" cx="742.41" cy="189.73" r="8.3"/><circle class="cls-1" cx="761.79" cy="189.73" r="8.37"/><circle class="cls-1" cx="781.16" cy="189.73" r="8.45"/><circle class="cls-1" cx="800.54" cy="189.73" r="8.53"/><circle class="cls-1" cx="819.91" cy="189.73" r="8.6"/><circle class="cls-1" cx="839.29" cy="189.73" r="8.68"/><circle class="cls-1" cx="858.66" cy="189.73" r="8.75"/><circle class="cls-1" cx="878.04" cy="189.73" r="8.83"/><circle class="cls-1" cx="897.41" cy="189.73" r="8.9"/><circle class="cls-1" cx="916.79" cy="189.73" r="8.98"/><circle class="cls-1" cx="936.16" cy="189.73" r="9.06"/><circle class="cls-1" cx="955.54" cy="189.73" r="9.13"/><circle class="cls-1" cx="974.91" cy="189.73" r="9.21"/><circle class="cls-1" cx="994.29" cy="189.73" r="9.28"/><circle class="cls-1" cx="1013.66" cy="189.73" r="9.36"/><circle class="cls-1" cx="1033.04" cy="189.73" r="9.43"/><circle class="cls-1" cx="1052.41" cy="189.73" r="9.51"/><circle class="cls-1" cx="1071.79" cy="189.73" r="9.59"/><circle class="cls-1" cx="1091.16" cy="189.73" r="9.66"/><circle class="cls-1" cx="1110.54" cy="189.73" r="9.74"/><circle class="cls-1" cx="1129.91" cy="189.73" r="9.81"/><circle class="cls-1" cx="1149.29" cy="189.73" r="9.89"/><circle class="cls-1" cx="1168.66" cy="189.73" r="9.97"/><circle class="cls-1" cx="1188.04" cy="189.73" r="10.04"/><circle class="cls-1" cx="1207.41" cy="189.73" r="10.12"/><circle class="cls-1" cx="1226.79" cy="189.73" r="10.19"/><circle class="cls-1" cx="1246.16" cy="189.73" r="10.27"/><circle class="cls-1" cx="1265.54" cy="189.73" r="10.34"/><circle class="cls-1" cx="1284.91" cy="189.73" r="10.42"/><circle class="cls-1" cx="6.17" cy="169.89" r="5.42"/><circle class="cls-1" cx="25.54" cy="169.89" r="5.49"/><circle class="cls-1" cx="44.92" cy="169.89" r="5.57"/><circle class="cls-1" cx="64.29" cy="169.89" r="5.65"/><circle class="cls-1" cx="83.67" cy="169.89" r="5.72"/><circle class="cls-1" cx="103.04" cy="169.89" r="5.8"/><circle class="cls-1" cx="122.42" cy="169.89" r="5.87"/><circle class="cls-1" cx="141.79" cy="169.89" r="5.95"/><circle class="cls-1" cx="161.17" cy="169.89" r="6.02"/><circle class="cls-1" cx="180.54" cy="169.89" r="6.1"/><circle class="cls-1" cx="199.92" cy="169.89" r="6.18"/><circle class="cls-1" cx="219.29" cy="169.89" r="6.25"/><circle class="cls-1" cx="238.67" cy="169.89" r="6.33"/><circle class="cls-1" cx="258.04" cy="169.89" r="6.4"/><circle class="cls-1" cx="277.42" cy="169.89" r="6.48"/><circle class="cls-1" cx="296.79" cy="169.89" r="6.56"/><circle class="cls-1" cx="316.17" cy="169.89" r="6.63"/><circle class="cls-1" cx="335.54" cy="169.89" r="6.71"/><circle class="cls-1" cx="354.92" cy="169.89" r="6.78"/><circle class="cls-1" cx="374.29" cy="169.89" r="6.86"/><circle class="cls-1" cx="393.67" cy="169.89" r="6.93"/><circle class="cls-1" cx="413.04" cy="169.89" r="7.01"/><circle class="cls-1" cx="432.42" cy="169.89" r="7.09"/><circle class="cls-1" cx="451.79" cy="169.89" r="7.16"/><circle class="cls-1" cx="471.17" cy="169.89" r="7.24"/><circle class="cls-1" cx="490.54" cy="169.89" r="7.31"/><circle class="cls-1" cx="509.92" cy="169.89" r="7.39"/><circle class="cls-1" cx="529.29" cy="169.89" r="7.46"/><circle class="cls-1" cx="548.67" cy="169.89" r="7.54"/><circle class="cls-1" cx="568.04" cy="169.89" r="7.62"/><circle class="cls-1" cx="587.41" cy="169.89" r="7.69"/><circle class="cls-1" cx="606.79" cy="169.89" r="7.77"/><circle class="cls-1" cx="626.16" cy="169.89" r="7.84"/><circle class="cls-1" cx="645.54" cy="169.89" r="7.92"/><circle class="cls-1" cx="664.91" cy="169.89" r="8"/><circle class="cls-1" cx="684.29" cy="169.89" r="8.07"/><circle class="cls-1" cx="703.66" cy="169.89" r="8.15"/><circle class="cls-1" cx="723.04" cy="169.89" r="8.22"/><circle class="cls-1" cx="742.41" cy="169.89" r="8.3"/><circle class="cls-1" cx="761.79" cy="169.89" r="8.37"/><circle class="cls-1" cx="781.16" cy="169.89" r="8.45"/><circle class="cls-1" cx="800.54" cy="169.89" r="8.53"/><circle class="cls-1" cx="819.91" cy="169.89" r="8.6"/><circle class="cls-1" cx="839.29" cy="169.89" r="8.68"/><circle class="cls-1" cx="858.66" cy="169.89" r="8.75"/><circle class="cls-1" cx="878.04" cy="169.89" r="8.83"/><circle class="cls-1" cx="897.41" cy="169.89" r="8.9"/><circle class="cls-1" cx="916.79" cy="169.89" r="8.98"/><circle class="cls-1" cx="936.16" cy="169.89" r="9.06"/><circle class="cls-1" cx="955.54" cy="169.89" r="9.13"/><circle class="cls-1" cx="974.91" cy="169.89" r="9.21"/><circle class="cls-1" cx="994.29" cy="169.89" r="9.28"/><circle class="cls-1" cx="1013.66" cy="169.89" r="9.36"/><circle class="cls-1" cx="1033.04" cy="169.89" r="9.43"/><circle class="cls-1" cx="1052.41" cy="169.89" r="9.51"/><circle class="cls-1" cx="1071.79" cy="169.89" r="9.59"/><circle class="cls-1" cx="1091.16" cy="169.89" r="9.66"/><circle class="cls-1" cx="1110.54" cy="169.89" r="9.74"/><circle class="cls-1" cx="1129.91" cy="169.89" r="9.81"/><circle class="cls-1" cx="1149.29" cy="169.89" r="9.89"/><circle class="cls-1" cx="1168.66" cy="169.89" r="9.97"/><circle class="cls-1" cx="1188.04" cy="169.89" r="10.04"/><circle class="cls-1" cx="1207.41" cy="169.89" r="10.12"/><circle class="cls-1" cx="1226.79" cy="169.89" r="10.19"/><circle class="cls-1" cx="1246.16" cy="169.89" r="10.27"/><circle class="cls-1" cx="1265.54" cy="169.89" r="10.34"/><circle class="cls-1" cx="1284.91" cy="169.89" r="10.42"/><circle class="cls-1" cx="6.17" cy="150.05" r="5.42"/><circle class="cls-1" cx="25.54" cy="150.05" r="5.49"/><circle class="cls-1" cx="44.92" cy="150.05" r="5.57"/><circle class="cls-1" cx="64.29" cy="150.05" r="5.65"/><circle class="cls-1" cx="83.67" cy="150.05" r="5.72"/><circle class="cls-1" cx="103.04" cy="150.05" r="5.8"/><circle class="cls-1" cx="122.42" cy="150.05" r="5.87"/><circle class="cls-1" cx="141.79" cy="150.05" r="5.95"/><circle class="cls-1" cx="161.17" cy="150.05" r="6.02"/><circle class="cls-1" cx="180.54" cy="150.05" r="6.1"/><circle class="cls-1" cx="199.92" cy="150.05" r="6.18"/><circle class="cls-1" cx="219.29" cy="150.05" r="6.25"/><circle class="cls-1" cx="238.67" cy="150.05" r="6.33"/><circle class="cls-1" cx="258.04" cy="150.05" r="6.4"/><circle class="cls-1" cx="277.42" cy="150.05" r="6.48"/><circle class="cls-1" cx="296.79" cy="150.05" r="6.56"/><circle class="cls-1" cx="316.17" cy="150.05" r="6.63"/><circle class="cls-1" cx="335.54" cy="150.05" r="6.71"/><circle class="cls-1" cx="354.92" cy="150.05" r="6.78"/><circle class="cls-1" cx="374.29" cy="150.05" r="6.86"/><circle class="cls-1" cx="393.67" cy="150.05" r="6.93"/><circle class="cls-1" cx="413.04" cy="150.05" r="7.01"/><circle class="cls-1" cx="432.42" cy="150.05" r="7.09"/><circle class="cls-1" cx="451.79" cy="150.05" r="7.16"/><circle class="cls-1" cx="471.17" cy="150.05" r="7.24"/><circle class="cls-1" cx="490.54" cy="150.05" r="7.31"/><circle class="cls-1" cx="509.92" cy="150.05" r="7.39"/><circle class="cls-1" cx="529.29" cy="150.05" r="7.46"/><circle class="cls-1" cx="548.67" cy="150.05" r="7.54"/><circle class="cls-1" cx="568.04" cy="150.05" r="7.62"/><circle class="cls-1" cx="587.41" cy="150.05" r="7.69"/><circle class="cls-1" cx="606.79" cy="150.05" r="7.77"/><circle class="cls-1" cx="626.16" cy="150.05" r="7.84"/><circle class="cls-1" cx="645.54" cy="150.05" r="7.92"/><circle class="cls-1" cx="664.91" cy="150.05" r="8"/><circle class="cls-1" cx="684.29" cy="150.05" r="8.07"/><circle class="cls-1" cx="703.66" cy="150.05" r="8.15"/><circle class="cls-1" cx="723.04" cy="150.05" r="8.22"/><circle class="cls-1" cx="742.41" cy="150.05" r="8.3"/><circle class="cls-1" cx="761.79" cy="150.05" r="8.37"/><circle class="cls-1" cx="781.16" cy="150.05" r="8.45"/><circle class="cls-1" cx="800.54" cy="150.05" r="8.53"/><circle class="cls-1" cx="819.91" cy="150.05" r="8.6"/><circle class="cls-1" cx="839.29" cy="150.05" r="8.68"/><circle class="cls-1" cx="858.66" cy="150.05" r="8.75"/><circle class="cls-1" cx="878.04" cy="150.05" r="8.83"/><circle class="cls-1" cx="897.41" cy="150.05" r="8.9"/><circle class="cls-1" cx="916.79" cy="150.05" r="8.98"/><circle class="cls-1" cx="936.16" cy="150.05" r="9.06"/><circle class="cls-1" cx="955.54" cy="150.05" r="9.13"/><circle class="cls-1" cx="974.91" cy="150.05" r="9.21"/><circle class="cls-1" cx="994.29" cy="150.05" r="9.28"/><circle class="cls-1" cx="1013.66" cy="150.05" r="9.36"/><circle class="cls-1" cx="1033.04" cy="150.05" r="9.43"/><circle class="cls-1" cx="1052.41" cy="150.05" r="9.51"/><circle class="cls-1" cx="1071.79" cy="150.05" r="9.59"/><circle class="cls-1" cx="1091.16" cy="150.05" r="9.66"/><circle class="cls-1" cx="1110.54" cy="150.05" r="9.74"/><circle class="cls-1" cx="1129.91" cy="150.05" r="9.81"/><circle class="cls-1" cx="1149.29" cy="150.05" r="9.89"/><circle class="cls-1" cx="1168.66" cy="150.05" r="9.97"/><circle class="cls-1" cx="1188.04" cy="150.05" r="10.04"/><circle class="cls-1" cx="1207.41" cy="150.05" r="10.12"/><circle class="cls-1" cx="1226.79" cy="150.05" r="10.19"/><circle class="cls-1" cx="1246.16" cy="150.05" r="10.27"/><circle class="cls-1" cx="1265.54" cy="150.05" r="10.34"/><circle class="cls-1" cx="1284.91" cy="150.05" r="10.42"/><circle class="cls-1" cx="6.17" cy="130.21" r="5.42"/><circle class="cls-1" cx="25.54" cy="130.21" r="5.49"/><circle class="cls-1" cx="44.92" cy="130.21" r="5.57"/><circle class="cls-1" cx="64.29" cy="130.21" r="5.65"/><circle class="cls-1" cx="83.67" cy="130.21" r="5.72"/><circle class="cls-1" cx="103.04" cy="130.21" r="5.8"/><circle class="cls-1" cx="122.42" cy="130.21" r="5.87"/><circle class="cls-1" cx="141.79" cy="130.21" r="5.95"/><circle class="cls-1" cx="161.17" cy="130.21" r="6.02"/><circle class="cls-1" cx="180.54" cy="130.21" r="6.1"/><circle class="cls-1" cx="199.92" cy="130.21" r="6.18"/><circle class="cls-1" cx="219.29" cy="130.21" r="6.25"/><circle class="cls-1" cx="238.67" cy="130.21" r="6.33"/><circle class="cls-1" cx="258.04" cy="130.21" r="6.4"/><circle class="cls-1" cx="277.42" cy="130.21" r="6.48"/><circle class="cls-1" cx="296.79" cy="130.21" r="6.56"/><circle class="cls-1" cx="316.17" cy="130.21" r="6.63"/><circle class="cls-1" cx="335.54" cy="130.21" r="6.71"/><circle class="cls-1" cx="354.92" cy="130.21" r="6.78"/><circle class="cls-1" cx="374.29" cy="130.21" r="6.86"/><circle class="cls-1" cx="393.67" cy="130.21" r="6.93"/><circle class="cls-1" cx="413.04" cy="130.21" r="7.01"/><circle class="cls-1" cx="432.42" cy="130.21" r="7.09"/><circle class="cls-1" cx="451.79" cy="130.21" r="7.16"/><circle class="cls-1" cx="471.17" cy="130.21" r="7.24"/><circle class="cls-1" cx="490.54" cy="130.21" r="7.31"/><circle class="cls-1" cx="509.92" cy="130.21" r="7.39"/><circle class="cls-1" cx="529.29" cy="130.21" r="7.46"/><circle class="cls-1" cx="548.67" cy="130.21" r="7.54"/><circle class="cls-1" cx="568.04" cy="130.21" r="7.62"/><circle class="cls-1" cx="587.41" cy="130.21" r="7.69"/><circle class="cls-1" cx="606.79" cy="130.21" r="7.77"/><circle class="cls-1" cx="626.16" cy="130.21" r="7.84"/><circle class="cls-1" cx="645.54" cy="130.21" r="7.92"/><circle class="cls-1" cx="664.91" cy="130.21" r="8"/><circle class="cls-1" cx="684.29" cy="130.21" r="8.07"/><circle class="cls-1" cx="703.66" cy="130.21" r="8.15"/><circle class="cls-1" cx="723.04" cy="130.21" r="8.22"/><circle class="cls-1" cx="742.41" cy="130.21" r="8.3"/><circle class="cls-1" cx="761.79" cy="130.21" r="8.37"/><circle class="cls-1" cx="781.16" cy="130.21" r="8.45"/><circle class="cls-1" cx="800.54" cy="130.21" r="8.53"/><circle class="cls-1" cx="819.91" cy="130.21" r="8.6"/><circle class="cls-1" cx="839.29" cy="130.21" r="8.68"/><circle class="cls-1" cx="858.66" cy="130.21" r="8.75"/><circle class="cls-1" cx="878.04" cy="130.21" r="8.83"/><circle class="cls-1" cx="897.41" cy="130.21" r="8.9"/><circle class="cls-1" cx="916.79" cy="130.21" r="8.98"/><circle class="cls-1" cx="936.16" cy="130.21" r="9.06"/><circle class="cls-1" cx="955.54" cy="130.21" r="9.13"/><circle class="cls-1" cx="974.91" cy="130.21" r="9.21"/><circle class="cls-1" cx="994.29" cy="130.21" r="9.28"/><circle class="cls-1" cx="1013.66" cy="130.21" r="9.36"/><circle class="cls-1" cx="1033.04" cy="130.21" r="9.43"/><circle class="cls-1" cx="1052.41" cy="130.21" r="9.51"/><circle class="cls-1" cx="1071.79" cy="130.21" r="9.59"/><circle class="cls-1" cx="1091.16" cy="130.21" r="9.66"/><circle class="cls-1" cx="1110.54" cy="130.21" r="9.74"/><circle class="cls-1" cx="1129.91" cy="130.21" r="9.81"/><circle class="cls-1" cx="1149.29" cy="130.21" r="9.89"/><circle class="cls-1" cx="1168.66" cy="130.21" r="9.97"/><circle class="cls-1" cx="1188.04" cy="130.21" r="10.04"/><circle class="cls-1" cx="1207.41" cy="130.21" r="10.12"/><circle class="cls-1" cx="1226.79" cy="130.21" r="10.19"/><circle class="cls-1" cx="1246.16" cy="130.21" r="10.27"/><circle class="cls-1" cx="1265.54" cy="130.21" r="10.34"/><circle class="cls-1" cx="1284.91" cy="130.21" r="10.42"/><circle class="cls-1" cx="6.17" cy="110.37" r="5.42"/><circle class="cls-1" cx="25.54" cy="110.37" r="5.49"/><circle class="cls-1" cx="44.92" cy="110.37" r="5.57"/><circle class="cls-1" cx="64.29" cy="110.37" r="5.65"/><circle class="cls-1" cx="83.67" cy="110.37" r="5.72"/><circle class="cls-1" cx="103.04" cy="110.37" r="5.8"/><circle class="cls-1" cx="122.42" cy="110.37" r="5.87"/><circle class="cls-1" cx="141.79" cy="110.37" r="5.95"/><circle class="cls-1" cx="161.17" cy="110.37" r="6.02"/><circle class="cls-1" cx="180.54" cy="110.37" r="6.1"/><circle class="cls-1" cx="199.92" cy="110.37" r="6.18"/><circle class="cls-1" cx="219.29" cy="110.37" r="6.25"/><circle class="cls-1" cx="238.67" cy="110.37" r="6.33"/><circle class="cls-1" cx="258.04" cy="110.37" r="6.4"/><circle class="cls-1" cx="277.42" cy="110.37" r="6.48"/><circle class="cls-1" cx="296.79" cy="110.37" r="6.56"/><circle class="cls-1" cx="316.17" cy="110.37" r="6.63"/><circle class="cls-1" cx="335.54" cy="110.37" r="6.71"/><circle class="cls-1" cx="354.92" cy="110.37" r="6.78"/><circle class="cls-1" cx="374.29" cy="110.37" r="6.86"/><circle class="cls-1" cx="393.67" cy="110.37" r="6.93"/><circle class="cls-1" cx="413.04" cy="110.37" r="7.01"/><circle class="cls-1" cx="432.42" cy="110.37" r="7.09"/><circle class="cls-1" cx="451.79" cy="110.37" r="7.16"/><circle class="cls-1" cx="471.17" cy="110.37" r="7.24"/><circle class="cls-1" cx="490.54" cy="110.37" r="7.31"/><circle class="cls-1" cx="509.92" cy="110.37" r="7.39"/><circle class="cls-1" cx="529.29" cy="110.37" r="7.46"/><circle class="cls-1" cx="548.67" cy="110.37" r="7.54"/><circle class="cls-1" cx="568.04" cy="110.37" r="7.62"/><circle class="cls-1" cx="587.41" cy="110.37" r="7.69"/><circle class="cls-1" cx="606.79" cy="110.37" r="7.77"/><circle class="cls-1" cx="626.16" cy="110.37" r="7.84"/><circle class="cls-1" cx="645.54" cy="110.37" r="7.92"/><circle class="cls-1" cx="664.91" cy="110.37" r="8"/><circle class="cls-1" cx="684.29" cy="110.37" r="8.07"/><circle class="cls-1" cx="703.66" cy="110.37" r="8.15"/><circle class="cls-1" cx="723.04" cy="110.37" r="8.22"/><circle class="cls-1" cx="742.41" cy="110.37" r="8.3"/><circle class="cls-1" cx="761.79" cy="110.37" r="8.37"/><circle class="cls-1" cx="781.16" cy="110.37" r="8.45"/><circle class="cls-1" cx="800.54" cy="110.37" r="8.53"/><circle class="cls-1" cx="819.91" cy="110.37" r="8.6"/><circle class="cls-1" cx="839.29" cy="110.37" r="8.68"/><circle class="cls-1" cx="858.66" cy="110.37" r="8.75"/><circle class="cls-1" cx="878.04" cy="110.37" r="8.83"/><circle class="cls-1" cx="897.41" cy="110.37" r="8.9"/><circle class="cls-1" cx="916.79" cy="110.37" r="8.98"/><circle class="cls-1" cx="936.16" cy="110.37" r="9.06"/><circle class="cls-1" cx="955.54" cy="110.37" r="9.13"/><circle class="cls-1" cx="974.91" cy="110.37" r="9.21"/><circle class="cls-1" cx="994.29" cy="110.37" r="9.28"/><circle class="cls-1" cx="1013.66" cy="110.37" r="9.36"/><circle class="cls-1" cx="1033.04" cy="110.37" r="9.43"/><circle class="cls-1" cx="1052.41" cy="110.37" r="9.51"/><circle class="cls-1" cx="1071.79" cy="110.37" r="9.59"/><circle class="cls-1" cx="1091.16" cy="110.37" r="9.66"/><circle class="cls-1" cx="1110.54" cy="110.37" r="9.74"/><circle class="cls-1" cx="1129.91" cy="110.37" r="9.81"/><circle class="cls-1" cx="1149.29" cy="110.37" r="9.89"/><circle class="cls-1" cx="1168.66" cy="110.37" r="9.97"/><circle class="cls-1" cx="1188.04" cy="110.37" r="10.04"/><circle class="cls-1" cx="1207.41" cy="110.37" r="10.12"/><circle class="cls-1" cx="1226.79" cy="110.37" r="10.19"/><circle class="cls-1" cx="1246.16" cy="110.37" r="10.27"/><circle class="cls-1" cx="1265.54" cy="110.37" r="10.34"/><circle class="cls-1" cx="1284.91" cy="110.37" r="10.42"/><circle class="cls-1" cx="6.17" cy="90.53" r="5.42"/><circle class="cls-1" cx="25.54" cy="90.53" r="5.49"/><circle class="cls-1" cx="44.92" cy="90.53" r="5.57"/><circle class="cls-1" cx="64.29" cy="90.53" r="5.65"/><circle class="cls-1" cx="83.67" cy="90.53" r="5.72"/><circle class="cls-1" cx="103.04" cy="90.53" r="5.8"/><circle class="cls-1" cx="122.42" cy="90.53" r="5.87"/><circle class="cls-1" cx="141.79" cy="90.53" r="5.95"/><circle class="cls-1" cx="161.17" cy="90.53" r="6.02"/><circle class="cls-1" cx="180.54" cy="90.53" r="6.1"/><circle class="cls-1" cx="199.92" cy="90.53" r="6.18"/><circle class="cls-1" cx="219.29" cy="90.53" r="6.25"/><circle class="cls-1" cx="238.67" cy="90.53" r="6.33"/><circle class="cls-1" cx="258.04" cy="90.53" r="6.4"/><circle class="cls-1" cx="277.42" cy="90.53" r="6.48"/><circle class="cls-1" cx="296.79" cy="90.53" r="6.56"/><circle class="cls-1" cx="316.17" cy="90.53" r="6.63"/><circle class="cls-1" cx="335.54" cy="90.53" r="6.71"/><circle class="cls-1" cx="354.92" cy="90.53" r="6.78"/><circle class="cls-1" cx="374.29" cy="90.53" r="6.86"/><circle class="cls-1" cx="393.67" cy="90.53" r="6.93"/><circle class="cls-1" cx="413.04" cy="90.53" r="7.01"/><circle class="cls-1" cx="432.42" cy="90.53" r="7.09"/><circle class="cls-1" cx="451.79" cy="90.53" r="7.16"/><circle class="cls-1" cx="471.17" cy="90.53" r="7.24"/><circle class="cls-1" cx="490.54" cy="90.53" r="7.31"/><circle class="cls-1" cx="509.92" cy="90.53" r="7.39"/><circle class="cls-1" cx="529.29" cy="90.53" r="7.46"/><circle class="cls-1" cx="548.67" cy="90.53" r="7.54"/><circle class="cls-1" cx="568.04" cy="90.53" r="7.62"/><circle class="cls-1" cx="587.41" cy="90.53" r="7.69"/><circle class="cls-1" cx="606.79" cy="90.53" r="7.77"/><circle class="cls-1" cx="626.16" cy="90.53" r="7.84"/><circle class="cls-1" cx="645.54" cy="90.53" r="7.92"/><circle class="cls-1" cx="664.91" cy="90.53" r="8"/><circle class="cls-1" cx="684.29" cy="90.53" r="8.07"/><circle class="cls-1" cx="703.66" cy="90.53" r="8.15"/><circle class="cls-1" cx="723.04" cy="90.53" r="8.22"/><circle class="cls-1" cx="742.41" cy="90.53" r="8.3"/><circle class="cls-1" cx="761.79" cy="90.53" r="8.37"/><circle class="cls-1" cx="781.16" cy="90.53" r="8.45"/><circle class="cls-1" cx="800.54" cy="90.53" r="8.53"/><circle class="cls-1" cx="819.91" cy="90.53" r="8.6"/><circle class="cls-1" cx="839.29" cy="90.53" r="8.68"/><circle class="cls-1" cx="858.66" cy="90.53" r="8.75"/><circle class="cls-1" cx="878.04" cy="90.53" r="8.83"/><circle class="cls-1" cx="897.41" cy="90.53" r="8.9"/><circle class="cls-1" cx="916.79" cy="90.53" r="8.98"/><circle class="cls-1" cx="936.16" cy="90.53" r="9.06"/><circle class="cls-1" cx="955.54" cy="90.53" r="9.13"/><circle class="cls-1" cx="974.91" cy="90.53" r="9.21"/><circle class="cls-1" cx="994.29" cy="90.53" r="9.28"/><circle class="cls-1" cx="1013.66" cy="90.53" r="9.36"/><circle class="cls-1" cx="1033.04" cy="90.53" r="9.43"/><circle class="cls-1" cx="1052.41" cy="90.53" r="9.51"/><circle class="cls-1" cx="1071.79" cy="90.53" r="9.59"/><circle class="cls-1" cx="1091.16" cy="90.53" r="9.66"/><circle class="cls-1" cx="1110.54" cy="90.53" r="9.74"/><circle class="cls-1" cx="1129.91" cy="90.53" r="9.81"/><circle class="cls-1" cx="1149.29" cy="90.53" r="9.89"/><circle class="cls-1" cx="1168.66" cy="90.53" r="9.97"/><circle class="cls-1" cx="1188.04" cy="90.53" r="10.04"/><circle class="cls-1" cx="1207.41" cy="90.53" r="10.12"/><circle class="cls-1" cx="1226.79" cy="90.53" r="10.19"/><circle class="cls-1" cx="1246.16" cy="90.53" r="10.27"/><circle class="cls-1" cx="1265.54" cy="90.53" r="10.34"/><circle class="cls-1" cx="1284.91" cy="90.53" r="10.42"/><circle class="cls-1" cx="6.17" cy="70.69" r="5.42"/><circle class="cls-1" cx="25.54" cy="70.69" r="5.49"/><circle class="cls-1" cx="44.92" cy="70.69" r="5.57"/><circle class="cls-1" cx="64.29" cy="70.69" r="5.65"/><circle class="cls-1" cx="83.67" cy="70.69" r="5.72"/><circle class="cls-1" cx="103.04" cy="70.69" r="5.8"/><circle class="cls-1" cx="122.42" cy="70.69" r="5.87"/><circle class="cls-1" cx="141.79" cy="70.69" r="5.95"/><circle class="cls-1" cx="161.17" cy="70.69" r="6.02"/><circle class="cls-1" cx="180.54" cy="70.69" r="6.1"/><circle class="cls-1" cx="199.92" cy="70.69" r="6.18"/><circle class="cls-1" cx="219.29" cy="70.69" r="6.25"/><circle class="cls-1" cx="238.67" cy="70.69" r="6.33"/><circle class="cls-1" cx="258.04" cy="70.69" r="6.4"/><circle class="cls-1" cx="277.42" cy="70.69" r="6.48"/><circle class="cls-1" cx="296.79" cy="70.69" r="6.56"/><circle class="cls-1" cx="316.17" cy="70.69" r="6.63"/><circle class="cls-1" cx="335.54" cy="70.69" r="6.71"/><circle class="cls-1" cx="354.92" cy="70.69" r="6.78"/><circle class="cls-1" cx="374.29" cy="70.69" r="6.86"/><circle class="cls-1" cx="393.67" cy="70.69" r="6.93"/><circle class="cls-1" cx="413.04" cy="70.69" r="7.01"/><circle class="cls-1" cx="432.42" cy="70.69" r="7.09"/><circle class="cls-1" cx="451.79" cy="70.69" r="7.16"/><circle class="cls-1" cx="471.17" cy="70.69" r="7.24"/><circle class="cls-1" cx="490.54" cy="70.69" r="7.31"/><circle class="cls-1" cx="509.92" cy="70.69" r="7.39"/><circle class="cls-1" cx="529.29" cy="70.69" r="7.46"/><circle class="cls-1" cx="548.67" cy="70.69" r="7.54"/><circle class="cls-1" cx="568.04" cy="70.69" r="7.62"/><circle class="cls-1" cx="587.41" cy="70.69" r="7.69"/><circle class="cls-1" cx="606.79" cy="70.69" r="7.77"/><circle class="cls-1" cx="626.16" cy="70.69" r="7.84"/><circle class="cls-1" cx="645.54" cy="70.69" r="7.92"/><circle class="cls-1" cx="664.91" cy="70.69" r="8"/><circle class="cls-1" cx="684.29" cy="70.69" r="8.07"/><circle class="cls-1" cx="703.66" cy="70.69" r="8.15"/><circle class="cls-1" cx="723.04" cy="70.69" r="8.22"/><circle class="cls-1" cx="742.41" cy="70.69" r="8.3"/><circle class="cls-1" cx="761.79" cy="70.69" r="8.37"/><circle class="cls-1" cx="781.16" cy="70.69" r="8.45"/><circle class="cls-1" cx="800.54" cy="70.69" r="8.53"/><circle class="cls-1" cx="819.91" cy="70.69" r="8.6"/><circle class="cls-1" cx="839.29" cy="70.69" r="8.68"/><circle class="cls-1" cx="858.66" cy="70.69" r="8.75"/><circle class="cls-1" cx="878.04" cy="70.69" r="8.83"/><circle class="cls-1" cx="897.41" cy="70.69" r="8.9"/><circle class="cls-1" cx="916.79" cy="70.69" r="8.98"/><circle class="cls-1" cx="936.16" cy="70.69" r="9.06"/><circle class="cls-1" cx="955.54" cy="70.69" r="9.13"/><circle class="cls-1" cx="974.91" cy="70.69" r="9.21"/><circle class="cls-1" cx="994.29" cy="70.69" r="9.28"/><circle class="cls-1" cx="1013.66" cy="70.69" r="9.36"/><circle class="cls-1" cx="1033.04" cy="70.69" r="9.43"/><circle class="cls-1" cx="1052.41" cy="70.69" r="9.51"/><circle class="cls-1" cx="1071.79" cy="70.69" r="9.59"/><circle class="cls-1" cx="1091.16" cy="70.69" r="9.66"/><circle class="cls-1" cx="1110.54" cy="70.69" r="9.74"/><circle class="cls-1" cx="1129.91" cy="70.69" r="9.81"/><circle class="cls-1" cx="1149.29" cy="70.69" r="9.89"/><circle class="cls-1" cx="1168.66" cy="70.69" r="9.97"/><circle class="cls-1" cx="1188.04" cy="70.69" r="10.04"/><circle class="cls-1" cx="1207.41" cy="70.69" r="10.12"/><circle class="cls-1" cx="1226.79" cy="70.69" r="10.19"/><circle class="cls-1" cx="1246.16" cy="70.69" r="10.27"/><circle class="cls-1" cx="1265.54" cy="70.69" r="10.34"/><circle class="cls-1" cx="1284.91" cy="70.69" r="10.42"/><circle class="cls-1" cx="6.17" cy="50.85" r="5.42"/><circle class="cls-1" cx="25.54" cy="50.85" r="5.49"/><circle class="cls-1" cx="44.92" cy="50.85" r="5.57"/><circle class="cls-1" cx="64.29" cy="50.85" r="5.65"/><circle class="cls-1" cx="83.67" cy="50.85" r="5.72"/><circle class="cls-1" cx="103.04" cy="50.85" r="5.8"/><circle class="cls-1" cx="122.42" cy="50.85" r="5.87"/><circle class="cls-1" cx="141.79" cy="50.85" r="5.95"/><circle class="cls-1" cx="161.17" cy="50.85" r="6.02"/><circle class="cls-1" cx="180.54" cy="50.85" r="6.1"/><circle class="cls-1" cx="199.92" cy="50.85" r="6.18"/><circle class="cls-1" cx="219.29" cy="50.85" r="6.25"/><circle class="cls-1" cx="238.67" cy="50.85" r="6.33"/><circle class="cls-1" cx="258.04" cy="50.85" r="6.4"/><circle class="cls-1" cx="277.42" cy="50.85" r="6.48"/><circle class="cls-1" cx="296.79" cy="50.85" r="6.56"/><circle class="cls-1" cx="316.17" cy="50.85" r="6.63"/><circle class="cls-1" cx="335.54" cy="50.85" r="6.71"/><circle class="cls-1" cx="354.92" cy="50.85" r="6.78"/><circle class="cls-1" cx="374.29" cy="50.85" r="6.86"/><circle class="cls-1" cx="393.67" cy="50.85" r="6.93"/><circle class="cls-1" cx="413.04" cy="50.85" r="7.01"/><circle class="cls-1" cx="432.42" cy="50.85" r="7.09"/><circle class="cls-1" cx="451.79" cy="50.85" r="7.16"/><circle class="cls-1" cx="471.17" cy="50.85" r="7.24"/><circle class="cls-1" cx="490.54" cy="50.85" r="7.31"/><circle class="cls-1" cx="509.92" cy="50.85" r="7.39"/><circle class="cls-1" cx="529.29" cy="50.85" r="7.46"/><circle class="cls-1" cx="548.67" cy="50.85" r="7.54"/><circle class="cls-1" cx="568.04" cy="50.85" r="7.62"/><circle class="cls-1" cx="587.41" cy="50.85" r="7.69"/><circle class="cls-1" cx="606.79" cy="50.85" r="7.77"/><circle class="cls-1" cx="626.16" cy="50.85" r="7.84"/><circle class="cls-1" cx="645.54" cy="50.85" r="7.92"/><circle class="cls-1" cx="664.91" cy="50.85" r="8"/><circle class="cls-1" cx="684.29" cy="50.85" r="8.07"/><circle class="cls-1" cx="703.66" cy="50.85" r="8.15"/><circle class="cls-1" cx="723.04" cy="50.85" r="8.22"/><circle class="cls-1" cx="742.41" cy="50.85" r="8.3"/><circle class="cls-1" cx="761.79" cy="50.85" r="8.37"/><circle class="cls-1" cx="781.16" cy="50.85" r="8.45"/><circle class="cls-1" cx="800.54" cy="50.85" r="8.53"/><circle class="cls-1" cx="819.91" cy="50.85" r="8.6"/><circle class="cls-1" cx="839.29" cy="50.85" r="8.68"/><circle class="cls-1" cx="858.66" cy="50.85" r="8.75"/><circle class="cls-1" cx="878.04" cy="50.85" r="8.83"/><circle class="cls-1" cx="897.41" cy="50.85" r="8.9"/><circle class="cls-1" cx="916.79" cy="50.85" r="8.98"/><circle class="cls-1" cx="936.16" cy="50.85" r="9.06"/><circle class="cls-1" cx="955.54" cy="50.85" r="9.13"/><circle class="cls-1" cx="974.91" cy="50.85" r="9.21"/><circle class="cls-1" cx="994.29" cy="50.85" r="9.28"/><circle class="cls-1" cx="1013.66" cy="50.85" r="9.36"/><circle class="cls-1" cx="1033.04" cy="50.85" r="9.43"/><circle class="cls-1" cx="1052.41" cy="50.85" r="9.51"/><circle class="cls-1" cx="1071.79" cy="50.85" r="9.59"/><circle class="cls-1" cx="1091.16" cy="50.85" r="9.66"/><circle class="cls-1" cx="1110.54" cy="50.85" r="9.74"/><circle class="cls-1" cx="1129.91" cy="50.85" r="9.81"/><circle class="cls-1" cx="1149.29" cy="50.85" r="9.89"/><circle class="cls-1" cx="1168.66" cy="50.85" r="9.97"/><circle class="cls-1" cx="1188.04" cy="50.85" r="10.04"/><circle class="cls-1" cx="1207.41" cy="50.85" r="10.12"/><circle class="cls-1" cx="1226.79" cy="50.85" r="10.19"/><circle class="cls-1" cx="1246.16" cy="50.85" r="10.27"/><circle class="cls-1" cx="1265.54" cy="50.85" r="10.34"/><circle class="cls-1" cx="1284.91" cy="50.85" r="10.42"/><circle class="cls-1" cx="6.17" cy="31.01" r="5.42"/><circle class="cls-1" cx="25.54" cy="31.01" r="5.49"/><circle class="cls-1" cx="44.92" cy="31.01" r="5.57"/><circle class="cls-1" cx="64.29" cy="31.01" r="5.65"/><circle class="cls-1" cx="83.67" cy="31.01" r="5.72"/><circle class="cls-1" cx="103.04" cy="31.01" r="5.8"/><circle class="cls-1" cx="122.42" cy="31.01" r="5.87"/><circle class="cls-1" cx="141.79" cy="31.01" r="5.95"/><circle class="cls-1" cx="161.17" cy="31.01" r="6.02"/><circle class="cls-1" cx="180.54" cy="31.01" r="6.1"/><circle class="cls-1" cx="199.92" cy="31.01" r="6.18"/><circle class="cls-1" cx="219.29" cy="31.01" r="6.25"/><circle class="cls-1" cx="238.67" cy="31.01" r="6.33"/><circle class="cls-1" cx="258.04" cy="31.01" r="6.4"/><circle class="cls-1" cx="277.42" cy="31.01" r="6.48"/><circle class="cls-1" cx="296.79" cy="31.01" r="6.56"/><circle class="cls-1" cx="316.17" cy="31.01" r="6.63"/><circle class="cls-1" cx="335.54" cy="31.01" r="6.71"/><circle class="cls-1" cx="354.92" cy="31.01" r="6.78"/><circle class="cls-1" cx="374.29" cy="31.01" r="6.86"/><circle class="cls-1" cx="393.67" cy="31.01" r="6.93"/><circle class="cls-1" cx="413.04" cy="31.01" r="7.01"/><circle class="cls-1" cx="432.42" cy="31.01" r="7.09"/><circle class="cls-1" cx="451.79" cy="31.01" r="7.16"/><circle class="cls-1" cx="471.17" cy="31.01" r="7.24"/><circle class="cls-1" cx="490.54" cy="31.01" r="7.31"/><circle class="cls-1" cx="509.92" cy="31.01" r="7.39"/><circle class="cls-1" cx="529.29" cy="31.01" r="7.46"/><circle class="cls-1" cx="548.67" cy="31.01" r="7.54"/><circle class="cls-1" cx="568.04" cy="31.01" r="7.62"/><circle class="cls-1" cx="587.41" cy="31.01" r="7.69"/><circle class="cls-1" cx="606.79" cy="31.01" r="7.77"/><circle class="cls-1" cx="626.16" cy="31.01" r="7.84"/><circle class="cls-1" cx="645.54" cy="31.01" r="7.92"/><circle class="cls-1" cx="664.91" cy="31.01" r="8"/><circle class="cls-1" cx="684.29" cy="31.01" r="8.07"/><circle class="cls-1" cx="703.66" cy="31.01" r="8.15"/><circle class="cls-1" cx="723.04" cy="31.01" r="8.22"/><circle class="cls-1" cx="742.41" cy="31.01" r="8.3"/><circle class="cls-1" cx="761.79" cy="31.01" r="8.37"/><circle class="cls-1" cx="781.16" cy="31.01" r="8.45"/><circle class="cls-1" cx="800.54" cy="31.01" r="8.53"/><circle class="cls-1" cx="819.91" cy="31.01" r="8.6"/><circle class="cls-1" cx="839.29" cy="31.01" r="8.68"/><circle class="cls-1" cx="858.66" cy="31.01" r="8.75"/><circle class="cls-1" cx="878.04" cy="31.01" r="8.83"/><circle class="cls-1" cx="897.41" cy="31.01" r="8.9"/><circle class="cls-1" cx="916.79" cy="31.01" r="8.98"/><circle class="cls-1" cx="936.16" cy="31.01" r="9.06"/><circle class="cls-1" cx="955.54" cy="31.01" r="9.13"/><circle class="cls-1" cx="974.91" cy="31.01" r="9.21"/><circle class="cls-1" cx="994.29" cy="31.01" r="9.28"/><circle class="cls-1" cx="1013.66" cy="31.01" r="9.36"/><circle class="cls-1" cx="1033.04" cy="31.01" r="9.43"/><circle class="cls-1" cx="1052.41" cy="31.01" r="9.51"/><circle class="cls-1" cx="1071.79" cy="31.01" r="9.59"/><circle class="cls-1" cx="1091.16" cy="31.01" r="9.66"/><circle class="cls-1" cx="1110.54" cy="31.01" r="9.74"/><circle class="cls-1" cx="1129.91" cy="31.01" r="9.81"/><circle class="cls-1" cx="1149.29" cy="31.01" r="9.89"/><circle class="cls-1" cx="1168.66" cy="31.01" r="9.97"/><circle class="cls-1" cx="1188.04" cy="31.01" r="10.04"/><circle class="cls-1" cx="1207.41" cy="31.01" r="10.12"/><circle class="cls-1" cx="1226.79" cy="31.01" r="10.19"/><circle class="cls-1" cx="1246.16" cy="31.01" r="10.27"/><circle class="cls-1" cx="1265.54" cy="31.01" r="10.34"/><circle class="cls-1" cx="1284.91" cy="31.01" r="10.42"/><circle class="cls-1" cx="6.17" cy="11.17" r="5.42"/><circle class="cls-1" cx="25.54" cy="11.17" r="5.49"/><circle class="cls-1" cx="44.92" cy="11.17" r="5.57"/><circle class="cls-1" cx="64.29" cy="11.17" r="5.65"/><circle class="cls-1" cx="83.67" cy="11.17" r="5.72"/><circle class="cls-1" cx="103.04" cy="11.17" r="5.8"/><circle class="cls-1" cx="122.42" cy="11.17" r="5.87"/><circle class="cls-1" cx="141.79" cy="11.17" r="5.95"/><circle class="cls-1" cx="161.17" cy="11.17" r="6.02"/><circle class="cls-1" cx="180.54" cy="11.17" r="6.1"/><circle class="cls-1" cx="199.92" cy="11.17" r="6.18"/><circle class="cls-1" cx="219.29" cy="11.17" r="6.25"/><circle class="cls-1" cx="238.67" cy="11.17" r="6.33"/><circle class="cls-1" cx="258.04" cy="11.17" r="6.4"/><circle class="cls-1" cx="277.42" cy="11.17" r="6.48"/><circle class="cls-1" cx="296.79" cy="11.17" r="6.56"/><circle class="cls-1" cx="316.17" cy="11.17" r="6.63"/><circle class="cls-1" cx="335.54" cy="11.17" r="6.71"/><circle class="cls-1" cx="354.92" cy="11.17" r="6.78"/><circle class="cls-1" cx="374.29" cy="11.17" r="6.86"/><circle class="cls-1" cx="393.67" cy="11.17" r="6.93"/><circle class="cls-1" cx="413.04" cy="11.17" r="7.01"/><circle class="cls-1" cx="432.42" cy="11.17" r="7.09"/><circle class="cls-1" cx="451.79" cy="11.17" r="7.16"/><circle class="cls-1" cx="471.17" cy="11.17" r="7.24"/><circle class="cls-1" cx="490.54" cy="11.17" r="7.31"/><circle class="cls-1" cx="509.92" cy="11.17" r="7.39"/><circle class="cls-1" cx="529.29" cy="11.17" r="7.46"/><circle class="cls-1" cx="548.67" cy="11.17" r="7.54"/><circle class="cls-1" cx="568.04" cy="11.17" r="7.62"/><circle class="cls-1" cx="587.41" cy="11.17" r="7.69"/><circle class="cls-1" cx="606.79" cy="11.17" r="7.77"/><circle class="cls-1" cx="626.16" cy="11.17" r="7.84"/><circle class="cls-1" cx="645.54" cy="11.17" r="7.92"/><circle class="cls-1" cx="664.91" cy="11.17" r="8"/><circle class="cls-1" cx="684.29" cy="11.17" r="8.07"/><circle class="cls-1" cx="703.66" cy="11.17" r="8.15"/><circle class="cls-1" cx="723.04" cy="11.17" r="8.22"/><circle class="cls-1" cx="742.41" cy="11.17" r="8.3"/><circle class="cls-1" cx="761.79" cy="11.17" r="8.37"/><circle class="cls-1" cx="781.16" cy="11.17" r="8.45"/><circle class="cls-1" cx="800.54" cy="11.17" r="8.53"/><circle class="cls-1" cx="819.91" cy="11.17" r="8.6"/><circle class="cls-1" cx="839.29" cy="11.17" r="8.68"/><circle class="cls-1" cx="858.66" cy="11.17" r="8.75"/><circle class="cls-1" cx="878.04" cy="11.17" r="8.83"/><circle class="cls-1" cx="897.41" cy="11.17" r="8.9"/><circle class="cls-1" cx="916.79" cy="11.17" r="8.98"/><circle class="cls-1" cx="936.16" cy="11.17" r="9.06"/><circle class="cls-1" cx="955.54" cy="11.17" r="9.13"/><circle class="cls-1" cx="974.91" cy="11.17" r="9.21"/><circle class="cls-1" cx="994.29" cy="11.17" r="9.28"/><circle class="cls-1" cx="1013.66" cy="11.17" r="9.36"/><circle class="cls-1" cx="1033.04" cy="11.17" r="9.43"/><circle class="cls-1" cx="1052.41" cy="11.17" r="9.51"/><circle class="cls-1" cx="1071.79" cy="11.17" r="9.59"/><circle class="cls-1" cx="1091.16" cy="11.17" r="9.66"/><circle class="cls-1" cx="1110.54" cy="11.17" r="9.74"/><circle class="cls-1" cx="1129.91" cy="11.17" r="9.81"/><circle class="cls-1" cx="1149.29" cy="11.17" r="9.89"/><circle class="cls-1" cx="1168.66" cy="11.17" r="9.97"/><circle class="cls-1" cx="1188.04" cy="11.17" r="10.04"/><circle class="cls-1" cx="1207.41" cy="11.17" r="10.12"/><circle class="cls-1" cx="1226.79" cy="11.17" r="10.19"/><circle class="cls-1" cx="1246.16" cy="11.17" r="10.27"/><circle class="cls-1" cx="1265.54" cy="11.17" r="10.34"/><circle class="cls-1" cx="1284.91" cy="11.17" r="10.42"/></g></g></svg>