<?xml version="1.0" encoding="utf-8"?>
<!-- Generator: Adobe Illustrator 23.0.3, SVG Export Plug-In . SVG Version: 6.00 Build 0)  -->
<svg version="1.1" id="Layer_1" xmlns="http://www.w3.org/2000/svg" xmlns:xlink="http://www.w3.org/1999/xlink" x="0px" y="0px"
	 viewBox="0 0 382 7" style="enable-background:new 0 0 382 7;" xml:space="preserve">
<style type="text/css">
	.st0{fill:none;stroke:#0E0C05;stroke-width:1.5;}
</style>
<g>
	<path class="st0" d="M-0.5,0.9c8,0,8,5.1,15.9,5.1c8,0,8-5.1,15.9-5.1c8,0,8,5.1,15.9,5.1c8,0,8-5.1,15.9-5.1c8,0,8,5.1,15.9,5.1
		c8,0,8-5.1,15.9-5.1c8,0,8,5.1,15.9,5.1c8,0,8-5.1,15.9-5.1c8,0,8,5.1,15.9,5.1c8,0,8-5.1,15.9-5.1c8,0,8,5.1,15.9,5.1
		c8,0,8-5.1,15.9-5.1c8,0,8,5.1,15.9,5.1c8,0,8-5.1,15.9-5.1c8,0,8,5.1,15.9,5.1c8,0,8-5.1,15.9-5.1c8,0,8,5.1,15.9,5.1
		c8,0,8-5.1,15.9-5.1c8,0,8,5.1,15.9,5.1c8,0,8-5.1,15.9-5.1c8,0,8,5.1,15.9,5.1c8,0,8-5.1,15.9-5.1c8,0,8,5.1,15.9,5.1
		c8,0,8-5.1,15.9-5.1c8,0,8,5.1,15.9,5.1"/>
</g>
</svg>
