<svg width="573" height="563" viewBox="0 0 573 563" fill="none" xmlns="http://www.w3.org/2000/svg">
<path d="M348.47 407.52C461.004 407.52 552.23 316.294 552.23 203.76C552.23 91.2265 461.004 0 348.47 0C235.936 0 144.71 91.2265 144.71 203.76C144.71 316.294 235.936 407.52 348.47 407.52Z" fill="#E6EBEF"/>
<path d="M480.74 106.04H345.2V335.93H480.74V106.04Z" fill="white"/>
<path d="M348.47 0.00983161C317.196 -0.00768974 286.339 7.18559 258.297 21.0308C230.254 34.8759 205.782 55.0002 186.78 79.8398H510.2C491.195 54.9937 466.717 34.8653 438.667 21.0198C410.617 7.17429 379.751 -0.0153624 348.47 0.00983161V0.00983161Z" fill="#C5CFD7"/>
<path d="M348.47 407.5C377.875 407.527 406.935 401.177 433.648 388.887C460.361 376.596 484.091 358.658 503.2 336.31H193.78C212.884 358.654 236.607 376.59 263.313 388.88C290.018 401.17 319.072 407.523 348.47 407.5V407.5Z" fill="#7E7B7B"/>
<path d="M252.22 116.44V335.92H262.78V106.04H169.64C167.77 109.44 166.01 112.91 164.33 116.44H252.22Z" fill="white"/>
<path d="M193.58 336.14C193.52 336.07 193.46 335.99 193.39 335.92Z" fill="#FADD4B"/>
<path d="M252.22 335.92H193.39C193.46 335.99 193.52 336.07 193.58 336.14H252.22V335.92Z" fill="#FADD4B"/>
<path d="M164.33 116.44C147.519 151.936 141.318 191.533 146.473 230.469C151.629 269.404 167.92 306.023 193.39 335.92H252.22V116.44H164.33Z" fill="#4ABEF0"/>
<path d="M236.87 244.01C240.626 244.01 243.67 240.966 243.67 237.21C243.67 233.455 240.626 230.41 236.87 230.41C233.115 230.41 230.07 233.455 230.07 237.21C230.07 240.966 233.115 244.01 236.87 244.01Z" fill="#959192"/>
<path d="M239.27 235.47H223.52V239.41H239.27V235.47Z" fill="#7E7B7B"/>
<path d="M234.3 217.82V132.93H157.38C156.473 135.396 155.607 137.886 154.78 140.4V217.82H234.3Z" fill="white"/>
<path d="M154.78 132.93V140.4C155.6 137.886 156.467 135.396 157.38 132.93H154.78Z" fill="white"/>
<path d="M470.91 116.44H355.44V336.14H470.91V116.44Z" fill="#4ABEF0"/>
<path d="M455.57 244.01C459.326 244.01 462.37 240.966 462.37 237.21C462.37 233.455 459.326 230.41 455.57 230.41C451.815 230.41 448.77 233.455 448.77 237.21C448.77 240.966 451.815 244.01 455.57 244.01Z" fill="#959192"/>
<path d="M457.97 235.47H442.22V239.41H457.97V235.47Z" fill="#7E7B7B"/>
<path d="M452.86 132.93H373.35V217.82H452.86V132.93Z" fill="white"/>
<path d="M139.57 551.21C216.652 551.21 279.14 488.723 279.14 411.64C279.14 334.558 216.652 272.07 139.57 272.07C62.4876 272.07 0 334.558 0 411.64C0 488.723 62.4876 551.21 139.57 551.21Z" fill="#C5CFD7"/>
<path d="M520.53 242.85C517.83 240.32 512.17 237.67 506.53 235.07C501.53 251.43 497.62 268.29 496.91 283.23H521.61C521.63 269.37 520.89 255.63 520.53 242.85Z" fill="#C5CFD7"/>
<path d="M520.43 239.2L518.77 238.74C519.19 238.21 519.77 237.3 520.38 236.38C520.38 234.38 520.33 232.38 520.33 230.38C519.33 230.28 518.23 230.18 517.16 230.06C517.25 228.94 517.36 227.85 517.46 226.76C514.81 225.82 512.18 224.95 510.07 224.04C508.83 227.68 507.62 231.37 506.48 235.04C512.17 237.64 517.83 240.29 520.48 242.82C520.49 241.62 520.46 240.41 520.43 239.2Z" fill="#C5CFD7"/>
<path d="M540.31 283.23H541.13L540.67 281.6L540.31 283.23Z" fill="#C5CFD7"/>
<path d="M541.13 283.23H548.37C546.423 277.545 544.948 271.708 543.96 265.78C542.9 270.99 541.82 276.28 540.67 281.6L541.13 283.23Z" fill="#C5CFD7"/>
<path d="M523.17 233.55C523.73 233.41 525.39 234.32 526.17 234.35C526.505 234.351 526.839 234.325 527.17 234.27L526.17 230.84C524.27 230.71 522.32 230.55 520.3 230.36C520.3 232.36 520.3 234.36 520.35 236.36C521.26 235.08 522.26 233.79 523.17 233.55Z" fill="#C5CFD7"/>
<path d="M522.78 240.12C522.09 239.76 522.71 239.84 520.43 239.2C520.43 240.41 520.49 241.62 520.53 242.85C521.74 243.99 522.35 245.1 522.1 246.18L525.45 242.73C524.683 241.742 523.785 240.864 522.78 240.12V240.12Z" fill="#C5CFD7"/>
<path d="M531.78 250.34C531.515 250.3 531.264 250.198 531.045 250.044C530.826 249.889 530.647 249.686 530.52 249.45C528.964 247.117 527.278 244.874 525.47 242.73L522.12 246.18C522.37 245.1 521.76 243.99 520.55 242.85C520.91 255.63 521.65 269.37 521.55 283.23H540.3L540.66 281.6L531.78 250.34Z" fill="#C5CFD7"/>
<path d="M527.18 234.27C527.751 234.165 528.316 234.025 528.87 233.85C528.97 233.85 529.28 233.71 529.68 233.55C528.912 232.48 527.94 231.573 526.82 230.88H526.2L527.18 234.27Z" fill="#C5CFD7"/>
<path d="M517.46 226.74C517.36 227.83 517.25 228.92 517.16 230.04C518.23 230.16 519.29 230.26 520.33 230.36C520.33 229.5 520.33 228.64 520.33 227.79C519.4 227.43 518.43 227.08 517.46 226.74Z" fill="#C5CFD7"/>
<path d="M526.08 230.43C524.244 229.397 522.328 228.514 520.35 227.79C520.35 228.64 520.35 229.5 520.35 230.36C522.35 230.55 524.35 230.71 526.22 230.84L526.08 230.43Z" fill="#C5CFD7"/>
<path d="M525.25 227.5H520.35V227.78C522.328 228.504 524.244 229.387 526.08 230.42L525.25 227.5Z" fill="#C5CFD7"/>
<path d="M526.2 230.84H526.82L526.08 230.39L526.2 230.84Z" fill="#C5CFD7"/>
<path d="M518.78 238.74L520.44 239.2C520.44 238.25 520.44 237.31 520.44 236.38C519.78 237.3 519.19 238.21 518.78 238.74Z" fill="#C5CFD7"/>
<path d="M527.18 234.27C526.849 234.325 526.515 234.351 526.18 234.35C525.43 234.35 523.77 233.41 523.18 233.55C522.27 233.79 521.27 235.08 520.39 236.38C520.39 237.31 520.39 238.25 520.39 239.2C522.67 239.84 522.05 239.76 522.74 240.12C523.745 240.864 524.643 241.742 525.41 242.73L528.61 239.43L527.18 234.27Z" fill="#C5CFD7"/>
<path d="M525.45 242.73C527.258 244.873 528.944 247.117 530.5 249.45C530.627 249.685 530.806 249.888 531.025 250.043C531.244 250.197 531.495 250.299 531.76 250.34L528.65 239.43L525.45 242.73Z" fill="#C5CFD7"/>
<path d="M527.18 234.27L528.65 239.43L530.2 237.83C530.464 237.127 530.555 236.371 530.464 235.626C530.374 234.881 530.105 234.169 529.68 233.55C529.28 233.71 528.97 233.82 528.87 233.85C528.316 234.025 527.751 234.165 527.18 234.27V234.27Z" fill="#C5CFD7"/>
<path d="M133.174 268.919L27.3436 319.647C21.696 322.354 19.3122 329.127 22.0193 334.775L126.428 552.594C129.135 558.242 135.908 560.626 141.555 557.918L247.385 507.19C253.033 504.483 255.417 497.71 252.71 492.063L148.301 274.243C145.594 268.596 138.821 266.212 133.174 268.919Z" fill="#333333"/>
<path d="M137.575 280.837L33.2422 332.13L131.041 531.059L235.375 479.766L137.575 280.837Z" fill="#4ABEF0"/>
<path d="M188.72 527.66C193.271 527.66 196.96 523.971 196.96 519.42C196.96 514.869 193.271 511.18 188.72 511.18C184.169 511.18 180.48 514.869 180.48 519.42C180.48 523.971 184.169 527.66 188.72 527.66Z" fill="#565353"/>
<path d="M135.442 289.295L40.8015 335.803L132.877 523.172L227.517 476.664L135.442 289.295Z" fill="white"/>
<path d="M91.2671 340.403C91.0229 339.907 90.9565 339.467 91.0679 339.082C91.1774 338.693 91.4509 338.391 91.8883 338.176C92.1227 338.061 92.344 337.998 92.5524 337.987C92.7608 337.977 92.9553 338.012 93.1358 338.093C93.3145 338.17 93.4782 338.291 93.6271 338.455C93.7799 338.618 93.913 338.815 94.0265 339.045C94.2707 339.541 94.338 339.983 94.2285 340.372C94.121 340.755 93.8485 341.054 93.4111 341.269C93.1767 341.385 92.9554 341.448 92.747 341.458C92.5386 341.468 92.3432 341.436 92.1606 341.361C91.98 341.28 91.8134 341.158 91.6606 340.996C91.5117 340.831 91.3805 340.634 91.2671 340.403ZM92.0521 340.017C92.1156 340.146 92.1859 340.259 92.2632 340.357C92.3405 340.455 92.4227 340.533 92.51 340.592C92.5972 340.651 92.6895 340.686 92.7868 340.696C92.886 340.701 92.9884 340.677 93.0938 340.625C93.293 340.527 93.4059 340.382 93.4324 340.189C93.4589 339.996 93.3952 339.744 93.2414 339.431C93.1087 339.162 92.9571 338.967 92.7865 338.847C92.614 338.724 92.4204 338.715 92.2056 338.82C92.0181 338.913 91.9062 339.055 91.87 339.248C91.8337 339.44 91.8945 339.697 92.0521 340.017ZM95.6414 338.476L95.9718 338.881L96.007 338.863L95.8553 338.363L95.493 336.503L96.278 336.117L96.6883 339.198C96.7217 339.453 96.7475 339.688 96.7657 339.902C96.7896 340.118 96.7933 340.313 96.7766 340.486C96.76 340.659 96.7182 340.806 96.6513 340.926C96.5901 341.048 96.4912 341.143 96.3545 341.211C96.1514 341.311 95.973 341.357 95.8192 341.35L95.6599 340.672C95.73 340.666 95.7944 340.649 95.853 340.62C95.9428 340.576 96.0095 340.495 96.0531 340.376C96.1025 340.26 96.0996 340.091 96.0445 339.871L93.378 337.545L94.292 337.095L95.6414 338.476ZM99.6683 338.087L98.8838 336.494C98.7512 336.224 98.6316 336.045 98.525 335.957C98.4185 335.869 98.2852 335.864 98.125 335.943C97.9922 336.008 97.9031 336.098 97.8576 336.213C97.8102 336.323 97.7929 336.446 97.8057 336.58L98.7661 338.531L98.0044 338.906L96.5624 335.977L97.1541 335.686L97.4324 336.029L97.4558 336.018C97.4841 335.848 97.5435 335.683 97.6341 335.522C97.7286 335.359 97.8851 335.224 98.1039 335.116C98.2913 335.024 98.4629 334.988 98.6185 335.008C98.7761 335.023 98.9323 335.104 99.0872 335.251C99.102 335.054 99.1577 334.877 99.254 334.717C99.3504 334.558 99.4982 334.43 99.6974 334.332C99.8614 334.251 100.01 334.202 100.142 334.186C100.279 334.167 100.406 334.189 100.524 334.252C100.645 334.309 100.762 334.409 100.876 334.552C100.99 334.695 101.107 334.89 101.229 335.136L102.094 336.893L101.332 337.268L100.522 335.622C100.408 335.391 100.298 335.232 100.192 335.144C100.087 335.05 99.951 335.044 99.783 335.127C99.6463 335.194 99.5552 335.285 99.5097 335.399C99.4681 335.512 99.4595 335.643 99.4839 335.791L100.43 337.712L99.6683 338.087ZM104.938 335.18C104.867 335.331 104.746 335.49 104.576 335.657C104.408 335.817 104.21 335.953 103.984 336.065C103.511 336.297 103.098 336.331 102.745 336.165C102.39 335.995 102.094 335.67 101.857 335.19C101.603 334.675 101.536 334.227 101.655 333.848C101.774 333.469 102.057 333.17 102.502 332.951C102.65 332.878 102.804 332.827 102.964 332.796C103.124 332.766 103.281 332.769 103.434 332.805C103.588 332.841 103.735 332.919 103.877 333.039C104.018 333.158 104.145 333.331 104.256 333.558C104.297 333.64 104.334 333.731 104.368 333.83C104.407 333.928 104.441 334.032 104.472 334.143L102.714 335.008C102.847 335.249 103.001 335.404 103.175 335.473C103.354 335.54 103.572 335.51 103.83 335.383C103.99 335.305 104.121 335.211 104.223 335.103C104.327 334.988 104.4 334.889 104.441 334.806L104.938 335.18ZM102.79 333.566C102.591 333.664 102.472 333.798 102.434 333.967C102.398 334.13 102.419 334.316 102.498 334.525L103.588 333.989C103.499 333.77 103.386 333.625 103.249 333.552C103.115 333.477 102.962 333.482 102.79 333.566ZM107.487 334.238L106.668 332.575C106.55 332.336 106.43 332.182 106.308 332.111C106.19 332.038 106.049 332.042 105.885 332.123C105.74 332.194 105.638 332.298 105.579 332.434C105.522 332.564 105.502 332.702 105.521 332.848L106.455 334.746L105.694 335.121L104.252 332.192L104.855 331.895L105.133 332.238L105.157 332.226C105.185 332.057 105.251 331.889 105.353 331.722C105.455 331.556 105.623 331.415 105.858 331.299C106.002 331.228 106.141 331.184 106.273 331.167C106.406 331.151 106.533 331.168 106.655 331.219C106.778 331.271 106.897 331.365 107.013 331.502C107.127 331.635 107.24 331.815 107.351 332.041L108.248 333.863L107.487 334.238ZM107.14 330.77L107.544 330.571L107.273 330.02L107.928 329.429L108.306 330.196L109.02 329.844L109.338 330.489L108.623 330.841L109.176 331.965C109.276 332.169 109.368 332.305 109.451 332.376C109.537 332.441 109.636 332.445 109.749 332.389C109.827 332.351 109.89 332.311 109.937 332.268C109.988 332.224 110.041 332.168 110.096 332.103L110.519 332.622C110.438 332.725 110.336 332.828 110.213 332.933C110.09 333.037 109.956 333.125 109.811 333.196C109.542 333.329 109.309 333.358 109.113 333.285C108.919 333.206 108.744 333.008 108.588 332.692L107.861 331.215L107.457 331.414L107.14 330.77ZM113.886 328.956L112.386 329.694L113.231 331.411L112.428 331.806L110.409 327.705L111.212 327.31L112.034 328.979L113.534 328.241L112.712 326.571L113.514 326.176L115.533 330.277L114.731 330.672L113.886 328.956ZM115.517 326.646L116.336 328.31C116.453 328.548 116.565 328.707 116.672 328.785C116.782 328.862 116.92 328.86 117.084 328.779C117.228 328.708 117.326 328.606 117.378 328.474C117.433 328.34 117.453 328.199 117.439 328.051L116.507 326.159L117.269 325.784L118.272 327.822C118.351 327.983 118.437 328.137 118.529 328.286C118.62 328.43 118.712 328.557 118.805 328.667L118.23 328.949L117.882 328.582L117.859 328.594C117.842 328.786 117.778 328.971 117.666 329.147C117.553 329.324 117.388 329.466 117.169 329.574C117.021 329.647 116.879 329.693 116.742 329.711C116.606 329.73 116.476 329.713 116.354 329.662C116.232 329.611 116.112 329.519 115.994 329.388C115.88 329.255 115.766 329.073 115.652 328.843L114.755 327.021L115.517 326.646ZM117.36 324.283L118.122 323.908L118.814 325.314L118.838 325.303C118.873 325.168 118.942 325.042 119.044 324.924C119.146 324.806 119.275 324.709 119.432 324.632C119.783 324.459 120.11 324.448 120.413 324.6C120.718 324.746 120.991 325.065 121.234 325.557C121.493 326.084 121.559 326.549 121.432 326.951C121.309 327.351 121.021 327.663 120.568 327.886C120.318 328.009 120.079 328.1 119.851 328.159C119.625 328.222 119.446 328.254 119.316 328.255L117.36 324.283ZM119.526 325.386C119.386 325.455 119.289 325.549 119.235 325.667C119.184 325.78 119.169 325.916 119.189 326.076L119.818 327.353C119.896 327.353 119.973 327.342 120.049 327.319C120.129 327.294 120.21 327.262 120.292 327.221C120.499 327.12 120.618 326.968 120.651 326.768C120.685 326.562 120.622 326.295 120.46 325.967C120.185 325.408 119.874 325.215 119.526 325.386Z" fill="#333333"/>
<path d="M91.8748 355.265L92.5581 354.928L91.3952 352.566L91.3022 352.254L91.2199 352.58L90.8729 353.229L90.5649 353.072L91.2302 351.714L91.4059 351.627L92.9388 354.741L93.6074 354.412L93.7852 354.773L92.0526 355.626L91.8748 355.265ZM93.554 352.765C93.2657 352.179 93.143 351.692 93.1859 351.303C93.2322 350.912 93.4375 350.627 93.8019 350.448C94.1956 350.254 94.5524 350.26 94.8722 350.466C95.1938 350.668 95.5011 351.066 95.7942 351.662C96.0825 352.247 96.2036 352.736 96.1574 353.126C96.1144 353.515 95.9091 353.8 95.5414 353.981C95.1542 354.172 94.795 354.157 94.4639 353.936C94.1328 353.715 93.8295 353.324 93.554 352.765ZM93.9591 352.565C94.0632 352.777 94.1715 352.964 94.284 353.127C94.3982 353.285 94.5158 353.413 94.6369 353.511C94.7563 353.606 94.8776 353.667 95.0006 353.696C95.1254 353.719 95.2496 353.7 95.3732 353.639C95.6205 353.518 95.745 353.315 95.7468 353.031C95.7502 352.742 95.631 352.352 95.3891 351.861C95.2866 351.653 95.1791 351.467 95.0665 351.304C94.9573 351.14 94.8421 351.009 94.7211 350.911C94.6033 350.811 94.482 350.749 94.3573 350.726C94.2326 350.702 94.1035 350.723 93.9701 350.789C93.726 350.909 93.6023 351.114 93.5989 351.402C93.5988 351.689 93.7188 352.077 93.9591 352.565ZM96.21 350.857C96.1667 350.769 96.1575 350.689 96.1823 350.616C96.2087 350.538 96.2642 350.478 96.3488 350.437C96.4367 350.393 96.5194 350.385 96.5971 350.412C96.6732 350.435 96.7329 350.49 96.7761 350.578C96.8178 350.663 96.8254 350.744 96.7989 350.821C96.7725 350.899 96.7154 350.96 96.6275 351.003C96.5429 351.045 96.4618 351.052 96.3841 351.026C96.3097 350.998 96.2516 350.941 96.21 350.857ZM97.1782 352.824C97.135 352.736 97.1258 352.655 97.1505 352.583C97.177 352.505 97.2325 352.445 97.3171 352.404C97.4049 352.36 97.4877 352.352 97.5654 352.378C97.6415 352.402 97.7011 352.457 97.7444 352.545C97.786 352.63 97.7936 352.711 97.7672 352.788C97.7408 352.866 97.6836 352.927 97.5958 352.97C97.5112 353.011 97.43 353.019 97.3524 352.993C97.2779 352.965 97.2199 352.908 97.1782 352.824ZM97.2812 350.93C96.9929 350.344 96.8702 349.857 96.9132 349.468C96.9594 349.077 97.1647 348.792 97.5291 348.613C97.9228 348.419 98.2796 348.425 98.5995 348.631C98.921 348.833 99.2283 349.231 99.5214 349.827C99.8097 350.413 99.9308 350.901 99.8846 351.291C99.8416 351.68 99.6363 351.965 99.2686 352.146C98.8814 352.337 98.5223 352.322 98.1911 352.101C97.86 351.88 97.5567 351.489 97.2812 350.93ZM97.6863 350.73C97.7904 350.942 97.8987 351.129 98.0113 351.292C98.1254 351.45 98.243 351.578 98.3641 351.676C98.4835 351.771 98.6048 351.832 98.7279 351.861C98.8526 351.884 98.9768 351.866 99.1004 351.805C99.3477 351.683 99.4723 351.48 99.474 351.196C99.4774 350.908 99.3582 350.518 99.1163 350.026C99.0138 349.818 98.9063 349.632 98.7938 349.47C98.6845 349.305 98.5694 349.174 98.4483 349.076C98.3305 348.976 98.2093 348.915 98.0845 348.891C97.9598 348.868 97.8307 348.889 97.6973 348.954C97.4533 349.074 97.3295 349.279 97.3261 349.568C97.326 349.855 97.446 350.242 97.6863 350.73ZM99.9408 349.62C99.6525 349.035 99.5298 348.547 99.5727 348.158C99.619 347.768 99.8243 347.483 100.189 347.303C100.582 347.11 100.939 347.116 101.259 347.322C101.581 347.524 101.888 347.922 102.181 348.518C102.469 349.103 102.59 349.591 102.544 349.982C102.501 350.371 102.296 350.656 101.928 350.837C101.541 351.028 101.182 351.012 100.851 350.791C100.52 350.57 100.216 350.18 99.9408 349.62ZM100.346 349.421C100.45 349.633 100.558 349.82 100.671 349.983C100.785 350.141 100.903 350.269 101.024 350.367C101.143 350.462 101.264 350.523 101.387 350.551C101.512 350.575 101.636 350.556 101.76 350.495C102.007 350.374 102.132 350.171 102.134 349.887C102.137 349.598 102.018 349.208 101.776 348.717C101.673 348.509 101.566 348.323 101.453 348.16C101.344 347.996 101.229 347.865 101.108 347.767C100.99 347.667 100.869 347.605 100.744 347.582C100.619 347.558 100.49 347.579 100.357 347.645C100.113 347.765 99.9891 347.97 99.9857 348.258C99.9856 348.545 100.106 348.933 100.346 349.421ZM103.649 347.947L104.83 347.365L105.008 347.726L103.827 348.308L103.649 347.947ZM107.16 347.74L107.844 347.404L106.681 345.041L106.588 344.729L106.505 345.055L106.158 345.705L105.85 345.547L106.516 344.189L106.691 344.102L108.224 347.216L108.893 346.887L109.071 347.248L107.338 348.101L107.16 347.74ZM109.82 346.431L110.503 346.094L109.34 343.732L109.247 343.42L109.165 343.746L108.818 344.395L108.51 344.238L109.175 342.88L109.351 342.793L110.884 345.907L111.552 345.578L111.73 345.939L109.998 346.792L109.82 346.431ZM111.495 343.332C111.452 343.244 111.443 343.164 111.468 343.091C111.494 343.013 111.55 342.954 111.634 342.912C111.722 342.869 111.805 342.86 111.883 342.887C111.959 342.91 112.018 342.966 112.062 343.053C112.103 343.138 112.111 343.219 112.084 343.297C112.058 343.374 112.001 343.435 111.913 343.478C111.828 343.52 111.747 343.527 111.67 343.501C111.595 343.473 111.537 343.417 111.495 343.332ZM112.464 345.299C112.42 345.211 112.411 345.131 112.436 345.058C112.462 344.98 112.518 344.921 112.603 344.879C112.69 344.836 112.773 344.827 112.851 344.854C112.927 344.877 112.987 344.932 113.03 345.02C113.071 345.105 113.079 345.186 113.053 345.264C113.026 345.341 112.969 345.402 112.881 345.445C112.797 345.487 112.715 345.494 112.638 345.468C112.563 345.44 112.505 345.384 112.464 345.299ZM112.567 343.405C112.278 342.819 112.156 342.332 112.199 341.943C112.245 341.552 112.45 341.267 112.815 341.088C113.208 340.894 113.565 340.9 113.885 341.107C114.206 341.308 114.514 341.707 114.807 342.302C115.095 342.888 115.216 343.376 115.17 343.767C115.127 344.156 114.922 344.441 114.554 344.622C114.167 344.812 113.808 344.797 113.477 344.576C113.145 344.355 112.842 343.965 112.567 343.405ZM112.972 343.206C113.076 343.417 113.184 343.604 113.297 343.767C113.411 343.925 113.528 344.053 113.65 344.151C113.769 344.246 113.89 344.308 114.013 344.336C114.138 344.36 114.262 344.341 114.386 344.28C114.633 344.158 114.758 343.955 114.759 343.672C114.763 343.383 114.644 342.993 114.402 342.502C114.299 342.293 114.192 342.108 114.079 341.945C113.97 341.78 113.855 341.649 113.734 341.551C113.616 341.451 113.495 341.39 113.37 341.366C113.245 341.343 113.116 341.364 112.983 341.43C112.739 341.55 112.615 341.754 112.612 342.043C112.611 342.33 112.731 342.718 112.972 343.206ZM115.226 342.096C114.938 341.51 114.815 341.023 114.858 340.634C114.904 340.243 115.11 339.958 115.474 339.779C115.868 339.585 116.225 339.591 116.545 339.798C116.866 339.999 117.173 340.397 117.466 340.993C117.755 341.579 117.876 342.067 117.83 342.457C117.787 342.846 117.581 343.131 117.214 343.312C116.826 343.503 116.467 343.488 116.136 343.267C115.805 343.046 115.502 342.655 115.226 342.096ZM115.631 341.896C115.735 342.108 115.844 342.295 115.956 342.458C116.07 342.616 116.188 342.744 116.309 342.842C116.429 342.937 116.55 342.998 116.673 343.027C116.798 343.05 116.922 343.032 117.045 342.971C117.293 342.849 117.417 342.646 117.419 342.362C117.422 342.074 117.303 341.684 117.061 341.192C116.959 340.984 116.851 340.799 116.739 340.636C116.63 340.471 116.514 340.34 116.393 340.242C116.276 340.142 116.154 340.081 116.03 340.057C115.905 340.034 115.776 340.055 115.642 340.12C115.398 340.241 115.275 340.445 115.271 340.734C115.271 341.021 115.391 341.408 115.631 341.896Z" fill="#333333"/>
<path d="M148.739 331.241L65.8215 372.059C64.9098 372.508 64.5345 373.611 64.9833 374.523L71.3874 387.532C71.8362 388.444 72.9392 388.819 73.8509 388.37L156.768 347.552C157.68 347.103 158.055 346 157.607 345.088L151.202 332.079C150.754 331.167 149.651 330.792 148.739 331.241Z" fill="#066F6C"/>
<path d="M104.525 380.935L105.208 380.598L104.045 378.236L103.952 377.924L103.87 378.249L103.523 378.899L103.215 378.742L103.88 377.383L104.056 377.297L105.589 380.411L106.257 380.082L106.435 380.443L104.702 381.296L104.525 380.935ZM107.184 379.625L107.868 379.289L106.705 376.927L106.612 376.615L106.529 376.94L106.182 377.59L105.874 377.432L106.54 376.074L106.715 375.988L108.248 379.102L108.917 378.772L109.095 379.134L107.362 379.987L107.184 379.625ZM108.86 376.527C108.817 376.439 108.807 376.358 108.832 376.286C108.859 376.208 108.914 376.148 108.999 376.107C109.087 376.063 109.169 376.055 109.247 376.081C109.323 376.105 109.383 376.16 109.426 376.248C109.468 376.333 109.475 376.414 109.449 376.491C109.422 376.569 109.365 376.63 109.277 376.673C109.193 376.714 109.112 376.722 109.034 376.696C108.96 376.668 108.902 376.611 108.86 376.527ZM109.828 378.494C109.785 378.406 109.776 378.325 109.8 378.253C109.827 378.175 109.882 378.115 109.967 378.074C110.055 378.03 110.138 378.022 110.215 378.048C110.291 378.072 110.351 378.127 110.394 378.215C110.436 378.299 110.444 378.381 110.417 378.458C110.391 378.536 110.334 378.596 110.246 378.64C110.161 378.681 110.08 378.689 110.002 378.663C109.928 378.634 109.87 378.578 109.828 378.494ZM109.931 376.6C109.643 376.014 109.52 375.527 109.563 375.138C109.609 374.747 109.815 374.462 110.179 374.283C110.573 374.089 110.93 374.095 111.249 374.301C111.571 374.503 111.878 374.901 112.171 375.497C112.46 376.082 112.581 376.571 112.534 376.961C112.492 377.35 112.286 377.635 111.919 377.816C111.531 378.007 111.172 377.992 110.841 377.771C110.51 377.55 110.207 377.159 109.931 376.6ZM110.336 376.4C110.44 376.612 110.549 376.799 110.661 376.962C110.775 377.12 110.893 377.248 111.014 377.346C111.133 377.441 111.255 377.502 111.378 377.531C111.503 377.554 111.627 377.535 111.75 377.475C111.998 377.353 112.122 377.15 112.124 376.866C112.127 376.578 112.008 376.188 111.766 375.696C111.664 375.488 111.556 375.302 111.444 375.14C111.334 374.975 111.219 374.844 111.098 374.746C110.98 374.646 110.859 374.584 110.734 374.561C110.61 374.537 110.481 374.559 110.347 374.624C110.103 374.744 109.979 374.949 109.976 375.237C109.976 375.525 110.096 375.912 110.336 376.4ZM112.591 375.29C112.302 374.705 112.18 374.217 112.223 373.828C112.269 373.438 112.474 373.153 112.839 372.973C113.232 372.78 113.589 372.786 113.909 372.992C114.23 373.194 114.538 373.592 114.831 374.188C115.119 374.773 115.24 375.261 115.194 375.652C115.151 376.041 114.946 376.326 114.578 376.507C114.191 376.698 113.832 376.682 113.501 376.461C113.17 376.24 112.866 375.85 112.591 375.29ZM112.996 375.091C113.1 375.302 113.208 375.49 113.321 375.653C113.435 375.811 113.553 375.939 113.674 376.037C113.793 376.131 113.914 376.193 114.037 376.221C114.162 376.245 114.286 376.226 114.41 376.165C114.657 376.044 114.782 375.841 114.784 375.557C114.787 375.268 114.668 374.878 114.426 374.387C114.323 374.179 114.216 373.993 114.103 373.83C113.994 373.666 113.879 373.534 113.758 373.436C113.64 373.337 113.519 373.275 113.394 373.252C113.269 373.228 113.14 373.249 113.007 373.315C112.763 373.435 112.639 373.64 112.636 373.928C112.635 374.215 112.756 374.603 112.996 375.091ZM116.299 373.617L117.48 373.035L117.658 373.396L116.477 373.978L116.299 373.617ZM119.81 373.41L120.493 373.074L119.331 370.711L119.238 370.399L119.155 370.725L118.808 371.375L118.5 371.217L119.166 369.859L119.341 369.772L120.874 372.886L121.543 372.557L121.721 372.918L119.988 373.771L119.81 373.41ZM122.997 369.009C123.082 369.182 123.137 369.375 123.162 369.589C123.188 369.799 123.194 370.02 123.179 370.254C123.168 370.485 123.142 370.721 123.102 370.959C123.06 371.194 123.014 371.42 122.964 371.639L122.828 371.967L122.838 371.986L123.124 371.779L124.188 371.255L124.365 371.616L122.423 372.572L122.353 372.431C122.388 372.321 122.429 372.186 122.475 372.025C122.521 371.865 122.565 371.692 122.607 371.505C122.651 371.314 122.687 371.118 122.718 370.917C122.75 370.712 122.77 370.51 122.778 370.312C122.789 370.113 122.782 369.924 122.759 369.745C122.736 369.566 122.691 369.409 122.623 369.272C122.545 369.113 122.435 369.003 122.292 368.944C122.148 368.882 121.984 368.896 121.798 368.987C121.674 369.048 121.567 369.133 121.475 369.243C121.382 369.35 121.309 369.456 121.257 369.563L120.959 369.364C121.025 369.21 121.122 369.067 121.251 368.935C121.38 368.803 121.534 368.693 121.713 368.605C121.853 368.536 121.987 368.496 122.115 368.486C122.242 368.472 122.361 368.484 122.472 368.522C122.584 368.56 122.685 368.621 122.775 368.706C122.864 368.788 122.938 368.889 122.997 369.009ZM124.145 369.002C124.102 368.914 124.093 368.834 124.118 368.761C124.144 368.683 124.2 368.624 124.284 368.582C124.372 368.539 124.455 368.53 124.532 368.557C124.609 368.58 124.668 368.635 124.711 368.723C124.753 368.808 124.761 368.889 124.734 368.967C124.708 369.044 124.651 369.105 124.563 369.148C124.478 369.19 124.397 369.197 124.319 369.171C124.245 369.143 124.187 369.087 124.145 369.002ZM125.114 370.969C125.07 370.881 125.061 370.801 125.086 370.728C125.112 370.65 125.168 370.591 125.252 370.549C125.34 370.506 125.423 370.497 125.501 370.524C125.577 370.547 125.636 370.602 125.68 370.69C125.721 370.775 125.729 370.856 125.703 370.934C125.676 371.011 125.619 371.072 125.531 371.115C125.447 371.157 125.365 371.164 125.288 371.138C125.213 371.11 125.155 371.053 125.114 370.969ZM125.217 369.075C124.928 368.489 124.806 368.002 124.849 367.613C124.895 367.222 125.1 366.937 125.464 366.758C125.858 366.564 126.215 366.57 126.535 366.777C126.856 366.978 127.164 367.377 127.457 367.972C127.745 368.558 127.866 369.046 127.82 369.437C127.777 369.826 127.572 370.111 127.204 370.292C126.817 370.482 126.458 370.467 126.126 370.246C125.795 370.025 125.492 369.635 125.217 369.075ZM125.622 368.876C125.726 369.087 125.834 369.274 125.947 369.437C126.061 369.595 126.178 369.723 126.299 369.821C126.419 369.916 126.54 369.978 126.663 370.006C126.788 370.029 126.912 370.011 127.036 369.95C127.283 369.828 127.408 369.625 127.409 369.342C127.413 369.053 127.294 368.663 127.052 368.172C126.949 367.963 126.842 367.778 126.729 367.615C126.62 367.45 126.505 367.319 126.384 367.221C126.266 367.121 126.145 367.06 126.02 367.036C125.895 367.013 125.766 367.034 125.633 367.1C125.389 367.22 125.265 367.424 125.261 367.713C125.261 368 125.381 368.387 125.622 368.876ZM127.876 367.766C127.588 367.18 127.465 366.693 127.508 366.304C127.554 365.913 127.76 365.628 128.124 365.449C128.518 365.255 128.875 365.261 129.194 365.467C129.516 365.669 129.823 366.067 130.116 366.663C130.405 367.249 130.526 367.737 130.48 368.127C130.437 368.516 130.231 368.801 129.864 368.982C129.476 369.173 129.117 369.158 128.786 368.937C128.455 368.716 128.152 368.325 127.876 367.766ZM128.281 367.566C128.385 367.778 128.494 367.965 128.606 368.128C128.72 368.286 128.838 368.414 128.959 368.512C129.078 368.607 129.2 368.668 129.323 368.697C129.448 368.72 129.572 368.701 129.695 368.641C129.943 368.519 130.067 368.316 130.069 368.032C130.072 367.744 129.953 367.354 129.711 366.862C129.609 366.654 129.501 366.468 129.389 366.306C129.279 366.141 129.164 366.01 129.043 365.912C128.925 365.812 128.804 365.751 128.679 365.727C128.555 365.704 128.426 365.725 128.292 365.79C128.048 365.91 127.924 366.115 127.921 366.404C127.921 366.691 128.041 367.078 128.281 367.566Z" fill="#333333"/>
<path d="M161.377 356.909L78.4594 397.727C77.5477 398.176 77.1724 399.279 77.6213 400.191L84.0254 413.2C84.4742 414.112 85.5771 414.487 86.4888 414.038L169.406 373.22C170.318 372.771 170.693 371.668 170.244 370.756L163.84 357.747C163.392 356.835 162.289 356.46 161.377 356.909Z" fill="#C5CFD7"/>
<path d="M117.165 406.605L117.848 406.268L116.685 403.906L116.592 403.594L116.51 403.919L116.163 404.569L115.855 404.412L116.52 403.053L116.696 402.967L118.229 406.081L118.897 405.752L119.075 406.113L117.342 406.966L117.165 406.605ZM120.352 402.204C120.437 402.376 120.491 402.57 120.516 402.784C120.542 402.993 120.548 403.215 120.534 403.448C120.523 403.68 120.497 403.915 120.456 404.153C120.414 404.388 120.368 404.615 120.318 404.834L120.183 405.161L120.192 405.181L120.478 404.973L121.542 404.45L121.72 404.811L119.777 405.767L119.708 405.625C119.742 405.515 119.783 405.38 119.829 405.22C119.876 405.06 119.92 404.886 119.962 404.7C120.005 404.509 120.042 404.313 120.072 404.112C120.104 403.906 120.124 403.704 120.132 403.507C120.143 403.307 120.137 403.118 120.114 402.94C120.09 402.761 120.045 402.603 119.978 402.467C119.899 402.307 119.789 402.198 119.647 402.139C119.503 402.076 119.338 402.091 119.152 402.182C119.029 402.243 118.921 402.328 118.83 402.438C118.737 402.544 118.664 402.651 118.611 402.758L118.313 402.559C118.379 402.405 118.476 402.262 118.605 402.13C118.734 401.998 118.888 401.887 119.067 401.799C119.207 401.73 119.341 401.691 119.469 401.68C119.596 401.666 119.715 401.678 119.827 401.716C119.939 401.754 120.04 401.816 120.13 401.901C120.219 401.982 120.293 402.084 120.352 402.204ZM121.5 402.197C121.457 402.109 121.447 402.028 121.472 401.956C121.498 401.878 121.554 401.818 121.639 401.777C121.726 401.733 121.809 401.725 121.887 401.751C121.963 401.775 122.023 401.83 122.066 401.918C122.108 402.002 122.115 402.084 122.089 402.161C122.062 402.239 122.005 402.299 121.917 402.343C121.833 402.384 121.752 402.392 121.674 402.366C121.599 402.338 121.541 402.281 121.5 402.197ZM122.468 404.164C122.425 404.076 122.416 403.995 122.44 403.922C122.467 403.845 122.522 403.785 122.607 403.743C122.695 403.7 122.777 403.692 122.855 403.718C122.931 403.741 122.991 403.797 123.034 403.885C123.076 403.969 123.083 404.051 123.057 404.128C123.031 404.206 122.973 404.266 122.886 404.31C122.801 404.351 122.72 404.359 122.642 404.332C122.568 404.304 122.51 404.248 122.468 404.164ZM122.571 402.27C122.283 401.684 122.16 401.197 122.203 400.808C122.249 400.417 122.454 400.132 122.819 399.953C123.213 399.759 123.569 399.765 123.889 399.971C124.211 400.173 124.518 400.571 124.811 401.167C125.1 401.752 125.221 402.241 125.174 402.631C125.131 403.02 124.926 403.305 124.558 403.486C124.171 403.677 123.812 403.662 123.481 403.441C123.15 403.22 122.847 402.829 122.571 402.27ZM122.976 402.07C123.08 402.282 123.189 402.469 123.301 402.632C123.415 402.79 123.533 402.918 123.654 403.016C123.773 403.111 123.895 403.172 124.018 403.201C124.142 403.224 124.267 403.205 124.39 403.144C124.638 403.023 124.762 402.82 124.764 402.536C124.767 402.247 124.648 401.857 124.406 401.366C124.304 401.158 124.196 400.972 124.084 400.809C123.974 400.645 123.859 400.514 123.738 400.416C123.62 400.316 123.499 400.254 123.374 400.231C123.25 400.207 123.121 400.229 122.987 400.294C122.743 400.414 122.619 400.619 122.616 400.907C122.616 401.194 122.736 401.582 122.976 402.07ZM125.231 400.96C124.942 400.375 124.82 399.887 124.863 399.498C124.909 399.108 125.114 398.823 125.478 398.643C125.872 398.449 126.229 398.456 126.549 398.662C126.87 398.864 127.178 399.262 127.471 399.857C127.759 400.443 127.88 400.931 127.834 401.322C127.791 401.711 127.586 401.996 127.218 402.177C126.831 402.367 126.472 402.352 126.141 402.131C125.809 401.91 125.506 401.52 125.231 400.96ZM125.636 400.761C125.74 400.972 125.848 401.16 125.961 401.322C126.075 401.48 126.192 401.609 126.313 401.707C126.433 401.801 126.554 401.863 126.677 401.891C126.802 401.915 126.926 401.896 127.05 401.835C127.297 401.713 127.422 401.511 127.423 401.227C127.427 400.938 127.308 400.548 127.066 400.057C126.963 399.849 126.856 399.663 126.743 399.5C126.634 399.336 126.519 399.204 126.398 399.106C126.28 399.007 126.159 398.945 126.034 398.922C125.909 398.898 125.78 398.919 125.647 398.985C125.403 399.105 125.279 399.309 125.276 399.598C125.275 399.885 125.395 400.273 125.636 400.761ZM128.939 399.286L130.12 398.705L130.298 399.066L129.116 399.648L128.939 399.286ZM132.45 399.08L133.133 398.743L131.97 396.381L131.877 396.069L131.795 396.395L131.448 397.045L131.14 396.887L131.805 395.529L131.981 395.442L133.514 398.556L134.183 398.227L134.36 398.588L132.628 399.441L132.45 399.08ZM135.763 397.546C135.874 397.491 135.968 397.425 136.046 397.346C136.125 397.267 136.183 397.18 136.221 397.084C136.257 396.985 136.273 396.882 136.269 396.775C136.265 396.668 136.237 396.563 136.186 396.459C136.074 396.231 135.922 396.095 135.731 396.052C135.543 396.007 135.33 396.043 135.093 396.16L134.732 396.338L134.662 396.196L134.831 394.767L134.95 394.441L134.657 394.646L133.691 395.122L133.513 394.761L135.255 393.903L135.325 394.045L135.123 395.593L135.022 395.819L135.027 395.829L135.176 395.713C135.308 395.652 135.44 395.617 135.573 395.608C135.705 395.596 135.832 395.612 135.955 395.657C136.076 395.698 136.188 395.766 136.292 395.861C136.393 395.952 136.48 396.071 136.552 396.218C136.639 396.393 136.685 396.565 136.69 396.732C136.696 396.899 136.668 397.056 136.607 397.203C136.548 397.346 136.458 397.476 136.339 397.596C136.22 397.715 136.081 397.814 135.921 397.892C135.775 397.964 135.638 398.018 135.509 398.053C135.381 398.088 135.264 398.109 135.159 398.116L135.09 397.719C135.183 397.718 135.286 397.706 135.4 397.682C135.515 397.654 135.636 397.608 135.763 397.546ZM136.785 394.672C136.742 394.584 136.733 394.504 136.758 394.431C136.784 394.353 136.839 394.294 136.924 394.252C137.012 394.209 137.095 394.2 137.172 394.227C137.248 394.25 137.308 394.305 137.351 394.393C137.393 394.478 137.401 394.559 137.374 394.637C137.348 394.714 137.291 394.775 137.203 394.818C137.118 394.86 137.037 394.867 136.959 394.841C136.885 394.813 136.827 394.757 136.785 394.672ZM137.753 396.639C137.71 396.551 137.701 396.471 137.726 396.398C137.752 396.32 137.808 396.26 137.892 396.219C137.98 396.176 138.063 396.167 138.141 396.194C138.217 396.217 138.276 396.272 138.32 396.36C138.361 396.445 138.369 396.526 138.342 396.604C138.316 396.681 138.259 396.742 138.171 396.785C138.086 396.827 138.005 396.834 137.928 396.808C137.853 396.78 137.795 396.723 137.753 396.639ZM137.856 394.745C137.568 394.159 137.445 393.672 137.488 393.283C137.535 392.892 137.74 392.607 138.104 392.428C138.498 392.234 138.855 392.24 139.175 392.447C139.496 392.648 139.804 393.047 140.097 393.642C140.385 394.228 140.506 394.716 140.46 395.106C140.417 395.495 140.212 395.78 139.844 395.961C139.457 396.152 139.098 396.137 138.766 395.916C138.435 395.695 138.132 395.304 137.856 394.745ZM138.262 394.545C138.366 394.757 138.474 394.944 138.586 395.107C138.701 395.265 138.818 395.393 138.939 395.491C139.059 395.586 139.18 395.648 139.303 395.676C139.428 395.699 139.552 395.681 139.676 395.62C139.923 395.498 140.047 395.295 140.049 395.011C140.053 394.723 139.933 394.333 139.692 393.841C139.589 393.633 139.482 393.448 139.369 393.285C139.26 393.12 139.145 392.989 139.024 392.891C138.906 392.791 138.785 392.73 138.66 392.706C138.535 392.683 138.406 392.704 138.273 392.769C138.029 392.89 137.905 393.094 137.901 393.383C137.901 393.67 138.021 394.057 138.262 394.545ZM140.516 393.436C140.228 392.85 140.105 392.363 140.148 391.974C140.194 391.583 140.4 391.298 140.764 391.119C141.158 390.925 141.514 390.931 141.834 391.137C142.156 391.339 142.463 391.737 142.756 392.333C143.045 392.918 143.166 393.407 143.119 393.797C143.076 394.186 142.871 394.471 142.503 394.652C142.116 394.843 141.757 394.828 141.426 394.607C141.095 394.386 140.792 393.995 140.516 393.436ZM140.921 393.236C141.025 393.448 141.134 393.635 141.246 393.798C141.36 393.956 141.478 394.084 141.599 394.182C141.718 394.277 141.84 394.338 141.963 394.367C142.087 394.39 142.212 394.371 142.335 394.311C142.583 394.189 142.707 393.986 142.709 393.702C142.712 393.414 142.593 393.024 142.351 392.532C142.249 392.324 142.141 392.138 142.029 391.976C141.919 391.811 141.804 391.68 141.683 391.582C141.565 391.482 141.444 391.42 141.319 391.397C141.195 391.373 141.066 391.395 140.932 391.46C140.688 391.58 140.564 391.785 140.561 392.073C140.561 392.361 140.681 392.748 140.921 393.236Z" fill="#333333"/>
<path d="M174.015 382.577L91.0971 423.395C90.1854 423.844 89.8101 424.947 90.2589 425.859L96.6631 438.868C97.1119 439.78 98.2148 440.155 99.1265 439.706L182.044 398.888C182.956 398.439 183.331 397.336 182.882 396.424L176.478 383.415C176.029 382.503 174.926 382.128 174.015 382.577Z" fill="#C5CFD7"/>
<path d="M129.895 432.234L130.578 431.898L129.415 429.536L129.322 429.224L129.24 429.549L128.893 430.199L128.585 430.042L129.25 428.683L129.426 428.597L130.959 431.711L131.627 431.381L131.805 431.743L130.073 432.596L129.895 432.234ZM133.208 430.7C133.318 430.646 133.413 430.579 133.491 430.5C133.57 430.421 133.628 430.334 133.666 430.239C133.702 430.14 133.718 430.037 133.714 429.93C133.71 429.823 133.682 429.717 133.631 429.613C133.518 429.385 133.367 429.25 133.176 429.207C132.988 429.162 132.775 429.198 132.538 429.314L132.176 429.492L132.107 429.351L132.276 427.921L132.395 427.596L132.102 427.801L131.135 428.277L130.958 427.915L132.7 427.058L132.77 427.199L132.568 428.748L132.467 428.973L132.472 428.983L132.621 428.867C132.752 428.807 132.885 428.772 133.018 428.763C133.149 428.751 133.277 428.767 133.4 428.811C133.521 428.853 133.633 428.921 133.736 429.015C133.838 429.107 133.925 429.226 133.997 429.372C134.083 429.548 134.129 429.719 134.135 429.886C134.14 430.053 134.113 430.211 134.052 430.358C133.992 430.5 133.903 430.631 133.784 430.75C133.665 430.87 133.526 430.968 133.366 431.047C133.22 431.119 133.082 431.173 132.954 431.207C132.826 431.242 132.709 431.263 132.603 431.271L132.535 430.874C132.628 430.873 132.731 430.861 132.844 430.837C132.96 430.808 133.081 430.763 133.208 430.7ZM134.23 427.826C134.187 427.739 134.178 427.658 134.202 427.585C134.229 427.508 134.284 427.448 134.369 427.406C134.457 427.363 134.539 427.355 134.617 427.381C134.693 427.404 134.753 427.46 134.796 427.548C134.838 427.632 134.845 427.714 134.819 427.791C134.793 427.869 134.735 427.929 134.648 427.973C134.563 428.014 134.482 428.022 134.404 427.995C134.33 427.967 134.272 427.911 134.23 427.826ZM135.198 429.793C135.155 429.706 135.146 429.625 135.171 429.552C135.197 429.475 135.252 429.415 135.337 429.373C135.425 429.33 135.508 429.322 135.585 429.348C135.661 429.371 135.721 429.427 135.764 429.515C135.806 429.599 135.814 429.68 135.787 429.758C135.761 429.836 135.704 429.896 135.616 429.94C135.531 429.981 135.45 429.989 135.372 429.962C135.298 429.934 135.24 429.878 135.198 429.793ZM135.301 427.899C135.013 427.314 134.89 426.826 134.933 426.437C134.979 426.047 135.185 425.762 135.549 425.582C135.943 425.389 136.3 425.395 136.619 425.601C136.941 425.803 137.248 426.201 137.541 426.797C137.83 427.382 137.951 427.87 137.905 428.261C137.862 428.65 137.656 428.935 137.289 429.116C136.901 429.307 136.542 429.291 136.211 429.07C135.88 428.849 135.577 428.459 135.301 427.899ZM135.706 427.7C135.81 427.911 135.919 428.099 136.031 428.262C136.145 428.42 136.263 428.548 136.384 428.646C136.504 428.741 136.625 428.802 136.748 428.83C136.873 428.854 136.997 428.835 137.12 428.774C137.368 428.653 137.492 428.45 137.494 428.166C137.497 427.877 137.378 427.487 137.136 426.996C137.034 426.788 136.926 426.602 136.814 426.439C136.705 426.275 136.589 426.144 136.468 426.045C136.351 425.946 136.229 425.884 136.105 425.861C135.98 425.837 135.851 425.858 135.717 425.924C135.473 426.044 135.35 426.249 135.346 426.537C135.346 426.824 135.466 427.212 135.706 427.7ZM137.961 426.59C137.672 426.004 137.55 425.517 137.593 425.128C137.639 424.738 137.844 424.453 138.209 424.273C138.602 424.079 138.959 424.086 139.279 424.292C139.601 424.493 139.908 424.892 140.201 425.487C140.489 426.073 140.61 426.561 140.564 426.952C140.521 427.341 140.316 427.626 139.948 427.807C139.561 427.997 139.202 427.982 138.871 427.761C138.54 427.54 138.236 427.15 137.961 426.59ZM138.366 426.391C138.47 426.602 138.578 426.789 138.691 426.952C138.805 427.11 138.923 427.238 139.044 427.336C139.163 427.431 139.284 427.493 139.407 427.521C139.532 427.545 139.656 427.526 139.78 427.465C140.027 427.343 140.152 427.141 140.154 426.857C140.157 426.568 140.038 426.178 139.796 425.687C139.693 425.479 139.586 425.293 139.473 425.13C139.364 424.966 139.249 424.834 139.128 424.736C139.01 424.637 138.889 424.575 138.764 424.552C138.639 424.528 138.51 424.549 138.377 424.615C138.133 424.735 138.009 424.939 138.006 425.228C138.006 425.515 138.126 425.903 138.366 426.391ZM141.669 424.916L142.85 424.335L143.028 424.696L141.847 425.278L141.669 424.916ZM145.18 424.71L145.864 424.373L144.701 422.011L144.608 421.699L144.525 422.025L144.178 422.674L143.87 422.517L144.536 421.159L144.711 421.072L146.244 424.186L146.913 423.857L147.091 424.218L145.358 425.071L145.18 424.71ZM149.531 421.713L148.955 421.996L149.472 423.046L149.091 423.233L148.575 422.184L147.072 422.924L146.992 422.763L147.5 419.705L147.764 419.575L148.787 421.655L149.363 421.371L149.531 421.713ZM147.883 420.778L147.735 420.354L147.72 420.361L147.713 420.777L147.483 422.048L147.367 422.402L147.689 422.195L148.407 421.842L147.883 420.778ZM149.515 420.302C149.472 420.214 149.463 420.134 149.488 420.061C149.514 419.983 149.57 419.923 149.654 419.882C149.742 419.839 149.825 419.83 149.903 419.857C149.979 419.88 150.038 419.935 150.082 420.023C150.123 420.108 150.131 420.189 150.104 420.267C150.078 420.344 150.021 420.405 149.933 420.448C149.848 420.49 149.767 420.497 149.69 420.471C149.615 420.443 149.557 420.386 149.515 420.302ZM150.484 422.269C150.44 422.181 150.431 422.101 150.456 422.028C150.482 421.95 150.538 421.89 150.623 421.849C150.71 421.805 150.793 421.797 150.871 421.823C150.947 421.847 151.007 421.902 151.05 421.99C151.092 422.075 151.099 422.156 151.073 422.233C151.046 422.311 150.989 422.372 150.901 422.415C150.817 422.456 150.736 422.464 150.658 422.438C150.583 422.41 150.525 422.353 150.484 422.269ZM150.587 420.375C150.298 419.789 150.176 419.302 150.219 418.913C150.265 418.522 150.47 418.237 150.835 418.058C151.228 417.864 151.585 417.87 151.905 418.077C152.226 418.278 152.534 418.676 152.827 419.272C153.115 419.858 153.236 420.346 153.19 420.736C153.147 421.125 152.942 421.41 152.574 421.591C152.187 421.782 151.828 421.767 151.497 421.546C151.165 421.325 150.862 420.934 150.587 420.375ZM150.992 420.175C151.096 420.387 151.204 420.574 151.317 420.737C151.431 420.895 151.549 421.023 151.67 421.121C151.789 421.216 151.91 421.277 152.033 421.306C152.158 421.329 152.282 421.311 152.406 421.25C152.653 421.128 152.778 420.925 152.779 420.641C152.783 420.353 152.664 419.963 152.422 419.471C152.319 419.263 152.212 419.078 152.099 418.915C151.99 418.75 151.875 418.619 151.754 418.521C151.636 418.421 151.515 418.36 151.39 418.336C151.265 418.313 151.136 418.334 151.003 418.399C150.759 418.52 150.635 418.724 150.632 419.013C150.631 419.3 150.751 419.687 150.992 420.175ZM153.246 419.065C152.958 418.48 152.835 417.992 152.878 417.603C152.924 417.213 153.13 416.928 153.494 416.748C153.888 416.555 154.245 416.561 154.565 416.767C154.886 416.969 155.193 417.367 155.486 417.963C155.775 418.548 155.896 419.036 155.85 419.427C155.807 419.816 155.601 420.101 155.234 420.282C154.846 420.473 154.487 420.457 154.156 420.236C153.825 420.015 153.522 419.625 153.246 419.065ZM153.651 418.866C153.755 419.078 153.864 419.265 153.976 419.428C154.09 419.586 154.208 419.714 154.329 419.812C154.449 419.907 154.57 419.968 154.693 419.997C154.818 420.02 154.942 420.001 155.065 419.94C155.313 419.819 155.437 419.616 155.439 419.332C155.442 419.043 155.323 418.653 155.081 418.162C154.979 417.954 154.871 417.768 154.759 417.605C154.65 417.441 154.534 417.31 154.413 417.212C154.296 417.112 154.174 417.05 154.05 417.027C153.925 417.003 153.796 417.024 153.662 417.09C153.418 417.21 153.295 417.415 153.291 417.703C153.291 417.99 153.411 418.378 153.651 418.866Z" fill="#333333"/>
<path d="M142.545 457.895L143.228 457.558L142.065 455.196L141.972 454.884L141.89 455.209L141.543 455.859L141.235 455.702L141.9 454.343L142.076 454.257L143.609 457.371L144.277 457.042L144.455 457.403L142.722 458.256L142.545 457.895ZM146.896 454.898L146.32 455.181L146.837 456.23L146.456 456.418L145.939 455.369L144.436 456.109L144.357 455.947L144.865 452.89L145.128 452.76L146.152 454.839L146.728 454.556L146.896 454.898ZM145.247 453.963L145.099 453.539L145.084 453.546L145.077 453.962L144.848 455.233L144.731 455.587L145.054 455.38L145.771 455.027L145.247 453.963ZM146.88 453.487C146.837 453.399 146.827 453.318 146.852 453.246C146.879 453.168 146.934 453.108 147.019 453.067C147.107 453.023 147.189 453.015 147.267 453.041C147.343 453.065 147.403 453.12 147.446 453.208C147.488 453.293 147.495 453.374 147.469 453.451C147.442 453.529 147.385 453.59 147.297 453.633C147.213 453.674 147.132 453.682 147.054 453.656C146.98 453.628 146.922 453.571 146.88 453.487ZM147.848 455.454C147.805 455.366 147.796 455.285 147.82 455.213C147.847 455.135 147.902 455.075 147.987 455.034C148.075 454.99 148.158 454.982 148.235 455.008C148.311 455.031 148.371 455.087 148.414 455.175C148.456 455.259 148.464 455.341 148.437 455.418C148.411 455.496 148.354 455.556 148.266 455.6C148.181 455.641 148.1 455.649 148.022 455.622C147.948 455.594 147.89 455.538 147.848 455.454ZM147.951 453.56C147.663 452.974 147.54 452.487 147.583 452.098C147.629 451.707 147.835 451.422 148.199 451.243C148.593 451.049 148.95 451.055 149.269 451.261C149.591 451.463 149.898 451.861 150.191 452.457C150.48 453.042 150.601 453.531 150.555 453.921C150.512 454.31 150.306 454.595 149.939 454.776C149.551 454.967 149.192 454.952 148.861 454.731C148.53 454.51 148.227 454.119 147.951 453.56ZM148.356 453.36C148.46 453.572 148.569 453.759 148.681 453.922C148.795 454.08 148.913 454.208 149.034 454.306C149.153 454.401 149.275 454.462 149.398 454.491C149.523 454.514 149.647 454.495 149.77 454.435C150.018 454.313 150.142 454.11 150.144 453.826C150.147 453.537 150.028 453.147 149.786 452.656C149.684 452.448 149.576 452.262 149.464 452.099C149.354 451.935 149.239 451.804 149.118 451.706C149 451.606 148.879 451.544 148.754 451.521C148.63 451.497 148.501 451.519 148.367 451.584C148.123 451.704 147.999 451.909 147.996 452.197C147.996 452.485 148.116 452.872 148.356 453.36ZM150.611 452.25C150.322 451.665 150.2 451.177 150.243 450.788C150.289 450.398 150.494 450.113 150.859 449.933C151.252 449.739 151.609 449.746 151.929 449.952C152.25 450.154 152.558 450.552 152.851 451.148C153.139 451.733 153.26 452.221 153.214 452.612C153.171 453.001 152.966 453.286 152.598 453.467C152.211 453.658 151.852 453.642 151.521 453.421C151.19 453.2 150.886 452.81 150.611 452.25ZM151.016 452.051C151.12 452.262 151.228 452.45 151.341 452.612C151.455 452.771 151.573 452.899 151.694 452.997C151.813 453.091 151.934 453.153 152.057 453.181C152.182 453.205 152.306 453.186 152.43 453.125C152.677 453.004 152.802 452.801 152.804 452.517C152.807 452.228 152.688 451.838 152.446 451.347C152.343 451.139 152.236 450.953 152.123 450.79C152.014 450.626 151.899 450.494 151.778 450.396C151.66 450.297 151.539 450.235 151.414 450.212C151.289 450.188 151.16 450.209 151.027 450.275C150.783 450.395 150.659 450.599 150.656 450.888C150.655 451.175 150.776 451.563 151.016 452.051ZM154.319 450.576L155.5 449.995L155.678 450.356L154.497 450.938L154.319 450.576ZM157.83 450.37L158.513 450.033L157.351 447.671L157.258 447.359L157.175 447.685L156.828 448.335L156.52 448.177L157.186 446.819L157.361 446.732L158.894 449.846L159.563 449.517L159.741 449.878L158.008 450.731L157.83 450.37ZM161.041 448.886C161.265 448.776 161.419 448.62 161.501 448.417C161.583 448.215 161.564 447.99 161.442 447.743C161.325 447.505 161.164 447.364 160.96 447.319C160.759 447.272 160.532 447.312 160.278 447.437L159.88 447.663L159.049 445.974L160.572 445.224L160.75 445.586L159.593 446.155L160.071 447.126L160.276 447.013C160.6 446.858 160.898 446.822 161.17 446.907C161.442 446.991 161.659 447.198 161.82 447.526C161.91 447.709 161.959 447.887 161.968 448.06C161.975 448.23 161.948 448.389 161.887 448.536C161.829 448.682 161.741 448.815 161.622 448.934C161.503 449.053 161.362 449.153 161.199 449.233C161.053 449.305 160.925 449.358 160.816 449.391C160.707 449.424 160.601 449.447 160.497 449.457L160.436 449.075C160.525 449.067 160.616 449.051 160.709 449.025C160.803 448.995 160.914 448.949 161.041 448.886ZM162.165 445.962C162.122 445.874 162.113 445.794 162.138 445.721C162.164 445.643 162.22 445.584 162.304 445.542C162.392 445.499 162.475 445.49 162.552 445.517C162.629 445.54 162.688 445.595 162.731 445.683C162.773 445.768 162.781 445.849 162.754 445.927C162.728 446.004 162.671 446.065 162.583 446.108C162.498 446.15 162.417 446.157 162.339 446.131C162.265 446.103 162.207 446.047 162.165 445.962ZM163.134 447.929C163.09 447.841 163.081 447.761 163.106 447.688C163.132 447.61 163.188 447.55 163.272 447.509C163.36 447.466 163.443 447.457 163.521 447.484C163.597 447.507 163.657 447.562 163.7 447.65C163.741 447.735 163.749 447.816 163.723 447.894C163.696 447.971 163.639 448.032 163.551 448.075C163.467 448.117 163.385 448.124 163.308 448.098C163.233 448.07 163.175 448.013 163.134 447.929ZM163.237 446.035C162.948 445.449 162.826 444.962 162.869 444.573C162.915 444.182 163.12 443.897 163.484 443.718C163.878 443.524 164.235 443.53 164.555 443.737C164.876 443.938 165.184 444.337 165.477 444.932C165.765 445.518 165.886 446.006 165.84 446.396C165.797 446.785 165.592 447.07 165.224 447.251C164.837 447.442 164.478 447.427 164.147 447.206C163.815 446.985 163.512 446.595 163.237 446.035ZM163.642 445.835C163.746 446.047 163.854 446.234 163.967 446.397C164.081 446.555 164.198 446.683 164.319 446.781C164.439 446.876 164.56 446.938 164.683 446.966C164.808 446.989 164.932 446.971 165.056 446.91C165.303 446.788 165.428 446.585 165.429 446.301C165.433 446.013 165.314 445.623 165.072 445.131C164.969 444.923 164.862 444.738 164.749 444.575C164.64 444.41 164.525 444.279 164.404 444.181C164.286 444.081 164.165 444.02 164.04 443.996C163.915 443.973 163.786 443.994 163.653 444.06C163.409 444.18 163.285 444.384 163.282 444.673C163.281 444.96 163.401 445.347 163.642 445.835ZM165.896 444.726C165.608 444.14 165.485 443.653 165.528 443.264C165.574 442.873 165.78 442.588 166.144 442.409C166.538 442.215 166.895 442.221 167.214 442.427C167.536 442.629 167.843 443.027 168.136 443.623C168.425 444.208 168.546 444.697 168.5 445.087C168.457 445.476 168.251 445.761 167.884 445.942C167.496 446.133 167.137 446.118 166.806 445.897C166.475 445.676 166.172 445.285 165.896 444.726ZM166.301 444.526C166.405 444.738 166.514 444.925 166.626 445.088C166.74 445.246 166.858 445.374 166.979 445.472C167.098 445.567 167.22 445.628 167.343 445.657C167.468 445.68 167.592 445.661 167.715 445.601C167.963 445.479 168.087 445.276 168.089 444.992C168.092 444.704 167.973 444.314 167.731 443.822C167.629 443.614 167.521 443.428 167.409 443.266C167.299 443.101 167.184 442.97 167.063 442.872C166.945 442.772 166.824 442.71 166.699 442.687C166.575 442.664 166.446 442.685 166.312 442.75C166.068 442.87 165.944 443.075 165.941 443.363C165.941 443.651 166.061 444.038 166.301 444.526Z" fill="#333333"/>
<path d="M199.291 433.918L116.374 474.736C115.462 475.185 115.087 476.288 115.536 477.2L121.94 490.209C122.389 491.12 123.492 491.496 124.403 491.047L207.321 450.228C208.233 449.78 208.608 448.677 208.159 447.765L201.755 434.756C201.306 433.844 200.203 433.469 199.291 433.918Z" fill="#2158A5"/>
<path d="M155.125 483.595L155.808 483.258L154.645 480.896L154.552 480.584L154.47 480.91L154.123 481.56L153.815 481.402L154.48 480.044L154.656 479.957L156.189 483.071L156.857 482.742L157.035 483.103L155.303 483.956L155.125 483.595ZM158.335 482.111C158.56 482.001 158.713 481.844 158.796 481.642C158.878 481.44 158.858 481.215 158.736 480.968C158.62 480.73 158.459 480.589 158.255 480.544C158.054 480.497 157.827 480.537 157.573 480.661L157.175 480.888L156.344 479.199L157.867 478.449L158.044 478.811L156.888 479.38L157.366 480.351L157.571 480.238C157.895 480.083 158.192 480.047 158.464 480.132C158.736 480.216 158.953 480.423 159.115 480.751C159.205 480.933 159.254 481.111 159.262 481.285C159.27 481.455 159.243 481.614 159.182 481.761C159.124 481.907 159.036 482.039 158.916 482.159C158.797 482.278 158.656 482.378 158.494 482.458C158.347 482.53 158.22 482.583 158.111 482.616C158.002 482.649 157.895 482.671 157.792 482.682L157.731 482.3C157.82 482.292 157.911 482.276 158.004 482.25C158.098 482.22 158.208 482.174 158.335 482.111ZM159.46 479.187C159.417 479.099 159.407 479.019 159.432 478.946C159.459 478.868 159.514 478.808 159.599 478.767C159.687 478.724 159.769 478.715 159.847 478.742C159.923 478.765 159.983 478.82 160.026 478.908C160.068 478.993 160.075 479.074 160.049 479.152C160.023 479.229 159.965 479.29 159.878 479.333C159.793 479.375 159.712 479.382 159.634 479.356C159.56 479.328 159.502 479.271 159.46 479.187ZM160.428 481.154C160.385 481.066 160.376 480.986 160.401 480.913C160.427 480.835 160.482 480.775 160.567 480.734C160.655 480.69 160.738 480.682 160.815 480.708C160.891 480.732 160.951 480.787 160.994 480.875C161.036 480.96 161.044 481.041 161.017 481.118C160.991 481.196 160.934 481.257 160.846 481.3C160.761 481.342 160.68 481.349 160.602 481.323C160.528 481.295 160.47 481.238 160.428 481.154ZM160.531 479.26C160.243 478.674 160.12 478.187 160.163 477.798C160.209 477.407 160.415 477.122 160.779 476.943C161.173 476.749 161.53 476.755 161.849 476.962C162.171 477.163 162.478 477.562 162.771 478.157C163.06 478.743 163.181 479.231 163.135 479.621C163.092 480.01 162.886 480.295 162.519 480.476C162.131 480.667 161.772 480.652 161.441 480.431C161.11 480.21 160.807 479.819 160.531 479.26ZM160.936 479.06C161.04 479.272 161.149 479.459 161.261 479.622C161.375 479.78 161.493 479.908 161.614 480.006C161.734 480.101 161.855 480.162 161.978 480.191C162.103 480.214 162.227 480.196 162.35 480.135C162.598 480.013 162.722 479.81 162.724 479.526C162.727 479.238 162.608 478.848 162.366 478.356C162.264 478.148 162.156 477.963 162.044 477.8C161.935 477.635 161.819 477.504 161.698 477.406C161.581 477.306 161.459 477.245 161.335 477.221C161.21 477.198 161.081 477.219 160.947 477.284C160.703 477.405 160.58 477.609 160.576 477.898C160.576 478.185 160.696 478.572 160.936 479.06ZM163.191 477.951C162.902 477.365 162.78 476.877 162.823 476.488C162.869 476.098 163.074 475.813 163.439 475.634C163.832 475.44 164.189 475.446 164.509 475.652C164.831 475.854 165.138 476.252 165.431 476.848C165.719 477.433 165.84 477.922 165.794 478.312C165.751 478.701 165.546 478.986 165.178 479.167C164.791 479.358 164.432 479.343 164.101 479.122C163.77 478.9 163.466 478.51 163.191 477.951ZM163.596 477.751C163.7 477.963 163.808 478.15 163.921 478.313C164.035 478.471 164.153 478.599 164.274 478.697C164.393 478.792 164.514 478.853 164.637 478.882C164.762 478.905 164.886 478.886 165.01 478.825C165.257 478.704 165.382 478.501 165.384 478.217C165.387 477.928 165.268 477.538 165.026 477.047C164.923 476.839 164.816 476.653 164.703 476.49C164.594 476.326 164.479 476.195 164.358 476.097C164.24 475.997 164.119 475.935 163.994 475.912C163.869 475.888 163.74 475.909 163.607 475.975C163.363 476.095 163.239 476.3 163.236 476.588C163.236 476.875 163.356 477.263 163.596 477.751ZM166.899 476.277L168.08 475.695L168.258 476.056L167.077 476.638L166.899 476.277ZM170.41 476.07L171.094 475.734L169.931 473.371L169.838 473.059L169.755 473.385L169.408 474.035L169.1 473.877L169.766 472.519L169.941 472.432L171.474 475.546L172.143 475.217L172.321 475.578L170.588 476.431L170.41 476.07ZM174.615 473.17C174.688 473.319 174.735 473.472 174.756 473.628C174.774 473.78 174.764 473.929 174.726 474.073C174.686 474.214 174.616 474.345 174.514 474.468C174.411 474.587 174.277 474.688 174.111 474.77C173.948 474.85 173.789 474.896 173.633 474.908C173.478 474.92 173.328 474.899 173.184 474.844C173.038 474.787 172.902 474.696 172.777 474.572C172.654 474.446 172.545 474.286 172.449 474.09C172.29 473.768 172.185 473.452 172.133 473.142C172.083 472.827 172.082 472.533 172.129 472.259C172.176 471.985 172.269 471.737 172.406 471.516C172.546 471.29 172.724 471.103 172.943 470.955L173.179 471.226C173.013 471.349 172.878 471.492 172.773 471.657C172.668 471.822 172.591 471.999 172.543 472.188C172.498 472.376 172.481 472.571 172.491 472.772C172.501 472.973 172.536 473.168 172.597 473.357C172.606 473.243 172.654 473.12 172.743 472.988C172.829 472.852 172.962 472.74 173.141 472.652C173.447 472.501 173.73 472.471 173.988 472.562C174.251 472.652 174.459 472.854 174.615 473.17ZM174.229 473.408C174.115 473.177 173.976 473.029 173.811 472.965C173.646 472.901 173.451 472.924 173.226 473.034C173.067 473.113 172.948 473.22 172.869 473.356C172.794 473.49 172.757 473.617 172.76 473.737C172.776 473.786 172.791 473.825 172.805 473.854C172.82 473.883 172.836 473.916 172.853 473.952C172.903 474.053 172.965 474.145 173.039 474.23C173.116 474.313 173.204 474.38 173.301 474.429C173.396 474.475 173.498 474.502 173.607 474.509C173.717 474.511 173.831 474.483 173.948 474.426C174.042 474.379 174.118 474.32 174.175 474.247C174.236 474.173 174.278 474.091 174.303 474.002C174.328 473.913 174.333 473.817 174.319 473.715C174.309 473.611 174.279 473.509 174.229 473.408ZM174.745 471.662C174.702 471.574 174.693 471.494 174.718 471.421C174.744 471.343 174.8 471.284 174.884 471.242C174.972 471.199 175.055 471.19 175.133 471.217C175.209 471.24 175.268 471.296 175.312 471.383C175.353 471.468 175.361 471.549 175.334 471.627C175.308 471.705 175.251 471.765 175.163 471.808C175.078 471.85 174.997 471.858 174.92 471.831C174.845 471.803 174.787 471.747 174.745 471.662ZM175.714 473.629C175.67 473.541 175.661 473.461 175.686 473.388C175.712 473.31 175.768 473.251 175.853 473.209C175.94 473.166 176.023 473.157 176.101 473.184C176.177 473.207 176.237 473.262 176.28 473.35C176.321 473.435 176.329 473.516 176.303 473.594C176.276 473.671 176.219 473.732 176.131 473.775C176.047 473.817 175.965 473.824 175.888 473.798C175.813 473.77 175.755 473.714 175.714 473.629ZM175.817 471.735C175.528 471.149 175.406 470.662 175.449 470.273C175.495 469.882 175.7 469.597 176.065 469.418C176.458 469.224 176.815 469.231 177.135 469.437C177.456 469.638 177.764 470.037 178.057 470.632C178.345 471.218 178.466 471.706 178.42 472.097C178.377 472.486 178.172 472.771 177.804 472.952C177.417 473.142 177.058 473.127 176.727 472.906C176.395 472.685 176.092 472.295 175.817 471.735ZM176.222 471.536C176.326 471.747 176.434 471.934 176.547 472.097C176.661 472.255 176.778 472.383 176.9 472.481C177.019 472.576 177.14 472.638 177.263 472.666C177.388 472.69 177.512 472.671 177.636 472.61C177.883 472.488 178.008 472.286 178.009 472.002C178.013 471.713 177.894 471.323 177.652 470.832C177.549 470.623 177.442 470.438 177.329 470.275C177.22 470.11 177.105 469.979 176.984 469.881C176.866 469.781 176.745 469.72 176.62 469.696C176.495 469.673 176.366 469.694 176.233 469.76C175.989 469.88 175.865 470.084 175.862 470.373C175.861 470.66 175.981 471.048 176.222 471.536ZM178.476 470.426C178.188 469.84 178.065 469.353 178.108 468.964C178.154 468.573 178.36 468.288 178.724 468.109C179.118 467.915 179.475 467.921 179.795 468.128C180.116 468.329 180.423 468.728 180.716 469.323C181.005 469.909 181.126 470.397 181.08 470.787C181.037 471.176 180.831 471.461 180.464 471.642C180.076 471.833 179.717 471.818 179.386 471.597C179.055 471.376 178.752 470.985 178.476 470.426ZM178.881 470.226C178.985 470.438 179.094 470.625 179.206 470.788C179.32 470.946 179.438 471.074 179.559 471.172C179.679 471.267 179.8 471.329 179.923 471.357C180.048 471.38 180.172 471.362 180.295 471.301C180.543 471.179 180.667 470.976 180.669 470.692C180.672 470.404 180.553 470.014 180.311 469.522C180.209 469.314 180.101 469.129 179.989 468.966C179.88 468.801 179.764 468.67 179.643 468.572C179.526 468.472 179.404 468.411 179.28 468.387C179.155 468.364 179.026 468.385 178.892 468.45C178.648 468.571 178.525 468.775 178.521 469.064C178.521 469.351 178.641 469.738 178.881 470.226Z" fill="#333333"/>
<path d="M211.934 459.594L129.016 500.413C128.105 500.862 127.729 501.965 128.178 502.876L134.582 515.886C135.031 516.797 136.134 517.172 137.046 516.724L219.963 475.905C220.875 475.456 221.25 474.353 220.801 473.442L214.397 460.433C213.948 459.521 212.846 459.146 211.934 459.594Z" fill="#2158A5"/>
<path d="M92.3597 333.27C97.5677 333.27 101.79 329.048 101.79 323.84C101.79 318.632 97.5677 314.41 92.3597 314.41C87.1516 314.41 82.9297 318.632 82.9297 323.84C82.9297 329.048 87.1516 333.27 92.3597 333.27Z" fill="#E6EBEF"/>
<path d="M96.4396 318.34L95.6096 316.66C95.5661 316.572 95.5055 316.494 95.4315 316.43C95.3576 316.366 95.2715 316.317 95.1785 316.286C95.0855 316.256 94.9873 316.244 94.8896 316.251C94.792 316.259 94.6968 316.286 94.6096 316.33L84.7796 321.19C84.691 321.233 84.6117 321.293 84.5465 321.366C84.4813 321.44 84.4314 321.526 84.3997 321.619C84.3681 321.712 84.3553 321.81 84.3621 321.909C84.369 322.007 84.3953 322.102 84.4396 322.19L85.2696 323.87L96.4396 318.34Z" fill="#333333"/>
<path d="M85.4597 324.3L88.6497 330.78C88.7293 330.966 88.8782 331.114 89.0648 331.193C89.2514 331.271 89.4611 331.274 89.6497 331.2L99.5397 326.33C99.7182 326.228 99.8488 326.059 99.9031 325.86C99.9574 325.661 99.931 325.449 99.8297 325.27L96.6397 318.78L85.4597 324.3Z" fill="#333333"/>
<path d="M93.1696 326.721C93.4103 326.624 93.6039 326.437 93.7096 326.201C93.7533 326.091 93.7715 325.973 93.7629 325.855C93.7542 325.737 93.7189 325.623 93.6596 325.521C93.6134 325.408 93.5398 325.309 93.4455 325.232C93.3512 325.155 93.2392 325.103 93.1196 325.081C92.827 325.06 92.5348 325.126 92.2796 325.271L91.7796 325.501L90.6196 323.151L92.8296 322.061L93.2196 322.841L91.7196 323.581L92.1496 324.451L92.3996 324.291C92.5995 324.203 92.8123 324.149 93.0296 324.131C93.2258 324.108 93.4245 324.132 93.6096 324.201C93.7953 324.263 93.9633 324.37 94.0996 324.511C94.258 324.664 94.3898 324.844 94.4896 325.041C94.6043 325.268 94.6723 325.516 94.6896 325.771C94.6973 325.997 94.6564 326.222 94.5696 326.431C94.4771 326.643 94.3408 326.834 94.1696 326.991C93.983 327.165 93.7705 327.31 93.5396 327.421C93.3568 327.511 93.166 327.585 92.9696 327.641C92.8028 327.687 92.6321 327.717 92.4596 327.731L92.3496 326.921L92.7196 326.861C92.8738 326.828 93.0244 326.781 93.1696 326.721V326.721Z" fill="#E6EBEF"/>
<path d="M85.9197 322.57C86.1958 322.57 86.4197 322.346 86.4197 322.07C86.4197 321.794 86.1958 321.57 85.9197 321.57C85.6435 321.57 85.4197 321.794 85.4197 322.07C85.4197 322.346 85.6435 322.57 85.9197 322.57Z" fill="#E6EBEF"/>
<path d="M94.5996 318.29C94.8758 318.29 95.0996 318.066 95.0996 317.79C95.0996 317.514 94.8758 317.29 94.5996 317.29C94.3235 317.29 94.0996 317.514 94.0996 317.79C94.0996 318.066 94.3235 318.29 94.5996 318.29Z" fill="#E6EBEF"/>
<path d="M156.28 363.111C155.244 363.619 154.383 364.423 153.805 365.42C153.226 366.418 152.957 367.565 153.03 368.716C153.104 369.867 153.517 370.97 154.218 371.886C154.919 372.802 155.875 373.49 156.967 373.862C158.058 374.234 159.236 374.275 160.35 373.978C161.465 373.68 162.466 373.06 163.227 372.193C163.989 371.327 164.476 370.255 164.628 369.111C164.78 367.968 164.589 366.805 164.08 365.771C163.396 364.386 162.191 363.329 160.729 362.83C159.267 362.332 157.667 362.432 156.28 363.111V363.111ZM162.41 367.521L159.96 368.721L161.17 371.171L159.68 371.901L158.47 369.501L156.03 370.701L155.29 369.211L157.74 368.011L156.53 365.501L158.02 364.771L159.23 367.211L161.67 366.011L162.41 367.521Z" fill="#333333"/>
<path d="M73.4297 371.991C72.3957 372.5 71.5359 373.305 70.959 374.303C70.3822 375.301 70.1141 376.447 70.1887 377.598C70.2634 378.748 70.6773 379.85 71.3783 380.765C72.0792 381.68 73.0357 382.367 74.1269 382.739C75.2181 383.111 76.3949 383.15 77.5087 382.853C78.6225 382.556 79.6233 381.936 80.3845 381.07C81.1457 380.204 81.6332 379.133 81.7855 377.99C81.9377 376.847 81.7477 375.685 81.2397 374.651C80.5555 373.263 79.349 372.204 77.8848 371.705C76.4206 371.207 74.8184 371.309 73.4297 371.991V371.991Z" fill="white"/>
<path d="M124.09 474.5C123.055 475.009 122.194 475.813 121.616 476.812C121.039 477.81 120.77 478.958 120.845 480.109C120.919 481.26 121.334 482.363 122.036 483.278C122.737 484.194 123.695 484.88 124.787 485.251C125.879 485.623 127.057 485.661 128.171 485.363C129.285 485.064 130.286 484.442 131.046 483.575C131.807 482.707 132.293 481.634 132.443 480.49C132.593 479.346 132.401 478.184 131.89 477.15C131.553 476.462 131.084 475.848 130.509 475.342C129.934 474.837 129.265 474.45 128.541 474.203C127.816 473.957 127.049 473.857 126.286 473.907C125.522 473.958 124.776 474.16 124.09 474.5V474.5Z" fill="white"/>
<path d="M136.66 500.08C135.626 500.591 134.767 501.396 134.19 502.395C133.614 503.393 133.347 504.541 133.423 505.691C133.499 506.841 133.914 507.943 134.616 508.858C135.318 509.773 136.275 510.458 137.367 510.829C138.459 511.199 139.636 511.238 140.75 510.939C141.863 510.641 142.863 510.019 143.624 509.152C144.384 508.285 144.87 507.213 145.02 506.07C145.171 504.927 144.979 503.764 144.47 502.73C144.132 502.042 143.662 501.428 143.086 500.922C142.511 500.417 141.841 500.029 141.115 499.783C140.389 499.537 139.622 499.437 138.858 499.488C138.093 499.538 137.346 499.74 136.66 500.08V500.08Z" fill="white"/>
<path d="M168.87 388.7C167.835 389.209 166.974 390.014 166.396 391.012C165.819 392.01 165.55 393.158 165.625 394.309C165.699 395.46 166.114 396.563 166.816 397.478C167.517 398.394 168.475 399.081 169.567 399.452C170.659 399.823 171.837 399.861 172.951 399.563C174.065 399.265 175.066 398.642 175.826 397.775C176.587 396.907 177.073 395.834 177.223 394.69C177.373 393.547 177.181 392.384 176.67 391.35C175.986 389.965 174.78 388.908 173.318 388.411C171.856 387.915 170.256 388.018 168.87 388.7V388.7ZM175 393.1L172.56 394.31L173.76 396.75L172.27 397.49L171.06 395.04L168.62 396.24L167.88 394.75L170.33 393.55L169.13 391.1L170.62 390.37L171.82 392.81L174.27 391.61L175 393.1Z" fill="#333333"/>
<path d="M186.641 408.218L103.724 449.036C102.812 449.485 102.437 450.588 102.886 451.499L109.29 464.509C109.739 465.42 110.842 465.796 111.753 465.347L194.671 424.528C195.582 424.079 195.958 422.977 195.509 422.065L189.105 409.056C188.656 408.144 187.553 407.769 186.641 408.218Z" fill="#C5CFD7"/>
<path d="M181.58 414.5C180.544 415.008 179.683 415.812 179.105 416.809C178.526 417.807 178.257 418.954 178.33 420.105C178.404 421.256 178.817 422.359 179.518 423.275C180.218 424.191 181.175 424.879 182.267 425.251C183.358 425.624 184.536 425.664 185.65 425.367C186.764 425.07 187.766 424.449 188.527 423.582C189.288 422.716 189.776 421.644 189.928 420.5C190.079 419.357 189.889 418.195 189.38 417.16C188.697 415.773 187.493 414.714 186.03 414.215C184.568 413.717 182.967 413.819 181.58 414.5V414.5ZM187.71 418.91L185.27 420.11L186.47 422.56L184.98 423.29L183.78 420.85L181.33 422.05L180.6 420.56L183.04 419.35L181.84 416.91L183.33 416.17L184.53 418.62L186.98 417.42L187.71 418.91Z" fill="#333333"/>
<path d="M74.0898 373.73L76.2698 375.41L78.8898 374.56L77.9698 377.16L79.5898 379.39L76.8298 379.31L75.2098 381.54L74.4298 378.9L71.8098 378.04L74.0898 376.49V373.73Z" fill="#066F6C"/>
<path d="M219.56 142.68H169.51V207.92H219.56V142.68Z" fill="#2158A5"/>
<path d="M193.97 148.59C191.216 148.604 188.528 149.434 186.246 150.974C183.964 152.515 182.189 154.698 181.147 157.247C180.104 159.796 179.841 162.596 180.389 165.295C180.938 167.994 182.274 170.469 184.229 172.409C186.184 174.348 188.67 175.665 191.373 176.192C194.076 176.719 196.874 176.434 199.415 175.371C201.955 174.309 204.124 172.517 205.647 170.223C207.169 167.928 207.978 165.234 207.97 162.48C207.965 160.648 207.598 158.835 206.892 157.145C206.185 155.455 205.152 153.921 203.851 152.631C202.551 151.341 201.009 150.32 199.313 149.626C197.618 148.933 195.802 148.581 193.97 148.59V148.59Z" fill="white"/>
<path d="M190.56 153.71H202.78C202.998 153.713 203.207 153.801 203.36 153.957C203.514 154.112 203.6 154.322 203.6 154.54V161.77C203.597 161.988 203.509 162.197 203.353 162.35C203.198 162.504 202.988 162.59 202.77 162.59H196.58C196.485 162.588 196.392 162.612 196.31 162.66L193.54 164.27C193.508 164.287 193.473 164.296 193.437 164.295C193.401 164.295 193.366 164.285 193.335 164.267C193.303 164.249 193.277 164.223 193.259 164.192C193.241 164.161 193.231 164.126 193.23 164.09V162.59H190.58C190.363 162.59 190.154 162.504 190 162.35C189.846 162.196 189.76 161.987 189.76 161.77V154.5C189.77 154.292 189.858 154.095 190.006 153.949C190.154 153.803 190.352 153.717 190.56 153.71V153.71Z" fill="#2158A5"/>
<path d="M199.97 158.72H185.32C185.202 158.72 185.085 158.743 184.976 158.788C184.866 158.834 184.767 158.9 184.684 158.983C184.6 159.067 184.534 159.166 184.488 159.275C184.443 159.385 184.42 159.502 184.42 159.62V168.37C184.419 168.489 184.441 168.607 184.486 168.717C184.53 168.828 184.596 168.928 184.68 169.013C184.764 169.097 184.863 169.164 184.973 169.21C185.083 169.256 185.201 169.28 185.32 169.28H192.79C192.888 169.278 192.985 169.302 193.07 169.35L196.39 171.27C196.427 171.29 196.469 171.301 196.512 171.301C196.555 171.3 196.596 171.289 196.634 171.268C196.671 171.247 196.702 171.217 196.724 171.18C196.746 171.144 196.758 171.102 196.76 171.06V169.27H199.98C200.099 169.27 200.217 169.246 200.327 169.2C200.437 169.154 200.536 169.087 200.62 169.003C200.704 168.918 200.77 168.818 200.814 168.707C200.859 168.597 200.881 168.479 200.88 168.36V159.61C200.879 159.492 200.854 159.375 200.808 159.266C200.761 159.157 200.694 159.059 200.609 158.976C200.525 158.894 200.425 158.828 200.315 158.784C200.205 158.74 200.088 158.718 199.97 158.72Z" stroke="#2158A5" stroke-width="1.3" stroke-miterlimit="10"/>
<path d="M176.54 185.42H211.97" stroke="white" stroke-width="1.12" stroke-miterlimit="10"/>
<path d="M176.54 192.449H211.97" stroke="white" stroke-width="1.12" stroke-miterlimit="10"/>
<path d="M176.54 199.479H211.97" stroke="white" stroke-width="1.12" stroke-miterlimit="10"/>
<path d="M438.14 142.68H388.09V207.92H438.14V142.68Z" fill="#066F6C"/>
<path d="M412.54 148.59C409.786 148.604 407.098 149.434 404.816 150.974C402.533 152.515 400.759 154.698 399.717 157.247C398.674 159.796 398.411 162.596 398.959 165.295C399.508 167.994 400.844 170.469 402.799 172.409C404.754 174.348 407.24 175.665 409.943 176.192C412.645 176.719 415.444 176.434 417.984 175.371C420.525 174.309 422.694 172.517 424.216 170.223C425.739 167.928 426.548 165.234 426.54 162.48C426.535 160.648 426.168 158.835 425.461 157.145C424.755 155.455 423.721 153.921 422.421 152.631C421.121 151.341 419.578 150.32 417.883 149.626C416.187 148.933 414.372 148.581 412.54 148.59V148.59Z" fill="white"/>
<path d="M395.11 185.42H430.54" stroke="white" stroke-width="1.12" stroke-miterlimit="10"/>
<path d="M395.11 192.449H430.54" stroke="white" stroke-width="1.12" stroke-miterlimit="10"/>
<path d="M395.11 199.479H430.54" stroke="white" stroke-width="1.12" stroke-miterlimit="10"/>
<path d="M412.36 152.3L415.4 158.46L422.2 159.45L417.28 164.25L418.44 171.02L412.36 167.82L406.28 171.02L407.44 164.25L402.52 159.45L409.32 158.46L412.36 152.3Z" fill="#066F6C"/>
<path d="M123.78 477.089L128.36 474.839C128.442 474.801 128.537 474.796 128.622 474.826C128.708 474.856 128.779 474.918 128.82 474.999L130.15 477.719C130.171 477.759 130.183 477.803 130.187 477.848C130.19 477.893 130.185 477.938 130.171 477.981C130.157 478.023 130.135 478.063 130.105 478.097C130.076 478.131 130.04 478.159 130 478.179L127.67 479.319C127.634 479.338 127.603 479.365 127.58 479.399L126.78 480.499C126.773 480.512 126.763 480.522 126.751 480.529C126.738 480.537 126.724 480.54 126.71 480.54C126.696 480.54 126.682 480.537 126.669 480.529C126.657 480.522 126.647 480.512 126.64 480.499L126.36 479.939L125.36 480.429C125.278 480.467 125.183 480.472 125.098 480.442C125.012 480.412 124.941 480.35 124.9 480.269L123.57 477.549C123.553 477.505 123.544 477.458 123.545 477.411C123.546 477.364 123.557 477.317 123.577 477.274C123.596 477.231 123.625 477.193 123.659 477.161C123.694 477.129 123.735 477.105 123.78 477.089Z" fill="#2158A5"/>
<path d="M128.21 477.24L122.71 479.95C122.664 479.971 122.624 480.001 122.59 480.039C122.556 480.076 122.53 480.119 122.513 480.167C122.497 480.214 122.489 480.265 122.492 480.315C122.495 480.365 122.508 480.414 122.53 480.46L124.15 483.74C124.171 483.785 124.202 483.826 124.239 483.859C124.277 483.893 124.321 483.918 124.368 483.934C124.416 483.95 124.467 483.956 124.517 483.952C124.567 483.948 124.616 483.933 124.66 483.91L127.46 482.54C127.499 482.531 127.54 482.531 127.58 482.54L129.18 482.65C129.197 482.651 129.215 482.648 129.23 482.641C129.246 482.633 129.26 482.622 129.27 482.608C129.28 482.594 129.286 482.577 129.288 482.56C129.29 482.543 129.287 482.525 129.28 482.51L128.95 481.83L130.16 481.24C130.206 481.218 130.246 481.188 130.28 481.15C130.313 481.113 130.339 481.069 130.355 481.021C130.371 480.973 130.377 480.923 130.372 480.873C130.368 480.823 130.354 480.774 130.33 480.73L128.72 477.44C128.678 477.346 128.601 477.272 128.506 477.235C128.411 477.198 128.304 477.199 128.21 477.24V477.24Z" stroke="#2158A5" stroke-width="0.54" stroke-miterlimit="10"/>
<path d="M136.32 502.629L140.9 500.389C140.94 500.369 140.984 500.356 141.029 500.353C141.073 500.349 141.119 500.354 141.161 500.368C141.204 500.382 141.244 500.405 141.278 500.434C141.312 500.463 141.34 500.499 141.36 500.539L142.7 503.259C142.738 503.342 142.743 503.436 142.713 503.522C142.683 503.608 142.621 503.679 142.54 503.719L140.21 504.859C140.176 504.881 140.145 504.908 140.12 504.939L139.38 506.059C139.372 506.072 139.361 506.082 139.348 506.089C139.335 506.096 139.32 506.1 139.305 506.1C139.29 506.1 139.276 506.096 139.262 506.089C139.249 506.082 139.238 506.072 139.23 506.059L138.95 505.489L137.95 505.979C137.866 506.018 137.771 506.023 137.683 505.993C137.596 505.964 137.523 505.901 137.48 505.819L136.15 503.099C136.13 503.057 136.118 503.012 136.116 502.965C136.114 502.919 136.121 502.873 136.136 502.829C136.152 502.785 136.177 502.745 136.208 502.711C136.24 502.676 136.278 502.649 136.32 502.629V502.629Z" fill="#2158A5"/>
<path d="M140.78 502.78L135.28 505.5C135.234 505.521 135.194 505.552 135.16 505.589C135.127 505.627 135.101 505.671 135.085 505.718C135.069 505.766 135.063 505.817 135.067 505.867C135.072 505.917 135.086 505.966 135.11 506.01L136.72 509.29C136.765 509.38 136.844 509.449 136.939 509.483C137.034 509.516 137.138 509.512 137.23 509.47L140.03 508.09C140.069 508.081 140.11 508.081 140.15 508.09L141.75 508.2C141.767 508.201 141.785 508.198 141.8 508.191C141.816 508.184 141.83 508.173 141.84 508.159C141.85 508.144 141.856 508.128 141.858 508.111C141.86 508.093 141.857 508.076 141.85 508.06L141.52 507.38L142.73 506.79C142.775 506.769 142.816 506.738 142.85 506.701C142.884 506.664 142.91 506.62 142.927 506.573C142.943 506.525 142.95 506.475 142.948 506.425C142.945 506.374 142.932 506.325 142.91 506.28L141.29 502.99C141.25 502.895 141.174 502.819 141.078 502.779C140.983 502.74 140.875 502.74 140.78 502.78V502.78Z" stroke="#2158A5" stroke-width="0.54" stroke-miterlimit="10"/>
<path d="M311.59 161.37C310.251 159.934 309.209 158.247 308.523 156.408C307.837 154.569 307.519 152.612 307.59 150.65C308.42 138.87 324.82 141.46 328.01 147.41C331.2 153.36 330.82 168.41 326.7 169.5C325.06 169.92 321.55 168.89 317.99 166.74L320.23 182.57H307.04L311.59 161.37Z" fill="#736152"/>
<path d="M360.03 241.34C357.215 238.528 354.029 236.116 350.56 234.17L338.05 218.43L332.26 226.04L346.01 236.68C348.99 243.006 350.853 245.816 351.6 245.11C352.73 244.04 351.35 242.44 352 241.59C352.65 240.74 355.55 241.65 358.28 242.59C361.01 243.53 360.54 242.13 360.03 241.34Z" fill="#736152"/>
<path d="M309.78 197.03C313.18 212.64 329.15 225.77 343.51 238.57L349.65 231.57C334.17 212.76 324.52 193.5 320.78 173.5L316.01 175.29C314.7 180.99 308.65 191.79 309.78 197.03Z" fill="#7388C4"/>
<path d="M318.87 151.74C319.383 158.846 320.733 162.403 322.92 162.41C326.21 162.41 329 160.32 330.44 160.32C331.44 160.32 331.25 161.64 330.56 162.62C329.98 163.42 327.18 164.2 327.18 165.44C327.18 166.68 329.4 165.73 329.4 166.44C329.4 167.66 329.78 169.96 327.66 169.96C325.54 169.96 319.35 169.18 318.29 165.96C317.623 163.9 317.183 159.633 316.97 153.16C316.837 153.15 316.703 153.15 316.57 153.16C315.908 153.162 315.262 153.362 314.714 153.732C314.165 154.102 313.739 154.627 313.49 155.24C313.24 155.853 313.178 156.526 313.312 157.174C313.445 157.822 313.768 158.416 314.24 158.88C313.47 159.97 312.61 161.11 311.61 162.28C307.89 160.05 305.13 153.51 308.77 147.23C309.211 145.876 309.996 144.659 311.047 143.699C312.099 142.738 313.381 142.067 314.77 141.75C316.774 140.885 319.01 140.72 321.12 141.28C324.86 141.6 328.21 142.74 329.12 143.42C329.12 146.96 328.44 148.02 322.57 147.92C321.037 148.864 319.764 150.177 318.87 151.74V151.74Z" fill="#333333"/>
<path d="M332.12 226.95L347.22 345.7H336.85L322.64 295.31L303.16 226.95H332.12Z" fill="#224D82"/>
<path d="M332.18 226.95C322.64 260.66 319.04 309.7 301.42 345.7H290.68C304.52 308.17 297.5 262.19 297.95 226.95H332.18Z" fill="#2158A5"/>
<path d="M294.92 355.38V354.3L301.92 355.38H322.34V353.23C313.72 350.897 306.72 347.85 301.34 344.09H290.08L289.55 355.38H294.92Z" fill="#444243"/>
<path d="M340.78 355.38V354.3L347.78 355.38H368.18V353.23C359.56 350.897 352.56 347.85 347.18 344.09H335.94L335.4 355.38H340.78Z" fill="#444243"/>
<path d="M291.58 227.77C290.73 224.38 292.83 218.47 293.33 215.77C294.77 207.85 296.567 200.01 298.72 192.25C300.29 186.57 301.58 176.35 306.97 172.82C310.31 170.66 314.58 172.74 318.22 172.24C318.499 172.184 318.787 172.185 319.065 172.244C319.344 172.302 319.607 172.417 319.84 172.581C320.073 172.744 320.27 172.954 320.42 173.196C320.569 173.438 320.668 173.708 320.71 173.99C320.97 177.22 322.08 182.47 322.24 183.3C323.118 187.767 324.27 192.175 325.69 196.5C329.077 206.594 333.084 216.47 337.69 226.07C338.32 227.43 338.11 229.44 336.74 229.67C329.713 230.707 322.611 231.152 315.51 231C311.09 231 306.67 230.79 302.25 230.52C299.58 230.35 295.2 231.4 292.86 229.76C292.2 229.28 291.743 228.57 291.58 227.77Z" fill="#8C9BCF"/>
<path d="M323.06 252.419C321.536 248.742 320.527 244.872 320.06 240.919L310.36 223.309L319.6 220.899L324.12 237.679C328.787 242.866 330.663 245.673 329.75 246.099C328.32 246.719 327.38 244.839 326.35 245.099C325.32 245.359 325.03 248.409 324.88 251.299C324.73 254.189 323.6 253.189 323.06 252.419Z" fill="#736152"/>
<path d="M301.78 189.31C298.89 205.03 309.27 223.14 317.59 240.49L325.95 236.41C318.95 213.06 315.37 202.72 319.63 182.8L314.02 178.26C310.63 183.04 302.78 184.04 301.78 189.31Z" fill="#8C9BCF"/>
<path d="M513.19 205.7C515.798 202.887 517.183 199.153 517.04 195.32C516.24 183.91 500.35 186.42 497.26 192.18C494.17 197.94 494.54 212.55 498.53 213.58C500.13 213.99 503.53 212.98 506.97 210.9L504.78 226.23H517.58L513.19 205.7Z" fill="#E2B7A1"/>
<path d="M454.22 280.129C450.39 274.939 440.82 278.379 440.83 282.669C440.83 293.959 451.14 347.529 451.68 350.909C452.22 354.289 457.97 355.399 458.31 351.179C458.84 344.449 459.83 321.179 458.84 310.289C458.55 307.129 458.25 304.069 457.94 301.199C463.347 310.919 471.577 324.659 482.63 342.419L488.77 339.619C483.95 323.733 479.997 312.516 476.91 305.969C471.62 294.769 466.67 285.169 464.58 281.789C461.83 277.329 457.36 277.919 454.22 280.129Z" fill="#B18B67"/>
<path d="M488.33 330.8L467.26 280.87C462.21 272.75 448.05 282.53 449.77 287.24C453.68 297.93 473.56 332.55 474.77 335.74L488.33 330.8Z" fill="#224D82"/>
<path d="M440.29 286.57C440.29 300.72 446.5 333.99 446.5 337.1L461.5 336.59C458.88 307.67 457.773 293.113 458.18 292.92C459.11 292.48 496.11 298.04 507.18 298.46C523.18 299.07 529.81 289.25 530.34 270.62H499.34C472.833 273.78 455.413 275.98 447.08 277.22C441.78 278.01 440.29 282.67 440.29 286.57Z" fill="#2158A5"/>
<path d="M460.16 343.21C460.65 344.344 460.951 345.55 461.05 346.78C461.001 348.194 460.84 349.602 460.57 350.99H430.5C429.72 348.41 430.17 346.99 431.86 346.81C433.55 346.63 434.94 346.41 436.05 346.25L450.05 340.02C450.113 339.992 450.182 339.977 450.252 339.975C450.321 339.973 450.391 339.985 450.456 340.01C450.521 340.035 450.58 340.073 450.631 340.121C450.681 340.169 450.722 340.227 450.75 340.29V340.29L451.65 342.47C452.826 343.097 454.121 343.468 455.45 343.56C456.599 343.45 457.714 343.11 458.73 342.56C458.987 342.445 459.28 342.436 459.544 342.535C459.808 342.634 460.022 342.834 460.14 343.09L460.16 343.21Z" fill="white"/>
<path d="M489.94 337.05C490.875 337.858 491.675 338.81 492.31 339.87C492.886 341.164 493.357 342.501 493.72 343.87L466.72 357.06C464.88 355.06 464.72 353.63 466.1 352.71C467.48 351.79 468.7 351 469.63 350.36L479.45 338.63C479.542 338.525 479.673 338.459 479.813 338.448C479.953 338.437 480.092 338.481 480.2 338.57V338.57L481.96 340.13C483.289 340.173 484.614 339.942 485.85 339.45C486.837 338.858 487.697 338.076 488.38 337.15C488.468 337.041 488.577 336.951 488.7 336.884C488.824 336.818 488.959 336.776 489.099 336.762C489.238 336.748 489.379 336.762 489.513 336.803C489.647 336.844 489.772 336.911 489.88 337L489.94 337.05Z" fill="white"/>
<path d="M458.65 350.99H434.13C433.884 350.99 433.641 351.039 433.414 351.133C433.187 351.227 432.981 351.364 432.807 351.538C432.634 351.712 432.496 351.918 432.402 352.145C432.308 352.372 432.26 352.615 432.26 352.86C432.262 353.354 432.461 353.828 432.811 354.176C433.161 354.525 433.636 354.72 434.13 354.72H458.65C459.144 354.72 459.618 354.525 459.969 354.176C460.319 353.828 460.517 353.354 460.52 352.86C460.52 352.364 460.323 351.889 459.972 351.538C459.621 351.187 459.146 350.99 458.65 350.99Z" fill="#565353"/>
<path d="M474.95 273.68H473.78C472.515 273.68 471.292 274.129 470.328 274.948C469.365 275.767 468.724 276.902 468.52 278.15L456.78 349.39H462.48" fill="#565353"/>
<path d="M459.49 360.059C464.792 360.059 469.09 355.761 469.09 350.459C469.09 345.157 464.792 340.859 459.49 340.859C454.188 340.859 449.89 345.157 449.89 350.459C449.89 355.761 454.188 360.059 459.49 360.059Z" fill="#333333"/>
<path d="M530.39 275.28H487.89C485.95 275.28 486.31 272.59 486.59 271.28C489.83 255.61 502.48 238.71 502.48 216.4L514.78 214.5C524.89 230.16 528.39 249.43 530.39 275.28Z" fill="#913B8E"/>
<path d="M527.85 268.08C527.61 270.127 527.33 272.04 527.01 273.82H529.89C529.223 271.993 528.543 270.08 527.85 268.08Z" fill="#702370"/>
<path d="M459.66 276.149C455.613 277.166 451.724 278.731 448.1 280.799C447.36 281.469 446.48 282.799 449.51 282.579C452.54 282.359 455.74 282.239 456.16 283.269C456.58 284.299 454.75 285.539 455.59 286.939C456.156 287.873 458.823 285.539 463.59 279.939L480.43 272.939L476.67 263.649L459.66 276.149Z" fill="#E2B7A1"/>
<path d="M510.3 217.35L505.69 216.56C488.58 231.33 481.56 259.72 460.59 274.76L465.64 281.01C502.01 276.5 511.03 241.88 510.3 217.35Z" fill="#913B8E"/>
<path d="M537.33 279.01C537.327 277.595 536.763 276.239 535.762 275.24C534.761 274.241 533.404 273.68 531.99 273.68H474.99C473.576 273.68 472.221 274.241 471.221 275.241C470.221 276.24 469.66 277.596 469.66 279.01V305.14H525.29C529.876 297.158 533.912 288.872 537.37 280.34L537.33 279.01Z" fill="#565353"/>
<path d="M518.78 192.27C519.102 191.896 519.337 191.456 519.47 190.98C519.646 190.5 519.793 190.009 519.91 189.51C520.069 189.021 520.108 188.5 520.025 187.992C519.941 187.484 519.737 187.003 519.43 186.59C518.841 185.991 518.049 185.634 517.21 185.59C516.675 185.55 516.138 185.618 515.63 185.79C515.13 185.95 514.7 186.28 514.21 186.48C514.231 185.393 513.973 184.319 513.46 183.36C513.215 182.947 512.879 182.596 512.476 182.334C512.074 182.072 511.616 181.907 511.14 181.85C510.163 181.727 509.172 181.927 508.32 182.42C508.1 182.54 507.88 182.66 507.67 182.8C507.504 182.938 507.314 183.043 507.11 183.11C506.88 183.11 506.77 183.03 506.62 182.86C506.447 182.672 506.256 182.501 506.05 182.35C505.607 182.002 505.084 181.769 504.529 181.673C503.974 181.577 503.404 181.62 502.87 181.8C502.356 181.984 501.905 182.31 501.57 182.74C501.27 183.12 501.06 183.74 500.65 184.01C500.48 184.12 500.36 184.01 500.2 183.86C500.04 183.71 499.74 183.5 499.5 183.34C499.17 183.111 498.8 182.945 498.41 182.85C497.83 182.71 497.04 182.75 496.88 183.49C496.839 183.779 496.839 184.072 496.88 184.36C496.88 184.747 496.91 185.137 496.97 185.53C496.987 185.822 497.023 186.113 497.08 186.4C497.144 186.59 497.164 186.792 497.14 186.99C497.05 187.19 496.67 187.08 496.51 187.08C496.183 187.09 495.86 187.162 495.56 187.29C495.434 187.336 495.319 187.407 495.221 187.498C495.123 187.589 495.044 187.698 494.99 187.82C494.944 187.984 494.944 188.157 494.99 188.32C495.014 188.489 495.014 188.661 494.99 188.83C494.55 188.61 493.06 188.14 492.87 188.91C492.841 189.181 492.909 189.454 493.06 189.68C493.259 190.056 493.49 190.414 493.75 190.75C494.289 191.432 494.918 192.037 495.62 192.55C495.438 192.634 495.28 192.762 495.159 192.921C495.038 193.081 494.958 193.267 494.927 193.465C494.895 193.663 494.913 193.865 494.978 194.054C495.043 194.244 495.153 194.414 495.3 194.55C495.614 194.797 496.012 194.912 496.41 194.87C496.563 194.857 496.717 194.857 496.87 194.87C496.934 194.907 497.006 194.931 497.08 194.94C497.653 194.949 498.225 194.879 498.78 194.73C499.75 194.513 500.647 194.044 501.38 193.37C501.453 193.283 501.545 193.213 501.649 193.164C501.752 193.116 501.865 193.091 501.98 193.09C502.2 193.09 502.42 193.16 502.64 193.16C503.22 193.111 503.786 192.955 504.31 192.7C504.361 193.467 504.547 194.218 504.86 194.92C505.11 195.46 505.62 195.54 506.13 195.59C507.75 195.74 509.38 195.59 511 195.59C509.43 195.95 507.81 196.09 506.25 196.51C505.55 196.7 506.08 197.18 506.38 197.51C506.875 198.071 507.256 198.723 507.5 199.43C507.871 198.928 508.373 198.538 508.952 198.303C509.531 198.069 510.163 197.998 510.78 198.1C511.122 198.2 511.437 198.375 511.703 198.613C511.968 198.851 512.176 199.146 512.311 199.475C512.447 199.805 512.506 200.161 512.485 200.517C512.464 200.873 512.363 201.219 512.19 201.53C511.631 202.185 510.889 202.659 510.06 202.89C510.533 203.575 510.894 204.332 511.13 205.13C511.196 205.329 511.301 205.512 511.438 205.67C511.575 205.828 511.742 205.957 511.93 206.05C512.07 206.05 512.24 206.05 512.35 206.22C512.46 206.39 512.52 206.52 512.7 206.64C513.069 206.885 513.509 207 513.95 206.967C514.392 206.934 514.81 206.756 515.14 206.46C515.39 206.17 515.528 205.799 515.528 205.415C515.528 205.032 515.39 204.661 515.14 204.37C515.89 204.05 517.27 203.65 516.97 202.47C518.6 202.36 522.57 199.71 520.38 197.78C521.58 197.09 522.69 195.43 521.91 193.97C521.574 193.451 521.113 193.023 520.57 192.726C520.027 192.429 519.418 192.273 518.8 192.27" fill="#78422B"/>
<path d="M497.42 320.601C497.777 326.365 499.65 331.933 502.85 336.741C507.3 331.573 511.488 326.187 515.4 320.601H497.42Z" fill="#E6EBEF"/>
<path d="M497.42 320.601H496.27C496.129 320.601 495.991 320.573 495.862 320.519C495.732 320.465 495.615 320.386 495.516 320.287C495.418 320.187 495.34 320.069 495.287 319.939C495.235 319.81 495.208 319.671 495.21 319.531V317.401C495.208 317.261 495.235 317.122 495.287 316.992C495.34 316.862 495.418 316.744 495.516 316.645C495.615 316.545 495.732 316.466 495.862 316.412C495.991 316.358 496.129 316.331 496.27 316.331H497.42C497.875 309.051 500.742 302.13 505.57 296.661L504.76 295.851C504.659 295.752 504.58 295.635 504.526 295.505C504.472 295.375 504.444 295.236 504.444 295.096C504.444 294.955 504.472 294.816 504.526 294.686C504.58 294.557 504.659 294.439 504.76 294.341L506.27 292.831C506.471 292.633 506.742 292.523 507.025 292.523C507.307 292.523 507.578 292.633 507.78 292.831L508.58 293.641C514.057 288.822 520.979 285.959 528.26 285.501V283.291H532.53V285.501C533.25 285.501 533.97 285.621 534.68 285.711C533.34 283.011 532.01 280.261 530.92 277.971H530.39C522.909 277.984 515.578 280.069 509.21 283.992C502.841 287.916 497.683 293.526 494.306 300.201C490.93 306.877 489.467 314.356 490.08 321.811C490.693 329.267 493.358 336.407 497.78 342.441C499.52 340.567 501.226 338.667 502.9 336.741C499.682 331.938 497.792 326.37 497.42 320.601Z" fill="#333333"/>
<path d="M523.33 308.391L508.58 293.641C507.516 294.575 506.514 295.577 505.58 296.641L521.04 312.101C521.78 310.891 522.58 309.641 523.33 308.391Z" fill="#333333"/>
<path d="M508.58 293.64L507.78 292.83C507.578 292.633 507.307 292.522 507.025 292.522C506.742 292.522 506.471 292.633 506.27 292.83L504.78 294.34C504.68 294.439 504.6 294.556 504.546 294.686C504.492 294.816 504.464 294.955 504.464 295.095C504.464 295.236 504.492 295.375 504.546 295.504C504.6 295.634 504.68 295.752 504.78 295.85L505.59 296.66C506.52 295.59 507.519 294.582 508.58 293.64V293.64Z" fill="#333333"/>
<path d="M518.31 316.33H497.42C497.37 317.04 497.34 317.75 497.34 318.47C497.34 319.19 497.34 319.89 497.42 320.6H515.42C516.4 319.2 517.363 317.777 518.31 316.33Z" fill="#333333"/>
<path d="M497.42 316.33H496.27C496.129 316.33 495.991 316.358 495.862 316.412C495.732 316.466 495.615 316.545 495.516 316.644C495.418 316.744 495.34 316.862 495.287 316.991C495.235 317.121 495.208 317.26 495.21 317.4V319.5C495.208 319.64 495.235 319.779 495.287 319.909C495.34 320.039 495.418 320.157 495.516 320.256C495.615 320.356 495.732 320.435 495.862 320.488C495.991 320.542 496.129 320.57 496.27 320.57H497.42C497.37 319.86 497.34 319.15 497.34 318.44C497.34 317.73 497.37 317.04 497.42 316.33Z" fill="#333333"/>
<path d="M541.96 299.5C543.19 302.56 540.58 307.21 539.47 309.72C543.1 311.34 542.72 305.32 547.3 307.45C551.49 309.4 554.67 312.93 559.51 309.94C560.11 309.58 560.76 308.2 559.18 307.12C555.26 304.43 549.61 299.72 548.84 298.17C548.639 297.702 548.469 297.221 548.33 296.73H541.02C541.51 298.24 541.83 299.17 541.96 299.5Z" fill="#E2B7A1"/>
<path d="M548.33 296.72H549.06C549.11 294.87 549.13 293.04 549.11 291.23C548.33 290.69 547.52 290.18 546.68 289.71C547.353 292.903 547.903 295.24 548.33 296.72Z" fill="#913B8E"/>
<path d="M548.78 282.361C548.24 274.428 546.862 266.574 544.67 258.931C542.793 265.62 540.573 272.209 538.02 278.671C541.763 279.386 545.385 280.628 548.78 282.361Z" fill="#913B8E"/>
<path d="M540.309 296.72H541.019C540.439 294.94 539.609 292.334 538.529 288.9H545.169C541.987 287.304 538.565 286.237 535.039 285.74C535.039 285.87 534.939 285.99 534.879 286.11C537.199 290.8 539.459 295.25 540.309 296.72Z" fill="#913B8E"/>
<path d="M534.129 225.5C538.429 217.74 536.869 213.5 532.279 212.06C527.689 210.62 523.579 213.55 516.279 213.55C515.915 213.549 515.55 213.576 515.189 213.63L507.379 215.79C496.819 251.61 492.149 261.79 496.889 273.72H528.989C529.409 274.72 530.099 276.18 530.939 277.96C533.319 277.992 535.691 278.23 538.029 278.67C540.583 272.209 542.803 265.62 544.679 258.93C541.601 248.157 536.663 238.004 530.089 228.93C530.96 228.662 531.767 228.219 532.461 227.63C533.156 227.04 533.723 226.316 534.129 225.5Z" fill="#913B8E"/>
<path d="M535.04 285.74H534.68C534.74 285.88 534.81 286.01 534.88 286.15C534.94 285.99 534.99 285.87 535.04 285.74Z" fill="#913B8E"/>
<path d="M535.04 285.74C538.565 286.236 541.987 287.304 545.17 288.9H546.51C546.57 289.18 546.63 289.44 546.68 289.71C547.52 290.18 548.33 290.71 549.11 291.23C549.11 288.223 548.996 285.267 548.77 282.36C545.375 280.627 541.753 279.385 538.01 278.67C537.07 281.05 536.07 283.41 535.04 285.74Z" fill="#913B8E"/>
<path d="M538.01 278.67C535.671 278.23 533.299 277.992 530.92 277.96C532.01 280.25 533.34 282.96 534.68 285.7H535.04C536.07 283.41 537.07 281.05 538.01 278.67Z" fill="#913B8E"/>
<path d="M541.02 296.72H548.33C547.903 295.267 547.353 292.933 546.68 289.72C546.19 289.44 545.68 289.17 545.17 288.91H538.53C539.61 292.33 540.44 294.933 541.02 296.72Z" fill="#913B8E"/>
<path d="M546.509 288.9H545.169C545.679 289.16 546.169 289.43 546.679 289.71C546.629 289.44 546.569 289.18 546.509 288.9Z" fill="#913B8E"/>
<path d="M532.53 291.25V285.5C531.82 285.45 531.11 285.42 530.39 285.42C529.67 285.42 528.97 285.42 528.26 285.5V299.7C529.753 296.9 531.176 294.083 532.53 291.25Z" fill="#333333"/>
<path d="M532.53 285.5V283.29H528.26V285.5C528.97 285.45 529.68 285.42 530.39 285.42C531.1 285.42 531.78 285.44 532.53 285.5Z" fill="#333333"/>
<path d="M86.0596 372.61L142.83 344.67" stroke="white" stroke-width="1.09" stroke-miterlimit="10"/>
<path d="M136.51 475.11L193.28 447.16" stroke="white" stroke-width="1.09" stroke-miterlimit="10"/>
<path d="M149.64 501.79L206.41 473.84" stroke="white" stroke-width="1.09" stroke-miterlimit="10"/>
</svg>
