<svg width="563" height="574" viewBox="0 0 563 574" fill="none" xmlns="http://www.w3.org/2000/svg">
<path d="M358.04 573.55C471.164 573.55 562.87 481.844 562.87 368.72C562.87 255.595 471.164 163.89 358.04 163.89C244.915 163.89 153.21 255.595 153.21 368.72C153.21 481.844 244.915 573.55 358.04 573.55Z" fill="#E6EBEF"/>
<path d="M142.76 300.07C219.682 300.07 282.04 237.712 282.04 160.79C282.04 83.8675 219.682 21.5098 142.76 21.5098C65.8378 21.5098 3.47998 83.8675 3.47998 160.79C3.47998 237.712 65.8378 300.07 142.76 300.07Z" fill="#C5CFD7"/>
<path d="M562.87 368.72C562.87 255.59 471.16 163.89 358.04 163.89C244.92 163.89 153.21 255.59 153.21 368.72C153.139 414.112 168.219 458.229 196.06 494.08H520C547.844 458.229 562.931 414.113 562.87 368.72V368.72Z" fill="#E6EBEF"/>
<path d="M309.35 360.6L328.3 425.9L337.21 474.93H346.16L337.23 360.6H309.35Z" fill="#C5CFD7"/>
<path d="M300.83 360.6C302.15 394.52 301.63 413.03 301.33 416.11C301.03 419.19 299.33 439.83 287.91 475.97H297.21C312.38 441.3 317.67 420.66 319.41 416.11C321.15 411.56 326.28 393.05 333.78 360.6H300.83Z" fill="#C5CFD7"/>
<path d="M308.94 360.6C313.874 383.806 322.4 420.856 334.52 471.75H347.6C348.6 419.52 344.46 385.14 337.34 360.6H308.94Z" fill="#C5CFD7"/>
<path d="M300.76 360.6C302.06 394.52 298.7 431.12 288.31 471.91H302.31C317.5 437.76 328.39 401.33 335.83 360.6H300.76Z" fill="#C5CFD7"/>
<path d="M286.58 482.69L287.1 474.42C290.1 475.293 293.863 474.96 298.39 473.42C303.263 476.867 309.387 479.22 316.76 480.48C316.896 480.498 317.027 480.543 317.145 480.614C317.262 480.685 317.364 480.779 317.444 480.89C317.523 481.002 317.579 481.129 317.608 481.263C317.637 481.397 317.637 481.535 317.61 481.67C317.61 481.67 317.61 481.75 317.61 481.78L316.9 484.29H287.61L286.58 482.69Z" fill="#C5CFD7"/>
<path d="M335.21 482.69L335.73 474.42C338.73 475.293 342.493 474.96 347.02 473.42C351.893 476.867 358.02 479.22 365.4 480.48C365.535 480.499 365.665 480.546 365.781 480.617C365.898 480.688 365.998 480.782 366.077 480.893C366.156 481.005 366.211 481.131 366.239 481.265C366.267 481.398 366.267 481.536 366.24 481.67C366.246 481.706 366.246 481.743 366.24 481.78L365.53 484.29H336.24L335.21 482.69Z" fill="#C5CFD7"/>
<path d="M316.63 294.049C315.322 292.638 314.304 290.982 313.637 289.177C312.969 287.372 312.665 285.453 312.74 283.53C313.55 271.969 329.65 274.53 332.74 280.35C335.83 286.17 335.54 301 331.49 302C329.88 302.41 326.44 301.4 322.94 299.29L325.14 314.829H312.14L316.63 294.049Z" fill="#C5CFD7"/>
<path d="M360.41 355.249L376.29 370.649C380.354 372.286 384.176 374.469 387.65 377.139C388.31 377.929 389.04 379.459 385.91 378.769C382.78 378.079 379.47 377.509 378.91 378.519C378.35 379.529 380.05 381.079 378.96 382.399C378.24 383.279 375.81 380.479 371.67 373.999L355.15 364.319L360.41 355.249ZM282.74 341.319L295.02 341.369C285.687 371.469 280.72 387.229 280.12 388.649C278.83 391.839 281.57 396.709 282.75 399.319C278.92 401.019 279.33 394.729 274.51 396.959C270.1 398.959 266.75 402.679 261.67 399.559C261.04 399.179 260.36 397.729 262.01 396.559C266.14 393.749 272.08 388.839 272.89 387.219C273.983 385.039 277.267 369.739 282.74 341.319Z" fill="#C5CFD7"/>
<path d="M320.15 306.72L325 305.89C332.64 332.71 371.88 351 374.29 361.03C375.17 364.7 372.51 366.56 373.88 367.68L367.58 372.27C366.51 371.03 364.24 373.27 359.48 371.71C354.72 370.15 320.15 338.48 320.15 306.72Z" fill="#C5CFD7"/>
<path d="M328.31 310.259C327.74 345.789 348.41 354.849 343.81 369.099C340.01 380.869 303.63 393.509 297.33 381.979C294.78 377.309 293.63 371.669 293.5 365.529C291.887 370.243 290.614 374.303 289.68 377.709C288.07 383.579 281.81 384.509 281.81 386.769L273.56 384.509C274.12 381.439 270.23 379.939 271.27 373.079C275.937 342.319 288.487 320.023 308.92 306.189L309.14 303.119C309.184 302.549 309.451 302.018 309.884 301.644C310.316 301.269 310.879 301.081 311.45 301.119V301.119L326.71 302.179C327.28 302.22 327.81 302.485 328.185 302.916C328.56 303.347 328.749 303.909 328.71 304.479V304.479L328.31 310.259Z" fill="#C5CFD7"/>
<path d="M380.97 360.6L372.04 474.93H380.99L389.9 425.9L408.85 360.6H380.97Z" fill="#C5CFD7"/>
<path d="M384.42 360.6C391.92 393.05 397.05 411.6 398.79 416.11C400.53 420.62 405.79 441.3 420.99 475.97H430.29C418.84 439.83 417.16 419.19 416.87 416.11C416.58 413.03 416.05 394.52 417.37 360.6H384.42Z" fill="#C5CFD7"/>
<path d="M380.86 360.6C373.74 385.14 369.63 419.52 370.6 471.75H383.68C395.807 420.863 404.334 383.813 409.26 360.6H380.86Z" fill="#C5CFD7"/>
<path d="M382.41 360.6C389.86 401.33 400.74 437.76 415.93 471.91H429.93C419.53 431.12 416.17 394.52 417.47 360.6H382.41Z" fill="#C5CFD7"/>
<path d="M430.59 484.25H401.33L400.62 481.74V481.63C400.593 481.495 400.593 481.357 400.622 481.223C400.651 481.089 400.707 480.962 400.786 480.85C400.866 480.739 400.968 480.645 401.086 480.574C401.203 480.503 401.334 480.458 401.47 480.44C408.85 479.18 414.973 476.827 419.84 473.38C424.36 474.953 428.123 475.287 431.13 474.38L431.65 482.65L430.59 484.25Z" fill="#C5CFD7"/>
<path d="M382 484.25H352.69L351.98 481.74C351.974 481.703 351.974 481.666 351.98 481.63C351.953 481.496 351.953 481.358 351.981 481.225C352.009 481.091 352.064 480.965 352.143 480.853C352.222 480.742 352.322 480.648 352.439 480.577C352.555 480.505 352.685 480.459 352.82 480.44V480.44C360.207 479.18 366.333 476.827 371.2 473.38C375.72 474.953 379.483 475.287 382.49 474.38L383.01 482.65L382 484.25Z" fill="#C5CFD7"/>
<path d="M406 314.869H393L395.2 299.329C391.7 301.439 388.26 302.449 386.65 302.039C382.65 301.039 382.23 286.189 385.36 280.349C388.49 274.509 404.59 271.969 405.36 283.529C405.436 285.453 405.131 287.372 404.463 289.177C403.796 290.982 402.779 292.638 401.47 294.049L406 314.869Z" fill="#C5CFD7"/>
<path d="M363.07 364.319L346.55 373.999C342.41 380.479 339.98 383.279 339.26 382.399C338.17 381.079 339.9 379.529 339.31 378.519C338.72 377.509 335.41 378.089 332.31 378.769C329.21 379.449 329.91 377.929 330.57 377.139C334.044 374.469 337.866 372.286 341.93 370.649L357.81 355.249L363.07 364.319ZM445.32 387.259C446.12 388.879 452.06 393.789 456.19 396.599C457.84 397.729 457.19 399.179 456.53 399.599C451.45 402.719 448.1 399.029 443.69 396.999C438.87 394.769 439.28 401.059 435.45 399.359C436.63 396.749 439.37 391.879 438.08 388.689C437.5 387.269 432.537 371.509 423.19 341.409L435.46 341.359C440.94 369.786 444.227 385.086 445.32 387.259Z" fill="#C5CFD7"/>
<path d="M358.72 371.71C353.96 373.29 351.72 371.03 350.62 372.27L344.32 367.68C345.69 366.56 343.03 364.68 343.91 361.03C346.32 351.03 385.56 332.71 393.2 305.89L398.05 306.72C398.05 338.48 363.48 370.13 358.72 371.71Z" fill="#C5CFD7"/>
<path d="M389.48 304.479C389.442 303.909 389.631 303.347 390.005 302.916C390.38 302.485 390.911 302.22 391.48 302.179L406.74 301.119C407.311 301.081 407.874 301.269 408.307 301.644C408.74 302.018 409.007 302.549 409.05 303.119L409.27 306.189C429.697 320.016 442.247 342.313 446.92 373.079C447.92 379.939 444.07 381.439 444.63 384.509L436.39 386.769C436.39 384.509 430.13 383.579 428.51 377.709C427.57 374.303 426.297 370.243 424.69 365.529C424.56 371.669 423.41 377.309 420.86 381.979C414.56 393.509 378.18 380.869 374.38 369.099C369.78 354.849 390.45 345.789 389.88 310.259L389.48 304.479Z" fill="#C5CFD7"/>
<path d="M273.71 369.329C270.248 367.018 266.487 365.191 262.53 363.899L246.47 350.279L242.08 359.279L258.36 367.409C262.707 373.309 265.197 375.816 265.83 374.929C266.76 373.599 265.02 372.239 265.51 371.239C266 370.239 269.18 370.569 272.18 371.009C275.18 371.449 274.4 369.999 273.71 369.329Z" fill="#C5CFD7"/>
<path d="M210.24 294.36C208.951 292.97 207.95 291.339 207.292 289.562C206.635 287.784 206.335 285.894 206.41 284C207.21 272.61 223.06 275.12 226.14 280.86C229.22 286.6 228.86 301.18 224.87 302.21C223.28 302.62 219.87 301.62 216.45 299.54L218.62 314.84H205.85L210.24 294.36Z" fill="#C5CFD7"/>
<path d="M201.59 359L220.88 426.69L234.95 476.57H245.22L230.26 359H201.59Z" fill="#C5CFD7"/>
<path d="M196.43 359C195.99 393.89 202.75 439.53 189.05 476.69L198.82 476.57C216.25 440.93 220.88 392.38 230.32 359H196.43Z" fill="#C5CFD7"/>
<path d="M188.11 486.149L188.65 474.979H199.82C205.154 478.699 212.07 481.699 220.57 483.979V486.109H200.35L193.43 485.049V486.109L188.11 486.149Z" fill="#C5CFD7"/>
<path d="M233.51 486.15L234 475H245.18C250.467 478.72 257.38 481.72 265.92 484V486.13H245.75L238.83 485.07V486.13L233.51 486.15Z" fill="#C5CFD7"/>
<path d="M213.13 305.999L218.97 304.069C226.89 323.849 238.7 342.999 258.44 359.169L253.56 367.589C236.21 357.369 219.8 349.429 213.13 334.099C210.9 328.939 213 312.129 213.13 305.999Z" fill="#C5CFD7"/>
<path d="M193.08 361.66C209.8 363.44 222.963 363.44 232.57 361.66C233.76 361.44 233.95 359.45 233.4 358.1C224.81 337.04 218.91 318.67 218.91 304.05C217.343 304.836 214.587 304.956 210.64 304.41C200 319.48 195.17 336.77 193.08 361.66Z" fill="#C5CFD7"/>
<path d="M207.2 302.88H211.62C212.62 308.88 215.89 390.8 225.9 417.58H171.74C172.91 393.04 182.18 363.58 191.56 338.91C188.5 341.7 184.02 345.68 181.26 349.91C176.51 357.16 210.69 358.4 206.79 369.91L198.28 378.69C200 371.18 162.47 362 165 355.49C166.385 351.936 167.985 348.469 169.79 345.11C178.24 328.84 191.54 312.78 206.21 303.23L206.37 302.88H206.76L207.19 302.6L207.2 302.88Z" fill="#C5CFD7"/>
<path d="M199 372.259C200.43 372.999 204.69 378.359 207.11 382.069C208.11 383.559 209.39 382.979 209.74 382.429C212.62 377.989 209.4 374.959 207.67 371.019C205.78 366.709 211.38 367.189 209.94 363.779C209.94 363.829 205.87 365.529 205.4 365.669C204.481 365.996 203.515 366.172 202.54 366.189C201.75 366.189 200 365.189 199.41 365.349C197.77 365.769 195.85 369.459 194.79 370.809C199.24 371.999 198.12 371.809 199 372.259Z" fill="#C5CFD7"/>
<path d="M216.72 284.72C216.67 284 218.65 282.18 219.24 281.72C220.59 280.72 221.86 281 223.39 280.83C226.1 280.54 230.07 279.83 230.07 277.24C229.13 276.57 222.61 274.7 218.92 274.38C214.99 274.04 211.31 274.62 208.41 277.55C206.623 279.459 205.483 281.884 205.155 284.478C204.826 287.073 205.325 289.705 206.58 292C206.75 292.29 209.84 295.82 210.16 295.44C211.16 294.28 211.39 292.85 212.16 291.78C211.69 291.323 211.367 290.736 211.232 290.095C211.098 289.453 211.158 288.786 211.405 288.179C211.652 287.572 212.075 287.053 212.619 286.688C213.164 286.322 213.805 286.128 214.46 286.13H214.85C214.85 287.13 214.92 288.13 214.96 289.08H217.23C217 287.85 216.84 286.38 216.72 284.72Z" fill="#C5CFD7"/>
<path d="M270.32 294.89C271.64 293.467 272.666 291.797 273.339 289.976C274.011 288.155 274.318 286.22 274.24 284.28C273.42 272.61 257.19 275.18 254.03 281.07C250.87 286.96 251.25 301.89 255.33 302.94C256.96 303.36 260.42 302.33 263.95 300.2L261.74 315.88H274.82L270.32 294.89Z" fill="#C5CFD7"/>
<path d="M222.36 374.06C225.145 371.28 228.298 368.894 231.73 366.97L244.12 351.39L249.85 358.92L236.24 369.45C233.287 375.723 231.44 378.506 230.7 377.8C229.59 376.73 230.95 375.15 230.31 374.32C229.67 373.49 226.79 374.37 224.09 375.32C221.39 376.27 221.86 374.85 222.36 374.06Z" fill="#C5CFD7"/>
<path d="M272.1 330.199C268.73 345.649 252.92 358.649 238.7 371.319L232.62 364.409C247.96 345.769 257.51 326.679 261.22 306.859L265.94 308.639C267.24 314.309 273.22 324.999 272.1 330.199Z" fill="#C5CFD7"/>
<path d="M250 359.819L235.04 477.389H245.31L259.38 427.499L278.67 359.819H250Z" fill="#C5CFD7"/>
<path d="M249.94 359.819C259.38 393.189 262.94 441.739 280.38 477.389H291C277.31 440.229 284.26 394.699 283.81 359.819H249.94Z" fill="#C5CFD7"/>
<path d="M286.82 487V485.9L279.91 487H259.69V484.88C268.224 482.573 275.14 479.573 280.44 475.88H291.61L292.14 487.05L286.82 487Z" fill="#C5CFD7"/>
<path d="M241.42 487V485.9L234.51 487H214.29V484.88C222.83 482.573 229.747 479.573 235.04 475.88H246.21L246.74 487.05L241.42 487Z" fill="#C5CFD7"/>
<path d="M290.12 360.629C290.97 357.269 288.89 351.419 288.4 348.719C286.974 340.886 285.194 333.126 283.06 325.439C281.5 319.819 280.23 309.699 274.89 306.209C271.59 304.069 267.36 306.129 263.75 305.629C263.475 305.576 263.191 305.579 262.917 305.638C262.642 305.697 262.383 305.811 262.153 305.972C261.923 306.134 261.729 306.34 261.58 306.578C261.432 306.816 261.333 307.082 261.29 307.359C261.03 310.559 259.93 315.759 259.77 316.579C258.901 320.998 257.762 325.36 256.36 329.64C253.022 339.631 249.068 349.407 244.52 358.909C243.89 360.259 244.1 362.259 245.46 362.479C252.411 363.508 259.436 363.95 266.46 363.799C270.84 363.799 275.21 363.589 279.58 363.319C282.23 363.149 286.58 364.189 288.88 362.569C289.517 362.096 289.958 361.406 290.12 360.629V360.629Z" fill="#C5CFD7"/>
<path d="M259 385C260.494 381.359 261.48 377.53 261.93 373.62L271.54 356.18L262.38 353.8L257.91 370.41C253.244 375.55 251.387 378.326 252.34 378.74C253.75 379.36 254.68 377.49 255.7 377.74C256.72 377.99 257.01 381.01 257.16 383.88C257.31 386.75 258.43 385.8 259 385Z" fill="#C5CFD7"/>
<path d="M280 322.559C282.86 338.109 272.58 356.039 264.35 373.219L256.08 369.219C263.08 346.109 266.55 335.859 262.32 316.149L267.88 311.649C271.27 316.349 279 317.339 280 322.559Z" fill="#C5CFD7"/>
<path d="M270.39 276.71C268.722 275.803 266.868 275.294 264.97 275.22C262.97 275.06 260.84 275.81 258.86 275.13C257.79 274.76 254.51 272.66 254.39 272.08L255.27 276.45C253.04 276.37 250.69 275.14 250.69 275.65C250.69 279.13 253.92 281.94 259.69 281.85C261.19 282.77 262.437 284.049 263.32 285.57C262.82 292.543 261.487 296.03 259.32 296.03C256.09 296.03 253.32 294.03 251.94 294.03C250.94 294.03 251.14 295.32 251.83 296.28C252.39 297.07 255.14 297.83 255.14 299.05C255.14 300.27 252.97 299.33 252.97 300.05C252.97 301.25 252.59 303.5 254.67 303.5C256.75 303.5 262.82 302.73 263.86 299.6C264.527 297.6 264.957 293.417 265.15 287.05H265.54C266.191 287.049 266.827 287.242 267.368 287.604C267.908 287.967 268.328 288.482 268.574 289.084C268.82 289.687 268.88 290.349 268.748 290.986C268.615 291.623 268.296 292.206 267.83 292.66C268.59 293.73 269.43 294.84 270.4 295.99C270.69 296.33 273.03 293.42 273.2 293.15C274.108 291.691 274.662 290.041 274.82 288.33C275.23 284.06 274.11 279 270.39 276.71Z" fill="#C5CFD7"/>
<path d="M494.46 369.329C490.996 367.016 487.231 365.189 483.27 363.899L467.21 350.279L462.82 359.279L479.1 367.409C483.447 373.309 485.937 375.816 486.57 374.929C487.51 373.599 485.77 372.239 486.26 371.239C486.75 370.239 489.92 370.569 492.92 371.009C495.92 371.449 495.14 369.999 494.46 369.329Z" fill="#C5CFD7"/>
<path d="M431 294.36C429.708 292.971 428.703 291.341 428.043 289.564C427.382 287.786 427.079 285.895 427.15 284C427.95 272.61 443.8 275.12 446.88 280.86C449.96 286.6 449.6 301.18 445.62 302.21C444.03 302.62 440.62 301.62 437.2 299.54L439.36 314.84H426.59L431 294.36Z" fill="#C5CFD7"/>
<path d="M422.33 359L441.62 426.69L455.69 476.57H465.96L451 359H422.33Z" fill="#C5CFD7"/>
<path d="M417.18 359C416.73 393.89 423.49 439.53 409.8 476.69L419.56 476.57C437 440.93 441.62 392.38 451.06 359H417.18Z" fill="#C5CFD7"/>
<path d="M408.86 486.149L409.39 474.979H420.56C425.86 478.699 432.777 481.699 441.31 483.979V486.109H421.09L414.18 485.049V486.109L408.86 486.149Z" fill="#C5CFD7"/>
<path d="M454.25 486.149L454.79 474.979H466C471.3 478.699 478.217 481.699 486.75 483.979V486.109H466.49L459.57 485.049V486.109L454.25 486.149Z" fill="#C5CFD7"/>
<path d="M433.88 305.999L439.72 304.069C447.64 323.849 459.45 342.999 479.18 359.169L474.3 367.589C456.96 357.369 440.54 349.429 433.88 334.099C431.64 328.939 433.69 312.129 433.88 305.999Z" fill="#C5CFD7"/>
<path d="M413.82 361.66C430.554 363.44 443.72 363.44 453.32 361.66C454.51 361.44 454.69 359.45 454.14 358.1C445.55 337.04 439.66 318.67 439.66 304.05C438.08 304.836 435.32 304.956 431.38 304.41C420.78 319.48 415.92 336.77 413.82 361.66Z" fill="#C5CFD7"/>
<path d="M428 302.88H432.41C433.41 308.88 436.68 390.8 446.69 417.58H392.48C393.66 393.04 402.92 363.58 412.3 338.91C409.25 341.7 404.77 345.68 402 349.91C397.25 357.16 431.43 358.4 427.54 369.91L419 378.63C420.73 371.18 383.19 362.03 385.75 355.49C387.139 351.937 388.739 348.471 390.54 345.11C398.99 328.84 412.3 312.78 426.97 303.23L427.12 302.88H427.51L427.94 302.6L428 302.88Z" fill="#C5CFD7"/>
<path d="M419.73 372.259C421.16 372.999 425.42 378.359 427.85 382.069C428.85 383.559 430.12 382.979 430.47 382.429C433.35 377.989 430.13 374.959 428.41 371.019C426.52 366.709 432.11 367.189 430.68 363.779C430.68 363.829 426.6 365.529 426.13 365.669C425.211 365.996 424.245 366.172 423.27 366.189C422.48 366.189 420.73 365.189 420.15 365.349C418.51 365.769 416.59 369.459 415.52 370.809C420 371.999 418.87 371.809 419.73 372.259Z" fill="#C5CFD7"/>
<path d="M437.47 284.72C437.42 284 439.4 282.18 439.99 281.72C441.34 280.72 442.6 281 444.14 280.83C446.85 280.54 450.81 279.83 450.81 277.24C449.88 276.57 443.35 274.7 439.66 274.38C435.74 274.04 432.05 274.62 429.15 277.55C427.363 279.459 426.223 281.884 425.895 284.478C425.566 287.073 426.065 289.705 427.32 292C427.5 292.29 430.58 295.82 430.91 295.44C431.91 294.28 432.14 292.85 432.91 291.78C432.445 291.321 432.127 290.735 431.995 290.095C431.863 289.455 431.924 288.79 432.171 288.185C432.417 287.58 432.837 287.062 433.378 286.696C433.92 286.33 434.557 286.133 435.21 286.13H435.6C435.6 287.13 435.67 288.13 435.72 289.08H438C437.76 287.85 437.59 286.38 437.47 284.72Z" fill="#C5CFD7"/>
<path d="M527.69 417.58H526.84C522.48 437.52 517.17 457.69 508.98 474.98H509.23C514.057 478.38 520.24 481.183 527.78 483.39C532.379 476.597 536.566 469.534 540.32 462.24L530.32 426.69L527.69 417.58Z" fill="#E6EBEF"/>
<path d="M542.81 358.1C543.36 359.45 543.17 361.44 541.98 361.66C541.35 361.78 540.71 361.89 540.05 361.99L550.05 440.28C558.58 417.387 562.935 393.15 562.91 368.72C562.91 368.31 562.91 367.9 562.91 367.5C555.34 363.04 547.91 359.01 541.46 354.6C541.86 355.76 542.33 356.92 542.81 358.1Z" fill="#E6EBEF"/>
<path d="M490.67 349.899C489.21 352.119 491.41 353.769 495.04 355.329C497 349.699 499 344.189 501 338.909C497.91 341.699 493.43 345.679 490.67 349.899Z" fill="#E6EBEF"/>
<path d="M521.22 304.549C522.995 304.796 524.795 304.796 526.57 304.549L525.86 299.549C529.31 301.629 532.69 302.629 534.28 302.219C538.28 301.219 538.63 286.619 535.55 280.869C535.48 280.739 535.39 280.609 535.31 280.479C534.481 280.657 533.643 280.787 532.8 280.869C531.27 281.039 530 280.799 528.65 281.759C528.06 282.179 526.08 283.999 526.13 284.759C526.25 286.419 526.42 287.889 526.64 289.159H524.37C524.37 288.229 524.29 287.249 524.26 286.209H523.87C523.215 286.208 522.574 286.402 522.029 286.767C521.485 287.133 521.062 287.652 520.815 288.259C520.568 288.866 520.508 289.533 520.642 290.175C520.777 290.816 521.1 291.403 521.57 291.859C520.8 292.929 520.57 294.359 519.57 295.519C519.57 295.519 519.52 295.519 519.42 295.519L517.83 302.939H521C521.09 303.209 521.15 303.779 521.22 304.549Z" fill="#C5CFD7"/>
<path d="M538.86 362.149C535.86 373.319 533.35 385.999 530.67 399.229C531.705 405.464 533.257 411.602 535.31 417.579H527.69L530.29 426.689L540.29 462.239C543.95 455.102 547.185 447.756 549.98 440.239L539.98 361.949L538.86 362.149Z" fill="#C5CFD7"/>
<path d="M499.06 475H509C517.19 457.71 522.5 437.54 526.86 417.6H507.12C507 437.18 505.34 457 499.06 475Z" fill="#C5CFD7"/>
<path d="M530.67 399.229C533.35 385.999 535.88 373.319 538.86 362.149C534.53 362.711 530.167 362.991 525.8 362.989C527.08 375.719 528.68 388.519 530.67 399.229Z" fill="#C5CFD7"/>
<path d="M509 475L508.25 476.59L498.48 476.71C498.69 476.14 498.88 475.57 499.08 475H498.08L497.54 486.17H502.86V485.11L509.78 486.17H525.89C526.53 485.25 527.17 484.34 527.8 483.41C520.273 481.19 514.09 478.387 509.25 475H509Z" fill="#C5CFD7"/>
<path d="M498.46 476.69L508.23 476.57L509 475H499.08C498.86 475.55 498.67 476.12 498.46 476.69Z" fill="#C5CFD7"/>
<path d="M527.15 304.459C527.471 304.379 527.785 304.275 528.09 304.149L527.15 304.459Z" fill="#C5CFD7"/>
<path d="M551.49 359.27L555.88 350.27L562.45 355.85L562.36 354.35C545.89 339.25 535.54 321.91 528.36 304.04H528.3C528.3 317.84 533.56 334.99 541.38 354.57C547.86 358.98 555.26 363.01 562.83 367.47C562.83 366.61 562.83 365.75 562.83 364.9L551.49 359.27Z" fill="#C5CFD7"/>
<path d="M551.49 359.269L562.82 364.929C562.76 361.929 562.64 358.859 562.45 355.859L555.88 350.279L551.49 359.269Z" fill="#C5CFD7"/>
<path d="M527.15 304.46L526.57 304.57V304.64L527.15 304.46Z" fill="#C5CFD7"/>
<path d="M528.09 304.149L528.32 304.069L528.09 304.149Z" fill="#C5CFD7"/>
<path d="M523.45 336C524 343.2 524.64 351.05 525.45 359H539.77C539.77 359.05 539.77 359.1 539.77 359.15L540.13 361.99C540.79 361.89 541.43 361.78 542.06 361.66C543.25 361.44 543.44 359.45 542.89 358.1C542.41 356.92 541.94 355.76 541.48 354.6C533.72 349.38 527.33 343.62 523.45 336Z" fill="#C5CFD7"/>
<path d="M521.22 304.55C521.41 306.62 521.65 310.19 521.97 314.84C522.21 311.26 522.48 308.03 522.54 305.98L526.54 304.64V304.57C524.774 304.807 522.984 304.801 521.22 304.55V304.55Z" fill="#C5CFD7"/>
<path d="M538.86 362.149L540.05 361.989L539.69 359.149C539.41 360.139 539.14 361.139 538.86 362.149Z" fill="#C5CFD7"/>
<path d="M539.73 359H539.67V359.15C539.67 359.15 539.72 359.05 539.73 359Z" fill="#C5CFD7"/>
<path d="M539.67 359H525.41C525.53 360.33 525.67 361.66 525.8 363C530.167 363.002 534.529 362.721 538.86 362.16C539.14 361.16 539.41 360.16 539.69 359.16L539.67 359Z" fill="#C5CFD7"/>
<path d="M527.15 304.459L526.58 304.639L528 314.849H522C522.38 320.539 522.87 327.849 523.48 335.989C527.36 343.619 533.75 349.379 541.43 354.599C533.61 335.019 528.36 317.869 528.35 304.069L528.12 304.149C527.805 304.276 527.481 304.38 527.15 304.459V304.459Z" fill="#C5CFD7"/>
<path d="M522 314.84H528L526.55 304.63L522.55 305.97C522.48 308 522.21 311.26 522 314.84Z" fill="#C5CFD7"/>
<path d="M506 375.129C503.17 372.469 497.22 369.689 491.23 366.949C485.94 384.149 481.87 401.869 481.12 417.579H507.12C507.2 402.999 506.42 388.559 506 375.129Z" fill="#C5CFD7"/>
<path d="M490.67 349.9C493.43 345.68 497.91 341.7 500.97 338.9C498.97 344.18 496.97 349.69 495.04 355.32C497.26 356.27 500.04 357.19 502.81 358.18C504.76 338.27 508.67 323.33 516.21 310.38L517.83 302.87H516.61V302.59L516.18 302.87H515.79C515.79 302.98 515.69 303.1 515.63 303.22C500.96 312.77 487.63 328.83 479.21 345.1C477.404 348.459 475.805 351.926 474.42 355.48C473.11 358.81 482.22 362.82 491.24 366.94C492.454 363.033 493.714 359.16 495.02 355.32C491.41 353.77 489.21 352.12 490.67 349.9Z" fill="#C5CFD7"/>
<path d="M505.93 371.29L504.19 370.81C504.63 370.25 505.19 369.29 505.87 368.32C505.87 366.18 505.854 364.073 505.82 362L502.49 361.66C502.59 360.48 502.7 359.34 502.81 358.19C500.02 357.19 497.26 356.28 495.04 355.33C493.707 359.163 492.447 363.037 491.26 366.95C497.26 369.69 503.2 372.47 506.03 375.13C506 373.84 506 372.56 505.93 371.29Z" fill="#C5CFD7"/>
<path d="M526.84 417.58H527.69L527.21 415.87C527.08 416.44 527 417 526.84 417.58Z" fill="#C5CFD7"/>
<path d="M520.05 304.41L521.22 304.55C521.15 303.78 521.09 303.21 521.03 302.88H517.83L516.21 310.39C517.4 308.35 518.67 306.36 520.05 304.41Z" fill="#C5CFD7"/>
<path d="M527.69 417.579H535.31C533.257 411.602 531.705 405.464 530.67 399.229C529.55 404.709 528.41 410.229 527.21 415.869L527.69 417.579Z" fill="#C5CFD7"/>
<path d="M508.81 365.35C509.4 365.21 511.15 366.16 511.94 366.19C512.305 366.198 512.67 366.171 513.03 366.11L512.03 362.5C510.03 362.373 507.97 362.207 505.85 362C505.85 364.073 505.867 366.18 505.9 368.32C506.8 367 507.85 365.6 508.81 365.35Z" fill="#C5CFD7"/>
<path d="M508.4 372.26C507.67 371.88 508.33 371.97 505.93 371.26C505.93 372.53 505.99 373.81 506.03 375.1C507.3 376.29 507.95 377.47 507.69 378.6L511.2 375C510.399 373.961 509.456 373.039 508.4 372.26V372.26Z" fill="#C5CFD7"/>
<path d="M517.84 383C517.562 382.958 517.297 382.852 517.067 382.69C516.836 382.529 516.646 382.317 516.51 382.07C514.883 379.609 513.11 377.248 511.2 375L507.69 378.63C507.95 377.5 507.3 376.32 506.03 375.13C506.42 388.56 507.2 403 507.12 417.58H526.84C526.96 417.01 527.08 416.44 527.21 415.87L517.84 383Z" fill="#C5CFD7"/>
<path d="M513 366.11C513.598 365.999 514.19 365.852 514.77 365.67C514.88 365.67 515.2 365.51 515.62 365.35C514.821 364.223 513.8 363.27 512.62 362.55L511.97 362.5L513 366.11Z" fill="#C5CFD7"/>
<path d="M512.65 362.55C513.83 363.27 514.851 364.223 515.65 365.35C516.99 364.81 519.36 363.82 519.34 363.78C520.78 367.19 515.18 366.71 517.07 371.02C518.8 374.96 522.02 378.02 519.14 382.43C518.993 382.631 518.795 382.789 518.567 382.889C518.339 382.989 518.088 383.027 517.84 383L527.21 415.87C528.41 410.28 529.55 404.71 530.67 399.23C528.67 388.52 527.08 375.72 525.8 362.99C521.76 362.996 517.377 362.85 512.65 362.55Z" fill="#C5CFD7"/>
<path d="M502.81 358.189C502.7 359.339 502.59 360.479 502.49 361.659L505.82 361.999C505.82 361.089 505.82 360.189 505.82 359.299C504.84 358.909 503.83 358.549 502.81 358.189Z" fill="#C5CFD7"/>
<path d="M522 314.85H515.29L516.29 310.39C508.75 323.34 504.84 338.28 502.89 358.19C503.89 358.55 504.89 358.91 505.89 359.3V359H525.46C524.69 351 524.05 343.19 523.46 336C523.14 335.38 522.84 334.74 522.55 334.09C521.05 330.65 521.47 322 522 314.85Z" fill="#C5CFD7"/>
<path d="M522 314.85C521.68 310.2 521.44 306.63 521.25 304.56L520.08 304.42C518.7 306.37 517.43 308.36 516.24 310.42L515.24 314.88L522 314.85Z" fill="#C5CFD7"/>
<path d="M511.88 362.07C509.96 360.984 507.953 360.057 505.88 359.3C505.88 360.19 505.88 361.09 505.88 362C508 362.2 510.06 362.366 512.06 362.5L511.88 362.07Z" fill="#C5CFD7"/>
<path d="M511 359H505.84V359.3C507.913 360.058 509.919 360.984 511.84 362.07L511 359Z" fill="#C5CFD7"/>
<path d="M512 362.499L512.65 362.549L511.88 362.069L512 362.499Z" fill="#C5CFD7"/>
<path d="M511.88 362.069L512.65 362.549C517.37 362.856 521.753 363.003 525.8 362.989C525.67 361.659 525.53 360.329 525.41 358.989H511L511.88 362.069Z" fill="#C5CFD7"/>
<path d="M522.54 334.08C522.83 334.73 523.13 335.37 523.45 335.99C522.84 327.85 522.35 320.54 521.97 314.85C521.47 322 521.05 330.65 522.54 334.08Z" fill="#C5CFD7"/>
<path d="M504.19 370.81L505.93 371.29L505.87 368.29C505.22 369.29 504.63 370.25 504.19 370.81Z" fill="#C5CFD7"/>
<path d="M513 366.109C512.64 366.17 512.275 366.197 511.91 366.189C511.12 366.189 509.37 365.189 508.78 365.349C507.78 365.599 506.78 366.959 505.84 368.349L505.9 371.349C508.3 372.029 507.64 371.939 508.37 372.349C509.426 373.128 510.369 374.05 511.17 375.089L514.54 371.619L513 366.109Z" fill="#C5CFD7"/>
<path d="M511.2 374.999C513.11 377.248 514.883 379.608 516.51 382.069C516.645 382.316 516.836 382.528 517.066 382.69C517.297 382.851 517.562 382.957 517.84 382.999L514.57 371.529L511.2 374.999Z" fill="#C5CFD7"/>
<path d="M516.2 369.85L514.57 371.53L517.84 383C518.088 383.027 518.338 382.989 518.567 382.889C518.795 382.789 518.993 382.63 519.14 382.43C522 378 518.8 375 517.07 371C515.18 366.69 520.78 367.17 519.34 363.76C519.34 363.76 516.99 364.76 515.65 365.33C516.1 365.983 516.385 366.735 516.481 367.522C516.577 368.309 516.48 369.108 516.2 369.85Z" fill="#C5CFD7"/>
<path d="M513 366.11L514.54 371.53L516.17 369.85C516.447 369.111 516.541 368.316 516.445 367.532C516.35 366.749 516.067 366 515.62 365.35C515.2 365.51 514.88 365.64 514.77 365.67C514.189 365.851 513.598 365.998 513 366.11Z" fill="#C5CFD7"/>
<path d="M515.82 284C516.6 272.88 531.73 275 535.31 280.47C537.45 279.99 539.48 279.1 539.48 277.27C538.54 276.6 532.02 274.73 528.33 274.41C524.4 274.07 520.72 274.65 517.82 277.58C516.041 279.488 514.907 281.908 514.581 284.496C514.254 287.084 514.751 289.71 516 292C516.16 292.26 518.72 295.21 519.43 295.44L519.66 294.34C518.372 292.953 517.37 291.326 516.711 289.552C516.052 287.778 515.749 285.891 515.82 284V284Z" fill="#C5CFD7"/>
<path d="M519.57 295.46C520.57 294.3 520.8 292.87 521.57 291.8C521.1 291.343 520.777 290.756 520.643 290.115C520.508 289.473 520.568 288.806 520.815 288.199C521.063 287.592 521.485 287.073 522.03 286.708C522.574 286.342 523.215 286.148 523.87 286.15H524.26C524.26 287.15 524.33 288.15 524.37 289.1H526.64C526.42 287.83 526.25 286.36 526.13 284.7C526.13 283.98 528.06 282.16 528.65 281.7C530 280.7 531.27 280.98 532.8 280.81C533.644 280.727 534.482 280.597 535.31 280.42C531.73 274.96 516.6 272.83 515.82 283.95C515.747 285.842 516.047 287.73 516.705 289.506C517.362 291.282 518.363 292.911 519.65 294.3L519.42 295.4C519.494 295.473 519.544 295.493 519.57 295.46Z" fill="#C5CFD7"/>
<path d="M491.06 294.89C493.728 292.016 495.146 288.199 495 284.28C494.18 272.61 477.94 275.18 474.78 281.07C471.62 286.96 472 301.89 476.08 302.94C477.71 303.36 481.18 302.33 484.71 300.2L482.49 315.88H495.57L491.06 294.89Z" fill="#C5CFD7"/>
<path d="M443.1 374.06C445.888 371.278 449.044 368.892 452.48 366.97L464.87 351.39L470.59 358.92L457 369.45C454.054 375.723 452.204 378.506 451.45 377.8C450.34 376.73 451.7 375.15 451.07 374.32C450.44 373.49 447.54 374.37 444.84 375.32C442.14 376.27 442.6 374.85 443.1 374.06Z" fill="#C5CFD7"/>
<path d="M492.84 330.199C489.48 345.649 473.66 358.649 459.44 371.319L453.37 364.409C468.71 345.769 478.25 326.679 481.96 306.859L486.68 308.639C488 314.309 494 324.999 492.84 330.199Z" fill="#C5CFD7"/>
<path d="M470.74 359.819L455.78 477.389H466.05L480.12 427.499L499.41 359.819H470.74Z" fill="#C5CFD7"/>
<path d="M470.68 359.819C480.12 393.189 483.68 441.739 501.12 477.389H511.76C498.06 440.229 505.01 394.699 504.57 359.819H470.68Z" fill="#C5CFD7"/>
<path d="M507.56 487V485.9L500.65 487H480.43V484.88C488.97 482.573 495.887 479.573 501.18 475.88H512.35L512.88 487.05L507.56 487Z" fill="#C5CFD7"/>
<path d="M462.17 487V485.9L455.25 487H435V484.88C443.527 482.573 450.44 479.573 455.74 475.88H467L467.53 487.05L462.17 487Z" fill="#C5CFD7"/>
<path d="M510.87 360.629C511.71 357.269 509.63 351.419 509.14 348.719C507.713 340.906 505.933 333.146 503.8 325.439C502.24 319.819 500.97 309.699 495.63 306.209C492.33 304.069 488.1 306.129 484.5 305.629C484.224 305.575 483.939 305.577 483.664 305.635C483.388 305.693 483.127 305.806 482.896 305.968C482.666 306.13 482.47 306.336 482.321 306.575C482.172 306.814 482.073 307.081 482.03 307.359C481.77 310.559 480.67 315.759 480.52 316.579C479.647 320.998 478.505 325.36 477.1 329.64C473.762 339.631 469.808 349.407 465.26 358.909C464.63 360.259 464.85 362.259 466.2 362.479C473.151 363.508 480.175 363.949 487.2 363.799C491.58 363.799 495.95 363.589 500.32 363.319C502.97 363.149 507.32 364.189 509.62 362.569C510.26 362.098 510.705 361.407 510.87 360.629V360.629Z" fill="#C5CFD7"/>
<path d="M479.71 385C481.2 381.357 482.186 377.529 482.64 373.62L492.24 356.18L483.09 353.8L478.61 370.41C473.944 375.55 472.087 378.326 473.04 378.74C474.45 379.36 475.39 377.49 476.4 377.74C477.41 377.99 477.71 381.01 477.86 383.88C478.01 386.75 479.17 385.8 479.71 385Z" fill="#C5CFD7"/>
<path d="M500.75 322.559C503.61 338.109 493.32 356.039 485.09 373.219L476.82 369.219C483.82 346.109 487.29 335.859 483.07 316.149L488.62 311.649C492 316.349 499.79 317.339 500.75 322.559Z" fill="#C5CFD7"/>
<path d="M491.13 276.71C489.462 275.802 487.608 275.292 485.71 275.22C483.71 275.06 481.59 275.81 479.6 275.13C478.53 274.76 475.25 272.66 475.14 272.08L476.02 276.45C473.78 276.37 471.43 275.14 471.43 275.65C471.43 279.13 474.66 281.94 480.43 281.85C481.93 282.77 483.177 284.049 484.06 285.57C483.56 292.543 482.227 296.03 480.06 296.03C476.84 296.03 474.06 294.03 472.69 294.03C471.69 294.03 471.89 295.32 472.57 296.28C473.13 297.07 475.88 297.83 475.88 299.05C475.88 300.27 473.71 299.33 473.71 300.05C473.71 301.25 473.33 303.5 475.41 303.5C477.49 303.5 483.56 302.73 484.6 299.6C485.267 297.6 485.7 293.417 485.9 287.05H486.29C486.94 287.051 487.575 287.245 488.114 287.608C488.652 287.972 489.071 288.487 489.315 289.089C489.56 289.691 489.62 290.352 489.487 290.988C489.354 291.624 489.035 292.206 488.57 292.66C489.33 293.73 490.18 294.84 491.15 295.99C491.43 296.33 493.78 293.42 493.95 293.15C494.856 291.691 495.407 290.04 495.56 288.33C496 284.06 494.85 279 491.13 276.71Z" fill="#C5CFD7"/>
<path d="M561.5 345.08H154.57C153.667 352.928 153.213 360.821 153.21 368.72C153.143 416.755 170.027 463.272 200.89 500.08H515.18C546.047 463.274 562.935 416.756 562.87 368.72C562.864 360.82 562.407 352.928 561.5 345.08Z" fill="#C5CFD7"/>
<path d="M358 573.55C389.283 573.577 420.154 566.427 448.24 552.65C476.325 538.873 500.875 518.835 520 494.08H196C215.124 518.836 239.674 538.874 267.759 552.652C295.845 566.429 326.717 573.579 358 573.55V573.55Z" fill="#7E7B7B"/>
<path d="M252.389 68.8146L146.268 15.9044C140.604 13.0804 133.723 15.3828 130.899 21.047L21.9953 239.474C19.1712 245.138 21.4736 252.019 27.1378 254.843L133.259 307.753C138.923 310.577 145.804 308.275 148.628 302.611L257.532 84.184C260.356 78.5198 258.054 71.6386 252.389 68.8146Z" fill="#333333"/>
<path d="M245.635 79.7209L139.991 28.3545L42.0504 229.786L147.695 281.153L245.635 79.7209Z" fill="#4ABEF0"/>
<path d="M87.1501 276.88C91.7451 276.88 95.4701 273.155 95.4701 268.56C95.4701 263.965 91.7451 260.24 87.1501 260.24C82.5551 260.24 78.8301 263.965 78.8301 268.56C78.8301 273.155 82.5551 276.88 87.1501 276.88Z" fill="#565353"/>
<path d="M237.564 83.2624L141.749 36.6543L56.4196 212.071L152.235 258.68L237.564 83.2624Z" fill="white"/>
<path d="M295.3 303.44C296.652 301.975 297.701 300.256 298.387 298.384C299.074 296.512 299.384 294.523 299.3 292.53C298.46 280.53 281.76 283.18 278.52 289.23C275.28 295.28 275.65 310.64 279.85 311.72C281.53 312.16 285.09 311.1 288.72 308.91L286.48 325H299.93L295.3 303.44Z" fill="#736152"/>
<path d="M246 384.86C248.87 382.002 252.116 379.55 255.65 377.57L268.39 361.57L274.28 369.32L260.28 380.14C257.24 386.6 255.34 389.464 254.58 388.73C253.43 387.64 254.83 386.01 254.18 385.15C253.53 384.29 250.55 385.21 247.78 386.2C245.01 387.19 245.47 385.67 246 384.86Z" fill="#736152"/>
<path d="M297.13 339.75C293.68 355.65 277.41 369.01 262.79 382.04L256.54 374.93C272.32 355.76 282.14 336.14 285.95 315.76L290.8 317.58C292.14 323.42 298.29 334.42 297.13 339.75Z" fill="#7388C4"/>
<path d="M248.8 380C245.237 377.627 241.369 375.75 237.3 374.42L220.78 360.42L216.27 369.66L233 378C237.467 384.073 240.027 386.65 240.68 385.73C241.68 384.36 239.85 382.97 240.35 381.94C240.85 380.91 244.12 381.25 247.21 381.71C250.3 382.17 249.5 380.73 248.8 380Z" fill="#B18B67"/>
<path d="M361.44 371.01L380.93 438.17L390.1 488.59H399.3L390.11 371.01H361.44Z" fill="#565353"/>
<path d="M352.68 371C354.04 405.89 353.51 424.92 353.2 428.09C352.89 431.26 351.2 452.49 339.4 489.65H349C364.6 454 370 432.77 371.83 428.09C373.66 423.41 378.9 404.38 386.61 371H352.68Z" fill="#565353"/>
<path d="M361 371C366.073 394.873 374.843 432.977 387.31 485.31H400.76C401.76 431.6 397.53 396.24 390.21 371H361Z" fill="#333333"/>
<path d="M352.61 371C353.95 405.89 350.49 443.52 339.8 485.47H354.16C369.78 450.37 381 412.9 388.63 371H352.61Z" fill="#444243"/>
<path d="M338 496.57L338.53 488.06C341.617 488.96 345.49 488.607 350.15 487C355.15 490.54 361.447 492.957 369.04 494.25C369.318 494.299 369.565 494.456 369.728 494.686C369.891 494.916 369.956 495.202 369.91 495.48V495.59L369.18 498.17H339.09L338 496.57Z" fill="#333333"/>
<path d="M388 496.57L388.53 488.06C391.623 488.96 395.497 488.607 400.15 487C405.15 490.54 411.447 492.957 419.04 494.25C419.318 494.299 419.565 494.456 419.728 494.686C419.891 494.916 419.956 495.202 419.91 495.48V495.59L419.18 498.17H389.1L388 496.57Z" fill="#333333"/>
<path d="M368.93 302.59C367.585 301.138 366.539 299.435 365.853 297.578C365.166 295.721 364.853 293.748 364.93 291.77C365.76 279.87 382.32 282.49 385.54 288.49C388.76 294.49 388.38 309.72 384.22 310.8C382.56 311.22 379.02 310.18 375.42 308.01L377.68 324.01H364.34L368.93 302.59Z" fill="#E0BFAD"/>
<path d="M414 365.52L430.33 381.35C434.502 383.03 438.428 385.267 442 388C442.69 388.82 443.43 390.39 440.22 389.69C437.01 388.99 433.6 388.39 432.99 389.43C432.38 390.47 434.17 392.06 433.05 393.43C432.31 394.33 429.81 391.45 425.55 384.79L408.55 374.84L414 365.52ZM334.13 351.19L346.75 351.24C337.137 382.187 332.033 398.394 331.44 399.86C330.11 403.15 332.93 408.15 334.14 410.86C330.2 412.61 330.62 406.13 325.66 408.42C321.13 410.52 317.66 414.31 312.46 411.1C311.82 410.71 311.11 409.22 312.81 408.1C317.06 405.21 323.17 400.16 324 398.49C325.087 396.164 328.447 380.397 334.08 351.19H334.13Z" fill="#E0BFAD"/>
<path d="M372.55 315.61L377.55 314.76C385.4 342.34 425.76 361.14 428.23 371.46C429.14 375.24 426.4 377.15 427.82 378.3L421.33 383C420.23 381.72 417.89 384.05 413 382.42C408.11 380.79 372.55 348.27 372.55 315.61Z" fill="#702370"/>
<path d="M380.94 319.25C380.35 355.79 401.61 365.11 396.88 379.76C392.97 391.86 355.56 404.86 349.09 393C346.47 388.2 345.28 382.4 345.14 376.09C343.493 380.943 342.187 385.116 341.22 388.61C339.56 394.61 333.12 395.61 333.12 397.93L324.64 395.61C325.21 392.45 321.21 390.91 322.29 383.85C327.09 352.223 339.993 329.293 361 315.06L361.23 311.91C361.271 311.321 361.543 310.773 361.988 310.385C362.432 309.997 363.012 309.801 363.6 309.84L379.3 310.93C379.887 310.973 380.432 311.247 380.818 311.691C381.204 312.135 381.399 312.713 381.36 313.3L380.94 319.25Z" fill="#913B8E"/>
<path d="M183.53 302.9C182.204 301.472 181.174 299.795 180.498 297.968C179.822 296.14 179.513 294.197 179.59 292.25C180.41 280.54 196.71 283.12 199.88 289.03C203.05 294.94 202.67 309.93 198.57 311.03C196.94 311.45 193.46 310.42 189.91 308.29L192.14 324H179L183.53 302.9Z" fill="#B18B67"/>
<path d="M174.63 369.38L194.47 438.98L208.94 490.28H219.49L204.11 369.38H174.63Z" fill="#1D5E5B"/>
<path d="M169.33 369.38C168.87 405.25 175.82 452.19 161.74 490.38L171.74 490.26C189.67 453.6 194.43 403.68 204.13 369.36L169.33 369.38Z" fill="#066F6C"/>
<path d="M160.77 500.13L161.32 488.64H172.81C178.257 492.473 185.367 495.573 194.14 497.94V500.13H173.36L166.24 499.03V500.13H160.77Z" fill="#F8B055"/>
<path d="M207.46 500.13L208 488.64H219.49C224.937 492.473 232.05 495.573 240.83 497.94V500.13H220L212.89 499.03V500.13H207.46Z" fill="#F8B055"/>
<path d="M186.5 314.85L192.5 312.85C200.65 333.2 212.8 352.85 233.09 369.51L228.09 378.17C210.26 367.67 193.37 359.5 186.52 343.74C184.2 338.46 186.31 321.18 186.5 314.85Z" fill="#333333"/>
<path d="M165.88 372.11C183.08 373.944 196.617 373.944 206.49 372.11C207.71 371.89 207.91 369.84 207.34 368.45C198.5 346.8 192.44 327.9 192.44 312.86C190.82 313.68 187.99 313.8 183.93 313.23C173 328.73 168 346.51 165.88 372.11Z" fill="#E6EBEF"/>
<path d="M180.4 311.66H184.94C186 317.88 189.33 402.07 199.63 429.66H143.93C145.14 404.43 154.67 374.12 164.31 348.76C161.17 351.64 156.56 355.76 153.72 360.06C148.84 367.52 183.99 368.79 179.98 380.58L171.23 389.58C173 381.92 134.4 372.51 137.03 365.78C138.467 362.119 140.127 358.549 142 355.09C150.69 338.35 164.37 321.84 179.46 312.02L179.61 311.66H180.01L180.46 311.38L180.4 311.66Z" fill="#444243"/>
<path d="M498.32 336.07C499.671 334.604 500.72 332.885 501.406 331.013C502.092 329.141 502.403 327.152 502.32 325.16C501.48 313.16 484.78 315.8 481.54 321.86C478.3 327.92 478.67 343.27 482.87 344.35C484.54 344.78 488.11 343.73 491.74 341.54L489.46 357.66H503L498.32 336.07Z" fill="#B18B67"/>
<path d="M287.89 293.64C287.37 300.894 285.996 304.517 283.77 304.51C280.42 304.51 277.58 302.38 276.12 302.38C275.05 302.38 275.28 303.72 275.99 304.71C276.58 305.53 279.43 306.32 279.43 307.59C279.43 308.86 277.18 307.88 277.18 308.59C277.18 309.84 276.78 312.18 278.94 312.18C281.1 312.18 287.41 311.38 288.48 308.18C289.18 306.08 289.62 301.74 289.83 295.18C289.963 295.17 290.097 295.17 290.23 295.18C290.905 295.179 291.565 295.379 292.125 295.755C292.686 296.132 293.121 296.666 293.376 297.292C293.63 297.917 293.692 298.604 293.554 299.264C293.416 299.925 293.084 300.53 292.6 301C293.39 302.1 294.27 303.26 295.28 304.46C299.07 302.18 301.88 295.53 298.18 289.13C297.731 287.756 296.936 286.521 295.871 285.543C294.806 284.566 293.507 283.879 292.1 283.55C290.058 282.666 287.777 282.5 285.63 283.08C281.82 283.4 278.42 284.56 277.45 285.25C277.45 288.86 278.15 289.93 284.12 289.84C285.67 290.777 286.965 292.082 287.89 293.64Z" fill="#333333"/>
<path d="M436.32 414.32C432.32 408.86 422.24 412.48 422.24 417C422.24 428.86 433.08 485.18 433.65 488.74C434.22 492.3 440.27 493.45 440.65 489.01C441.21 481.94 442.26 457.43 441.21 446.01C440.91 442.68 440.59 439.46 440.26 436.45C445.947 446.67 454.614 461.117 466.26 479.79L472.71 476.84C467.65 460.174 463.494 448.384 460.24 441.47C454.69 429.69 449.48 419.6 447.29 416.05C444.32 411.37 439.63 412 436.32 414.32Z" fill="#B18B67"/>
<path d="M472.18 467.59L450 415.1C444.69 406.56 429.81 416.84 431.62 421.79C435.73 433.03 456.62 469.43 457.85 472.79L472.18 467.59Z" fill="#224D82"/>
<path d="M421.68 421.09C421.68 435.97 428.2 470.94 428.21 474.21L444 473.68C441.24 443.28 440.077 427.977 440.51 427.77C441.51 427.3 480.39 433.15 492.06 433.59C508.88 434.23 515.84 423.91 516.41 404.32H483.81C455.95 407.654 437.634 409.967 428.86 411.26C423.24 412.1 421.68 417 421.68 421.09Z" fill="#2158A5"/>
<path d="M442.57 480.63C443.08 481.826 443.397 483.095 443.51 484.39C443.458 485.878 443.288 487.359 443 488.82H411.39C410.57 486.1 411.043 484.633 412.81 484.42C414.58 484.2 416.05 484.01 417.22 483.83L431.92 477.28C432.055 477.219 432.209 477.214 432.348 477.267C432.487 477.319 432.599 477.425 432.66 477.56V477.56L433.61 479.85C434.85 480.504 436.212 480.896 437.61 481C438.815 480.898 439.987 480.558 441.06 480V480C441.331 479.877 441.639 479.866 441.918 479.969C442.197 480.072 442.424 480.281 442.55 480.55L442.57 480.63Z" fill="white"/>
<path d="M473.87 474.16C474.857 475.021 475.701 476.034 476.37 477.16C476.974 478.519 477.469 479.923 477.85 481.36L449.44 495.23C447.51 493.15 447.3 491.62 448.79 490.65C450.28 489.68 451.52 488.86 452.5 488.19L462.83 475.86C462.877 475.804 462.935 475.757 463 475.723C463.066 475.689 463.137 475.668 463.21 475.662C463.284 475.655 463.358 475.663 463.428 475.685C463.498 475.707 463.563 475.743 463.62 475.79L465.48 477.43C466.878 477.478 468.271 477.232 469.57 476.71C470.61 476.091 471.515 475.268 472.23 474.29V474.29C472.322 474.176 472.436 474.081 472.565 474.011C472.695 473.941 472.837 473.898 472.983 473.884C473.129 473.87 473.277 473.885 473.417 473.929C473.558 473.974 473.688 474.045 473.8 474.14L473.87 474.16Z" fill="white"/>
<path d="M441 488.82H415.2C414.67 488.82 414.161 489.031 413.786 489.406C413.411 489.781 413.2 490.29 413.2 490.82C413.2 491.351 413.411 491.859 413.786 492.235C414.161 492.61 414.67 492.82 415.2 492.82H441C441.531 492.82 442.039 492.61 442.414 492.235C442.789 491.859 443 491.351 443 490.82C443 490.29 442.789 489.781 442.414 489.406C442.039 489.031 441.531 488.82 441 488.82Z" fill="#565353"/>
<path d="M518.09 407.54H458.09C456.604 407.543 455.18 408.135 454.13 409.187C453.08 410.238 452.49 411.664 452.49 413.15V440.61H521.43C522.024 440.61 522.594 440.374 523.014 439.954C523.434 439.534 523.67 438.964 523.67 438.37V413.15C523.67 411.667 523.083 410.245 522.038 409.194C520.992 408.143 519.573 407.548 518.09 407.54V407.54Z" fill="#565353"/>
<path d="M458.11 407.54H456.88C455.551 407.541 454.265 408.015 453.253 408.875C452.24 409.736 451.566 410.928 451.35 412.24L439.06 487.13H445.06" fill="#565353"/>
<path d="M441.86 498.35C447.433 498.35 451.95 493.832 451.95 488.26C451.95 482.687 447.433 478.17 441.86 478.17C436.287 478.17 431.77 482.687 431.77 488.26C431.77 493.832 436.287 498.35 441.86 498.35Z" fill="#333333"/>
<path d="M516.41 497.22C524.836 497.22 533.072 494.721 540.077 490.04C547.083 485.359 552.543 478.706 555.767 470.922C558.992 463.138 559.835 454.572 558.192 446.309C556.548 438.045 552.491 430.455 546.533 424.497C540.575 418.539 532.984 414.482 524.721 412.838C516.457 411.194 507.892 412.038 500.108 415.262C492.324 418.487 485.67 423.947 480.989 430.952C476.308 437.958 473.81 446.194 473.81 454.62C473.81 460.214 474.912 465.753 477.053 470.922C479.194 476.09 482.332 480.787 486.287 484.742C490.243 488.698 494.939 491.836 500.108 493.977C505.276 496.118 510.816 497.22 516.41 497.22V497.22ZM516.41 489.38C509.535 489.382 502.813 487.345 497.096 483.526C491.378 479.708 486.921 474.28 484.289 467.929C481.656 461.577 480.967 454.588 482.307 447.844C483.647 441.101 486.957 434.906 491.818 430.044C496.678 425.182 502.872 421.87 509.615 420.528C516.358 419.186 523.348 419.874 529.7 422.505C536.052 425.135 541.481 429.59 545.301 435.307C549.121 441.023 551.16 447.744 551.16 454.62C551.161 459.184 550.264 463.704 548.518 467.921C546.772 472.138 544.213 475.97 540.986 479.198C537.759 482.426 533.927 484.986 529.711 486.733C525.494 488.48 520.974 489.38 516.41 489.38V489.38Z" fill="#333333"/>
<path d="M518.64 417.63H514.16V491.62H518.64V417.63Z" fill="#333333"/>
<path d="M491.036 427.682L489.452 429.266C489.014 429.703 489.014 430.412 489.452 430.85L540.187 481.584C540.624 482.022 541.333 482.022 541.77 481.584L543.354 480.001C543.792 479.563 543.792 478.854 543.354 478.417L492.619 427.682C492.182 427.244 491.473 427.244 491.036 427.682Z" fill="#333333"/>
<path d="M552.28 452.38H480.53C479.912 452.38 479.41 452.881 479.41 453.5V455.74C479.41 456.358 479.912 456.86 480.53 456.86H552.28C552.899 456.86 553.4 456.358 553.4 455.74V453.5C553.4 452.881 552.899 452.38 552.28 452.38Z" fill="#333333"/>
<path d="M540.187 427.674L489.452 478.409C489.014 478.847 489.014 479.556 489.452 479.993L491.036 481.577C491.473 482.014 492.182 482.014 492.619 481.577L543.354 430.842C543.792 430.405 543.792 429.696 543.354 429.258L541.77 427.674C541.333 427.237 540.624 427.237 540.187 427.674Z" fill="#333333"/>
<path d="M459.92 397L442 410.14C437.76 411.207 433.683 412.842 429.88 415C429.12 415.7 428.19 417.12 431.37 416.88C434.55 416.64 437.93 416.52 438.37 417.61C438.81 418.7 436.88 419.99 437.77 421.46C438.363 422.44 441.163 419.987 446.17 414.1L463.87 406.76L459.92 397ZM528.57 397.45L516.85 397.5C524.083 420.833 527.99 433.22 528.57 434.66C529.86 437.88 527.12 442.77 525.94 445.4C529.77 447.11 529.36 440.78 534.18 443.02C538.58 445.07 541.93 448.78 547.02 445.64C547.64 445.26 548.33 443.81 546.67 442.64C542.55 439.81 536.6 434.86 535.8 433.23C534.713 431.037 532.303 419.113 528.57 397.46V397.45Z" fill="#B18B67"/>
<path d="M495.28 348.31L490.43 347.48C472.43 363.02 465.06 392.86 443.02 408.67L448.33 415.25C486.57 410.51 496 374.11 495.28 348.31Z" fill="#FADD4B"/>
<path d="M516.41 409.22H473.52C471.52 409.22 471.93 406.39 472.21 404.97C475.48 388.49 488.21 370.72 488.21 347.27L500.58 345.33C510.85 361.78 514.39 382 516.41 409.22Z" fill="white"/>
<path d="M516.06 361.5C516.979 361.219 517.832 360.754 518.566 360.133C519.3 359.513 519.9 358.75 520.33 357.89C524.85 349.73 523.22 345.24 518.39 343.76C513.56 342.28 509.25 345.33 501.55 345.33C501.166 345.326 500.781 345.349 500.4 345.4L496.52 345.63C485.413 383.276 482.35 408.4 487.33 421H521.09C522.776 425.03 524.692 428.96 526.83 432.77H536C536.887 404.783 530.24 381.026 516.06 361.5Z" fill="#FADD4B"/>
<path d="M513.74 401.66C512.673 410.553 510.947 417 508.56 421H521.09C518.75 415.553 516.3 409.107 513.74 401.66Z" fill="#EAC219"/>
<path d="M172 383C173.46 383.76 177.85 389.28 180.34 393.09C181.34 394.62 182.68 394.02 183.04 393.46C186.04 388.9 182.69 385.77 180.91 381.72C178.97 377.29 184.73 377.79 183.25 374.27C183.25 374.33 179.06 376.08 178.58 376.27C177.632 376.608 176.636 376.79 175.63 376.81C174.82 376.81 173.02 375.81 172.42 375.95C170.74 376.38 168.76 380.17 167.67 381.56C172.21 382.76 171.06 382.55 172 383Z" fill="#B18B67"/>
<path d="M190.19 293C190.14 292.26 192.19 290.4 192.78 290C194.17 289 195.47 289.26 197.05 289.09C199.84 288.79 203.91 288.02 203.91 285.4C202.91 284.71 196.25 282.78 192.45 282.46C188.45 282.11 184.63 282.7 181.64 285.71C179.809 287.673 178.642 290.163 178.305 292.826C177.967 295.49 178.476 298.192 179.76 300.55C179.94 300.85 183.11 304.48 183.45 304.09C184.45 302.9 184.71 301.43 185.45 300.32C184.973 299.848 184.647 299.245 184.513 298.588C184.379 297.931 184.442 297.249 184.696 296.628C184.95 296.007 185.382 295.475 185.938 295.1C186.494 294.724 187.149 294.523 187.82 294.52H188.22C188.26 295.593 188.3 296.593 188.34 297.52H190.67C190.49 296.2 190.32 294.7 190.19 293Z" fill="#565353"/>
<path d="M274.41 370.21L259.03 491.12H269.58L284.06 439.81L303.89 370.21H274.41Z" fill="#224D82"/>
<path d="M274.35 370.21C284.05 404.53 287.72 454.46 305.65 491.12H316.59C302.5 452.91 309.65 406.12 309.19 370.21H274.35Z" fill="#2158A5"/>
<path d="M312.28 501V499.91L305.17 501H284.38V498.82C293.147 496.44 300.257 493.34 305.71 489.52H317.2L317.75 501H312.28Z" fill="#444243"/>
<path d="M265.59 501V499.91L258.48 501H237.69V498.82C246.47 496.44 253.583 493.34 259.03 489.52H270.52L271.06 501H265.59Z" fill="#444243"/>
<path d="M315.67 371.05C316.54 367.59 314.4 361.58 313.9 358.81C312.43 350.75 310.6 342.75 308.41 334.86C306.81 329.08 305.5 318.67 300 315.09C296.61 312.88 292.26 315 288.56 314.49C288.276 314.434 287.983 314.436 287.7 314.496C287.416 314.556 287.148 314.672 286.911 314.838C286.673 315.005 286.472 315.217 286.319 315.463C286.166 315.709 286.064 315.983 286.02 316.27C285.75 319.56 284.62 324.91 284.46 325.76C283.583 330.3 282.427 334.781 281 339.18C277.569 349.456 273.501 359.509 268.82 369.28C268.18 370.67 268.4 372.72 269.82 372.95C276.975 374.012 284.208 374.467 291.44 374.31C295.94 374.31 300.44 374.09 304.93 373.81C307.66 373.64 312.11 374.71 314.49 373.04C315.113 372.543 315.533 371.835 315.67 371.05V371.05Z" fill="#8C9BCF"/>
<path d="M283.63 396.14C285.16 392.395 286.169 388.459 286.63 384.44L296.51 366.5L287.1 364.05L282.49 381.14C277.71 386.42 275.803 389.273 276.77 389.7C278.22 390.34 279.18 388.42 280.22 388.7C281.26 388.98 281.57 392.07 281.73 395.02C281.89 397.97 283.08 396.93 283.63 396.14Z" fill="#736152"/>
<path d="M305.27 331.9C308.21 347.9 297.63 366.33 289.17 383.99L280.66 379.84C287.82 356.07 291.43 345.54 287.09 325.26L292.8 320.64C296.28 325.51 304.28 326.53 305.27 331.9Z" fill="#8C9BCF"/>
<path d="M498.38 317.42C496.664 316.485 494.753 315.962 492.8 315.89C490.72 315.72 488.56 316.49 486.52 315.79C485.42 315.41 482.05 313.26 481.93 312.66L482.84 317.15C480.54 317.07 478.12 315.8 478.12 316.33C478.12 319.9 481.44 322.8 487.35 322.7C488.892 323.647 490.177 324.959 491.09 326.52C490.57 333.7 489.207 337.287 487 337.28C483.69 337.28 480.88 335.18 479.42 335.18C478.36 335.18 478.6 336.51 479.3 337.49C479.88 338.3 482.7 339.08 482.7 340.34C482.7 341.6 480.47 340.63 480.47 341.34C480.47 342.58 480.08 344.9 482.22 344.9C484.36 344.9 490.61 344.11 491.67 340.9C492.337 338.82 492.783 334.517 493.01 327.99H493.41C494.077 327.993 494.729 328.194 495.281 328.568C495.834 328.942 496.264 329.471 496.515 330.089C496.767 330.707 496.83 331.386 496.695 332.039C496.561 332.693 496.235 333.292 495.76 333.76C496.527 334.86 497.41 336.003 498.41 337.19C498.7 337.53 501.11 334.54 501.28 334.26C502.22 332.747 502.792 331.034 502.95 329.26C503.35 325 502.2 319.72 498.38 317.42Z" fill="#78422B"/>
<path d="M145.335 69.2638L133.872 63.6826L128.29 75.1461L139.754 80.7274L145.335 69.2638Z" stroke="#1D1D1B" stroke-width="1.31" stroke-miterlimit="10"/>
<path d="M167.493 176.973L113.83 151.458C109.126 149.221 103.501 151.221 101.264 155.925L100.775 156.954C98.5383 161.658 100.538 167.283 105.242 169.52L158.904 195.035C163.608 197.272 169.234 195.272 171.47 190.568L171.96 189.539C174.196 184.835 172.196 179.209 167.493 176.973Z" fill="#CAEFFF"/>
<path d="M146.57 77.2002L218.81 111.56" stroke="#1D1D1B" stroke-width="1.31" stroke-miterlimit="10"/>
<path d="M137.177 86.4299L125.713 80.8486L120.132 92.3122L131.596 97.8934L137.177 86.4299Z" stroke="#1D1D1B" stroke-width="1.31" stroke-miterlimit="10"/>
<path d="M138.41 94.3604L210.65 128.72" stroke="#1D1D1B" stroke-width="1.31" stroke-miterlimit="10"/>
<path d="M129.165 103.293L117.701 97.7119L112.12 109.175L123.583 114.757L129.165 103.293Z" stroke="#1D1D1B" stroke-width="1.31" stroke-miterlimit="10"/>
<path d="M130.39 111.22L202.64 145.58" stroke="#1D1D1B" stroke-width="1.31" stroke-miterlimit="10"/>
<path d="M121.285 119.843L109.821 114.262L104.24 125.725L115.704 131.306L121.285 119.843Z" stroke="#1D1D1B" stroke-width="1.31" stroke-miterlimit="10"/>
<path d="M122.52 127.77L194.76 162.13" stroke="#1D1D1B" stroke-width="1.31" stroke-miterlimit="10"/>
<path d="M117.08 164.32L154.67 182.19" stroke="#1D1D1B" stroke-width="1.31" stroke-miterlimit="10"/>
<path d="M172.17 216.73L135.22 199.07C134.903 198.919 134.56 198.832 134.21 198.813C133.86 198.795 133.509 198.846 133.179 198.963C132.848 199.08 132.544 199.261 132.283 199.495C132.023 199.73 131.811 200.013 131.66 200.33L105.86 254.33C105.645 254.773 105.56 255.268 105.613 255.758C105.666 256.248 105.856 256.713 106.16 257.1L110.26 248.52C111.725 245.476 114.336 243.136 117.522 242.012C120.707 240.887 124.209 241.07 127.26 242.52L143.69 250.37C146.732 251.837 149.07 254.448 150.194 257.633C151.318 260.818 151.137 264.318 149.69 267.37L145.69 275.75C146.103 275.677 146.492 275.506 146.826 275.252C147.16 274.998 147.429 274.668 147.61 274.29L173.42 220.29C173.574 219.975 173.664 219.632 173.684 219.281C173.705 218.931 173.656 218.58 173.539 218.249C173.423 217.917 173.242 217.613 173.007 217.352C172.772 217.091 172.487 216.88 172.17 216.73V216.73Z" fill="#C5CFD7"/>
<path d="M172.179 216.719L135.24 199.068C133.909 198.432 132.315 198.996 131.679 200.326L105.876 254.328C105.24 255.658 105.803 257.252 107.134 257.888L144.073 275.539C145.404 276.175 146.998 275.612 147.633 274.281L173.437 220.279C174.073 218.949 173.51 217.355 172.179 216.719Z" fill="#C5CFD7"/>
<path d="M154.66 249.15C155.671 248.347 156.528 247.368 157.19 246.26C158.38 243.97 157.79 241.15 158.56 238.69C159.5 235.69 162.3 233.64 163.23 230.69C164.05 228.03 163.23 225.16 162.13 222.6C160.834 219.213 158.746 216.185 156.04 213.77C154.685 212.573 153.083 211.692 151.346 211.189C149.61 210.685 147.784 210.573 146 210.86C144.624 211.302 143.217 211.636 141.79 211.86C140.87 211.91 139.94 211.75 139.01 211.75C134.2 211.75 130.81 216.32 128.22 220.38C123.22 228.16 118.14 236.27 116.89 245.38C116.6 247.51 116.59 249.89 117.97 251.54C119.97 253.96 123.71 253.54 126.86 253.33C132.93 252.89 137.72 254.81 143.49 255.84C148.28 256.75 151.15 252.29 154.66 249.15Z" fill="#444243"/>
<path d="M151.238 225.489C152.423 223.007 151.373 220.034 148.891 218.848C146.41 217.662 143.437 218.713 142.251 221.195L129.368 248.155C128.183 250.636 129.233 253.609 131.715 254.795C134.196 255.981 137.169 254.931 138.355 252.449L151.238 225.489Z" fill="#736152"/>
<path d="M156.355 233.633L132.58 222.272C131.299 221.66 129.765 222.202 129.153 223.483L128.748 224.331C128.136 225.612 128.678 227.146 129.959 227.758L153.734 239.119C155.015 239.731 156.549 239.188 157.161 237.908L157.566 237.06C158.178 235.779 157.636 234.245 156.355 233.633Z" fill="#736152"/>
<path d="M143.69 250.36L127.26 242.51C124.208 241.06 120.707 240.878 117.521 242.002C114.336 243.126 111.725 245.466 110.26 248.51L106.16 257.09C106.421 257.432 106.765 257.7 107.16 257.87L144.16 275.53C144.666 275.775 145.238 275.849 145.79 275.74L149.79 267.36C151.23 264.296 151.397 260.786 150.253 257.599C149.11 254.413 146.749 251.809 143.69 250.36V250.36Z" fill="#066F6C"/>
<path d="M124.21 255.08C124.518 255.313 124.885 255.455 125.27 255.49C125.861 255.441 126.411 255.169 126.81 254.73C127.606 253.963 128.182 252.995 128.476 251.929C128.77 250.863 128.771 249.737 128.48 248.67C128.301 248.27 128.187 247.845 128.14 247.41C128.14 246.24 129.22 245.32 130.2 244.8C131.18 244.28 132.33 243.74 132.76 242.61C132.974 241.845 132.974 241.035 132.76 240.27C132.545 239.508 132.545 238.702 132.76 237.94C133.05 237.17 133.95 236.59 134.47 237.05C129.94 233.98 120.92 231.33 119.16 240.2C118.08 245.72 120.21 252.52 124.21 255.08Z" fill="#444243"/>
<path d="M155.827 235.912C159.739 227.724 157.453 218.479 150.721 215.263C143.989 212.046 135.36 216.075 131.447 224.262C127.535 232.45 129.821 241.695 136.554 244.912C143.286 248.129 151.915 244.099 155.827 235.912Z" fill="#736152"/>
<path d="M151.92 231C153.373 232.486 155.102 233.675 157.01 234.5C157.367 234.712 157.76 234.858 158.17 234.93C158.717 234.925 159.249 234.756 159.7 234.446C160.151 234.136 160.499 233.699 160.7 233.19C161.98 230.63 161.05 227.56 160.09 224.86L159.09 221.96C158.15 219.29 151.51 207.96 150.02 216.31C149.56 218.92 151.89 220.52 151.85 222.95C151.79 226.25 149.06 227.65 151.92 231Z" fill="#444243"/>
<path d="M100.19 225.92L117.47 234.23C117.529 234.259 117.593 234.276 117.659 234.28C117.725 234.284 117.79 234.276 117.853 234.254C117.915 234.233 117.972 234.199 118.022 234.156C118.071 234.112 118.111 234.059 118.14 234L125.68 218.32C125.735 218.201 125.74 218.064 125.695 217.941C125.65 217.817 125.559 217.716 125.44 217.66L108.16 209.35C108.101 209.321 108.037 209.304 107.971 209.3C107.905 209.296 107.839 209.305 107.777 209.326C107.715 209.347 107.657 209.381 107.608 209.424C107.559 209.468 107.519 209.521 107.49 209.58L103.14 218.58L99.9999 225.25C99.9407 225.365 99.9274 225.498 99.9627 225.623C99.998 225.747 100.079 225.853 100.19 225.92V225.92Z" fill="#CAEFFF"/>
<path d="M126.52 228.47L123.52 228.74L120.35 229.28C120.308 229.285 120.266 229.279 120.228 229.262C120.189 229.246 120.156 229.22 120.13 229.186C120.105 229.153 120.089 229.114 120.084 229.072C120.078 229.031 120.084 228.988 120.1 228.95L122.52 223.18C122.536 223.142 122.563 223.108 122.596 223.084C122.63 223.059 122.669 223.043 122.71 223.038C122.752 223.033 122.794 223.039 122.832 223.055C122.871 223.071 122.904 223.097 122.93 223.13L126.67 228.13C126.686 228.161 126.695 228.196 126.696 228.232C126.697 228.267 126.69 228.303 126.675 228.335C126.661 228.368 126.64 228.397 126.613 228.42C126.586 228.443 126.554 228.46 126.52 228.47V228.47Z" fill="#CAEFFF"/>
</svg>
