<svg width="554" height="563" viewBox="0 0 554 563" fill="none" xmlns="http://www.w3.org/2000/svg">
<path d="M271.19 122.93C264.879 104.374 254.723 87.3593 241.386 72.9977C228.048 58.6362 211.83 47.2515 193.79 39.5881C175.751 31.9246 156.297 28.1551 136.701 28.5259C117.105 28.8967 97.8078 33.3995 80.0713 41.7399C62.3348 50.0803 46.5584 62.0704 33.7738 76.9263C20.9891 91.7822 11.484 109.169 5.88005 127.951C0.276084 146.732 -1.30057 166.485 1.25318 185.917C3.80694 205.35 10.4336 224.025 20.6998 240.72C21.2731 238.56 21.8565 236.404 22.4498 234.25C25.7398 222.41 28.4498 201.1 39.6698 193.75C46.6098 189.24 55.5198 193.57 63.1098 192.53C64.1286 192.344 65.1806 192.512 66.0904 193.007C67.0002 193.502 67.7129 194.294 68.1098 195.25L68.4698 195.12C75.2598 231.43 91.3698 266.57 116.71 300.94C137.29 265.12 147.37 228.38 151.95 192.12L156.21 192.39C156.467 191.914 156.873 191.535 157.366 191.311C157.859 191.087 158.412 191.031 158.94 191.15C162.08 191.81 166.42 191.8 171.94 191.15C172.384 191.09 172.836 191.151 173.248 191.327C173.66 191.503 174.016 191.788 174.28 192.15C192.67 218.78 202.68 248.78 207.97 288.76C236.141 272.777 257.863 247.478 269.401 217.214C280.938 186.95 281.571 153.611 271.19 122.93V122.93Z" fill="#C5CFD7"/>
<path d="M174.51 322.78L192.43 341.26C190.65 333.57 208.76 325.02 227.04 316.67C224.5 308.43 221.84 300.25 219.09 292.2C201.75 299.64 168.81 306.02 174.51 322.78Z" fill="#2158A5"/>
<path d="M139.28 306.89C216.202 306.89 278.56 244.532 278.56 167.61C278.56 90.6879 216.202 28.3301 139.28 28.3301C62.3578 28.3301 0 90.6879 0 167.61C0 244.532 62.3578 306.89 139.28 306.89Z" fill="#C5CFD7"/>
<path d="M139.28 306.89C216.202 306.89 278.56 244.532 278.56 167.61C278.56 90.6879 216.202 28.3301 139.28 28.3301C62.3578 28.3301 0 90.6879 0 167.61C0 244.532 62.3578 306.89 139.28 306.89Z" fill="#C5CFD7"/>
<path d="M150.96 66.9297H88.54C87.6895 66.9297 87 67.6192 87 68.4697V122.09C87 122.94 87.6895 123.63 88.54 123.63H150.96C151.811 123.63 152.5 122.94 152.5 122.09V68.4697C152.5 67.6192 151.811 66.9297 150.96 66.9297Z" fill="white"/>
<path d="M106.03 134.38L135.69 117.18C135.89 117.066 136.055 116.902 136.171 116.703C136.286 116.505 136.347 116.279 136.347 116.05C136.347 115.82 136.286 115.594 136.171 115.396C136.055 115.198 135.89 115.033 135.69 114.92L105.96 97.8396C105.761 97.7124 105.531 97.6417 105.295 97.6353C105.059 97.6288 104.826 97.6868 104.62 97.8029C104.414 97.9191 104.244 98.0891 104.128 98.2946C104.012 98.5002 103.954 98.7335 103.96 98.9696L104.02 133.25C104.016 133.486 104.076 133.719 104.193 133.924C104.311 134.129 104.482 134.299 104.688 134.414C104.894 134.53 105.127 134.588 105.364 134.582C105.6 134.576 105.83 134.506 106.03 134.38V134.38Z" fill="white"/>
<path d="M250.38 154.02C292.912 154.02 327.39 119.541 327.39 77.01C327.39 34.4786 292.912 0 250.38 0C207.849 0 173.37 34.4786 173.37 77.01C173.37 119.541 207.849 154.02 250.38 154.02Z" fill="#FEF4CD"/>
<path d="M183.5 212.94H156.61L161.16 180.72C153.91 185.1 146.78 187.21 143.43 186.35C135.04 184.18 134.27 153.49 140.76 141.35C147.25 129.21 180.63 123.97 182.31 147.95C182.9 156.27 179.4 163.7 174.24 169.76L183.5 212.94Z" fill="#B18B67"/>
<path d="M39.8101 214.12H67.3601L62.6901 181.12C70.1301 185.6 77.4301 187.77 80.8601 186.88C89.4601 184.67 90.2501 153.22 83.5901 140.82C76.9301 128.42 42.7501 123.02 41.0201 147.58C40.4201 156.11 44.0201 163.72 49.2901 169.93L39.8101 214.12Z" fill="#736152"/>
<path d="M72.1902 141.94C84.4202 142.13 85.8502 139.94 85.8502 132.55C83.8502 131.14 76.9102 128.76 69.1002 128.09C64.7005 126.92 60.0342 127.272 55.8602 129.09C50.2602 130.69 45.5102 134.09 43.4102 140.53C35.8202 153.62 41.5802 167.25 49.3402 171.91C51.4102 169.46 53.2102 167.09 54.8202 164.82C53.8531 163.846 53.1939 162.608 52.9246 161.262C52.6554 159.916 52.7881 158.52 53.306 157.248C53.824 155.977 54.7045 154.886 55.8378 154.111C56.9712 153.336 58.3074 152.911 59.6802 152.89C59.9566 152.875 60.2337 152.875 60.5102 152.89C60.9302 166.377 61.8568 175.28 63.2902 179.6C65.4902 186.25 78.2902 187.88 82.8202 187.88C87.3502 187.88 86.4402 183.09 86.4402 180.54C86.4402 178.99 81.8302 181.01 81.8302 178.4C81.8302 175.79 87.6602 174.19 88.8302 172.51C90.2802 170.51 90.7702 167.73 88.5802 167.73C85.5802 167.73 79.7602 172.08 72.9102 172.08C68.3435 172.08 65.5268 164.667 64.4602 149.84C66.8802 146.26 69.1902 143.52 72.1902 141.94Z" fill="#333333"/>
<path d="M124.93 306.17C125.014 305.436 125.195 304.716 125.47 304.03C142.93 261.25 155.1 223.73 155.93 193.48C155.938 193.113 156.034 192.753 156.21 192.43L151.95 192.16C147.37 228.38 137.31 265.16 116.69 300.94C117.83 302.487 118.99 304.037 120.17 305.59C121.75 305.81 123.34 306 124.93 306.17Z" fill="#224D82"/>
<path d="M171.93 191.12C166.42 191.81 162.08 191.82 158.93 191.12C158.402 191 157.849 191.057 157.356 191.281C156.863 191.505 156.457 191.884 156.2 192.36L164.86 192.92C168.5 205.36 181.61 238.51 179.79 250.19C176.45 271.54 164.14 289.19 148.21 306.55C169.209 305.163 189.626 299.07 207.95 288.72C202.66 248.72 192.65 218.72 174.26 192.11C173.996 191.751 173.641 191.469 173.231 191.295C172.821 191.121 172.371 191.06 171.93 191.12V191.12Z" fill="#444243"/>
<path d="M125.47 304.03C125.196 304.716 125.014 305.435 124.93 306.17C132.667 306.976 140.458 307.126 148.22 306.62C164.15 289.24 176.46 271.62 179.8 250.26C181.62 238.58 168.51 205.43 164.87 192.99L156.21 192.43C156.035 192.752 155.939 193.112 155.93 193.48C155.1 223.73 142.93 261.25 125.47 304.03Z" fill="#444243"/>
<path d="M71.4998 215.6C73.3331 224.911 75.7309 234.101 78.6798 243.12C85.1098 263.12 93.4398 282.65 102.32 301.92C106.32 303.03 110.39 303.92 114.49 304.7C115.24 303.45 115.97 302.2 116.69 300.96C91.3498 266.57 75.2898 231.43 68.4498 195.12L68.0898 195.25C68.2045 195.548 68.2752 195.862 68.2998 196.18C68.8598 202.92 71.1698 213.86 71.4998 215.6Z" fill="#EAC219"/>
<path d="M120.17 290.59C118.99 289.037 117.83 287.487 116.69 285.94C115.97 287.18 115.24 288.43 114.49 289.68C116.357 290.02 118.25 290.324 120.17 290.59Z" fill="#EAC219"/>
<path d="M67.9402 272.22C69.2402 273 70.5568 273.757 71.8902 274.49C70.2635 272.697 68.6868 270.89 67.1602 269.07C67.4135 270.11 67.6735 271.16 67.9402 272.22Z" fill="#FADD4B"/>
<path d="M28.8902 228.18C30.8902 217.18 47.2902 215.1 54.4302 205.13L56.1202 206.49C57.0694 203.997 57.8675 201.449 58.5102 198.86L68.0902 195.25C67.6933 194.294 66.9805 193.502 66.0707 193.007C65.1609 192.512 64.109 192.344 63.0902 192.53C55.5002 193.53 46.5902 189.24 39.6502 193.75C28.4002 201.1 25.7202 222.41 22.4302 234.25C21.8302 236.404 21.2468 238.56 20.6802 240.72C23.2101 244.831 25.9539 248.807 28.9002 252.63C27.5169 244.539 27.5136 236.272 28.8902 228.18V228.18Z" fill="#FADD4B"/>
<path d="M56.1201 206.49L66.1201 214.59C60.2701 241.92 61.4701 260.59 67.1201 284.07C68.6401 285.89 70.2168 287.696 71.8501 289.49C81.4732 294.809 91.6905 298.975 102.29 301.9C93.4401 282.63 85.1101 263.12 78.6801 243.12C75.7319 234.107 73.3342 224.923 71.5001 215.62C71.1701 213.88 68.8601 202.94 68.3001 196.2C68.2755 195.881 68.2048 195.568 68.0901 195.27L58.5101 198.88C57.8667 201.462 57.0686 204.003 56.1201 206.49Z" fill="#FADD4B"/>
<path d="M45.5499 244.27C43.6099 235.38 51.5999 218.8 56.1199 206.49L54.4299 205.12C47.2899 215.12 30.9099 217.18 28.8899 228.18C27.51 236.272 27.51 244.539 28.8899 252.63C39.5938 266.515 52.8261 278.251 67.8899 287.22C67.6166 286.16 67.3566 285.11 67.1099 284.07C56.6299 271.53 48.6199 258.39 45.5499 244.27Z" fill="#FADD4B"/>
<path d="M45.5501 244.27C48.6201 258.39 56.6301 271.53 67.1601 284.07C61.4701 260.61 60.2701 241.92 66.1601 214.59L56.1601 206.49C51.6001 218.8 43.6101 235.38 45.5501 244.27Z" fill="#FADD4B"/>
<path d="M106.45 95.6605V108.78C106.414 109.116 106.494 109.453 106.675 109.736C106.857 110.02 107.13 110.233 107.45 110.34C107.619 110.388 107.794 110.412 107.97 110.41H113.63C113.968 110.437 114.305 110.347 114.584 110.153C114.863 109.96 115.066 109.677 115.16 109.35C115.205 109.127 115.225 108.899 115.22 108.67V101.56C115.22 100.83 115.38 100.67 116.11 100.67H120.35C120.99 100.67 121.19 100.87 121.19 101.5V108.8C121.167 109.015 121.192 109.232 121.262 109.436C121.333 109.639 121.448 109.825 121.599 109.979C121.751 110.133 121.934 110.251 122.136 110.326C122.339 110.401 122.555 110.429 122.77 110.41H128.4C128.615 110.435 128.833 110.41 129.037 110.338C129.241 110.266 129.426 110.148 129.579 109.994C129.731 109.84 129.846 109.654 129.915 109.449C129.985 109.244 130.007 109.025 129.98 108.81V95.6605H131.79C132.036 95.6807 132.284 95.6807 132.53 95.6605C132.782 95.6142 133.017 95.5016 133.211 95.3342C133.405 95.1668 133.55 94.9506 133.633 94.7081C133.716 94.4656 133.732 94.2054 133.68 93.9545C133.629 93.7035 133.511 93.4709 133.34 93.2805L133.17 93.1005C128.57 88.5072 123.976 83.9138 119.39 79.3205C119.209 79.0862 118.961 78.9121 118.679 78.8211C118.397 78.7301 118.094 78.7264 117.81 78.8105C117.508 78.9081 117.234 79.076 117.01 79.3005L103.29 93.0405C103.048 93.2454 102.878 93.5219 102.805 93.8299C102.731 94.138 102.757 94.4615 102.88 94.7535C103.002 95.0455 103.215 95.2909 103.486 95.454C103.758 95.6171 104.074 95.6894 104.39 95.6605H106.45Z" fill="#333333"/>
<path d="M250.69 46.7303C259.72 46.7303 267.04 39.4101 267.04 30.3803C267.04 21.3504 259.72 14.0303 250.69 14.0303C241.66 14.0303 234.34 21.3504 234.34 30.3803C234.34 39.4101 241.66 46.7303 250.69 46.7303Z" fill="#FADD4B"/>
<path d="M203.22 93.5896C212.25 93.5896 219.57 86.2695 219.57 77.2397C219.57 68.2098 212.25 60.8896 203.22 60.8896C194.19 60.8896 186.87 68.2098 186.87 77.2397C186.87 86.2695 194.19 93.5896 203.22 93.5896Z" fill="#FADD4B"/>
<path d="M297.79 93.5203C306.82 93.5203 314.14 86.2002 314.14 77.1703C314.14 68.1405 306.82 60.8203 297.79 60.8203C288.76 60.8203 281.44 68.1405 281.44 77.1703C281.44 86.2002 288.76 93.5203 297.79 93.5203Z" fill="#FADD4B"/>
<path d="M250.38 126.96C276.718 126.96 298.07 105.609 298.07 79.2701C298.07 52.9316 276.718 31.5801 250.38 31.5801C224.041 31.5801 202.69 52.9316 202.69 79.2701C202.69 105.609 224.041 126.96 250.38 126.96Z" stroke="#FADD4B" stroke-width="2.86" stroke-miterlimit="10"/>
<path d="M246.78 33.1198H249.44V25.5398L249.73 24.2298L248.81 25.3698L247.11 26.5298L246.05 25.1198L250.42 21.5898H251.82V33.1198H254.43V35.2298H246.78V33.1198Z" fill="#333333"/>
<path d="M301.36 73.9301C301.358 74.6118 301.239 75.2881 301.01 75.9301C300.766 76.6207 300.465 77.2897 300.11 77.9301C299.743 78.5697 299.339 79.1874 298.9 79.7801C298.46 80.3801 298.03 80.9201 297.6 81.4201L296.6 82.2101V82.3001L297.98 82.0301H301.66V84.1401H293.59V82.7801C293.9 82.4601 294.24 82.0801 294.59 81.6601C294.94 81.2401 295.35 80.7701 295.75 80.3001C296.15 79.8301 296.51 79.3001 296.89 78.8101C297.254 78.3171 297.587 77.8029 297.89 77.2701C298.171 76.7901 298.405 76.2845 298.59 75.7601C298.754 75.3182 298.842 74.8515 298.85 74.3801C298.867 73.9089 298.706 73.4484 298.4 73.0901C298.212 72.9072 297.987 72.7669 297.741 72.6789C297.494 72.5908 297.231 72.5571 296.97 72.5801C296.54 72.5853 296.116 72.6736 295.72 72.8401C295.322 72.9966 294.953 73.2198 294.63 73.5001L293.63 71.7401C294.727 70.8174 296.127 70.333 297.56 70.3801C298.072 70.377 298.582 70.4546 299.07 70.6101C299.508 70.7501 299.913 70.9781 300.26 71.2801C300.599 71.584 300.865 71.9598 301.04 72.3801C301.251 72.8695 301.36 73.397 301.36 73.9301V73.9301Z" fill="#333333"/>
<path d="M207.19 80.1201H205.09V83.8601H202.77V80.1201H196.96V78.6901L203.03 70.3301H205.09V78.1201H207.19V80.1201ZM202.77 75.2001L202.94 73.5901H202.86L202.21 74.9701L200.21 77.5601L199.21 78.2801L200.49 78.1201H202.77V75.2001Z" fill="#333333"/>
<path d="M250.38 140.3C259.41 140.3 266.73 132.979 266.73 123.95C266.73 114.92 259.41 107.6 250.38 107.6C241.35 107.6 234.03 114.92 234.03 123.95C234.03 132.979 241.35 140.3 250.38 140.3Z" fill="#333333"/>
<path d="M248.9 129.37C249.229 129.392 249.56 129.347 249.871 129.237C250.183 129.127 250.468 128.955 250.71 128.73C250.914 128.532 251.075 128.294 251.184 128.03C251.292 127.767 251.345 127.485 251.34 127.2C251.36 126.9 251.311 126.6 251.199 126.321C251.086 126.042 250.912 125.792 250.69 125.59C250.095 125.21 249.395 125.028 248.69 125.07H247.29V123.75L249.6 120.59L250.7 119.73L249.18 119.9H245.96V117.79H253.29V119.12L250.59 122.75L249.75 123.26V123.36L250.55 123.24C250.99 123.276 251.422 123.38 251.83 123.55C252.229 123.709 252.588 123.955 252.88 124.27C253.195 124.605 253.44 124.999 253.6 125.43C253.789 125.939 253.88 126.478 253.87 127.02C253.884 127.69 253.755 128.355 253.49 128.97C253.267 129.501 252.925 129.973 252.49 130.35C252.039 130.729 251.515 131.011 250.95 131.18C250.332 131.356 249.693 131.443 249.05 131.44C248.467 131.438 247.885 131.388 247.31 131.29C246.804 131.218 246.312 131.07 245.85 130.85L246.52 128.78C246.87 128.955 247.239 129.089 247.62 129.18C248.038 129.292 248.468 129.356 248.9 129.37V129.37Z" fill="#FADD4B"/>
<path d="M199.43 347.26L181.51 328.78C175.81 312.02 208.75 305.64 226.09 298.2C222.09 286.34 217.83 274.74 213.59 263.62C220.02 269.5 229.46 277.87 235.29 286.76C238.34 291.43 233.73 294.92 226.09 298.2C228.84 306.25 231.5 314.43 234.04 322.67C253.04 314 272.21 305.55 269.46 298.53C266.545 291.048 263.176 283.751 259.37 276.68C241.58 242.4 213.56 208.58 182.66 188.47L182.34 187.73H181.52L180.61 187.15V187.73H171.31C169.59 197.88 164.9 309.49 152.39 382.93H249.39C245.33 362.586 240.193 342.471 234 322.67C215.76 331.02 197.65 339.57 199.43 347.26Z" fill="#2158A5"/>
<path d="M551.29 324.92C546.33 294.245 534.457 265.099 516.567 239.691C498.678 214.283 475.243 193.278 448.035 178.267C420.827 163.256 390.561 154.632 359.527 153.048C328.493 151.464 297.506 156.961 268.911 169.124C240.317 181.287 214.864 199.796 194.481 223.251C174.097 246.705 159.318 274.49 151.26 304.502C143.203 334.513 142.08 365.964 147.976 396.474C153.872 426.983 166.632 455.752 185.29 480.6H512.76C529.354 458.594 541.323 433.456 547.945 406.701C554.566 379.946 555.704 352.127 551.29 324.92V324.92Z" fill="#E6EBEF"/>
<path d="M335.72 204.04H237.71V335.87H335.72V204.04Z" fill="white"/>
<path d="M272.94 322.221C272.49 321.771 272.79 321.461 273.04 321.071C274.287 319.317 275.672 317.665 277.18 316.131C277.268 316.031 277.333 315.913 277.371 315.785C277.409 315.657 277.419 315.523 277.4 315.391C276.4 312.681 276.88 309.911 277.07 307.161C277.12 306.531 277.19 305.901 277.26 305.161L279.26 305.451C278.97 304.101 278.7 302.841 278.42 301.581C278.399 301.524 278.364 301.473 278.319 301.433C278.273 301.393 278.219 301.365 278.16 301.351C277.07 301.351 276.76 300.431 276.37 299.741C276.141 299.166 276.069 298.542 276.16 297.931C276.239 297.595 276.447 297.304 276.74 297.121C277.077 296.91 277.354 296.614 277.541 296.263C277.729 295.912 277.822 295.518 277.81 295.121C277.771 294.646 277.922 294.174 278.23 293.811C278.57 293.411 278.98 292.921 278.67 292.331C277.094 292.568 275.494 292.602 273.91 292.431C273.774 292.386 273.649 292.313 273.544 292.217C273.439 292.12 273.356 292.002 273.3 291.871C272.892 290.871 272.541 289.85 272.25 288.811C272.097 288.213 272.073 287.589 272.18 286.981C272.265 285.836 272.742 284.755 273.53 283.921C273.921 283.427 274.228 282.873 274.44 282.281C273.22 281.761 272.11 281.281 271.03 280.821C270.939 280.777 270.859 280.714 270.795 280.637C270.731 280.559 270.685 280.468 270.66 280.371C270.51 278.931 270.45 277.481 270.24 276.051C269.96 274.121 269.58 272.211 269.24 270.291C269.222 270.183 269.188 270.079 269.14 269.981C268.36 268.761 268.39 267.341 268.21 265.981C268.21 265.801 268.37 265.601 268.45 265.401C268.53 265.261 268.584 265.109 268.61 264.951C268.585 264.601 268.585 264.25 268.61 263.901C268.666 263.57 268.836 263.269 269.09 263.051C270.5 262.181 271.93 261.371 273.38 260.571C273.57 260.461 273.87 260.571 274.24 260.571C274.391 260.159 274.662 259.802 275.019 259.547C275.376 259.292 275.801 259.15 276.24 259.141L278.24 257.591C278.93 257.961 279.14 257.901 279.7 257.071C279.763 256.997 279.809 256.911 279.835 256.817C279.86 256.724 279.865 256.626 279.849 256.531C279.833 256.435 279.796 256.345 279.741 256.265C279.686 256.186 279.614 256.119 279.53 256.071C280.39 254.071 281.11 252.071 282.12 250.251C282.66 249.251 283.12 247.961 284.44 247.581C284.536 247.536 284.621 247.471 284.688 247.39C284.756 247.308 284.804 247.213 284.83 247.111C285.03 246.271 285.17 245.431 285.33 244.601L283.9 243.921C284.865 243.305 285.614 242.403 286.04 241.341C286.43 240.481 287.04 239.741 287.46 238.891C287.929 238.072 288.267 237.184 288.46 236.261C288.754 235.188 288.987 234.099 289.16 233.001C289.16 231.841 289.46 230.681 289.61 229.531C289.76 228.381 289.9 227.261 290.04 226.121C290.108 224.958 290.258 223.802 290.49 222.661C290.837 221.555 291.279 220.481 291.81 219.451C291.89 219.261 292.18 219.161 292.38 219.041C292.881 218.683 293.413 218.372 293.97 218.111C295.066 217.613 296.271 217.406 297.47 217.511C297.547 217.539 297.617 217.582 297.675 217.639C297.734 217.696 297.78 217.765 297.81 217.841C297.96 218.301 298.06 218.771 298.2 219.281C298.71 219.141 298.91 219.281 299.04 219.751C299.418 220.703 299.572 221.729 299.49 222.751C299.41 223.211 299.38 223.561 298.85 223.601C299.09 224.441 299.14 224.471 299.85 224.371C299.73 224.701 299.71 225.021 299.54 225.181C298.408 226.475 297.593 228.016 297.16 229.681C296.92 230.301 296.9 231.011 296.02 231.041C295.991 231.369 296.066 231.699 296.234 231.983C296.403 232.266 296.657 232.49 296.96 232.621C298.09 233.161 299.17 233.791 300.27 234.401C300.42 234.482 300.544 234.603 300.63 234.751C300.921 235.294 301.178 235.855 301.4 236.431C301.501 236.674 301.54 236.938 301.514 237.2C301.488 237.461 301.397 237.713 301.25 237.931C300.25 239.381 299.4 240.871 298.49 242.351C298 243.151 298.01 243.201 298.8 243.691L299.51 244.151L298.98 245.581L299.98 246.271L299.82 246.371C299.98 246.721 300.12 247.081 300.31 247.371C300.5 247.661 300.83 248.071 301.15 248.501L298.23 249.301L298.9 249.781C300.08 250.541 301.27 251.291 302.44 252.081C302.884 252.4 303.296 252.762 303.67 253.161C303.794 253.331 303.854 253.54 303.84 253.751C303.842 254.016 303.798 254.28 303.71 254.531C303.559 255.277 303.664 256.052 304.01 256.731C304.623 258.316 305.563 259.754 306.77 260.951C307.271 260.779 307.713 260.468 308.043 260.053C308.372 259.638 308.576 259.138 308.63 258.611L308.85 258.701C308.916 259.071 308.963 259.445 308.99 259.821C309.006 260.751 309.264 261.661 309.74 262.461C309.82 262.611 309.89 262.771 309.96 262.931C311.1 265.341 311.21 265.361 310.65 267.931C310.266 269.165 309.718 270.342 309.02 271.431C308.473 272.504 307.855 273.54 307.17 274.531C306.54 275.34 305.855 276.106 305.12 276.821C304.73 277.241 304.28 277.601 303.89 278.011C303.615 278.215 303.412 278.501 303.308 278.827C303.204 279.154 303.204 279.505 303.31 279.831C303.332 280.006 303.289 280.184 303.19 280.331C303.052 280.545 302.984 280.797 302.997 281.052C303.009 281.307 303.101 281.551 303.26 281.751C303.366 281.914 303.421 282.106 303.42 282.301C303.42 282.721 303.47 283.021 304 283.051C304.13 283.051 304.31 283.401 304.34 283.611C304.476 284.406 304.908 285.121 305.55 285.611C306.195 286.146 306.72 286.811 307.092 287.562C307.464 288.313 307.674 289.133 307.71 289.971C307.733 290.341 307.835 290.703 308.01 291.031C308.654 292.16 309.113 293.386 309.37 294.661C309.399 294.968 309.477 295.268 309.6 295.551C310.87 297.861 310.84 300.481 311.4 302.951C311.62 303.951 311.88 304.951 312.09 305.951C312.132 306.233 312.255 306.497 312.443 306.711C312.631 306.925 312.876 307.082 313.15 307.161C313.412 307.26 313.667 307.381 313.91 307.521L313.74 307.641C313.89 307.981 314.02 308.341 314.2 308.641C314.935 309.736 315.385 310.997 315.51 312.311C315.51 312.731 315.51 313.161 315.51 313.671L316.88 313.331L317.28 314.831L318.1 314.671C318.36 315.091 318.98 315.331 318.74 316.051C318.74 316.151 318.99 316.351 319.15 316.541C319.15 317.181 318.86 317.371 318.15 317.331C316.943 317.221 315.726 317.333 314.56 317.661C313.41 318.021 312.56 317.281 311.74 316.591C310.92 315.901 310.06 315.091 309.24 314.331C309.024 314.144 308.773 314.004 308.501 313.918C308.23 313.832 307.943 313.802 307.66 313.831C304.98 313.911 302.3 313.951 299.61 314.001C299.35 314.033 299.086 314.002 298.84 313.911C297.782 313.457 296.618 313.308 295.48 313.481C295.152 313.523 294.85 313.683 294.63 313.931C294.03 314.711 293.5 315.541 292.92 316.341C292.791 316.487 292.639 316.612 292.47 316.711C291.95 317.071 291.41 317.411 290.9 317.791C290.536 318.056 290.227 318.39 289.992 318.774C289.757 319.159 289.6 319.586 289.53 320.031C289.457 320.353 289.31 320.655 289.1 320.911C288.48 321.721 288.25 322.911 287.1 323.261C287.061 323.281 287.027 323.311 287.003 323.348C286.978 323.384 286.964 323.427 286.96 323.471C287.11 324.401 286.32 324.691 285.81 325.191C285.23 324.721 284.88 325.191 284.63 325.581C284.567 325.716 284.458 325.825 284.323 325.889C284.188 325.953 284.035 325.968 283.89 325.931C283.25 325.851 282.61 325.861 281.98 325.761C281.35 325.661 280.98 325.511 280.4 325.361L279.85 327.051C278.918 326.808 278 326.515 277.1 326.171C276.249 325.756 275.43 325.278 274.65 324.741C274.28 324.511 273.99 324.441 273.65 324.741C273.379 325.031 273.03 325.237 272.646 325.334C272.261 325.432 271.856 325.417 271.48 325.291C271.134 325.22 270.821 325.037 270.59 324.771C270.5 324.621 270.74 324.151 270.95 323.931C271.43 323.421 271.95 322.981 272.51 322.511L272.94 322.221Z" fill="#FADD4B"/>
<path d="M256.64 236C263.306 236 268.71 230.596 268.71 223.93C268.71 217.264 263.306 211.86 256.64 211.86C249.974 211.86 244.57 217.264 244.57 223.93C244.57 230.596 249.974 236 256.64 236Z" fill="#2158A5"/>
<path d="M250.92 223.45V229.36C250.904 229.513 250.943 229.667 251.028 229.795C251.114 229.923 251.242 230.016 251.39 230.06C251.466 230.07 251.543 230.07 251.62 230.06H254.17C254.323 230.075 254.476 230.034 254.603 229.947C254.729 229.859 254.82 229.729 254.86 229.58C254.87 229.48 254.87 229.38 254.86 229.28V226.12C254.86 225.79 254.93 225.72 255.26 225.71H257.17C257.46 225.71 257.55 225.79 257.55 226.08V229.37C257.539 229.466 257.55 229.564 257.581 229.656C257.613 229.747 257.665 229.831 257.733 229.9C257.801 229.969 257.884 230.022 257.975 230.055C258.066 230.087 258.163 230.1 258.26 230.09H260.8C260.897 230.102 260.995 230.091 261.087 230.059C261.179 230.026 261.263 229.973 261.331 229.904C261.4 229.834 261.451 229.75 261.482 229.658C261.513 229.565 261.523 229.467 261.51 229.37V223.45H262.32C262.433 223.46 262.547 223.46 262.66 223.45C262.774 223.431 262.881 223.381 262.969 223.306C263.057 223.231 263.124 223.133 263.16 223.023C263.197 222.913 263.204 222.795 263.179 222.682C263.154 222.569 263.099 222.464 263.02 222.38C262.998 222.349 262.971 222.321 262.94 222.3L256.74 216.09C256.657 215.984 256.544 215.905 256.415 215.864C256.287 215.823 256.149 215.821 256.02 215.86C255.884 215.904 255.761 215.979 255.66 216.08L249.45 222.29C249.34 222.382 249.262 222.507 249.229 222.647C249.195 222.786 249.207 222.933 249.263 223.065C249.319 223.197 249.416 223.308 249.54 223.381C249.663 223.454 249.807 223.485 249.95 223.47L250.92 223.45Z" fill="white"/>
<path d="M277.74 314.66C279.236 314.66 280.45 313.447 280.45 311.95C280.45 310.454 279.236 309.24 277.74 309.24C276.243 309.24 275.03 310.454 275.03 311.95C275.03 313.447 276.243 314.66 277.74 314.66Z" fill="#2158A5"/>
<path d="M296.36 275.4C297.857 275.4 299.07 274.187 299.07 272.69C299.07 271.194 297.857 269.98 296.36 269.98C294.863 269.98 293.65 271.194 293.65 272.69C293.65 274.187 294.863 275.4 296.36 275.4Z" fill="#2158A5"/>
<path d="M290.45 282.221C291.946 282.221 293.16 281.007 293.16 279.511C293.16 278.014 291.946 276.801 290.45 276.801C288.953 276.801 287.74 278.014 287.74 279.511C287.74 281.007 288.953 282.221 290.45 282.221Z" fill="#2158A5"/>
<path d="M302.27 311.311C303.766 311.311 304.98 310.097 304.98 308.601C304.98 307.104 303.766 305.891 302.27 305.891C300.773 305.891 299.56 307.104 299.56 308.601C299.56 310.097 300.773 311.311 302.27 311.311Z" fill="#2158A5"/>
<path d="M287.26 254.941C288.756 254.941 289.97 253.727 289.97 252.231C289.97 250.734 288.756 249.521 287.26 249.521C285.763 249.521 284.55 250.734 284.55 252.231C284.55 253.727 285.763 254.941 287.26 254.941Z" fill="#2158A5"/>
<path d="M294.54 225.391C296.037 225.391 297.25 224.177 297.25 222.681C297.25 221.184 296.037 219.971 294.54 219.971C293.043 219.971 291.83 221.184 291.83 222.681C291.83 224.177 293.043 225.391 294.54 225.391Z" fill="#2158A5"/>
<path d="M274.08 273.12C275.576 273.12 276.79 271.907 276.79 270.41C276.79 268.914 275.576 267.7 274.08 267.7C272.583 267.7 271.37 268.914 271.37 270.41C271.37 271.907 272.583 273.12 274.08 273.12Z" fill="#2158A5"/>
<path d="M269.54 240.851H243.51V241.861H269.54V240.851Z" fill="#444243"/>
<path d="M269.54 245.021H243.51V246.031H269.54V245.021Z" fill="#444243"/>
<path d="M185.29 480.601C204.377 505.993 229.108 526.598 257.528 540.789C285.948 554.98 317.279 562.367 349.045 562.367C380.811 562.367 412.142 554.98 440.562 540.789C468.982 526.598 493.713 505.993 512.8 480.601H185.29Z" fill="#7E7B7B"/>
<path d="M390.6 267.21C395.11 261.91 398.16 255.42 397.65 248.14C396.18 227.14 367 231.79 361.33 242.37C355.66 252.95 356.33 279.79 363.66 281.68C366.59 282.43 372.82 280.59 379.16 276.76L375.16 304.93H398.69L390.6 267.21Z" fill="#736152"/>
<path d="M377.64 250.121C376.74 262.787 374.34 269.121 370.44 269.121C364.59 269.121 359.63 265.401 357.06 265.401C355.19 265.401 355.61 267.741 356.85 269.481C357.85 270.911 362.85 272.291 362.85 274.481C362.85 276.671 358.92 274.981 358.92 276.301C358.92 278.481 358.23 282.571 362.01 282.571C365.79 282.571 376.79 281.181 378.67 275.501C379.89 271.841 380.676 264.251 381.03 252.731C381.263 252.715 381.497 252.715 381.73 252.731C382.909 252.73 384.061 253.08 385.04 253.738C386.018 254.395 386.779 255.329 387.224 256.42C387.67 257.512 387.78 258.711 387.54 259.866C387.301 261.02 386.723 262.077 385.88 262.901C387.25 264.841 388.79 266.901 390.55 268.901C397.18 264.901 402.09 253.301 395.62 242.121C393.83 236.651 389.77 233.731 384.99 232.371C381.425 230.824 377.442 230.532 373.69 231.541C367.03 232.111 361.09 234.141 359.4 235.341C359.4 241.651 360.62 243.521 371.06 243.341C373.62 244.701 375.59 247.031 377.64 250.121Z" fill="#333333"/>
<path d="M379.62 333.691C358.62 353.191 321.72 356.181 287.5 360.341L285.6 350.671C327.66 338.811 361.6 313.401 387.55 287.761L392.73 295.281C388.8 305.061 386.65 327.121 379.62 333.691Z" fill="#7388C4"/>
<path d="M192.18 512.141H311.68V506.941H192.18V512.141Z" fill="#333333"/>
<path d="M370.17 421.94C361.33 421.94 352.55 421.2 343.96 420.48C330.65 419.36 318.09 418.31 305.53 419.76C304.727 419.792 303.935 419.961 303.19 420.26C303.227 420.217 303.26 420.17 303.29 420.12L297.86 415.31C297.459 414.954 297.155 414.503 296.974 413.998C296.793 413.493 296.743 412.951 296.826 412.421C296.91 411.891 297.125 411.391 297.453 410.966C297.78 410.542 298.209 410.206 298.7 409.99C300.46 409.262 302.322 408.81 304.22 408.65C317.9 407.06 331.61 408.22 344.87 409.33C357.97 410.43 370.35 411.47 382.74 410.11C385.41 409.82 388.33 409.33 389.81 407.92C391.91 405.92 391.93 401.37 391.81 397.26C391.324 383.384 392.37 369.497 394.93 355.85C397.93 340.39 402.87 328.42 409.52 320.19C409.798 319.854 410.143 319.578 410.533 319.38C410.923 319.183 411.35 319.068 411.786 319.042C412.222 319.017 412.659 319.082 413.069 319.233C413.479 319.384 413.854 319.618 414.17 319.92L417.67 323.24C418.244 323.791 418.592 324.536 418.646 325.329C418.7 326.123 418.455 326.908 417.96 327.53C406.42 342.2 402.08 372.39 402.96 396.85C403.13 401.58 403.45 410.37 397.54 416.01C393.65 419.71 388.54 420.72 383.98 421.22C379.393 421.709 374.783 421.949 370.17 421.94V421.94Z" fill="#333333"/>
<path d="M354.48 428.54L362.64 429.31L354.03 520.09H345.8L354.48 428.54Z" fill="#333333"/>
<path d="M423.96 428.54L415.81 429.31L424.41 520.09H432.64L423.96 428.54Z" fill="#333333"/>
<path d="M331.9 426.86C333.3 425.29 335.56 424.86 337.65 424.64C363.65 421.64 390.08 428.97 416.14 426.11C419.84 425.71 423.76 424.98 426.45 422.41C430.28 418.76 430.34 412.78 430.15 407.5C429.32 384.74 427.92 347.94 443.61 331.43L414.44 322.62L365.66 398.45L331.9 426.86Z" fill="#333333"/>
<path d="M303.71 393.461C303.71 412.091 320.71 499.881 321.62 505.461C322.53 511.041 332.02 512.461 332.57 505.461C333.45 494.321 335.09 455.781 333.45 437.941C332.78 430.571 332.05 423.561 331.33 417.301L332.78 419.901L319 384.611C312.02 383.611 303.7 388.311 303.71 393.461Z" fill="white"/>
<path d="M334.8 500.98C335.607 502.855 336.107 504.847 336.28 506.88C336.2 509.231 335.932 511.572 335.48 513.88H285.84C284.547 509.607 285.29 507.304 288.07 506.97C290.85 506.637 293.16 506.33 295 506.05L318.07 495.76C318.173 495.701 318.287 495.663 318.405 495.65C318.523 495.636 318.643 495.646 318.757 495.68C318.871 495.713 318.977 495.77 319.069 495.845C319.16 495.921 319.236 496.015 319.29 496.12L320.77 499.72C322.712 500.75 324.848 501.363 327.04 501.52C328.934 501.358 330.776 500.821 332.46 499.94V499.94C332.883 499.746 333.366 499.728 333.803 499.889C334.239 500.05 334.594 500.378 334.79 500.8L334.8 500.98Z" fill="#736152"/>
<path d="M302.76 399.79C302.76 423.17 313.87 490.52 313.87 495.67H337.76C334.27 447 333.03 409.6 334.04 409.07C335.57 408.29 371.26 415.17 389.56 415.17C415.94 415.17 375.47 367.7 375.47 367.7C364.83 368.84 334.64 380.04 314.03 383.89C305.2 385.56 302.76 393.35 302.76 399.79Z" fill="#1D5E5B"/>
<path d="M294.77 397.181C294.77 415.811 311.77 503.601 312.69 509.181C313.61 514.761 323.08 516.181 323.69 509.181C324.57 498.051 321.69 459.501 320.1 441.661C319.42 434.301 323.16 427.281 322.44 421.021L323.9 423.631L310.11 388.331C303.08 387.331 294.77 392.031 294.77 397.181Z" fill="white"/>
<path d="M325.86 504.701C326.67 506.574 327.17 508.567 327.34 510.601C327.257 512.934 326.993 515.258 326.55 517.551H276.9C275.607 513.291 276.353 510.987 279.14 510.641C281.92 510.301 284.23 510.001 286.06 509.721L309.14 499.441C309.352 499.346 309.594 499.339 309.811 499.421C310.028 499.504 310.204 499.669 310.3 499.881V499.881L311.78 503.481C313.723 504.508 315.858 505.121 318.05 505.281C319.945 505.125 321.788 504.587 323.47 503.701V503.701C323.68 503.604 323.907 503.549 324.138 503.54C324.369 503.532 324.6 503.569 324.817 503.65C325.033 503.731 325.232 503.854 325.401 504.012C325.569 504.17 325.705 504.36 325.8 504.571C325.828 504.61 325.849 504.654 325.86 504.701Z" fill="#736152"/>
<path d="M292.23 403.02C292.23 426.4 304.48 480.95 304.49 486.1H327.23C323.73 437.434 322.49 412.84 323.51 412.32C325.04 411.53 360.72 418.41 379.02 418.41C405.41 418.41 416.32 401.77 417.21 370.95H364.94C354.29 372.12 324.11 383.29 303.49 387.12C294.67 388.79 292.23 396.58 292.23 403.02Z" fill="#066F6C"/>
<path d="M417.29 371.45H365.05C354.41 372.59 324.22 383.78 303.6 387.63C294.77 389.28 292.34 397.07 292.34 403.51C292.34 426.9 305.82 493.59 305.83 498.73H329.72C328.15 476.89 324.66 447.73 324 435.62C321.23 433.16 318.57 430.56 316 428C313.73 425.75 311.37 423.34 310.53 420.26C309.76 417.42 310.4 414.39 311.29 411.59C313.56 404.49 317.91 397.54 324.79 394.68C329.96 392.52 335.79 392.97 341.37 393.45L356.2 394.72C367.01 395.65 377.97 396.61 388.2 400.27C394.348 402.487 400.114 405.648 405.29 409.64C413.12 401.72 416.82 388.84 417.29 371.45Z" fill="#066F6C"/>
<path d="M402.93 432.371C394.1 432.371 385.31 431.631 376.72 430.911C363.42 429.791 350.86 428.741 338.3 430.191C337.494 430.219 336.7 430.384 335.95 430.681C335.999 430.652 336.043 430.615 336.08 430.571L330.65 425.751C330.249 425.396 329.944 424.946 329.762 424.442C329.581 423.939 329.529 423.397 329.612 422.868C329.694 422.34 329.909 421.84 330.235 421.416C330.562 420.991 330.99 420.656 331.48 420.441C333.243 419.711 335.108 419.255 337.01 419.091C350.68 417.511 364.4 418.661 377.66 419.781C390.76 420.881 403.14 421.921 415.53 420.561C418.19 420.271 421.12 419.781 422.6 418.371C424.7 416.371 424.72 411.811 424.6 407.701C424.115 393.825 425.161 379.937 427.72 366.291C430.72 350.841 435.66 338.871 442.31 330.641C442.588 330.304 442.933 330.028 443.323 329.831C443.713 329.633 444.14 329.518 444.576 329.493C445.012 329.467 445.449 329.532 445.859 329.683C446.27 329.834 446.644 330.068 446.96 330.371L450.46 333.691C451.036 334.238 451.385 334.982 451.439 335.774C451.493 336.567 451.247 337.351 450.75 337.971C439.21 352.651 434.87 382.831 435.75 407.301C435.92 412.021 436.24 420.811 430.33 426.451C426.44 430.161 421.33 431.171 416.77 431.661C412.173 432.152 407.553 432.389 402.93 432.371V432.371Z" fill="#444243"/>
<path d="M323.62 412.82C325.14 412.03 360.83 418.91 379.13 418.91C390.62 418.91 399.18 415.75 405.25 409.64C400.09 405.64 392.14 411.69 386.01 409.49C375.79 405.82 365.55 407.93 354.73 407C349.79 406.58 346.3 393.89 341.36 393.47C335.78 392.99 329.95 392.54 324.78 394.7C317.9 397.56 313.55 404.51 311.28 411.61C310.39 414.41 309.75 417.44 310.52 420.28C311.36 423.36 313.72 425.77 315.99 428.02C318.57 430.58 321.23 433.18 323.99 435.64" fill="#066F6C"/>
<path d="M430.57 425.561L421.52 426.421L431.07 527.171H440.2L430.57 425.561Z" fill="#444243"/>
<path d="M347.74 425.561L356.79 426.421L347.24 527.171H338.11L347.74 425.561Z" fill="#444243"/>
<path d="M265.49 349.98C272.364 348.099 279.463 347.17 286.59 347.22L320.77 337.87L322.29 350.78L291.47 355.12C281.21 362.347 275.81 365.07 275.27 363.29C274.47 360.62 278.03 359.36 277.78 357.47C277.53 355.58 272.19 354.4 267.07 353.47C261.95 352.54 263.99 350.77 265.49 349.98Z" fill="#736152"/>
<path d="M422.08 384.05C423.78 373.52 419.14 364.14 417.33 353.43C415.406 342.309 412.909 331.294 409.85 320.43C407.03 310.26 404.72 291.94 395.06 285.62C390.56 282.7 383.2 283.91 378.29 284.83C368.14 286.74 369.35 295.73 367.7 304.4C366.125 312.399 364.061 320.294 361.52 328.04C355.73 346.09 357.15 361.98 338.93 376.43C336.82 378.11 339.33 385.93 341.78 386.33C358.68 389.07 375.84 389.9 392.78 392.5C397.05 393.15 401.43 394.5 404.37 397.7C405.81 399.25 406.85 401.16 408.42 402.57C412.42 406.12 414.96 403.14 416.42 399.29C417.68 395.9 419.47 392.73 420.72 389.34C421.345 387.626 421.8 385.854 422.08 384.05V384.05Z" fill="#8C9BCF"/>
<path d="M390.68 330.9C370.18 350.9 332.85 353.49 298.73 358.43L296.46 341.92C338.23 329.09 357.17 324.05 382.56 297.82L394.92 301.64C391.22 311.51 397.57 324.2 390.68 330.9Z" fill="#8C9BCF"/>
<path d="M303.46 353.42C304.52 353.42 305.38 352.56 305.38 351.5C305.38 350.44 304.52 349.58 303.46 349.58C302.4 349.58 301.54 350.44 301.54 351.5C301.54 352.56 302.4 353.42 303.46 353.42Z" fill="#7E7B7B"/>
<path d="M192.18 378.08H311.68V367.36H192.18V378.08Z" fill="#333333"/>
<path d="M192.18 525.931H311.68V515.211H192.18V525.931Z" fill="#333333"/>
<path d="M178.68 372.29H325.18V358.5H178.68V372.29Z" fill="#B18B67"/>
<path d="M223.97 387.66H243.12V375.4H223.97V387.66Z" fill="#333333"/>
<path d="M221.86 518.171H245.24L245.24 385.361H221.86L221.86 518.171Z" fill="#333333"/>
<path d="M224.03 304.317L220.608 304.753L226.779 353.191L230.201 352.755L224.03 304.317Z" fill="#444243"/>
<path d="M294.62 358.55H226.83C225.916 358.548 225.04 358.183 224.393 357.537C223.747 356.89 223.383 356.014 223.38 355.1V355.1C223.383 354.187 223.747 353.312 224.394 352.667C225.041 352.022 225.917 351.66 226.83 351.66L294.62 355.12C296.52 355.12 298.07 355.53 298.07 357.42V356.27C298.07 358.12 296.52 358.55 294.62 358.55Z" fill="#565353"/>
<path d="M233.44 353.95H228.84V356.82H233.44V353.95Z" fill="#444243"/>
<path d="M239.9 353.95H235.3V356.82H239.9V353.95Z" fill="#444243"/>
<path d="M244.55 354.021H241.48V356.831H244.55V354.021Z" fill="#444243"/>
<path d="M425.08 241.51C439.931 241.51 451.97 229.471 451.97 214.62C451.97 199.77 439.931 187.73 425.08 187.73C410.229 187.73 398.19 199.77 398.19 214.62C398.19 229.471 410.229 241.51 425.08 241.51Z" fill="#913B8E"/>
<path d="M425.08 235.861C436.81 235.861 446.32 226.351 446.32 214.621C446.32 202.89 436.81 193.381 425.08 193.381C413.349 193.381 403.84 202.89 403.84 214.621C403.84 226.351 413.349 235.861 425.08 235.861Z" fill="white"/>
<path d="M425.38 197.95H423.71V219.95H425.38V197.95Z" fill="white"/>
<path d="M426.38 197.95H424.68V218.86H426.38V197.95Z" fill="#333333"/>
<path d="M435.339 209.684L434.355 208.249L421.786 216.868L422.77 218.303L435.339 209.684Z" fill="#444243"/>
</svg>
