<svg width="534" height="572" viewBox="0 0 534 572" fill="none" xmlns="http://www.w3.org/2000/svg">
<path d="M266.87 549.126C414.258 549.126 533.74 429.644 533.74 282.256C533.74 134.868 414.258 15.3857 266.87 15.3857C119.482 15.3857 0 134.868 0 282.256C0 429.644 119.482 549.126 266.87 549.126Z" fill="#C5CFD7"/>
<path d="M254.612 9.37147L52.2488 106.371C41.4516 111.547 36.8943 124.495 42.0698 135.292L241.71 551.787C246.885 562.584 259.834 567.141 270.631 561.966L472.994 464.966C483.792 459.791 488.349 446.842 483.173 436.045L283.533 19.5505C278.358 8.75331 265.409 4.19599 254.612 9.37147Z" fill="#333333"/>
<path d="M263.06 32.1514L63.5652 130.229L250.56 510.588L450.055 412.511L263.06 32.1514Z" fill="#FADD4B"/>
<path d="M360.85 504.085C369.548 504.085 376.6 497.033 376.6 488.335C376.6 479.636 369.548 472.585 360.85 472.585C352.151 472.585 345.1 479.636 345.1 488.335C345.1 497.033 352.151 504.085 360.85 504.085Z" fill="#565353"/>
<path d="M258.957 48.3215L78.0056 137.243L254.054 495.494L435.006 406.572L258.957 48.3215Z" fill="white"/>
<path d="M174.706 146.531C174.239 145.583 174.112 144.741 174.325 144.006C174.535 143.263 175.057 142.686 175.893 142.274C176.341 142.054 176.764 141.934 177.163 141.914C177.561 141.894 177.932 141.961 178.278 142.116C178.619 142.263 178.932 142.494 179.216 142.808C179.508 143.119 179.763 143.495 179.98 143.935C180.446 144.883 180.575 145.728 180.366 146.471C180.16 147.203 179.64 147.775 178.804 148.186C178.356 148.407 177.933 148.527 177.534 148.547C177.136 148.567 176.763 148.505 176.414 148.361C176.069 148.207 175.75 147.974 175.458 147.663C175.173 147.349 174.923 146.972 174.706 146.531ZM176.206 145.793C176.328 146.039 176.462 146.256 176.61 146.443C176.757 146.629 176.915 146.779 177.081 146.892C177.248 147.005 177.424 147.071 177.61 147.091C177.8 147.099 177.996 147.054 178.197 146.955C178.578 146.767 178.794 146.49 178.844 146.121C178.895 145.753 178.773 145.271 178.479 144.674C178.226 144.159 177.936 143.787 177.61 143.558C177.28 143.321 176.91 143.304 176.5 143.506C176.141 143.682 175.928 143.955 175.858 144.323C175.789 144.69 175.905 145.18 176.206 145.793ZM183.066 142.847L183.698 143.621L183.765 143.588L183.475 142.632L182.783 139.078L184.283 138.339L185.067 144.227C185.131 144.715 185.18 145.163 185.215 145.573C185.261 145.986 185.268 146.358 185.236 146.689C185.204 147.02 185.124 147.301 184.996 147.53C184.879 147.764 184.69 147.945 184.429 148.074C184.041 148.265 183.7 148.354 183.406 148.341L183.102 147.044C183.236 147.034 183.359 147.001 183.47 146.946C183.642 146.862 183.77 146.706 183.853 146.48C183.947 146.257 183.942 145.935 183.837 145.514L178.74 141.068L180.487 140.208L183.066 142.847ZM190.762 142.105L189.263 139.059C189.009 138.544 188.781 138.202 188.577 138.033C188.374 137.865 188.119 137.856 187.813 138.006C187.559 138.131 187.389 138.303 187.302 138.522C187.211 138.734 187.178 138.968 187.202 139.225L189.038 142.953L187.582 143.67L184.826 138.072L185.957 137.515L186.489 138.171L186.534 138.149C186.588 137.826 186.701 137.51 186.875 137.202C187.055 136.891 187.354 136.632 187.772 136.427C188.131 136.25 188.459 136.182 188.756 136.221C189.057 136.249 189.356 136.403 189.652 136.684C189.68 136.308 189.786 135.968 189.971 135.664C190.155 135.36 190.437 135.115 190.818 134.927C191.131 134.773 191.415 134.68 191.668 134.648C191.929 134.612 192.172 134.655 192.398 134.775C192.628 134.885 192.852 135.076 193.07 135.349C193.288 135.622 193.513 135.993 193.744 136.464L195.398 139.823L193.942 140.539L192.393 137.393C192.176 136.952 191.966 136.648 191.763 136.479C191.563 136.299 191.302 136.288 190.981 136.446C190.72 136.575 190.546 136.749 190.459 136.968C190.38 137.183 190.363 137.432 190.41 137.715L192.218 141.388L190.762 142.105ZM200.834 136.548C200.698 136.838 200.468 137.141 200.142 137.459C199.82 137.766 199.443 138.026 199.01 138.239C198.106 138.684 197.317 138.748 196.642 138.431C195.963 138.107 195.398 137.486 194.946 136.568C194.461 135.582 194.332 134.728 194.56 134.003C194.787 133.279 195.327 132.708 196.178 132.289C196.461 132.149 196.756 132.051 197.061 131.993C197.367 131.935 197.666 131.941 197.96 132.01C198.253 132.078 198.535 132.227 198.805 132.456C199.076 132.684 199.317 133.015 199.53 133.448C199.608 133.605 199.679 133.778 199.745 133.969C199.818 134.155 199.884 134.355 199.942 134.567L196.583 136.221C196.837 136.68 197.131 136.976 197.465 137.108C197.807 137.237 198.224 137.18 198.716 136.937C199.022 136.786 199.273 136.608 199.467 136.4C199.666 136.182 199.805 135.993 199.884 135.834L200.834 136.548ZM196.729 133.464C196.348 133.652 196.121 133.907 196.048 134.23C195.98 134.542 196.02 134.898 196.17 135.297L198.253 134.272C198.084 133.854 197.868 133.576 197.605 133.436C197.349 133.293 197.057 133.303 196.729 133.464ZM205.704 134.749L204.139 131.569C203.915 131.114 203.686 130.818 203.452 130.683C203.226 130.544 202.956 130.551 202.643 130.706C202.367 130.842 202.172 131.04 202.059 131.299C201.949 131.548 201.912 131.812 201.948 132.091L203.734 135.719L202.278 136.436L199.522 130.837L200.675 130.269L201.207 130.926L201.252 130.904C201.306 130.58 201.431 130.259 201.626 129.94C201.822 129.622 202.143 129.352 202.591 129.132C202.868 128.996 203.132 128.912 203.385 128.88C203.639 128.848 203.882 128.881 204.116 128.979C204.35 129.077 204.578 129.257 204.799 129.519C205.017 129.774 205.233 130.117 205.446 130.55L207.16 134.032L205.704 134.749ZM205.041 128.12L205.814 127.74L205.296 126.687L206.547 125.557L207.27 127.023L208.636 126.351L209.242 127.583L207.876 128.255L208.934 130.405C209.125 130.793 209.3 131.054 209.459 131.189C209.622 131.313 209.812 131.322 210.029 131.215C210.178 131.142 210.297 131.064 210.387 130.983C210.485 130.898 210.586 130.793 210.691 130.667L211.499 131.66C211.346 131.856 211.151 132.054 210.915 132.253C210.68 132.453 210.424 132.62 210.147 132.756C209.632 133.01 209.187 133.067 208.812 132.927C208.441 132.776 208.107 132.398 207.809 131.793L206.42 128.972L205.648 129.352L205.041 128.12ZM217.934 124.653L215.068 126.064L216.683 129.345L215.149 130.1L211.29 122.262L212.824 121.507L214.395 124.698L217.262 123.287L215.691 120.096L217.225 119.341L221.083 127.178L219.549 127.933L217.934 124.653ZM221.052 120.238L222.617 123.418C222.842 123.874 223.056 124.176 223.259 124.327C223.47 124.473 223.733 124.469 224.046 124.315C224.322 124.179 224.51 123.985 224.608 123.732C224.714 123.476 224.753 123.207 224.725 122.924L222.944 119.307L224.4 118.59L226.318 122.487C226.469 122.793 226.632 123.088 226.809 123.372C226.982 123.648 227.158 123.891 227.335 124.101L226.238 124.641L225.572 123.939L225.528 123.961C225.495 124.329 225.372 124.682 225.158 125.019C224.944 125.357 224.628 125.628 224.21 125.834C223.926 125.973 223.654 126.061 223.393 126.097C223.133 126.132 222.885 126.101 222.652 126.003C222.418 125.905 222.188 125.73 221.963 125.479C221.745 125.225 221.527 124.878 221.311 124.437L219.596 120.955L221.052 120.238ZM224.575 115.722L226.03 115.006L227.353 117.693L227.398 117.671C227.467 117.415 227.598 117.173 227.793 116.948C227.988 116.722 228.235 116.536 228.534 116.389C229.205 116.058 229.831 116.038 230.409 116.328C230.992 116.607 231.514 117.216 231.977 118.157C232.473 119.165 232.6 120.053 232.357 120.822C232.122 121.587 231.571 122.182 230.705 122.609C230.227 122.844 229.771 123.018 229.335 123.13C228.902 123.25 228.561 123.311 228.312 123.314L224.575 115.722ZM228.714 117.83C228.446 117.962 228.26 118.141 228.158 118.368C228.06 118.583 228.031 118.843 228.07 119.148L229.271 121.589C229.42 121.59 229.567 121.569 229.713 121.525C229.866 121.478 230.02 121.415 230.177 121.338C230.573 121.144 230.802 120.855 230.864 120.472C230.929 120.078 230.808 119.567 230.499 118.94C229.974 117.873 229.379 117.503 228.714 117.83Z" fill="#333333"/>
<path d="M176.681 174.47L177.987 173.827L175.764 169.311L175.586 168.714L175.429 169.337L174.765 170.579L174.176 170.278L175.448 167.681L175.784 167.516L178.715 173.468L179.993 172.839L180.333 173.53L177.021 175.16L176.681 174.47ZM179.891 169.69C179.34 168.57 179.105 167.639 179.187 166.895C179.276 166.148 179.668 165.604 180.365 165.261C181.118 164.89 181.8 164.902 182.411 165.297C183.026 165.682 183.613 166.443 184.174 167.582C184.725 168.702 184.956 169.635 184.868 170.381C184.786 171.125 184.393 171.67 183.69 172.016C182.95 172.38 182.264 172.351 181.63 171.929C180.997 171.506 180.418 170.76 179.891 169.69ZM180.665 169.309C180.864 169.713 181.071 170.071 181.287 170.383C181.505 170.685 181.73 170.929 181.961 171.117C182.189 171.298 182.421 171.416 182.657 171.47C182.895 171.515 183.132 171.479 183.369 171.363C183.842 171.13 184.08 170.742 184.083 170.2C184.09 169.648 183.862 168.902 183.399 167.963C183.203 167.565 182.998 167.21 182.783 166.899C182.574 166.584 182.354 166.333 182.122 166.146C181.897 165.955 181.665 165.838 181.427 165.793C181.188 165.748 180.941 165.788 180.686 165.914C180.22 166.143 179.983 166.534 179.977 167.086C179.976 167.635 180.206 168.376 180.665 169.309ZM184.969 166.043C184.886 165.875 184.868 165.721 184.916 165.582C184.966 165.434 185.072 165.32 185.234 165.24C185.402 165.157 185.56 165.141 185.709 165.192C185.854 165.236 185.968 165.342 186.051 165.51C186.13 165.672 186.145 165.827 186.094 165.976C186.044 166.124 185.935 166.24 185.767 166.322C185.605 166.402 185.45 166.416 185.301 166.366C185.159 166.312 185.048 166.205 184.969 166.043ZM186.82 169.803C186.737 169.635 186.719 169.482 186.767 169.342C186.817 169.194 186.923 169.08 187.085 169C187.253 168.918 187.411 168.901 187.56 168.952C187.705 168.996 187.819 169.102 187.902 169.27C187.982 169.432 187.996 169.587 187.946 169.736C187.895 169.884 187.786 170 187.618 170.083C187.456 170.162 187.301 170.177 187.152 170.126C187.01 170.073 186.899 169.965 186.82 169.803ZM187.016 166.182C186.465 165.063 186.231 164.131 186.313 163.387C186.401 162.641 186.794 162.096 187.49 161.753C188.243 161.382 188.925 161.394 189.537 161.789C190.151 162.174 190.739 162.936 191.299 164.074C191.85 165.194 192.082 166.127 191.994 166.874C191.911 167.617 191.519 168.162 190.816 168.508C190.076 168.873 189.389 168.844 188.756 168.421C188.123 167.999 187.543 167.252 187.016 166.182ZM187.791 165.801C187.99 166.205 188.197 166.563 188.412 166.875C188.63 167.177 188.855 167.422 189.087 167.609C189.315 167.79 189.547 167.908 189.782 167.962C190.021 168.007 190.258 167.971 190.494 167.855C190.967 167.622 191.205 167.235 191.209 166.692C191.215 166.14 190.987 165.395 190.525 164.455C190.329 164.057 190.123 163.702 189.908 163.391C189.699 163.077 189.479 162.826 189.248 162.638C189.023 162.448 188.791 162.33 188.552 162.285C188.314 162.24 188.067 162.28 187.812 162.406C187.345 162.636 187.109 163.026 187.102 163.578C187.102 164.127 187.332 164.868 187.791 165.801ZM192.101 163.679C191.55 162.56 191.315 161.628 191.397 160.884C191.486 160.138 191.878 159.593 192.575 159.25C193.328 158.879 194.01 158.891 194.621 159.286C195.236 159.671 195.823 160.433 196.384 161.571C196.935 162.691 197.166 163.624 197.078 164.371C196.996 165.114 196.603 165.659 195.9 166.005C195.16 166.37 194.474 166.341 193.841 165.918C193.208 165.496 192.628 164.749 192.101 163.679ZM192.875 163.298C193.074 163.702 193.282 164.06 193.497 164.372C193.715 164.674 193.94 164.919 194.171 165.106C194.399 165.287 194.631 165.405 194.867 165.459C195.105 165.504 195.343 165.468 195.579 165.352C196.052 165.119 196.29 164.732 196.293 164.189C196.3 163.637 196.072 162.892 195.609 161.952C195.413 161.554 195.208 161.199 194.993 160.888C194.784 160.574 194.564 160.323 194.332 160.135C194.107 159.945 193.875 159.827 193.637 159.782C193.398 159.737 193.151 159.777 192.896 159.903C192.43 160.133 192.193 160.523 192.187 161.075C192.187 161.624 192.416 162.365 192.875 163.298ZM199.19 160.479L201.448 159.368L201.788 160.058L199.53 161.17L199.19 160.479ZM205.903 160.084L207.209 159.441L204.986 154.925L204.808 154.329L204.651 154.951L203.987 156.194L203.399 155.892L204.67 153.295L205.006 153.13L207.937 159.083L209.215 158.454L209.555 159.144L206.243 160.775L205.903 160.084ZM210.987 157.581L212.294 156.938L210.07 152.422L209.893 151.826L209.735 152.448L209.072 153.691L208.483 153.389L209.755 150.792L210.091 150.627L213.021 156.58L214.3 155.951L214.64 156.641L211.327 158.272L210.987 157.581ZM214.191 151.658C214.108 151.49 214.09 151.336 214.138 151.197C214.188 151.048 214.294 150.934 214.456 150.855C214.624 150.772 214.782 150.756 214.931 150.806C215.076 150.851 215.19 150.957 215.273 151.125C215.353 151.286 215.367 151.442 215.317 151.59C215.266 151.739 215.157 151.854 214.989 151.937C214.827 152.016 214.672 152.031 214.524 151.981C214.381 151.927 214.27 151.819 214.191 151.658ZM216.042 155.418C215.959 155.25 215.941 155.096 215.989 154.957C216.039 154.808 216.145 154.694 216.307 154.615C216.475 154.532 216.633 154.516 216.782 154.567C216.927 154.611 217.041 154.717 217.124 154.885C217.204 155.047 217.218 155.202 217.168 155.35C217.117 155.499 217.008 155.614 216.84 155.697C216.678 155.777 216.523 155.791 216.375 155.741C216.232 155.687 216.121 155.58 216.042 155.418ZM216.239 151.797C215.687 150.677 215.453 149.746 215.535 149.002C215.623 148.255 216.016 147.71 216.713 147.367C217.465 146.997 218.147 147.009 218.759 147.403C219.374 147.789 219.961 148.55 220.521 149.689C221.073 150.808 221.304 151.742 221.216 152.488C221.134 153.232 220.741 153.777 220.038 154.123C219.298 154.487 218.611 154.458 217.978 154.036C217.345 153.613 216.765 152.867 216.239 151.797ZM217.013 151.416C217.212 151.82 217.419 152.178 217.634 152.489C217.853 152.791 218.077 153.036 218.309 153.224C218.537 153.405 218.769 153.523 219.004 153.577C219.243 153.622 219.48 153.586 219.717 153.47C220.189 153.237 220.427 152.849 220.431 152.307C220.437 151.755 220.209 151.009 219.747 150.07C219.551 149.672 219.345 149.317 219.13 149.006C218.921 148.691 218.701 148.44 218.47 148.253C218.245 148.062 218.013 147.944 217.774 147.9C217.536 147.855 217.289 147.895 217.034 148.021C216.568 148.25 216.331 148.641 216.325 149.193C216.324 149.742 216.554 150.483 217.013 151.416ZM221.323 149.294C220.772 148.174 220.537 147.243 220.62 146.499C220.708 145.752 221.1 145.207 221.797 144.864C222.55 144.494 223.232 144.506 223.843 144.9C224.458 145.286 225.046 146.047 225.606 147.186C226.157 148.305 226.389 149.239 226.3 149.985C226.218 150.729 225.826 151.274 225.123 151.62C224.382 151.984 223.696 151.955 223.063 151.533C222.43 151.11 221.85 150.364 221.323 149.294ZM222.098 148.913C222.297 149.317 222.504 149.675 222.719 149.986C222.937 150.288 223.162 150.533 223.393 150.721C223.622 150.902 223.853 151.02 224.089 151.074C224.327 151.119 224.565 151.083 224.801 150.967C225.274 150.734 225.512 150.346 225.515 149.804C225.522 149.252 225.294 148.506 224.831 147.567C224.635 147.169 224.43 146.814 224.215 146.503C224.006 146.188 223.786 145.937 223.554 145.75C223.329 145.559 223.097 145.441 222.859 145.397C222.62 145.352 222.374 145.392 222.119 145.518C221.652 145.747 221.416 146.138 221.409 146.69C221.409 147.239 221.638 147.98 222.098 148.913Z" fill="#333333"/>
<path d="M284.393 128.531L125.834 206.586C124.095 207.442 123.379 209.546 124.236 211.285L136.487 236.173C137.343 237.912 139.447 238.628 141.187 237.772L299.745 159.717C301.485 158.86 302.2 156.756 301.344 155.017L289.093 130.129C288.236 128.39 286.132 127.674 284.393 128.531Z" fill="#066F6C"/>
<path d="M200.861 223.539L202.167 222.896L199.944 218.38L199.766 217.784L199.609 218.406L198.945 219.648L198.357 219.347L199.628 216.75L199.964 216.585L202.895 222.538L204.173 221.909L204.513 222.599L201.201 224.23L200.861 223.539ZM205.945 221.036L207.252 220.393L205.028 215.877L204.851 215.281L204.693 215.903L204.03 217.145L203.441 216.844L204.713 214.247L205.049 214.082L207.979 220.035L209.258 219.406L209.598 220.096L206.285 221.727L205.945 221.036ZM209.149 215.112C209.066 214.944 209.048 214.791 209.096 214.651C209.146 214.503 209.252 214.389 209.414 214.309C209.582 214.227 209.74 214.211 209.889 214.261C210.034 214.305 210.148 214.412 210.231 214.579C210.311 214.741 210.325 214.896 210.275 215.045C210.224 215.193 210.115 215.309 209.947 215.392C209.785 215.471 209.63 215.486 209.482 215.435C209.339 215.382 209.228 215.274 209.149 215.112ZM211 218.873C210.917 218.705 210.899 218.551 210.947 218.412C210.997 218.263 211.103 218.149 211.265 218.07C211.433 217.987 211.591 217.971 211.74 218.021C211.885 218.066 211.999 218.172 212.082 218.34C212.162 218.501 212.176 218.657 212.126 218.805C212.075 218.954 211.966 219.069 211.798 219.152C211.636 219.232 211.481 219.246 211.333 219.196C211.19 219.142 211.079 219.034 211 218.873ZM211.197 215.252C210.645 214.132 210.411 213.2 210.493 212.457C210.581 211.71 210.974 211.165 211.671 210.822C212.423 210.452 213.105 210.464 213.717 210.858C214.332 211.243 214.919 212.005 215.479 213.143C216.031 214.263 216.262 215.196 216.174 215.943C216.092 216.687 215.699 217.232 214.996 217.578C214.256 217.942 213.569 217.913 212.936 217.49C212.303 217.068 211.723 216.322 211.197 215.252ZM211.971 214.87C212.17 215.275 212.377 215.633 212.592 215.944C212.811 216.246 213.035 216.491 213.267 216.678C213.495 216.86 213.727 216.977 213.962 217.032C214.201 217.077 214.438 217.041 214.675 216.924C215.147 216.692 215.385 216.304 215.389 215.761C215.395 215.21 215.167 214.464 214.705 213.525C214.509 213.127 214.303 212.772 214.088 212.46C213.879 212.146 213.659 211.895 213.428 211.707C213.203 211.517 212.971 211.399 212.732 211.354C212.494 211.309 212.247 211.35 211.992 211.475C211.526 211.705 211.289 212.096 211.283 212.648C211.282 213.196 211.512 213.937 211.971 214.87ZM216.281 212.749C215.73 211.629 215.495 210.697 215.578 209.954C215.666 209.207 216.058 208.662 216.755 208.319C217.508 207.949 218.19 207.961 218.801 208.355C219.416 208.74 220.004 209.502 220.564 210.64C221.115 211.76 221.347 212.693 221.258 213.44C221.176 214.184 220.784 214.729 220.081 215.075C219.34 215.439 218.654 215.41 218.021 214.987C217.388 214.565 216.808 213.819 216.281 212.749ZM217.056 212.367C217.255 212.772 217.462 213.13 217.677 213.441C217.895 213.743 218.12 213.988 218.351 214.176C218.58 214.357 218.811 214.474 219.047 214.529C219.285 214.574 219.523 214.538 219.759 214.421C220.232 214.189 220.47 213.801 220.473 213.258C220.48 212.707 220.252 211.961 219.789 211.022C219.593 210.624 219.388 210.269 219.173 209.957C218.964 209.643 218.744 209.392 218.512 209.204C218.287 209.014 218.055 208.896 217.817 208.851C217.578 208.806 217.332 208.847 217.077 208.972C216.61 209.202 216.374 209.593 216.367 210.145C216.367 210.693 216.596 211.434 217.056 212.367ZM223.37 209.549L225.628 208.437L225.968 209.128L223.71 210.239L223.37 209.549ZM230.083 209.154L231.389 208.511L229.166 203.995L228.988 203.398L228.831 204.02L228.168 205.263L227.579 204.962L228.851 202.365L229.187 202.199L232.117 208.152L233.395 207.523L233.735 208.214L230.423 209.844L230.083 209.154ZM236.176 200.741C236.338 201.07 236.443 201.44 236.49 201.85C236.54 202.25 236.552 202.673 236.524 203.12C236.503 203.563 236.454 204.012 236.376 204.468C236.296 204.917 236.208 205.35 236.112 205.768L235.853 206.395L235.871 206.432L236.418 206.035L238.452 205.034L238.792 205.724L235.078 207.553L234.945 207.282C235.011 207.071 235.089 206.813 235.178 206.507C235.266 206.2 235.351 205.869 235.43 205.513C235.513 205.147 235.584 204.773 235.642 204.389C235.703 203.995 235.741 203.609 235.756 203.231C235.777 202.85 235.765 202.489 235.721 202.147C235.677 201.806 235.59 201.505 235.461 201.243C235.311 200.939 235.1 200.729 234.828 200.616C234.553 200.497 234.238 200.524 233.883 200.699C233.647 200.815 233.441 200.978 233.266 201.188C233.088 201.391 232.949 201.595 232.849 201.799L232.279 201.419C232.405 201.125 232.591 200.852 232.838 200.599C233.084 200.346 233.378 200.136 233.721 199.967C233.988 199.836 234.244 199.76 234.489 199.74C234.731 199.713 234.959 199.736 235.173 199.809C235.386 199.882 235.579 199.999 235.752 200.161C235.921 200.318 236.063 200.511 236.176 200.741ZM238.371 200.727C238.288 200.559 238.271 200.405 238.318 200.266C238.368 200.118 238.475 200.003 238.636 199.924C238.804 199.841 238.962 199.825 239.111 199.876C239.256 199.92 239.371 200.026 239.453 200.194C239.533 200.356 239.547 200.511 239.497 200.659C239.446 200.808 239.337 200.924 239.169 201.006C239.007 201.086 238.852 201.1 238.704 201.05C238.561 200.996 238.45 200.889 238.371 200.727ZM240.222 204.487C240.139 204.319 240.122 204.166 240.169 204.026C240.22 203.878 240.326 203.764 240.487 203.684C240.655 203.601 240.814 203.585 240.962 203.636C241.108 203.68 241.222 203.786 241.304 203.954C241.384 204.116 241.398 204.271 241.348 204.42C241.297 204.568 241.188 204.684 241.02 204.766C240.858 204.846 240.703 204.861 240.555 204.81C240.413 204.757 240.302 204.649 240.222 204.487ZM240.419 200.866C239.868 199.747 239.633 198.815 239.715 198.071C239.804 197.325 240.196 196.78 240.893 196.437C241.645 196.066 242.328 196.078 242.939 196.473C243.554 196.858 244.141 197.62 244.702 198.758C245.253 199.878 245.484 200.811 245.396 201.558C245.314 202.301 244.921 202.846 244.218 203.192C243.478 203.557 242.791 203.527 242.158 203.105C241.525 202.682 240.946 201.936 240.419 200.866ZM241.193 200.485C241.392 200.889 241.599 201.247 241.815 201.559C242.033 201.861 242.258 202.106 242.489 202.293C242.717 202.474 242.949 202.592 243.184 202.646C243.423 202.691 243.66 202.655 243.897 202.539C244.37 202.306 244.608 201.919 244.611 201.376C244.617 200.824 244.39 200.079 243.927 199.139C243.731 198.741 243.526 198.386 243.31 198.075C243.102 197.76 242.881 197.509 242.65 197.322C242.425 197.131 242.193 197.014 241.955 196.969C241.716 196.924 241.469 196.964 241.214 197.09C240.748 197.32 240.511 197.71 240.505 198.262C240.504 198.811 240.734 199.552 241.193 200.485ZM245.503 198.363C244.952 197.244 244.718 196.312 244.8 195.568C244.888 194.822 245.281 194.277 245.977 193.934C246.73 193.563 247.412 193.575 248.024 193.97C248.638 194.355 249.226 195.117 249.786 196.255C250.337 197.375 250.569 198.308 250.48 199.055C250.398 199.798 250.006 200.343 249.303 200.689C248.563 201.054 247.876 201.024 247.243 200.602C246.61 200.179 246.03 199.433 245.503 198.363ZM246.278 197.982C246.477 198.386 246.684 198.744 246.899 199.056C247.117 199.358 247.342 199.603 247.574 199.79C247.802 199.971 248.034 200.089 248.269 200.143C248.507 200.188 248.745 200.152 248.981 200.036C249.454 199.803 249.692 199.416 249.695 198.873C249.702 198.321 249.474 197.576 249.012 196.636C248.816 196.238 248.61 195.883 248.395 195.572C248.186 195.257 247.966 195.007 247.735 194.819C247.509 194.628 247.278 194.511 247.039 194.466C246.801 194.421 246.554 194.461 246.299 194.587C245.832 194.817 245.596 195.207 245.589 195.759C245.589 196.308 245.818 197.049 246.278 197.982Z" fill="#333333"/>
<path d="M308.55 177.623L149.992 255.678C148.252 256.534 147.537 258.638 148.393 260.378L160.644 285.265C161.501 287.005 163.605 287.72 165.344 286.864L323.903 208.809C325.642 207.953 326.358 205.849 325.502 204.11L313.25 179.222C312.394 177.483 310.29 176.767 308.55 177.623Z" fill="#C5CFD7"/>
<path d="M225.031 272.619L226.337 271.976L224.114 267.46L223.936 266.864L223.779 267.486L223.115 268.728L222.526 268.427L223.798 265.83L224.134 265.665L227.065 271.618L228.343 270.989L228.683 271.679L225.371 273.31L225.031 272.619ZM231.124 264.206C231.286 264.536 231.391 264.906 231.438 265.315C231.488 265.716 231.5 266.139 231.472 266.585C231.451 267.028 231.401 267.478 231.324 267.933C231.244 268.382 231.156 268.816 231.06 269.234L230.801 269.86L230.819 269.897L231.366 269.501L233.4 268.499L233.74 269.19L230.026 271.018L229.893 270.747C229.959 270.537 230.037 270.279 230.125 269.972C230.214 269.666 230.298 269.334 230.378 268.978C230.461 268.613 230.532 268.238 230.59 267.854C230.651 267.461 230.689 267.075 230.704 266.697C230.725 266.315 230.713 265.954 230.669 265.613C230.624 265.271 230.538 264.97 230.409 264.709C230.259 264.404 230.048 264.195 229.776 264.082C229.501 263.962 229.186 263.99 228.831 264.164C228.595 264.281 228.389 264.444 228.214 264.653C228.036 264.857 227.897 265.061 227.796 265.265L227.227 264.884C227.353 264.591 227.539 264.317 227.785 264.065C228.032 263.812 228.326 263.601 228.668 263.433C228.936 263.301 229.192 263.225 229.437 263.205C229.679 263.179 229.907 263.202 230.12 263.275C230.334 263.347 230.527 263.465 230.7 263.627C230.869 263.783 231.011 263.976 231.124 264.206ZM233.319 264.192C233.236 264.024 233.218 263.871 233.266 263.732C233.316 263.583 233.422 263.469 233.584 263.389C233.752 263.307 233.91 263.291 234.059 263.341C234.204 263.385 234.318 263.492 234.401 263.66C234.481 263.821 234.495 263.976 234.445 264.125C234.394 264.273 234.285 264.389 234.117 264.472C233.955 264.551 233.8 264.566 233.651 264.515C233.509 264.462 233.398 264.354 233.319 264.192ZM235.17 267.953C235.087 267.785 235.069 267.631 235.117 267.492C235.167 267.343 235.273 267.229 235.435 267.15C235.603 267.067 235.761 267.051 235.91 267.101C236.055 267.146 236.169 267.252 236.252 267.42C236.332 267.582 236.346 267.737 236.296 267.885C236.245 268.034 236.136 268.149 235.968 268.232C235.806 268.312 235.651 268.326 235.503 268.276C235.36 268.222 235.249 268.114 235.17 267.953ZM235.367 264.332C234.815 263.212 234.581 262.28 234.663 261.537C234.751 260.79 235.144 260.245 235.841 259.902C236.593 259.532 237.275 259.544 237.887 259.938C238.501 260.323 239.089 261.085 239.649 262.223C240.201 263.343 240.432 264.276 240.344 265.023C240.261 265.767 239.869 266.312 239.166 266.658C238.426 267.022 237.739 266.993 237.106 266.57C236.473 266.148 235.893 265.402 235.367 264.332ZM236.141 263.951C236.34 264.355 236.547 264.713 236.762 265.024C236.981 265.326 237.205 265.571 237.437 265.759C237.665 265.94 237.897 266.058 238.132 266.112C238.371 266.157 238.608 266.121 238.845 266.004C239.317 265.772 239.555 265.384 239.559 264.841C239.565 264.29 239.337 263.544 238.875 262.605C238.679 262.207 238.473 261.852 238.258 261.54C238.049 261.226 237.829 260.975 237.598 260.788C237.373 260.597 237.141 260.479 236.902 260.434C236.664 260.389 236.417 260.43 236.162 260.555C235.696 260.785 235.459 261.176 235.452 261.728C235.452 262.277 235.682 263.017 236.141 263.951ZM240.451 261.829C239.9 260.709 239.665 259.777 239.747 259.034C239.836 258.287 240.228 257.742 240.925 257.399C241.678 257.029 242.36 257.041 242.971 257.435C243.586 257.82 244.173 258.582 244.734 259.72C245.285 260.84 245.516 261.773 245.428 262.52C245.346 263.264 244.953 263.809 244.251 264.155C243.51 264.519 242.824 264.49 242.191 264.067C241.558 263.645 240.978 262.899 240.451 261.829ZM241.225 261.448C241.425 261.852 241.632 262.21 241.847 262.521C242.065 262.823 242.29 263.068 242.521 263.256C242.75 263.437 242.981 263.555 243.217 263.609C243.455 263.654 243.693 263.618 243.929 263.502C244.402 263.269 244.64 262.881 244.643 262.339C244.65 261.787 244.422 261.041 243.959 260.102C243.763 259.704 243.558 259.349 243.343 259.037C243.134 258.723 242.914 258.472 242.682 258.285C242.457 258.094 242.225 257.976 241.987 257.931C241.748 257.887 241.502 257.927 241.247 258.052C240.78 258.282 240.543 258.673 240.537 259.225C240.537 259.774 240.766 260.515 241.225 261.448ZM247.54 258.629L249.798 257.517L250.138 258.208L247.88 259.319L247.54 258.629ZM254.253 258.234L255.559 257.591L253.336 253.075L253.158 252.478L253.001 253.101L252.337 254.343L251.749 254.042L253.021 251.445L253.356 251.28L256.287 257.232L257.565 256.603L257.905 257.294L254.593 258.924L254.253 258.234ZM260.587 255.301C260.798 255.197 260.979 255.07 261.128 254.919C261.278 254.768 261.389 254.601 261.462 254.418C261.531 254.23 261.562 254.033 261.554 253.828C261.546 253.624 261.493 253.422 261.395 253.223C261.18 252.787 260.891 252.528 260.525 252.445C260.166 252.359 259.759 252.428 259.305 252.652L258.615 252.992L258.482 252.721L258.806 249.988L259.033 249.366L258.472 249.758L256.625 250.668L256.285 249.977L259.616 248.337L259.749 248.608L259.363 251.568L259.17 252L259.179 252.018L259.464 251.797C259.716 251.681 259.969 251.614 260.223 251.597C260.475 251.574 260.718 251.605 260.953 251.69C261.185 251.769 261.4 251.899 261.597 252.08C261.791 252.255 261.957 252.482 262.095 252.762C262.261 253.098 262.349 253.425 262.359 253.745C262.369 254.064 262.316 254.365 262.2 254.646C262.087 254.918 261.916 255.169 261.688 255.397C261.461 255.625 261.194 255.814 260.889 255.964C260.61 256.102 260.347 256.204 260.101 256.27C259.856 256.337 259.633 256.378 259.431 256.392L259.301 255.633C259.478 255.631 259.675 255.607 259.892 255.562C260.112 255.508 260.344 255.421 260.587 255.301ZM262.541 249.807C262.458 249.639 262.44 249.485 262.488 249.346C262.538 249.198 262.644 249.084 262.806 249.004C262.974 248.921 263.132 248.905 263.281 248.956C263.426 249 263.54 249.106 263.623 249.274C263.703 249.436 263.717 249.591 263.667 249.739C263.616 249.888 263.507 250.004 263.339 250.086C263.177 250.166 263.022 250.18 262.874 250.13C262.731 250.076 262.62 249.969 262.541 249.807ZM264.392 253.567C264.309 253.399 264.292 253.246 264.339 253.106C264.389 252.958 264.496 252.844 264.657 252.764C264.825 252.682 264.984 252.665 265.132 252.716C265.277 252.76 265.392 252.866 265.474 253.034C265.554 253.196 265.568 253.351 265.518 253.5C265.467 253.648 265.358 253.764 265.19 253.847C265.028 253.926 264.873 253.941 264.725 253.89C264.582 253.837 264.471 253.729 264.392 253.567ZM264.589 249.946C264.038 248.827 263.803 247.895 263.885 247.151C263.973 246.405 264.366 245.86 265.063 245.517C265.815 245.146 266.497 245.158 267.109 245.553C267.724 245.938 268.311 246.7 268.872 247.838C269.423 248.958 269.654 249.891 269.566 250.638C269.484 251.381 269.091 251.926 268.388 252.272C267.648 252.637 266.961 252.608 266.328 252.185C265.695 251.763 265.115 251.016 264.589 249.946ZM265.363 249.565C265.562 249.969 265.769 250.327 265.984 250.639C266.203 250.941 266.428 251.186 266.659 251.373C266.887 251.554 267.119 251.672 267.354 251.726C267.593 251.771 267.83 251.735 268.067 251.619C268.539 251.386 268.778 250.999 268.781 250.456C268.787 249.904 268.559 249.159 268.097 248.219C267.901 247.821 267.696 247.466 267.48 247.155C267.272 246.841 267.051 246.59 266.82 246.402C266.595 246.212 266.363 246.094 266.124 246.049C265.886 246.004 265.639 246.044 265.384 246.17C264.918 246.4 264.681 246.79 264.675 247.342C264.674 247.891 264.904 248.632 265.363 249.565ZM269.673 247.443C269.122 246.324 268.887 245.392 268.97 244.648C269.058 243.902 269.45 243.357 270.147 243.014C270.9 242.643 271.582 242.655 272.193 243.05C272.808 243.435 273.396 244.197 273.956 245.335C274.507 246.455 274.739 247.388 274.65 248.135C274.568 248.878 274.176 249.423 273.473 249.769C272.732 250.134 272.046 250.105 271.413 249.682C270.78 249.26 270.2 248.513 269.673 247.443ZM270.448 247.062C270.647 247.466 270.854 247.824 271.069 248.136C271.287 248.438 271.512 248.683 271.743 248.87C271.972 249.051 272.204 249.169 272.439 249.223C272.677 249.268 272.915 249.232 273.151 249.116C273.624 248.883 273.862 248.496 273.865 247.953C273.872 247.401 273.644 246.656 273.182 245.716C272.986 245.318 272.78 244.963 272.565 244.652C272.356 244.338 272.136 244.087 271.904 243.899C271.679 243.709 271.447 243.591 271.209 243.546C270.971 243.501 270.724 243.541 270.469 243.667C270.002 243.897 269.766 244.287 269.759 244.839C269.759 245.388 269.988 246.129 270.448 247.062Z" fill="#333333"/>
<path d="M332.713 226.697L174.154 304.752C172.415 305.608 171.699 307.712 172.555 309.451L184.807 334.339C185.663 336.078 187.767 336.794 189.506 335.938L348.065 257.883C349.804 257.026 350.52 254.922 349.664 253.183L337.412 228.295C336.556 226.556 334.452 225.84 332.713 226.697Z" fill="#C5CFD7"/>
<path d="M249.391 321.609L250.697 320.966L248.474 316.45L248.296 315.854L248.139 316.476L247.475 317.719L246.886 317.417L248.158 314.821L248.494 314.655L251.425 320.608L252.703 319.979L253.043 320.669L249.73 322.3L249.391 321.609ZM255.724 318.677C255.936 318.573 256.116 318.445 256.266 318.294C256.416 318.143 256.527 317.977 256.599 317.794C256.669 317.605 256.7 317.409 256.691 317.204C256.683 316.999 256.63 316.797 256.532 316.598C256.318 316.163 256.028 315.904 255.663 315.821C255.304 315.735 254.897 315.804 254.443 316.027L253.753 316.367L253.619 316.097L253.943 313.364L254.17 312.742L253.61 313.134L251.762 314.043L251.422 313.353L254.753 311.713L254.887 311.984L254.501 314.944L254.308 315.375L254.317 315.394L254.602 315.172C254.854 315.056 255.107 314.99 255.361 314.973C255.612 314.949 255.856 314.98 256.091 315.065C256.323 315.144 256.538 315.274 256.735 315.455C256.929 315.63 257.095 315.858 257.233 316.138C257.398 316.473 257.486 316.801 257.497 317.121C257.507 317.44 257.454 317.74 257.338 318.022C257.224 318.294 257.054 318.544 256.826 318.772C256.598 319 256.332 319.189 256.027 319.339C255.747 319.477 255.485 319.579 255.239 319.646C254.994 319.713 254.77 319.753 254.569 319.768L254.438 319.009C254.615 319.007 254.812 318.983 255.03 318.938C255.25 318.883 255.482 318.796 255.724 318.677ZM257.678 313.183C257.596 313.015 257.578 312.861 257.626 312.722C257.676 312.573 257.782 312.459 257.944 312.38C258.112 312.297 258.27 312.281 258.419 312.331C258.564 312.376 258.678 312.482 258.761 312.65C258.84 312.812 258.855 312.967 258.804 313.115C258.754 313.264 258.645 313.379 258.477 313.462C258.315 313.542 258.16 313.556 258.011 313.506C257.869 313.452 257.758 313.344 257.678 313.183ZM259.53 316.943C259.447 316.775 259.429 316.621 259.477 316.482C259.527 316.334 259.633 316.219 259.795 316.14C259.963 316.057 260.121 316.041 260.27 316.092C260.415 316.136 260.529 316.242 260.612 316.41C260.692 316.572 260.706 316.727 260.656 316.875C260.605 317.024 260.496 317.14 260.328 317.222C260.166 317.302 260.011 317.316 259.862 317.266C259.72 317.212 259.609 317.105 259.53 316.943ZM259.726 313.322C259.175 312.202 258.941 311.271 259.023 310.527C259.111 309.78 259.504 309.235 260.2 308.892C260.953 308.522 261.635 308.534 262.247 308.928C262.861 309.314 263.449 310.075 264.009 311.214C264.56 312.333 264.792 313.267 264.703 314.013C264.621 314.757 264.229 315.302 263.526 315.648C262.786 316.012 262.099 315.983 261.466 315.561C260.833 315.138 260.253 314.392 259.726 313.322ZM260.501 312.941C260.7 313.345 260.907 313.703 261.122 314.014C261.34 314.317 261.565 314.561 261.797 314.749C262.025 314.93 262.257 315.048 262.492 315.102C262.731 315.147 262.968 315.111 263.204 314.995C263.677 314.762 263.915 314.374 263.919 313.832C263.925 313.28 263.697 312.534 263.235 311.595C263.039 311.197 262.833 310.842 262.618 310.531C262.409 310.216 262.189 309.965 261.958 309.778C261.732 309.587 261.501 309.47 261.262 309.425C261.024 309.38 260.777 309.42 260.522 309.546C260.055 309.775 259.819 310.166 259.812 310.718C259.812 311.267 260.042 312.008 260.501 312.941ZM264.811 310.819C264.26 309.699 264.025 308.768 264.107 308.024C264.196 307.277 264.588 306.732 265.285 306.389C266.038 306.019 266.72 306.031 267.331 306.425C267.946 306.811 268.533 307.572 269.094 308.711C269.645 309.83 269.876 310.764 269.788 311.51C269.706 312.254 269.313 312.799 268.61 313.145C267.87 313.509 267.184 313.48 266.551 313.058C265.917 312.635 265.338 311.889 264.811 310.819ZM265.585 310.438C265.784 310.842 265.991 311.2 266.207 311.511C266.425 311.814 266.65 312.058 266.881 312.246C267.109 312.427 267.341 312.545 267.577 312.599C267.815 312.644 268.053 312.608 268.289 312.492C268.762 312.259 269 311.871 269.003 311.329C269.01 310.777 268.782 310.031 268.319 309.092C268.123 308.694 267.918 308.339 267.703 308.028C267.494 307.713 267.274 307.462 267.042 307.275C266.817 307.084 266.585 306.967 266.347 306.922C266.108 306.877 265.861 306.917 265.606 307.043C265.14 307.272 264.903 307.663 264.897 308.215C264.897 308.764 265.126 309.505 265.585 310.438ZM271.9 307.619L274.158 306.508L274.498 307.198L272.24 308.31L271.9 307.619ZM278.613 307.224L279.919 306.581L277.696 302.065L277.518 301.469L277.361 302.091L276.697 303.333L276.109 303.032L277.38 300.435L277.716 300.27L280.647 306.223L281.925 305.593L282.265 306.284L278.953 307.915L278.613 307.224ZM286.931 301.495L285.83 302.037L286.818 304.043L286.09 304.401L285.102 302.395L282.229 303.81L282.077 303.502L283.048 297.657L283.552 297.409L285.509 301.383L286.61 300.841L286.931 301.495ZM283.779 299.708L283.496 298.897L283.468 298.91L283.454 299.706L283.016 302.135L282.793 302.813L283.409 302.417L284.781 301.742L283.779 299.708ZM286.901 298.797C286.818 298.629 286.8 298.476 286.848 298.336C286.898 298.188 287.004 298.074 287.166 297.994C287.334 297.911 287.492 297.895 287.641 297.946C287.786 297.99 287.9 298.096 287.983 298.264C288.063 298.426 288.077 298.581 288.027 298.73C287.976 298.878 287.867 298.994 287.699 299.077C287.537 299.156 287.382 299.171 287.234 299.12C287.091 299.067 286.98 298.959 286.901 298.797ZM288.752 302.557C288.669 302.389 288.651 302.236 288.699 302.097C288.749 301.948 288.855 301.834 289.017 301.754C289.185 301.672 289.343 301.656 289.492 301.706C289.637 301.751 289.751 301.857 289.834 302.025C289.914 302.186 289.928 302.341 289.878 302.49C289.827 302.639 289.718 302.754 289.55 302.837C289.388 302.916 289.233 302.931 289.085 302.88C288.942 302.827 288.831 302.719 288.752 302.557ZM288.949 298.937C288.397 297.817 288.163 296.885 288.245 296.142C288.333 295.395 288.726 294.85 289.423 294.507C290.175 294.137 290.857 294.148 291.469 294.543C292.083 294.928 292.671 295.69 293.231 296.828C293.783 297.948 294.014 298.881 293.926 299.628C293.844 300.372 293.451 300.916 292.748 301.262C292.008 301.627 291.321 301.598 290.688 301.175C290.055 300.753 289.475 300.007 288.949 298.937ZM289.723 298.555C289.922 298.96 290.129 299.318 290.344 299.629C290.563 299.931 290.787 300.176 291.019 300.363C291.247 300.545 291.479 300.662 291.714 300.717C291.953 300.761 292.19 300.726 292.427 300.609C292.899 300.377 293.137 299.989 293.141 299.446C293.147 298.894 292.919 298.149 292.457 297.21C292.261 296.811 292.055 296.457 291.84 296.145C291.631 295.831 291.411 295.58 291.18 295.392C290.955 295.202 290.723 295.084 290.484 295.039C290.246 294.994 289.999 295.035 289.744 295.16C289.278 295.39 289.041 295.781 289.034 296.333C289.034 296.881 289.264 297.622 289.723 298.555ZM294.033 296.434C293.482 295.314 293.247 294.382 293.329 293.639C293.418 292.892 293.81 292.347 294.507 292.004C295.26 291.634 295.942 291.646 296.553 292.04C297.168 292.425 297.755 293.187 298.316 294.325C298.867 295.445 299.098 296.378 299.01 297.125C298.928 297.869 298.535 298.413 297.833 298.759C297.092 299.124 296.406 299.095 295.773 298.672C295.14 298.25 294.56 297.504 294.033 296.434ZM294.808 296.052C295.007 296.457 295.214 296.815 295.429 297.126C295.647 297.428 295.872 297.673 296.103 297.86C296.332 298.042 296.563 298.159 296.799 298.214C297.037 298.258 297.275 298.223 297.511 298.106C297.984 297.874 298.222 297.486 298.225 296.943C298.232 296.391 298.004 295.646 297.541 294.707C297.345 294.308 297.14 293.954 296.925 293.642C296.716 293.328 296.496 293.077 296.264 292.889C296.039 292.699 295.807 292.581 295.569 292.536C295.33 292.491 295.084 292.532 294.829 292.657C294.362 292.887 294.126 293.278 294.119 293.83C294.119 294.378 294.348 295.119 294.808 296.052Z" fill="#333333"/>
<path d="M273.571 370.68L274.877 370.037L272.654 365.521L272.476 364.924L272.319 365.547L271.655 366.789L271.067 366.488L272.338 363.891L272.674 363.725L275.605 369.678L276.883 369.049L277.223 369.74L273.911 371.37L273.571 370.68ZM281.889 364.95L280.788 365.492L281.776 367.498L281.048 367.857L280.06 365.851L277.187 367.265L277.035 366.957L278.006 361.112L278.51 360.864L280.467 364.839L281.568 364.297L281.889 364.95ZM278.737 363.163L278.454 362.352L278.426 362.366L278.412 363.161L277.974 365.591L277.751 366.269L278.367 365.873L279.739 365.198L278.737 363.163ZM281.859 362.253C281.776 362.085 281.758 361.931 281.806 361.792C281.856 361.644 281.962 361.53 282.124 361.45C282.292 361.367 282.45 361.351 282.599 361.402C282.744 361.446 282.858 361.552 282.941 361.72C283.021 361.882 283.035 362.037 282.985 362.185C282.934 362.334 282.825 362.45 282.657 362.532C282.495 362.612 282.34 362.626 282.192 362.576C282.049 362.522 281.938 362.415 281.859 362.253ZM283.71 366.013C283.627 365.845 283.609 365.692 283.657 365.552C283.707 365.404 283.813 365.29 283.975 365.21C284.143 365.127 284.301 365.111 284.45 365.162C284.595 365.206 284.709 365.312 284.792 365.48C284.872 365.642 284.886 365.797 284.836 365.946C284.785 366.094 284.676 366.21 284.508 366.293C284.346 366.372 284.191 366.387 284.043 366.336C283.9 366.283 283.789 366.175 283.71 366.013ZM283.907 362.392C283.355 361.273 283.121 360.341 283.203 359.597C283.291 358.851 283.684 358.306 284.381 357.963C285.133 357.592 285.815 357.604 286.427 357.999C287.041 358.384 287.629 359.146 288.189 360.284C288.741 361.404 288.972 362.337 288.884 363.084C288.802 363.827 288.409 364.372 287.706 364.718C286.966 365.083 286.279 365.054 285.646 364.631C285.013 364.208 284.433 363.462 283.907 362.392ZM284.681 362.011C284.88 362.415 285.087 362.773 285.302 363.085C285.521 363.387 285.745 363.632 285.977 363.819C286.205 364 286.437 364.118 286.672 364.172C286.911 364.217 287.148 364.181 287.385 364.065C287.857 363.832 288.095 363.445 288.099 362.902C288.105 362.35 287.877 361.605 287.415 360.665C287.219 360.267 287.013 359.912 286.798 359.601C286.589 359.287 286.369 359.036 286.138 358.848C285.913 358.658 285.681 358.54 285.442 358.495C285.204 358.45 284.957 358.49 284.702 358.616C284.236 358.846 283.999 359.236 283.993 359.788C283.992 360.337 284.222 361.078 284.681 362.011ZM288.991 359.889C288.44 358.77 288.205 357.838 288.287 357.094C288.376 356.348 288.768 355.803 289.465 355.46C290.218 355.089 290.9 355.101 291.511 355.496C292.126 355.881 292.713 356.643 293.274 357.781C293.825 358.901 294.056 359.834 293.968 360.581C293.886 361.324 293.494 361.869 292.791 362.215C292.05 362.58 291.364 362.551 290.731 362.128C290.098 361.705 289.518 360.959 288.991 359.889ZM289.766 359.508C289.965 359.912 290.172 360.27 290.387 360.582C290.605 360.884 290.83 361.129 291.061 361.316C291.29 361.497 291.521 361.615 291.757 361.669C291.995 361.714 292.233 361.678 292.469 361.562C292.942 361.329 293.18 360.942 293.183 360.399C293.19 359.847 292.962 359.102 292.499 358.162C292.303 357.764 292.098 357.409 291.883 357.098C291.674 356.784 291.454 356.533 291.222 356.345C290.997 356.155 290.765 356.037 290.527 355.992C290.288 355.947 290.042 355.987 289.787 356.113C289.32 356.343 289.084 356.733 289.077 357.285C289.077 357.834 289.306 358.575 289.766 359.508ZM296.08 356.689L298.338 355.578L298.678 356.268L296.42 357.38L296.08 356.689ZM302.793 356.294L304.099 355.651L301.876 351.135L301.698 350.539L301.541 351.161L300.878 352.403L300.289 352.102L301.561 349.505L301.897 349.34L304.827 355.293L306.105 354.664L306.445 355.354L303.133 356.985L302.793 356.294ZM308.931 353.458C309.36 353.247 309.653 352.948 309.811 352.562C309.968 352.175 309.93 351.745 309.698 351.272C309.474 350.818 309.167 350.548 308.777 350.462C308.393 350.373 307.959 350.448 307.473 350.687L306.713 351.119L305.123 347.891L308.035 346.458L308.374 347.148L306.163 348.237L307.077 350.093L307.469 349.877C308.088 349.58 308.657 349.513 309.177 349.674C309.697 349.835 310.112 350.23 310.421 350.858C310.593 351.207 310.687 351.547 310.703 351.879C310.717 352.204 310.665 352.508 310.549 352.789C310.438 353.068 310.269 353.321 310.042 353.549C309.814 353.777 309.545 353.968 309.234 354.121C308.954 354.259 308.71 354.359 308.501 354.423C308.293 354.487 308.09 354.529 307.891 354.55L307.775 353.819C307.946 353.804 308.119 353.773 308.296 353.724C308.477 353.666 308.688 353.578 308.931 353.458ZM311.081 347.867C310.998 347.7 310.98 347.546 311.028 347.407C311.078 347.258 311.185 347.144 311.346 347.064C311.514 346.982 311.672 346.966 311.821 347.016C311.966 347.061 312.081 347.167 312.163 347.335C312.243 347.496 312.257 347.652 312.207 347.8C312.156 347.949 312.047 348.064 311.879 348.147C311.717 348.226 311.562 348.241 311.414 348.19C311.271 348.137 311.16 348.029 311.081 347.867ZM312.932 351.628C312.849 351.46 312.832 351.306 312.879 351.167C312.929 351.018 313.036 350.904 313.197 350.825C313.365 350.742 313.524 350.726 313.672 350.777C313.818 350.821 313.932 350.927 314.014 351.095C314.094 351.257 314.108 351.412 314.058 351.56C314.007 351.709 313.898 351.824 313.73 351.907C313.568 351.987 313.413 352.001 313.265 351.951C313.122 351.897 313.012 351.789 312.932 351.628ZM313.129 348.007C312.578 346.887 312.343 345.956 312.425 345.212C312.514 344.465 312.906 343.92 313.603 343.577C314.355 343.207 315.037 343.219 315.649 343.613C316.264 343.998 316.851 344.76 317.412 345.899C317.963 347.018 318.194 347.951 318.106 348.698C318.024 349.442 317.631 349.987 316.928 350.333C316.188 350.697 315.501 350.668 314.868 350.246C314.235 349.823 313.655 349.077 313.129 348.007ZM313.903 347.626C314.102 348.03 314.309 348.388 314.524 348.699C314.743 349.001 314.968 349.246 315.199 349.434C315.427 349.615 315.659 349.733 315.894 349.787C316.133 349.832 316.37 349.796 316.607 349.68C317.079 349.447 317.318 349.059 317.321 348.517C317.327 347.965 317.099 347.219 316.637 346.28C316.441 345.882 316.236 345.527 316.02 345.216C315.812 344.901 315.591 344.65 315.36 344.463C315.135 344.272 314.903 344.154 314.665 344.109C314.426 344.065 314.179 344.105 313.924 344.23C313.458 344.46 313.221 344.851 313.215 345.403C313.214 345.952 313.444 346.693 313.903 347.626ZM318.213 345.504C317.662 344.384 317.428 343.453 317.51 342.709C317.598 341.962 317.991 341.417 318.687 341.074C319.44 340.704 320.122 340.716 320.733 341.11C321.348 341.495 321.936 342.257 322.496 343.396C323.047 344.515 323.279 345.448 323.19 346.195C323.108 346.939 322.716 347.484 322.013 347.83C321.273 348.194 320.586 348.165 319.953 347.743C319.32 347.32 318.74 346.574 318.213 345.504ZM318.988 345.123C319.187 345.527 319.394 345.885 319.609 346.196C319.827 346.498 320.052 346.743 320.283 346.931C320.512 347.112 320.744 347.23 320.979 347.284C321.217 347.329 321.455 347.293 321.691 347.177C322.164 346.944 322.402 346.556 322.405 346.014C322.412 345.462 322.184 344.716 321.722 343.777C321.526 343.379 321.32 343.024 321.105 342.713C320.896 342.398 320.676 342.147 320.445 341.96C320.219 341.769 319.988 341.651 319.749 341.607C319.511 341.562 319.264 341.602 319.009 341.728C318.542 341.957 318.306 342.348 318.299 342.9C318.299 343.449 318.528 344.19 318.988 345.123Z" fill="#333333"/>
<path d="M381.037 324.88L222.478 402.935C220.739 403.791 220.023 405.895 220.88 407.634L233.131 432.522C233.987 434.261 236.091 434.977 237.831 434.121L396.389 356.066C398.129 355.21 398.845 353.106 397.988 351.367L385.737 326.479C384.88 324.74 382.777 324.024 381.037 324.88Z" fill="#2158A5"/>
<path d="M297.611 419.829L298.917 419.186L296.694 414.67L296.516 414.074L296.359 414.696L295.695 415.938L295.107 415.637L296.378 413.04L296.714 412.875L299.645 418.828L300.923 418.199L301.263 418.889L297.951 420.52L297.611 419.829ZM303.749 416.993C304.178 416.782 304.471 416.483 304.628 416.096C304.786 415.71 304.748 415.28 304.516 414.807C304.292 414.353 303.985 414.083 303.595 413.997C303.211 413.908 302.776 413.983 302.291 414.221L301.53 414.654L299.941 411.426L302.852 409.992L303.192 410.683L300.981 411.771L301.895 413.628L302.287 413.412C302.906 413.115 303.475 413.047 303.995 413.209C304.515 413.37 304.93 413.765 305.239 414.393C305.411 414.742 305.505 415.082 305.521 415.414C305.535 415.739 305.483 416.043 305.367 416.324C305.256 416.603 305.087 416.856 304.86 417.084C304.632 417.312 304.362 417.502 304.051 417.656C303.771 417.793 303.527 417.894 303.319 417.958C303.111 418.022 302.908 418.064 302.709 418.084L302.593 417.353C302.763 417.339 302.937 417.308 303.114 417.259C303.295 417.201 303.506 417.113 303.749 416.993ZM305.899 411.402C305.816 411.234 305.798 411.081 305.846 410.942C305.896 410.793 306.002 410.679 306.164 410.599C306.332 410.517 306.49 410.501 306.639 410.551C306.784 410.595 306.898 410.702 306.981 410.87C307.061 411.031 307.075 411.186 307.025 411.335C306.974 411.483 306.865 411.599 306.697 411.682C306.535 411.761 306.38 411.776 306.232 411.725C306.089 411.672 305.978 411.564 305.899 411.402ZM307.75 415.163C307.667 414.995 307.649 414.841 307.697 414.702C307.747 414.553 307.853 414.439 308.015 414.36C308.183 414.277 308.341 414.261 308.49 414.311C308.635 414.356 308.749 414.462 308.832 414.63C308.912 414.791 308.926 414.947 308.876 415.095C308.825 415.244 308.716 415.359 308.548 415.442C308.386 415.522 308.231 415.536 308.083 415.486C307.94 415.432 307.829 415.324 307.75 415.163ZM307.947 411.542C307.395 410.422 307.161 409.49 307.243 408.747C307.331 408 307.724 407.455 308.421 407.112C309.173 406.742 309.855 406.754 310.467 407.148C311.082 407.533 311.669 408.295 312.229 409.433C312.781 410.553 313.012 411.486 312.924 412.233C312.842 412.977 312.449 413.522 311.746 413.868C311.006 414.232 310.319 414.203 309.686 413.78C309.053 413.358 308.473 412.612 307.947 411.542ZM308.721 411.161C308.92 411.565 309.127 411.923 309.342 412.234C309.561 412.536 309.785 412.781 310.017 412.969C310.245 413.15 310.477 413.267 310.712 413.322C310.951 413.367 311.188 413.331 311.425 413.214C311.897 412.982 312.135 412.594 312.139 412.051C312.145 411.5 311.917 410.754 311.455 409.815C311.259 409.417 311.053 409.062 310.838 408.75C310.629 408.436 310.409 408.185 310.178 407.997C309.953 407.807 309.721 407.689 309.482 407.644C309.244 407.599 308.997 407.64 308.742 407.765C308.276 407.995 308.039 408.386 308.033 408.938C308.032 409.486 308.262 410.227 308.721 411.161ZM313.031 409.039C312.48 407.919 312.245 406.987 312.328 406.244C312.416 405.497 312.808 404.952 313.505 404.609C314.258 404.239 314.94 404.251 315.551 404.645C316.166 405.03 316.754 405.792 317.314 406.93C317.865 408.05 318.097 408.983 318.008 409.73C317.926 410.474 317.534 411.019 316.831 411.365C316.09 411.729 315.404 411.7 314.771 411.277C314.138 410.855 313.558 410.109 313.031 409.039ZM313.806 408.658C314.005 409.062 314.212 409.42 314.427 409.731C314.645 410.033 314.87 410.278 315.101 410.466C315.33 410.647 315.561 410.765 315.797 410.819C316.035 410.864 316.273 410.828 316.509 410.711C316.982 410.479 317.22 410.091 317.223 409.548C317.23 408.997 317.002 408.251 316.539 407.312C316.343 406.914 316.138 406.559 315.923 406.247C315.714 405.933 315.494 405.682 315.262 405.494C315.037 405.304 314.805 405.186 314.567 405.141C314.328 405.096 314.082 405.137 313.827 405.262C313.36 405.492 313.124 405.883 313.117 406.435C313.117 406.984 313.346 407.724 313.806 408.658ZM320.12 405.839L322.378 404.727L322.718 405.418L320.46 406.529L320.12 405.839ZM326.833 405.444L328.139 404.801L325.916 400.285L325.738 399.688L325.581 400.311L324.918 401.553L324.329 401.252L325.601 398.655L325.937 398.489L328.867 404.442L330.145 403.813L330.485 404.504L327.173 406.134L326.833 405.444ZM334.871 399.899C335.012 400.185 335.102 400.477 335.14 400.775C335.176 401.066 335.157 401.35 335.084 401.626C335.008 401.895 334.873 402.147 334.679 402.381C334.482 402.609 334.225 402.802 333.908 402.958C333.597 403.111 333.293 403.199 332.995 403.222C332.697 403.245 332.41 403.204 332.135 403.1C331.857 402.99 331.597 402.816 331.357 402.579C331.123 402.339 330.914 402.032 330.73 401.659C330.427 401.043 330.226 400.439 330.127 399.846C330.032 399.244 330.029 398.681 330.119 398.158C330.209 397.634 330.386 397.161 330.649 396.738C330.915 396.305 331.257 395.948 331.674 395.665L332.127 396.184C331.809 396.418 331.55 396.692 331.35 397.007C331.149 397.322 331.003 397.661 330.911 398.023C330.825 398.382 330.791 398.754 330.811 399.139C330.83 399.523 330.898 399.896 331.013 400.256C331.03 400.039 331.123 399.804 331.292 399.551C331.458 399.291 331.712 399.078 332.054 398.909C332.639 398.621 333.179 398.564 333.674 398.738C334.175 398.908 334.574 399.295 334.871 399.899ZM334.133 400.355C333.916 399.913 333.65 399.631 333.334 399.508C333.019 399.385 332.646 399.429 332.217 399.64C331.912 399.79 331.685 399.995 331.534 400.255C331.39 400.511 331.32 400.754 331.325 400.984C331.355 401.077 331.384 401.151 331.412 401.207C331.44 401.263 331.47 401.326 331.504 401.394C331.599 401.587 331.717 401.764 331.859 401.926C332.006 402.086 332.173 402.212 332.359 402.306C332.541 402.394 332.736 402.445 332.944 402.459C333.155 402.463 333.372 402.41 333.596 402.3C333.776 402.211 333.921 402.097 334.031 401.959C334.146 401.817 334.228 401.661 334.275 401.49C334.323 401.32 334.333 401.137 334.307 400.942C334.286 400.743 334.228 400.547 334.133 400.355ZM335.121 397.017C335.038 396.849 335.021 396.695 335.068 396.556C335.118 396.408 335.225 396.294 335.386 396.214C335.554 396.131 335.712 396.115 335.861 396.166C336.006 396.21 336.121 396.316 336.203 396.484C336.283 396.646 336.297 396.801 336.247 396.949C336.196 397.098 336.087 397.214 335.919 397.296C335.757 397.376 335.602 397.39 335.454 397.34C335.311 397.286 335.2 397.179 335.121 397.017ZM336.972 400.777C336.889 400.609 336.872 400.456 336.919 400.316C336.97 400.168 337.076 400.054 337.237 399.974C337.405 399.891 337.564 399.875 337.712 399.926C337.858 399.97 337.972 400.076 338.054 400.244C338.134 400.406 338.148 400.561 338.098 400.71C338.047 400.858 337.938 400.974 337.77 401.057C337.608 401.136 337.453 401.151 337.305 401.1C337.163 401.047 337.052 400.939 336.972 400.777ZM337.169 397.156C336.618 396.037 336.383 395.105 336.465 394.361C336.554 393.615 336.946 393.07 337.643 392.727C338.395 392.356 339.078 392.368 339.689 392.763C340.304 393.148 340.891 393.91 341.452 395.048C342.003 396.168 342.234 397.101 342.146 397.848C342.064 398.591 341.671 399.136 340.968 399.482C340.228 399.847 339.541 399.818 338.908 399.395C338.275 398.972 337.696 398.226 337.169 397.156ZM337.943 396.775C338.142 397.179 338.349 397.537 338.565 397.849C338.783 398.151 339.008 398.396 339.239 398.583C339.467 398.764 339.699 398.882 339.934 398.936C340.173 398.981 340.41 398.945 340.647 398.829C341.12 398.596 341.358 398.209 341.361 397.666C341.367 397.114 341.14 396.369 340.677 395.429C340.481 395.031 340.276 394.676 340.06 394.365C339.852 394.051 339.631 393.8 339.4 393.612C339.175 393.422 338.943 393.304 338.705 393.259C338.466 393.214 338.219 393.254 337.964 393.38C337.498 393.61 337.261 394 337.255 394.552C337.254 395.101 337.484 395.842 337.943 396.775ZM342.253 394.653C341.702 393.534 341.468 392.602 341.55 391.858C341.638 391.112 342.031 390.567 342.727 390.224C343.48 389.853 344.162 389.865 344.774 390.26C345.388 390.645 345.976 391.407 346.536 392.545C347.087 393.665 347.319 394.598 347.23 395.345C347.148 396.088 346.756 396.633 346.053 396.979C345.313 397.344 344.626 397.315 343.993 396.892C343.36 396.469 342.78 395.723 342.253 394.653ZM343.028 394.272C343.227 394.676 343.434 395.034 343.649 395.346C343.867 395.648 344.092 395.893 344.324 396.08C344.552 396.261 344.784 396.379 345.019 396.433C345.257 396.478 345.495 396.442 345.731 396.326C346.204 396.093 346.442 395.706 346.445 395.163C346.452 394.611 346.224 393.866 345.762 392.926C345.566 392.528 345.36 392.173 345.145 391.862C344.936 391.548 344.716 391.297 344.485 391.109C344.259 390.919 344.028 390.801 343.789 390.756C343.551 390.711 343.304 390.751 343.049 390.877C342.582 391.107 342.346 391.497 342.339 392.049C342.339 392.598 342.568 393.339 343.028 394.272Z" fill="#333333"/>
<path d="M405.2 373.953L246.641 452.008C244.902 452.865 244.186 454.969 245.042 456.708L257.294 481.596C258.15 483.335 260.254 484.051 261.993 483.194L420.552 405.139C422.291 404.283 423.007 402.179 422.151 400.44L409.899 375.552C409.043 373.813 406.939 373.097 405.2 373.953Z" fill="#2158A5"/>
<path d="M176.6 132.395C186.557 132.395 194.63 124.323 194.63 114.365C194.63 104.407 186.557 96.335 176.6 96.335C166.642 96.335 158.57 104.407 158.57 114.365C158.57 124.323 166.642 132.395 176.6 132.395Z" fill="#E6EBEF"/>
<path d="M184.389 103.865L182.779 100.655C182.697 100.489 182.584 100.341 182.444 100.219C182.305 100.097 182.143 100.003 181.967 99.9436C181.792 99.8842 181.606 99.8599 181.421 99.8723C181.236 99.8846 181.056 99.9332 180.889 100.015L161.999 109.315C161.832 109.396 161.683 109.51 161.56 109.649C161.437 109.788 161.343 109.951 161.284 110.126C161.224 110.302 161.2 110.488 161.213 110.674C161.226 110.859 161.276 111.04 161.359 111.205L162.939 114.415L184.389 103.865Z" fill="#333333"/>
<path d="M163.399 115.255L169.499 127.655C169.577 127.84 169.69 128.008 169.833 128.148C169.976 128.289 170.146 128.399 170.333 128.473C170.519 128.546 170.718 128.582 170.919 128.577C171.119 128.572 171.317 128.528 171.499 128.445L190.399 119.135C190.736 118.942 190.985 118.625 191.091 118.251C191.198 117.878 191.154 117.477 190.969 117.135L184.869 104.735L163.399 115.255Z" fill="#333333"/>
<path d="M178.139 119.885C178.583 119.684 178.939 119.329 179.139 118.885C179.216 118.674 179.247 118.448 179.23 118.224C179.213 118 179.148 117.782 179.039 117.585C178.955 117.374 178.82 117.188 178.645 117.043C178.47 116.898 178.262 116.799 178.039 116.755C177.479 116.707 176.917 116.833 176.429 117.115L175.429 117.635L173.209 113.125L177.449 111.045L178.189 112.545L175.329 113.945L176.149 115.615L176.629 115.315C177.009 115.141 177.414 115.033 177.829 114.995C178.204 114.962 178.58 115.01 178.934 115.136C179.288 115.262 179.61 115.463 179.879 115.725C180.182 116.011 180.429 116.35 180.609 116.725C180.835 117.163 180.968 117.643 180.999 118.135C181.014 118.567 180.936 118.996 180.769 119.395C180.588 119.795 180.33 120.155 180.009 120.455C179.653 120.787 179.248 121.063 178.809 121.275C178.456 121.448 178.088 121.588 177.709 121.695C177.385 121.797 177.049 121.854 176.709 121.865L176.489 120.315C176.733 120.306 176.975 120.269 177.209 120.205C177.529 120.128 177.84 120.021 178.139 119.885V119.885Z" fill="#E6EBEF"/>
<path d="M164.28 111.935C164.804 111.935 165.23 111.51 165.23 110.985C165.23 110.46 164.804 110.035 164.28 110.035C163.755 110.035 163.33 110.46 163.33 110.985C163.33 111.51 163.755 111.935 164.28 111.935Z" fill="#E6EBEF"/>
<path d="M180.879 103.765C181.404 103.765 181.829 103.34 181.829 102.815C181.829 102.291 181.404 101.865 180.879 101.865C180.355 101.865 179.929 102.291 179.929 102.815C179.929 103.34 180.355 103.765 180.879 103.765Z" fill="#E6EBEF"/>
<path d="M298.779 189.475C296.813 190.458 295.182 192.001 294.091 193.909C293 195.817 292.498 198.005 292.648 200.198C292.798 202.391 293.593 204.491 294.934 206.233C296.275 207.975 298.101 209.281 300.182 209.987C302.264 210.694 304.508 210.769 306.632 210.202C308.756 209.636 310.665 208.454 312.118 206.805C313.572 205.157 314.505 203.114 314.801 200.936C315.096 198.758 314.741 196.541 313.779 194.565C313.134 193.241 312.233 192.058 311.127 191.085C310.022 190.111 308.735 189.366 307.34 188.893C305.946 188.42 304.471 188.228 303.002 188.327C301.532 188.427 300.097 188.817 298.779 189.475V189.475ZM310.509 197.895L305.829 200.195L308.129 204.875L305.279 206.275L302.979 201.595L298.299 203.905L296.899 201.045L301.569 198.745L299.269 194.065L302.119 192.665L304.429 197.345L309.099 195.045L310.509 197.895Z" fill="#333333"/>
<path d="M140.41 206.445C138.433 207.415 136.787 208.949 135.682 210.853C134.576 212.758 134.06 214.947 134.198 217.145C134.336 219.343 135.122 221.45 136.458 223.201C137.793 224.952 139.617 226.268 141.7 226.983C143.783 227.698 146.031 227.779 148.16 227.217C150.289 226.655 152.204 225.474 153.662 223.824C155.121 222.174 156.058 220.129 156.354 217.947C156.651 215.765 156.295 213.544 155.33 211.565C154.687 210.249 153.79 209.072 152.692 208.102C151.594 207.133 150.316 206.389 148.931 205.913C147.545 205.438 146.079 205.24 144.617 205.331C143.155 205.422 141.725 205.801 140.41 206.445V206.445Z" fill="white"/>
<path d="M237.269 402.565C235.295 403.545 233.656 405.089 232.559 407.002C231.463 408.914 230.958 411.109 231.11 413.308C231.261 415.507 232.062 417.612 233.41 419.356C234.758 421.1 236.594 422.405 238.684 423.106C240.774 423.806 243.025 423.871 245.152 423.291C247.279 422.712 249.186 421.514 250.632 419.85C252.078 418.186 252.998 416.131 253.275 413.944C253.552 411.757 253.175 409.537 252.189 407.565C250.869 404.928 248.558 402.921 245.762 401.984C242.966 401.047 239.912 401.256 237.269 402.565V402.565Z" fill="white"/>
<path d="M261.31 451.355C259.334 452.33 257.691 453.868 256.589 455.776C255.487 457.683 254.976 459.875 255.119 462.073C255.263 464.272 256.055 466.378 257.396 468.126C258.737 469.874 260.566 471.186 262.651 471.895C264.737 472.603 266.987 472.678 269.115 472.109C271.243 471.539 273.155 470.351 274.608 468.696C276.061 467.04 276.991 464.991 277.28 462.807C277.568 460.622 277.203 458.402 276.23 456.425C275.583 455.113 274.684 453.94 273.584 452.975C272.485 452.009 271.205 451.27 269.82 450.799C268.434 450.329 266.97 450.135 265.509 450.231C264.049 450.326 262.622 450.708 261.31 451.355V451.355Z" fill="white"/>
<path d="M322.889 238.385C320.909 239.354 319.261 240.889 318.154 242.795C317.047 244.702 316.53 246.894 316.67 249.094C316.809 251.294 317.598 253.403 318.937 255.155C320.276 256.907 322.104 258.221 324.19 258.933C326.277 259.645 328.528 259.722 330.658 259.154C332.788 258.586 334.702 257.399 336.157 255.742C337.612 254.086 338.543 252.035 338.831 249.85C339.12 247.664 338.754 245.442 337.779 243.465C336.475 240.819 334.176 238.799 331.385 237.847C328.593 236.894 325.538 237.088 322.889 238.385V238.385ZM334.609 246.805L329.939 249.115L332.239 253.785L329.389 255.195L327.089 250.515L322.409 252.815L320.999 249.965L325.679 247.665L323.379 242.985L326.229 241.585L328.529 246.255L333.209 243.955L334.609 246.805Z" fill="#333333"/>
<path d="M356.847 275.728L198.288 353.783C196.549 354.639 195.833 356.743 196.689 358.482L208.941 383.37C209.797 385.109 211.901 385.825 213.64 384.969L372.199 306.914C373.938 306.058 374.654 303.954 373.798 302.214L361.546 277.327C360.69 275.587 358.586 274.872 356.847 275.728Z" fill="#C5CFD7"/>
<path d="M347.189 287.765C345.21 288.737 343.563 290.275 342.458 292.184C341.353 294.093 340.838 296.287 340.98 298.488C341.122 300.689 341.913 302.799 343.254 304.55C344.595 306.301 346.425 307.616 348.513 308.327C350.601 309.037 352.853 309.113 354.984 308.544C357.115 307.975 359.03 306.786 360.485 305.129C361.94 303.472 362.872 301.42 363.161 299.233C363.45 297.047 363.084 294.823 362.109 292.845C361.464 291.531 360.566 290.357 359.466 289.391C358.367 288.425 357.088 287.684 355.702 287.213C354.317 286.741 352.852 286.547 351.391 286.642C349.93 286.736 348.503 287.118 347.189 287.765V287.765ZM358.919 296.185L354.239 298.495L356.539 303.165L353.689 304.565L351.389 299.885L346.709 302.185L345.309 299.335L349.989 297.035L347.689 292.355L350.539 290.955L352.839 295.625L357.519 293.325L358.919 296.185Z" fill="#333333"/>
<path d="M141.66 209.775L145.84 212.975L150.84 211.355L149.09 216.315L152.18 220.585L146.91 220.445L143.81 224.695L142.32 219.655L137.32 218.015L141.66 215.035V209.775Z" fill="#066F6C"/>
<path d="M236.61 407.396L245.38 403.106C245.536 403.029 245.717 403.018 245.882 403.074C246.046 403.131 246.182 403.25 246.26 403.406L248.78 408.566C248.855 408.723 248.865 408.905 248.807 409.07C248.749 409.235 248.628 409.37 248.47 409.446L244.02 411.626C243.954 411.664 243.896 411.715 243.85 411.776L242.43 413.906C242.415 413.93 242.393 413.951 242.368 413.965C242.343 413.979 242.314 413.987 242.285 413.987C242.256 413.987 242.227 413.979 242.202 413.965C242.176 413.951 242.155 413.93 242.14 413.906L241.61 412.826L239.71 413.756C239.632 413.795 239.548 413.818 239.462 413.824C239.375 413.83 239.289 413.819 239.207 413.791C239.125 413.763 239.049 413.719 238.984 413.661C238.92 413.604 238.867 413.534 238.83 413.456L236.28 408.266C236.211 408.106 236.208 407.926 236.269 407.764C236.331 407.602 236.453 407.47 236.61 407.396V407.396Z" fill="#2158A5"/>
<path d="M245.15 407.685L234.62 412.865C234.531 412.908 234.452 412.968 234.387 413.042C234.322 413.116 234.273 413.202 234.242 413.295C234.211 413.389 234.199 413.487 234.208 413.585C234.216 413.683 234.244 413.778 234.29 413.865L237.39 420.145C237.43 420.236 237.489 420.317 237.562 420.384C237.636 420.451 237.722 420.501 237.817 420.532C237.911 420.563 238.011 420.574 238.109 420.565C238.208 420.555 238.304 420.524 238.39 420.475L243.75 417.845C243.821 417.809 243.9 417.792 243.98 417.795L247.05 418.005C247.084 418.008 247.118 418.001 247.148 417.986C247.179 417.97 247.204 417.947 247.223 417.919C247.241 417.89 247.251 417.857 247.253 417.823C247.254 417.789 247.246 417.755 247.23 417.725L246.6 416.435L248.92 415.295C249.01 415.254 249.09 415.195 249.156 415.121C249.221 415.047 249.271 414.961 249.302 414.867C249.333 414.773 249.345 414.674 249.336 414.576C249.327 414.477 249.297 414.382 249.25 414.295L246.15 408.005C246.108 407.917 246.048 407.837 245.974 407.773C245.899 407.708 245.813 407.659 245.719 407.629C245.625 407.599 245.527 407.589 245.429 407.598C245.331 407.608 245.236 407.638 245.15 407.685V407.685Z" stroke="#2158A5" stroke-width="1.04" stroke-miterlimit="10"/>
<path d="M260.65 456.236L269.41 451.946C269.488 451.906 269.573 451.883 269.66 451.877C269.747 451.87 269.835 451.882 269.918 451.91C270.001 451.937 270.077 451.982 270.143 452.039C270.208 452.097 270.262 452.167 270.3 452.246L272.84 457.436C272.879 457.514 272.903 457.599 272.909 457.686C272.915 457.773 272.904 457.86 272.876 457.943C272.848 458.026 272.804 458.102 272.746 458.168C272.689 458.234 272.619 458.287 272.54 458.326L268.09 460.506C268.018 460.535 267.958 460.588 267.92 460.656L266.5 462.786C266.485 462.81 266.464 462.831 266.438 462.845C266.413 462.859 266.384 462.867 266.355 462.867C266.326 462.867 266.297 462.859 266.272 462.845C266.247 462.831 266.225 462.81 266.21 462.786L265.68 461.706L263.78 462.636C263.703 462.675 263.618 462.698 263.532 462.704C263.446 462.71 263.359 462.699 263.277 462.671C263.195 462.643 263.119 462.599 263.055 462.541C262.99 462.484 262.937 462.414 262.9 462.336L260.35 457.136C260.309 457.057 260.284 456.971 260.277 456.883C260.27 456.795 260.281 456.706 260.309 456.622C260.337 456.538 260.382 456.46 260.44 456.394C260.499 456.328 260.57 456.274 260.65 456.236V456.236Z" fill="#2158A5"/>
<path d="M269.18 456.566L258.66 461.746C258.571 461.788 258.492 461.848 258.427 461.922C258.362 461.996 258.313 462.082 258.282 462.175C258.251 462.269 258.239 462.367 258.248 462.465C258.256 462.563 258.284 462.659 258.33 462.746L261.42 469.026C261.461 469.115 261.521 469.195 261.594 469.261C261.668 469.327 261.754 469.377 261.848 469.408C261.942 469.439 262.041 469.45 262.14 469.441C262.238 469.432 262.333 469.403 262.42 469.356L267.78 466.716C267.855 466.696 267.935 466.696 268.01 466.716L271.07 466.926C271.104 466.927 271.137 466.919 271.167 466.904C271.197 466.889 271.223 466.866 271.242 466.838C271.261 466.81 271.273 466.778 271.276 466.744C271.279 466.71 271.273 466.676 271.26 466.646L270.63 465.356L272.95 464.216C273.038 464.172 273.116 464.112 273.18 464.038C273.244 463.964 273.293 463.878 273.324 463.784C273.355 463.691 273.367 463.593 273.359 463.496C273.351 463.398 273.325 463.303 273.28 463.216L270.18 456.936C270.142 456.842 270.086 456.758 270.014 456.688C269.942 456.618 269.856 456.564 269.762 456.529C269.668 456.494 269.567 456.48 269.467 456.486C269.367 456.492 269.269 456.519 269.18 456.566Z" stroke="#2158A5" stroke-width="1.04" stroke-miterlimit="10"/>
<path d="M164.55 207.635L273.11 154.195" stroke="white" stroke-width="2.08" stroke-miterlimit="10"/>
<path d="M261.01 403.605L369.57 350.165" stroke="white" stroke-width="2.08" stroke-miterlimit="10"/>
<path d="M286.12 454.616L394.68 401.186" stroke="white" stroke-width="2.08" stroke-miterlimit="10"/>
</svg>
