<svg width="516" height="536" viewBox="0 0 516 536" fill="none" xmlns="http://www.w3.org/2000/svg">
<path d="M257.53 535.271C399.76 535.271 515.06 419.971 515.06 277.741C515.06 135.511 399.76 20.2109 257.53 20.2109C115.3 20.2109 0 135.511 0 277.741C0 419.971 115.3 535.271 257.53 535.271Z" fill="#C5CFD7"/>
<path d="M308.86 196.921C333.47 168.031 350.13 132.621 347.35 92.9208C339.31 -21.3592 180.21 3.79083 149.31 61.4808C118.41 119.171 122.03 265.481 162.04 275.831C177.99 279.941 211.97 269.831 246.56 249.021L224.8 402.611H352.99L308.86 196.921Z" fill="#736152"/>
<path d="M238.24 103.541C233.28 172.554 220.177 207.057 198.93 207.051C167.04 207.051 139.99 186.811 126.01 186.811C115.81 186.811 118.08 199.571 124.84 209.031C130.42 216.841 157.58 224.361 157.58 236.461C157.58 248.561 136.12 239.201 136.12 246.381C136.12 258.251 132.35 280.571 152.96 280.571C173.81 280.571 233.6 272.981 243.85 242.021C250.457 222.021 254.734 180.631 256.68 117.851C261.222 117.306 265.828 117.731 270.194 119.097C274.56 120.464 278.586 122.74 282.008 125.776C285.43 128.812 288.169 132.539 290.045 136.711C291.92 140.884 292.89 145.406 292.89 149.981C292.894 154.294 292.033 158.563 290.358 162.538C288.684 166.512 286.229 170.111 283.14 173.121C290.62 183.681 299.01 194.721 308.63 206.121C311.03 208.971 333.8 182.711 335.51 180.291C344.164 167.981 350.308 154.086 353.59 139.401C369 70.6407 320.37 7.61068 252.39 0.610681C233.17 -1.38932 214.05 1.89068 195.14 5.14068C189.56 6.14068 138.76 14.9307 138.76 23.1407C138.76 57.5107 145.43 67.7107 202.32 66.8107C216.31 74.2107 227.04 86.8807 238.24 103.541Z" fill="#333333"/>
<path d="M205.54 409.541C206.91 402.391 215.45 361.841 219.2 330.871C216.825 333.738 215.181 337.139 214.41 340.781C201.453 400.724 183.352 459.438 160.31 516.271C165.744 518.491 171.267 520.524 176.88 522.371C188.38 485.211 198.31 447.561 205.54 409.541Z" fill="#7388C4"/>
<path d="M353.65 307.881C321.33 286.881 279.88 307.051 244.56 302.171C232.31 300.491 221.31 308.331 220.41 319.211C220.11 322.871 219.7 326.791 219.2 330.891C222.29 327.138 226.476 324.445 231.172 323.19C235.869 321.935 240.84 322.18 245.39 323.891L254.72 327.401C258.097 328.673 261.133 330.712 263.588 333.356C266.043 336.001 267.852 339.179 268.87 342.641C283.93 393.861 325.87 474.821 327.63 525.641C364.558 515.184 398.674 496.585 427.47 471.211C414.31 415.061 398.75 337.331 353.65 307.881Z" fill="#8C9BCF"/>
<path d="M254.72 327.41L245.39 323.9C240.84 322.189 235.869 321.944 231.173 323.199C226.476 324.455 222.29 327.147 219.2 330.9C215.45 361.9 206.91 402.42 205.54 409.57C198.3 447.57 188.38 485.2 176.88 522.4C225.695 538.416 278.172 539.544 327.63 525.64C325.9 474.86 283.93 393.9 268.87 342.64C267.85 339.18 266.042 336.004 263.586 333.361C261.131 330.719 258.096 328.682 254.72 327.41V327.41Z" fill="#8C9BCF"/>
</svg>
