<svg xmlns="http://www.w3.org/2000/svg" viewBox="0 0 566.93 566.93"><defs><style>.cls-1{fill:#e6ebef;}.cls-2{fill:#fff;}.cls-3{fill:#c5cfd7;}.cls-4{fill:#7e7b7b;}.cls-5{fill:#fadd4b;}.cls-6{fill:#959192;}.cls-11,.cls-7,.cls-9{fill:#333;}.cls-8{fill:#565353;}.cls-9{font-size:6.53px;font-family:PTSans-Bold, PT Sans;font-weight:700;}.cls-10{letter-spacing:-0.01em;}.cls-11{font-size:5.44px;font-family:PTSans-Regular, PT Sans;}.cls-12{letter-spacing:0em;}.cls-13{letter-spacing:0.02em;}.cls-14{letter-spacing:0.05em;}.cls-15{letter-spacing:0.05em;}.cls-16{letter-spacing:-0.01em;}.cls-17{letter-spacing:0em;}.cls-18{letter-spacing:0.05em;}.cls-19{fill:#066f6c;}.cls-20{letter-spacing:0.02em;}.cls-21{letter-spacing:0.05em;}.cls-22{letter-spacing:0em;}.cls-23{letter-spacing:-0.01em;}.cls-24{letter-spacing:0em;}.cls-25{letter-spacing:-0.02em;}.cls-26{letter-spacing:0em;}.cls-27{letter-spacing:0.01em;}.cls-28{letter-spacing:-0.02em;}.cls-29{fill:#2158a5;}.cls-30{letter-spacing:-0.02em;}.cls-31{letter-spacing:0em;}.cls-32,.cls-33,.cls-34,.cls-42,.cls-45{fill:none;}.cls-32,.cls-34{stroke:#2158a5;}.cls-32,.cls-33,.cls-34,.cls-45{stroke-miterlimit:10;}.cls-32{stroke-width:1.3px;}.cls-33,.cls-45{stroke:#fff;}.cls-33{stroke-width:1.12px;}.cls-34{stroke-width:0.54px;}.cls-35{fill:#736152;}.cls-36{fill:#1d5e5b;}.cls-37{fill:#224d82;}.cls-38{fill:#444243;}.cls-39{fill:#e2b7a1;}.cls-40{fill:#b18b67;}.cls-41{fill:#913b8e;}.cls-43{fill:#702370;}.cls-44{fill:#78422b;}.cls-45{stroke-width:1.09px;}</style></defs><title>LAMBETH_Reuben-02</title><g id="Layer_5" data-name="Layer 5"><circle class="cls-1" cx="354.69" cy="208.26" r="203.76"/><rect class="cls-2" x="351.42" y="110.54" width="135.54" height="229.89"/><path class="cls-3" d="M354.69,4.51A203.43,203.43,0,0,0,193,84.34H516.42A203.41,203.41,0,0,0,354.69,4.51Z"/><path class="cls-4" d="M354.69,412a203.33,203.33,0,0,0,154.73-71.19H200A203.31,203.31,0,0,0,354.69,412Z"/><path class="cls-2" d="M258.44,120.94V340.42H269V110.54H175.86c-1.87,3.4-3.63,6.87-5.31,10.4Z"/><path class="cls-5" d="M199.8,340.64c-.06-.07-.12-.15-.19-.22"/><path class="cls-5" d="M258.44,340.42H199.61c.07.07.13.15.19.22h58.64Z"/><path class="cls-5" d="M170.55,120.94a203.88,203.88,0,0,0,29.06,219.48h58.83V120.94Z"/><circle class="cls-6" cx="243.09" cy="241.71" r="6.8"/><rect class="cls-4" x="229.74" y="239.97" width="15.75" height="3.94"/><path class="cls-2" d="M240.52,222.32V137.43H163.6q-1.36,3.7-2.6,7.47v77.42Z"/><path class="cls-2" d="M161,137.43v7.47q1.23-3.77,2.6-7.47Z"/><rect class="cls-5" x="361.66" y="120.94" width="115.47" height="219.7"/><circle class="cls-6" cx="461.79" cy="241.71" r="6.8"/><rect class="cls-4" x="448.44" y="239.97" width="15.75" height="3.94"/><rect class="cls-2" x="379.57" y="137.43" width="79.51" height="84.89"/><circle class="cls-3" cx="145.79" cy="416.14" r="139.57"/></g><g id="shadows"><path class="cls-3" d="M526.75,247.35c-2.7-2.53-8.36-5.18-14-7.78-5,16.36-8.91,33.22-9.62,48.16h24.7C527.85,273.87,527.11,260.13,526.75,247.35Z"/><path class="cls-3" d="M526.65,243.7l-1.66-.46c.42-.53,1-1.44,1.61-2.36,0-2-.05-4-.05-6-1-.1-2.1-.2-3.17-.32.09-1.12.2-2.21.3-3.3-2.65-.94-5.28-1.81-7.39-2.72-1.24,3.64-2.45,7.33-3.59,11,5.69,2.6,11.35,5.25,14,7.78C526.71,246.12,526.68,244.91,526.65,243.7Z"/><path class="cls-3" d="M546.53,287.73h.82l-.46-1.63Z"/><path class="cls-3" d="M547.35,287.73h7.24a109.46,109.46,0,0,1-4.41-17.45c-1.06,5.21-2.14,10.5-3.29,15.82Z"/><path class="cls-3" d="M529.39,238.05c.56-.14,2.22.77,3,.8a6.07,6.07,0,0,0,1-.08l-1-3.43c-1.9-.13-3.85-.29-5.87-.48,0,2,0,4,.05,6C527.48,239.58,528.48,238.29,529.39,238.05Z"/><path class="cls-3" d="M529,244.62c-.69-.36-.07-.28-2.35-.92,0,1.21.06,2.42.1,3.65,1.21,1.14,1.82,2.25,1.57,3.33l3.35-3.45A13.65,13.65,0,0,0,529,244.62Z"/><path class="cls-3" d="M538,254.84a1.73,1.73,0,0,1-1.26-.89,74.61,74.61,0,0,0-5.05-6.72l-3.35,3.45c.25-1.08-.36-2.19-1.57-3.33.36,12.78,1.1,26.52,1,40.38h18.75l.36-1.63Z"/><path class="cls-3" d="M533.4,238.77a13.91,13.91,0,0,0,1.69-.42c.1,0,.41-.14.81-.3a10,10,0,0,0-2.86-2.67l-.62,0Z"/><path class="cls-3" d="M523.68,231.24c-.1,1.09-.21,2.18-.3,3.3,1.07.12,2.13.22,3.17.32,0-.86,0-1.72,0-2.57C525.62,231.93,524.65,231.58,523.68,231.24Z"/><path class="cls-3" d="M532.3,234.93a39.12,39.12,0,0,0-5.73-2.64c0,.85,0,1.71,0,2.57,2,.19,4,.35,5.87.48Z"/><path class="cls-3" d="M531.47,232h-4.9v.28a39.12,39.12,0,0,1,5.73,2.64Z"/><path class="cls-3" d="M532.42,235.34l.62,0-.74-.45Z"/><path class="cls-3" d="M525,243.24l1.66.46c0-.95,0-1.89,0-2.82C526,241.8,525.41,242.71,525,243.24Z"/><path class="cls-3" d="M533.4,238.77a6.07,6.07,0,0,1-1,.08c-.75,0-2.41-.94-3-.8-.91.24-1.91,1.53-2.79,2.83,0,.93,0,1.87,0,2.82,2.28.64,1.66.56,2.35.92a13.65,13.65,0,0,1,2.67,2.61l3.2-3.3Z"/><path class="cls-3" d="M531.67,247.23a74.61,74.61,0,0,1,5.05,6.72,1.73,1.73,0,0,0,1.26.89l-3.11-10.91Z"/><path class="cls-3" d="M533.4,238.77l1.47,5.16,1.55-1.6a4.66,4.66,0,0,0-.52-4.28c-.4.16-.71.27-.81.3A13.91,13.91,0,0,1,533.4,238.77Z"/></g><g id="phone"><rect class="cls-7" x="73.55" y="285.82" width="140.04" height="264.23" rx="11.34" ry="11.34" transform="translate(-166.53 103.1) rotate(-25.61)"/><rect class="cls-5" x="82.4" y="299.61" width="116.26" height="221.67" transform="translate(-166.67 104.11) rotate(-26.18)"/><circle class="cls-8" cx="194.94" cy="523.92" r="8.24"/><rect class="cls-2" x="87.64" y="306.36" width="105.45" height="208.77" transform="translate(-166.75 104) rotate(-26.17)"/><text class="cls-9" transform="translate(85.59 353.17) rotate(-26.21)">Empl<tspan class="cls-10" x="14.11" y="0">o</tspan><tspan x="17.53" y="0">yment Hub</tspan></text><text class="cls-11" transform="translate(97.94 360.78) rotate(-26.21)"><tspan class="cls-12">1</tspan><tspan class="cls-13" x="2.97" y="0">0</tspan><tspan class="cls-14" x="6.04" y="0">:</tspan><tspan class="cls-15" x="7.52" y="0">0</tspan><tspan x="10.75" y="0">0 - </tspan><tspan class="cls-16" x="18.57" y="0">1</tspan><tspan class="cls-17" x="21.51" y="0">1</tspan><tspan class="cls-18" x="24.49" y="0">:</tspan><tspan class="cls-15" x="25.98" y="0">0</tspan><tspan x="29.2" y="0">0</tspan></text><rect class="cls-19" x="69.45" y="355.23" width="96.1" height="18.18" rx="1.84" ry="1.84" transform="translate(-148.81 89.34) rotate(-26.21)"/><text class="cls-11" transform="translate(110.59 386.45) rotate(-26.21)"><tspan class="cls-16">1</tspan><tspan class="cls-17" x="2.94" y="0">1</tspan><tspan class="cls-18" x="5.91" y="0">:</tspan><tspan class="cls-15" x="7.4" y="0">0</tspan><tspan x="10.62" y="0">0 - </tspan><tspan class="cls-20" x="18.45" y="0">1</tspan><tspan x="21.5" y="0">2</tspan><tspan class="cls-14" x="24.46" y="0">:</tspan><tspan class="cls-15" x="25.95" y="0">0</tspan><tspan x="29.17" y="0">0</tspan></text><rect class="cls-3" x="82.09" y="380.9" width="96.1" height="18.18" rx="1.84" ry="1.84" transform="translate(-158.85 97.56) rotate(-26.21)"/><text class="cls-11" transform="translate(123.23 412.12) rotate(-26.21)"><tspan class="cls-20">1</tspan><tspan x="3.05" y="0">2</tspan><tspan class="cls-18" x="6.01" y="0">:</tspan><tspan class="cls-21" x="7.5" y="0">0</tspan><tspan x="10.72" y="0">0 - </tspan><tspan class="cls-22" x="18.55" y="0">1</tspan><tspan class="cls-23" x="21.54" y="0">3</tspan><tspan class="cls-14" x="24.45" y="0">:</tspan><tspan class="cls-15" x="25.93" y="0">0</tspan><tspan x="29.16" y="0">0</tspan></text><rect class="cls-3" x="94.73" y="406.57" width="96.1" height="18.18" rx="1.84" ry="1.84" transform="translate(-168.89 105.78) rotate(-26.21)"/><text class="cls-11" transform="translate(135.96 437.75) rotate(-26.21)"><tspan class="cls-24">1</tspan><tspan class="cls-23" x="2.99" y="0">3</tspan><tspan class="cls-18" x="5.9" y="0">:</tspan><tspan class="cls-15" x="7.38" y="0">0</tspan><tspan x="10.61" y="0">0 - </tspan><tspan class="cls-25" x="18.43" y="0">1</tspan><tspan class="cls-26" x="21.3" y="0">4</tspan><tspan class="cls-18" x="24.24" y="0">:</tspan><tspan class="cls-21" x="25.73" y="0">0</tspan><tspan x="28.95" y="0">0</tspan></text><text class="cls-11" transform="translate(148.61 463.41) rotate(-26.21)"><tspan class="cls-25">1</tspan><tspan class="cls-26" x="2.87" y="0">4</tspan><tspan class="cls-18" x="5.8" y="0">:</tspan><tspan class="cls-15" x="7.29" y="0">0</tspan><tspan x="10.51" y="0">0 - </tspan><tspan class="cls-27" x="18.34" y="0">1</tspan><tspan class="cls-28" x="21.35" y="0">5</tspan><tspan class="cls-18" x="24.21" y="0">:</tspan><tspan class="cls-15" x="25.7" y="0">0</tspan><tspan x="28.92" y="0">0</tspan></text><rect class="cls-29" x="120" y="457.91" width="96.1" height="18.18" rx="1.84" ry="1.84" transform="translate(-188.96 122.22) rotate(-26.21)"/><text class="cls-11" transform="translate(161.19 489.11) rotate(-26.21)"><tspan class="cls-27">1</tspan><tspan class="cls-30" x="3.01" y="0">5</tspan><tspan class="cls-14" x="5.87" y="0">:</tspan><tspan class="cls-15" x="7.36" y="0">0</tspan><tspan x="10.58" y="0">0 - </tspan><tspan class="cls-31" x="18.41" y="0">1</tspan><tspan x="21.39" y="0">6</tspan><tspan class="cls-18" x="24.35" y="0">:</tspan><tspan class="cls-21" x="25.84" y="0">0</tspan><tspan x="29.06" y="0">0</tspan></text><rect class="cls-29" x="132.64" y="483.59" width="96.1" height="18.18" rx="1.84" ry="1.84" transform="translate(-199 130.44) rotate(-26.21)"/><circle class="cls-1" cx="98.58" cy="328.34" r="9.43"/><path class="cls-7" d="M102.66,322.84l-.83-1.68a.74.74,0,0,0-1-.33L91,325.69a.74.74,0,0,0-.34,1l.83,1.68Z"/><path class="cls-7" d="M91.68,328.8l3.19,6.48a.78.78,0,0,0,1,.42l9.89-4.87a.78.78,0,0,0,.29-1.06l-3.19-6.49Z"/><path class="cls-1" d="M99.39,331.22a1,1,0,0,0,.54-.52.78.78,0,0,0-.05-.68.73.73,0,0,0-.54-.44,1.49,1.49,0,0,0-.84.19L98,330l-1.16-2.35,2.21-1.09.39.78-1.5.74.43.87.25-.16a2,2,0,0,1,.63-.16,1.26,1.26,0,0,1,.58.07,1.23,1.23,0,0,1,.49.31,2,2,0,0,1,.39.53,1.91,1.91,0,0,1,.2.73,1.58,1.58,0,0,1-.12.66,1.65,1.65,0,0,1-.4.56,2.49,2.49,0,0,1-.63.43,3.34,3.34,0,0,1-.57.22,2.75,2.75,0,0,1-.51.09l-.11-.81.37-.06A2.47,2.47,0,0,0,99.39,331.22Z"/><circle class="cls-1" cx="92.14" cy="326.57" r="0.5"/><circle class="cls-1" cx="100.82" cy="322.29" r="0.5"/><path class="cls-7" d="M162.5,367.61a5.83,5.83,0,1,0,7.8,2.66A5.84,5.84,0,0,0,162.5,367.61Zm6.13,4.41-2.45,1.2,1.21,2.45-1.49.73L164.69,374l-2.44,1.2-.74-1.49,2.45-1.2L162.75,370l1.49-.73,1.21,2.44,2.44-1.2Z"/><path class="cls-2" d="M79.65,376.49a5.83,5.83,0,1,0,7.81,2.66A5.84,5.84,0,0,0,79.65,376.49Z"/><path class="cls-2" d="M130.31,479a5.83,5.83,0,1,0,7.8,2.65A5.81,5.81,0,0,0,130.31,479Z"/><path class="cls-2" d="M142.88,504.58a5.83,5.83,0,1,0,7.81,2.65A5.82,5.82,0,0,0,142.88,504.58Z"/><path class="cls-7" d="M175.09,393.2a5.83,5.83,0,1,0,7.8,2.65A5.83,5.83,0,0,0,175.09,393.2Zm6.13,4.4-2.44,1.21,1.2,2.44-1.49.74-1.21-2.45-2.44,1.2-.74-1.49,2.45-1.2-1.2-2.45,1.49-.73,1.2,2.44,2.45-1.2Z"/><rect class="cls-3" x="107.35" y="432.21" width="96.1" height="18.18" rx="1.84" ry="1.84" transform="translate(-178.91 113.99) rotate(-26.21)"/><path class="cls-7" d="M187.8,419a5.83,5.83,0,1,0,7.8,2.66A5.83,5.83,0,0,0,187.8,419Zm6.13,4.41-2.44,1.2,1.2,2.45-1.49.73-1.2-2.44-2.45,1.2-.73-1.49,2.44-1.21-1.2-2.44,1.49-.74,1.2,2.45,2.45-1.2Z"/><polygon class="cls-19" points="80.31 378.23 82.49 379.91 85.11 379.06 84.19 381.66 85.81 383.89 83.05 383.81 81.43 386.04 80.65 383.4 78.03 382.54 80.31 380.99 80.31 378.23"/></g><g id="Sabrina"><rect class="cls-29" x="175.73" y="147.18" width="50.05" height="65.24"/><path class="cls-2" d="M200.19,153.09a13.93,13.93,0,1,0,14,13.89A13.93,13.93,0,0,0,200.19,153.09Z"/><path class="cls-29" d="M196.78,158.21H209a.83.83,0,0,1,.82.83v7.23a.83.83,0,0,1-.83.82h-6.19a.52.52,0,0,0-.27.07l-2.77,1.61a.21.21,0,0,1-.31-.18v-1.5h-2.65a.82.82,0,0,1-.82-.82V159A.83.83,0,0,1,196.78,158.21Z"/><path class="cls-32" d="M206.19,163.22l-14.65,0a.9.9,0,0,0-.9.9l0,8.75a.9.9,0,0,0,.9.91l7.47,0a.55.55,0,0,1,.28.07l3.32,1.92a.25.25,0,0,0,.37-.21v-1.79h3.22a.9.9,0,0,0,.9-.91l0-8.75A.9.9,0,0,0,206.19,163.22Z"/><line class="cls-33" x1="182.76" y1="189.92" x2="218.19" y2="189.92"/><line class="cls-33" x1="182.76" y1="196.95" x2="218.19" y2="196.95"/><line class="cls-33" x1="182.76" y1="203.98" x2="218.19" y2="203.98"/><rect class="cls-19" x="394.31" y="147.18" width="50.05" height="65.24"/><path class="cls-2" d="M418.76,153.09a13.93,13.93,0,1,0,14,13.89A13.93,13.93,0,0,0,418.76,153.09Z"/><line class="cls-33" x1="401.33" y1="189.92" x2="436.76" y2="189.92"/><line class="cls-33" x1="401.33" y1="196.95" x2="436.76" y2="196.95"/><line class="cls-33" x1="401.33" y1="203.98" x2="436.76" y2="203.98"/><polygon class="cls-19" points="418.58 156.8 421.62 162.96 428.42 163.95 423.5 168.75 424.66 175.52 418.58 172.32 412.5 175.52 413.66 168.75 408.74 163.95 415.54 162.96 418.58 156.8"/><path class="cls-29" d="M130,481.59l4.58-2.25a.35.35,0,0,1,.46.16l1.33,2.72a.34.34,0,0,1-.15.46l-2.33,1.14a.24.24,0,0,0-.09.08L133,485a.08.08,0,0,1-.14,0l-.28-.56-1,.49a.35.35,0,0,1-.46-.16l-1.33-2.72A.35.35,0,0,1,130,481.59Z"/><path class="cls-34" d="M134.43,481.74l-5.5,2.71a.38.38,0,0,0-.18.51l1.62,3.28a.37.37,0,0,0,.51.17l2.8-1.37a.27.27,0,0,1,.12,0l1.6.11a.1.1,0,0,0,.1-.14l-.33-.68,1.21-.59a.37.37,0,0,0,.17-.51l-1.61-3.29A.39.39,0,0,0,134.43,481.74Z"/><path class="cls-29" d="M142.54,507.13l4.58-2.24a.34.34,0,0,1,.46.15l1.34,2.72a.35.35,0,0,1-.16.46l-2.33,1.14a.34.34,0,0,0-.09.08l-.74,1.12a.09.09,0,0,1-.15,0l-.28-.57-1,.49a.36.36,0,0,1-.47-.16l-1.33-2.72A.35.35,0,0,1,142.54,507.13Z"/><path class="cls-34" d="M147,507.28,141.5,510a.37.37,0,0,0-.17.51l1.61,3.28a.39.39,0,0,0,.51.18l2.8-1.38a.27.27,0,0,1,.12,0l1.6.11a.1.1,0,0,0,.1-.14l-.33-.68,1.21-.59a.38.38,0,0,0,.18-.51l-1.62-3.29A.39.39,0,0,0,147,507.28Z"/></g><g id="Layer_1" data-name="Layer 1"><g id="Head"><path class="cls-35" d="M317.81,165.87a14.94,14.94,0,0,1-4-10.72c.83-11.78,17.23-9.19,20.42-3.24s2.81,21-1.31,22.09c-1.64.42-5.15-.61-8.71-2.76l2.24,15.83H313.26Z"/></g><path class="cls-35" d="M366.25,245.84a43.56,43.56,0,0,0-9.47-7.17l-12.51-15.74-5.79,7.61,13.75,10.64q4.47,9.49,5.59,8.43c1.13-1.07-.25-2.67.4-3.52s3.55.06,6.28,1S366.76,246.63,366.25,245.84Z"/><path id="Coat-Back" class="cls-36" d="M316,201.53c3.4,15.61,19.37,28.74,33.73,41.54l6.14-7C340.39,217.26,330.74,198,327,178l-4.77,1.79C320.92,185.49,314.87,196.29,316,201.53Z"/><path id="Hair" class="cls-7" d="M325.09,156.24q.77,10.66,4.05,10.67c3.29,0,6.08-2.09,7.52-2.09,1,0,.81,1.32.12,2.3-.58.8-3.38,1.58-3.38,2.82s2.22.29,2.22,1c0,1.22.38,3.52-1.74,3.52s-8.31-.78-9.37-4q-1-3.09-1.32-12.8a2.6,2.6,0,0,0-.4,0,3.34,3.34,0,0,0-2.33,5.72c-.77,1.09-1.63,2.23-2.63,3.4-3.72-2.23-6.48-8.77-2.84-15.05a8.24,8.24,0,0,1,6-5.48,9.73,9.73,0,0,1,6.35-.47c3.74.32,7.09,1.46,8,2.14,0,3.54-.68,4.6-6.55,4.5A10.77,10.77,0,0,0,325.09,156.24Z"/><polygon id="Leg" class="cls-37" points="338.34 231.45 353.44 350.2 343.07 350.2 328.86 299.81 309.38 231.45 338.34 231.45"/><path id="Leg-2" data-name="Leg" class="cls-29" d="M338.4,231.45c-9.54,33.71-13.14,82.75-30.76,118.75H296.9c13.84-37.53,6.82-83.51,7.27-118.75Z"/><path id="Shoe" class="cls-38" d="M301.14,359.88V358.8l7,1.08h20.42v-2.15q-12.93-3.5-21-9.14H296.3l-.53,11.29Z"/><path id="Shoe-2" data-name="Shoe" class="cls-38" d="M347,359.88V358.8l7,1.08H374.4v-2.15q-12.93-3.5-21-9.14H342.16l-.54,11.29Z"/><path class="cls-19" d="M297.8,232.27c-.85-3.39,1.25-9.3,1.75-12q2.16-11.88,5.39-23.52c1.57-5.68,2.86-15.9,8.25-19.43,3.34-2.16,7.61-.08,11.25-.58a2.1,2.1,0,0,1,2.49,1.75c.26,3.23,1.37,8.48,1.53,9.31A110.76,110.76,0,0,0,331.91,201a258.28,258.28,0,0,0,12,29.57c.63,1.36.42,3.37-.95,3.6a126.75,126.75,0,0,1-21.23,1.33c-4.42,0-8.84-.21-13.26-.48-2.67-.17-7.05.88-9.39-.76A3.27,3.27,0,0,1,297.8,232.27Z"/><path class="cls-35" d="M329.28,256.92a43.32,43.32,0,0,1-3-11.5l-9.7-17.61,9.24-2.41,4.52,16.78q7,7.78,5.63,8.42c-1.43.62-2.37-1.26-3.4-1s-1.32,3.31-1.47,6.2S329.82,257.69,329.28,256.92Z"/><path id="Coat-Back-2" data-name="Coat-Back" class="cls-19" d="M308,193.81c-2.89,15.72,7.49,33.83,15.81,51.18l8.36-4.08c-7-23.35-10.58-33.69-6.32-53.61l-5.61-4.54C316.85,187.54,309,188.54,308,193.81Z"/><g id="Head-2" data-name="Head"><path class="cls-39" d="M519.41,210.2a14.47,14.47,0,0,0,3.85-10.38c-.8-11.41-16.69-8.9-19.78-3.14s-2.72,20.37,1.27,21.4c1.6.41,5-.6,8.44-2.68L511,230.73h12.8Z"/></g><path id="Skin" class="cls-40" d="M460.44,284.63c-3.83-5.19-13.4-1.75-13.39,2.54,0,11.29,10.31,64.86,10.85,68.24s6.29,4.49,6.63.27c.53-6.73,1.52-30,.53-40.89-.29-3.16-.59-6.22-.9-9.09q8.11,14.58,24.69,41.22l6.14-2.8q-7.23-23.83-11.86-33.65c-5.29-11.2-10.24-20.8-12.33-24.18C468.05,281.83,463.58,282.42,460.44,284.63Z"/><path id="Leg-Back" class="cls-37" d="M494.55,335.3l-21.07-49.93c-5.05-8.12-19.21,1.66-17.49,6.37,3.91,10.69,23.79,45.31,25,48.5Z"/><path id="Leg-Front" class="cls-29" d="M446.51,291.07c0,14.15,6.21,47.42,6.21,50.53l15-.51q-3.93-43.38-3.32-43.67c.93-.44,37.93,5.12,49,5.54,16,.61,22.63-9.21,23.16-27.84h-31q-39.76,4.74-52.26,6.6C448,282.51,446.51,287.17,446.51,291.07Z"/><path id="shoe-3" data-name="shoe" class="cls-2" d="M466.38,347.71a11.28,11.28,0,0,1,.89,3.57,26.88,26.88,0,0,1-.48,4.21H436.72c-.78-2.58-.33-4,1.36-4.18s3.08-.4,4.19-.56l14-6.23a.53.53,0,0,1,.7.27h0l.9,2.18a9.48,9.48,0,0,0,3.8,1.09,8.63,8.63,0,0,0,3.28-1h0a1.07,1.07,0,0,1,1.41.53Z"/><path id="shoe-4" data-name="shoe" class="cls-2" d="M496.16,341.55a11.63,11.63,0,0,1,2.37,2.82,26.59,26.59,0,0,1,1.41,4l-27,13.19c-1.84-2-2-3.43-.62-4.35s2.6-1.71,3.53-2.35l9.82-11.73a.54.54,0,0,1,.75-.06h0l1.76,1.56a9.69,9.69,0,0,0,3.89-.68,8.72,8.72,0,0,0,2.53-2.3h0a1.06,1.06,0,0,1,1.5-.15Z"/><path id="Base" class="cls-8" d="M464.87,355.49H440.35a1.87,1.87,0,0,0-1.87,1.87h0a1.87,1.87,0,0,0,1.87,1.86h24.52a1.87,1.87,0,0,0,1.87-1.86h0A1.87,1.87,0,0,0,464.87,355.49Z"/><path id="Wheel-Stuff" class="cls-8" d="M481.17,278.18H480a5.33,5.33,0,0,0-5.26,4.47L463,353.89h5.7"/><circle id="Front-Wheel" class="cls-7" cx="465.71" cy="354.96" r="9.6"/><path id="Shirt" class="cls-41" d="M536.61,279.78h-42.5c-1.94,0-1.58-2.69-1.3-4,3.24-15.67,15.89-32.57,15.89-54.88L521,219C531.11,234.66,534.61,253.93,536.61,279.78Z"/><line class="cls-42" x1="535.33" y1="286.84" x2="578.26" y2="262.84"/><path class="cls-43" d="M534.07,272.58q-.36,3.07-.84,5.74l2.88,0Q535.11,275.58,534.07,272.58Z"/><path class="cls-39" d="M465.88,280.65a45.87,45.87,0,0,0-11.56,4.65c-.74.67-1.62,2,1.41,1.78s6.23-.34,6.65.69-1.41,2.27-.57,3.67q.85,1.4,8-7l16.84-7-3.76-9.29Z"/><path id="Coat-Back-3" data-name="Coat-Back" class="cls-41" d="M516.52,221.85l-4.61-.79c-17.11,14.77-24.13,43.16-45.1,58.2l5.05,6.25C508.23,281,517.25,246.38,516.52,221.85Z"/><path class="cls-8" d="M543.55,283.51a5.34,5.34,0,0,0-5.34-5.33h-57a5.33,5.33,0,0,0-5.33,5.33v26.13h55.63a202.22,202.22,0,0,0,12.08-24.8Z"/></g><g id="Layer_8" data-name="Layer 8"><path id="hair-2" data-name="hair" class="cls-44" d="M525,196.77a3.35,3.35,0,0,0,.69-1.29,12.43,12.43,0,0,0,.44-1.47,3.22,3.22,0,0,0-.48-2.92,3.36,3.36,0,0,0-2.22-1,4,4,0,0,0-1.58.2c-.5.16-.93.49-1.42.69a6.34,6.34,0,0,0-.75-3.12,3.12,3.12,0,0,0-2.32-1.51,4.5,4.5,0,0,0-2.82.57c-.22.12-.44.24-.65.38a1.71,1.71,0,0,1-.56.31c-.23,0-.34-.08-.49-.25a3.92,3.92,0,0,0-.57-.51,3.39,3.39,0,0,0-3.18-.55,2.87,2.87,0,0,0-1.3.94c-.3.38-.51,1-.92,1.27-.17.11-.29,0-.45-.15s-.46-.36-.7-.52a3.24,3.24,0,0,0-1.09-.49c-.58-.14-1.37-.1-1.53.64a3.16,3.16,0,0,0,0,.87q0,.58.09,1.17a6.47,6.47,0,0,0,.11.87,1.33,1.33,0,0,1,.06.59c-.09.2-.47.09-.63.09a2.62,2.62,0,0,0-.95.21,1,1,0,0,0-.57.53.94.94,0,0,0,0,.5,1.77,1.77,0,0,1,0,.51c-.44-.22-1.93-.69-2.12.08a1.17,1.17,0,0,0,.19.77,7.51,7.51,0,0,0,.69,1.07,9.65,9.65,0,0,0,1.87,1.8,1.22,1.22,0,0,0-.32,2,1.54,1.54,0,0,0,1.11.32,2.6,2.6,0,0,1,.46,0,.58.58,0,0,0,.21.07,6.19,6.19,0,0,0,1.7-.21,5.68,5.68,0,0,0,2.6-1.36.79.79,0,0,1,.6-.28c.22,0,.44.07.66.07a4.73,4.73,0,0,0,1.67-.46,6.53,6.53,0,0,0,.55,2.22c.25.54.76.62,1.27.67,1.62.15,3.25,0,4.87,0-1.57.36-3.19.5-4.75.92-.7.19-.17.67.13,1a5.7,5.7,0,0,1,1.12,1.92A3.39,3.39,0,0,1,517,202.6a2.37,2.37,0,0,1,1.41,3.43,4.33,4.33,0,0,1-2.13,1.36,7.84,7.84,0,0,1,1.07,2.24,1.59,1.59,0,0,0,.8.92c.14,0,.31,0,.42.17s.17.3.35.42a2,2,0,0,0,2.44-.18,1.6,1.6,0,0,0,0-2.09c.75-.32,2.13-.72,1.83-1.9,1.63-.11,5.6-2.76,3.41-4.69,1.2-.69,2.31-2.35,1.53-3.81a3.72,3.72,0,0,0-3.11-1.7"/><path class="cls-42" d="M534.48,304.19q-2.36,4.41-4.93,8.7l4.93,4.93Z"/><path class="cls-42" d="M527.25,316.62c-.89,1.42-1.79,2.82-2.72,4.21h6.94Z"/><path class="cls-1" d="M503.64,325.1a32.79,32.79,0,0,0,5.43,16.14,204.33,204.33,0,0,0,12.55-16.14Z"/><path class="cls-7" d="M503.64,325.1h-1.15a1.06,1.06,0,0,1-1.06-1.07V321.9a1.06,1.06,0,0,1,1.06-1.07h1.15a32.82,32.82,0,0,1,8.15-19.67l-.81-.81a1.06,1.06,0,0,1,0-1.51l1.51-1.51a1.08,1.08,0,0,1,1.51,0l.8.81A32.93,32.93,0,0,1,534.48,290v-2.21h4.27V290c.72,0,1.44.12,2.15.21-1.34-2.7-2.67-5.45-3.76-7.74h-.53A40.52,40.52,0,0,0,504,346.94q2.61-2.81,5.12-5.7A32.79,32.79,0,0,1,503.64,325.1Z"/><path class="cls-7" d="M529.55,312.89,514.8,298.14a33,33,0,0,0-3,3l15.46,15.46C528,315.39,528.8,314.14,529.55,312.89Z"/><path class="cls-7" d="M514.8,298.14l-.8-.81a1.08,1.08,0,0,0-1.51,0L511,298.84a1.06,1.06,0,0,0,0,1.51l.81.81A33,33,0,0,1,514.8,298.14Z"/><path class="cls-7" d="M524.53,320.83H503.64c-.05.71-.08,1.42-.08,2.14s0,1.42.08,2.13h18Q523.11,323,524.53,320.83Z"/><path class="cls-7" d="M503.64,320.83h-1.15a1.06,1.06,0,0,0-1.06,1.07V324a1.06,1.06,0,0,0,1.06,1.07h1.15c-.05-.71-.08-1.42-.08-2.13S503.59,321.54,503.64,320.83Z"/><path class="cls-39" d="M548.18,304c1.23,3.06-1.38,7.71-2.49,10.22,3.63,1.62,3.25-4.4,7.83-2.27,4.19,1.95,7.37,5.48,12.21,2.49.6-.36,1.25-1.74-.33-2.82-3.92-2.69-9.57-7.4-10.34-8.95a11.86,11.86,0,0,1-.51-1.44h-7.31C547.73,302.74,548.05,303.67,548.18,304Z"/><path class="cls-41" d="M554.55,301.22h.73c.05-1.85.07-3.68.05-5.49-.78-.54-1.59-1.05-2.43-1.52Q553.91,299,554.55,301.22Z"/><path class="cls-41" d="M555,286.86a112.75,112.75,0,0,0-4.11-23.43,202.43,202.43,0,0,1-6.65,19.74A40.28,40.28,0,0,1,555,286.86Z"/><path class="cls-41" d="M546.53,301.22h.71q-.87-2.67-2.49-7.82h6.64a32.8,32.8,0,0,0-10.13-3.16c0,.13-.1.25-.16.37C543.42,295.3,545.68,299.75,546.53,301.22Z"/><path class="cls-41" d="M540.35,230c4.3-7.76,2.74-12-1.85-13.44s-8.7,1.49-16,1.49a7.24,7.24,0,0,0-1.09.08l-7.81,2.16c-10.56,35.82-15.23,46-10.49,57.93h32.1c.42,1,1.11,2.46,1.95,4.24a41.36,41.36,0,0,1,7.09.71,202.43,202.43,0,0,0,6.65-19.74,96.18,96.18,0,0,0-14.59-30A6.73,6.73,0,0,0,540.35,230Z"/><path class="cls-41" d="M541.26,290.24l-.36,0c.06.14.13.27.2.41C541.16,290.49,541.21,290.37,541.26,290.24Z"/><path class="cls-41" d="M541.26,290.24a32.8,32.8,0,0,1,10.13,3.16h1.34c.06.28.12.54.17.81.84.47,1.65,1,2.43,1.52q0-4.51-.34-8.87a40.28,40.28,0,0,0-10.76-3.69C543.29,285.55,542.29,287.91,541.26,290.24Z"/><path class="cls-41" d="M544.23,283.17a41.36,41.36,0,0,0-7.09-.71c1.09,2.29,2.42,5,3.76,7.74l.36,0C542.29,287.91,543.29,285.55,544.23,283.17Z"/><path class="cls-41" d="M547.24,301.22h7.31q-.64-2.18-1.65-7c-.49-.28-1-.55-1.51-.81h-6.64Q546.37,298.54,547.24,301.22Z"/><path class="cls-41" d="M552.73,293.4h-1.34c.51.26,1,.53,1.51.81C552.85,293.94,552.79,293.68,552.73,293.4Z"/><path class="cls-7" d="M538.75,295.75V290c-.71-.05-1.42-.08-2.14-.08s-1.42,0-2.13.08v14.2Q536.72,300,538.75,295.75Z"/><path class="cls-7" d="M538.75,290v-2.21h-4.27V290c.71-.05,1.42-.08,2.13-.08S538,289.94,538.75,290Z"/><line class="cls-45" x1="92.28" y1="377.11" x2="149.05" y2="349.17"/><line class="cls-45" x1="142.73" y1="479.61" x2="199.5" y2="451.66"/><line class="cls-45" x1="155.86" y1="506.29" x2="212.63" y2="478.34"/></g></svg>