<svg width="534" height="570" viewBox="0 0 534 570" fill="none" xmlns="http://www.w3.org/2000/svg">
<path d="M266.87 548.287C414.258 548.287 533.74 428.805 533.74 281.417C533.74 134.029 414.258 14.5469 266.87 14.5469C119.482 14.5469 0 134.029 0 281.417C0 428.805 119.482 548.287 266.87 548.287Z" fill="#C5CFD7"/>
<path d="M269.714 8.27548L62.2967 93.9363C51.2298 98.5068 45.9634 111.183 50.5339 122.25L226.837 549.147C231.407 560.214 244.084 565.481 255.151 560.91L462.569 475.249C473.635 470.679 478.902 458.002 474.331 446.935L298.028 20.0383C293.458 8.97137 280.781 3.705 269.714 8.27548Z" fill="#333333"/>
<path d="M276.889 31.4993L72.2764 118.395L237.952 508.512L442.565 421.617L276.889 31.4993Z" fill="#FADD4B"/>
<path d="M349.3 508.137C357.999 508.137 365.05 501.085 365.05 492.387C365.05 483.688 357.999 476.637 349.3 476.637C340.602 476.637 333.55 483.688 333.55 492.387C333.55 501.085 340.602 508.137 349.3 508.137Z" fill="#565353"/>
<path d="M271.893 47.4151L86.3013 126.194L242.269 493.632L427.862 414.853L271.893 47.4151Z" fill="white"/>
<path d="M340.449 247.167L183.432 313.979C180.8 315.099 179.574 318.141 180.694 320.773L196.997 359.089C198.117 361.721 201.159 362.947 203.792 361.827L360.808 295.016C363.441 293.896 364.667 290.854 363.547 288.221L347.243 249.906C346.123 247.273 343.081 246.047 340.449 247.167Z" fill="#066F6C"/>
<path d="M301.73 158.587L146.443 224.662C143.333 225.986 141.885 229.58 143.208 232.69L166.873 288.305C168.196 291.415 171.79 292.863 174.9 291.54L330.187 225.465C333.297 224.141 334.746 220.547 333.422 217.437L309.758 161.822C308.434 158.712 304.84 157.264 301.73 158.587Z" fill="#C5CFD7"/>
<path d="M365.244 305.435L208.227 372.246C205.594 373.366 204.368 376.408 205.489 379.041L221.792 417.356C222.912 419.989 225.954 421.215 228.587 420.095L385.603 353.283C388.236 352.163 389.462 349.121 388.342 346.489L372.038 308.173C370.918 305.541 367.876 304.315 365.244 305.435Z" fill="#2158A5"/>
<path d="M390.033 363.716L233.016 430.528C230.384 431.648 229.158 434.69 230.278 437.322L246.582 475.638C247.702 478.27 250.744 479.496 253.376 478.376L410.393 411.565C413.025 410.444 414.251 407.402 413.131 404.77L396.828 366.454C395.708 363.822 392.666 362.596 390.033 363.716Z" fill="#913B8E"/>
<path d="M305.59 250.217L311.51 201.647L266.49 220.807L305.59 250.217Z" fill="#C5CFD7"/>
<path d="M196.18 155.097C210.54 155.097 222.18 143.456 222.18 129.097C222.18 114.737 210.54 103.097 196.18 103.097C181.821 103.097 170.18 114.737 170.18 129.097C170.18 143.456 181.821 155.097 196.18 155.097Z" fill="#333333"/>
<path d="M190.15 136.737C191.077 138.761 192.758 140.344 194.835 141.148C196.911 141.953 199.22 141.915 201.269 141.044C203.318 140.172 204.947 138.535 205.808 136.482C206.669 134.428 206.695 132.119 205.88 130.047L190.15 136.737Z" fill="white"/>
<path d="M185.02 129.547C187.047 129.547 188.69 127.904 188.69 125.877C188.69 123.85 187.047 122.207 185.02 122.207C182.993 122.207 181.35 123.85 181.35 125.877C181.35 127.904 182.993 129.547 185.02 129.547Z" fill="white"/>
<path d="M201.6 122.496C203.627 122.496 205.27 120.853 205.27 118.826C205.27 116.799 203.627 115.156 201.6 115.156C199.573 115.156 197.93 116.799 197.93 118.826C197.93 120.853 199.573 122.496 201.6 122.496Z" fill="white"/>
<path d="M156.9 194.097C156.122 192.552 155.903 190.785 156.28 189.097C156.501 188.379 156.888 187.724 157.409 187.184C157.931 186.644 158.571 186.234 159.28 185.987C160.021 185.649 160.826 185.478 161.64 185.487C162.362 185.513 163.068 185.708 163.7 186.057C164.366 186.448 164.95 186.964 165.42 187.577C165.965 188.298 166.419 189.084 166.77 189.917C167.545 191.463 167.76 193.23 167.38 194.917C167.159 195.634 166.772 196.289 166.251 196.829C165.73 197.369 165.089 197.78 164.38 198.027C163.637 198.368 162.828 198.539 162.01 198.527C161.29 198.512 160.585 198.316 159.96 197.957C159.295 197.569 158.713 197.052 158.25 196.437C157.697 195.72 157.243 194.933 156.9 194.097V194.097ZM159.28 193.097C159.507 193.644 159.788 194.166 160.12 194.657C160.395 195.063 160.733 195.424 161.12 195.727C161.448 195.985 161.837 196.153 162.25 196.217C162.857 196.275 163.465 196.113 163.962 195.761C164.46 195.408 164.814 194.889 164.96 194.297C165.08 193.145 164.858 191.983 164.32 190.957C164.099 190.425 163.828 189.916 163.51 189.437C163.23 189.028 162.893 188.661 162.51 188.347C162.179 188.082 161.787 187.903 161.37 187.827C160.923 187.769 160.469 187.838 160.06 188.027C159.686 188.17 159.355 188.407 159.099 188.715C158.844 189.023 158.672 189.393 158.6 189.787C158.513 190.925 158.748 192.066 159.28 193.077V193.097Z" fill="#333333"/>
<path d="M175.85 192.877L173.85 188.177C173.677 187.657 173.362 187.196 172.94 186.847C172.763 186.742 172.561 186.687 172.355 186.687C172.149 186.687 171.947 186.742 171.77 186.847C171.39 186.994 171.077 187.275 170.89 187.637C170.705 187.99 170.625 188.389 170.66 188.787L172.94 194.147L170.79 195.067L167.26 186.787L168.97 186.057L169.68 187.057H169.75C169.866 186.567 170.077 186.105 170.37 185.697C170.741 185.206 171.244 184.831 171.82 184.617C172.178 184.444 172.564 184.336 172.96 184.297C173.322 184.267 173.685 184.336 174.01 184.497C174.382 184.691 174.701 184.972 174.94 185.317C175.291 185.795 175.58 186.316 175.8 186.867L177.99 192.017L175.85 192.877Z" fill="#333333"/>
<path d="M180.84 187.466C180.939 187.767 181.114 188.036 181.35 188.246C181.431 188.314 181.531 188.356 181.636 188.367C181.741 188.377 181.847 188.356 181.94 188.306C182.071 188.253 182.199 188.19 182.32 188.116C182.463 188.008 182.6 187.891 182.73 187.766L183.68 189.356C183.464 189.579 183.23 189.783 182.98 189.966C182.645 190.206 182.287 190.411 181.91 190.576C181.406 190.832 180.826 190.893 180.28 190.746C180.018 190.632 179.783 190.464 179.592 190.252C179.4 190.039 179.256 189.789 179.17 189.516L174.96 179.576L177.11 178.656L180.84 187.466Z" fill="#333333"/>
<path d="M180.04 178.556C179.966 178.4 179.928 178.229 179.928 178.056C179.928 177.883 179.966 177.713 180.04 177.556C180.123 177.381 180.24 177.223 180.384 177.093C180.528 176.962 180.697 176.862 180.88 176.796C181.241 176.621 181.656 176.589 182.04 176.706C182.205 176.751 182.357 176.833 182.485 176.946C182.613 177.058 182.714 177.199 182.78 177.356C182.853 177.515 182.887 177.688 182.878 177.863C182.869 178.037 182.818 178.206 182.73 178.356C182.539 178.709 182.226 178.979 181.85 179.116C181.501 179.286 181.101 179.319 180.73 179.206C180.575 179.154 180.433 179.069 180.314 178.957C180.194 178.845 180.101 178.708 180.04 178.556V178.556ZM181.35 180.756L183.5 179.846L187.03 188.126L184.87 189.036L181.35 180.756Z" fill="#333333"/>
<path d="M194.2 185.077L192.2 180.367C192.024 179.849 191.709 179.389 191.29 179.037C191.111 178.932 190.907 178.877 190.7 178.877C190.493 178.877 190.289 178.932 190.11 179.037C189.727 179.185 189.414 179.47 189.23 179.837C189.048 180.188 188.968 180.583 189 180.977L191.28 186.347L189.13 187.257L185.61 178.977L187.31 178.247L188.03 179.247H188.09C188.208 178.761 188.419 178.303 188.71 177.897C189.076 177.399 189.58 177.02 190.16 176.807C190.53 176.642 190.926 176.54 191.33 176.507C191.675 176.486 192.019 176.555 192.33 176.707C192.703 176.903 193.025 177.184 193.27 177.527C193.613 178.008 193.898 178.528 194.12 179.077L196.31 184.227L194.2 185.077Z" fill="#333333"/>
<path d="M204.48 179.857C204.203 180.336 203.84 180.759 203.41 181.107C202.901 181.525 202.331 181.863 201.72 182.107C201.194 182.388 200.61 182.541 200.014 182.555C199.419 182.569 198.828 182.443 198.29 182.187C197.229 181.538 196.422 180.547 196 179.377C195.407 178.229 195.281 176.896 195.65 175.657C195.871 175.115 196.204 174.626 196.628 174.223C197.052 173.819 197.557 173.511 198.11 173.317C198.525 173.138 198.962 173.017 199.41 172.957C199.842 172.896 200.282 172.93 200.7 173.057C201.144 173.191 201.549 173.431 201.88 173.757C202.311 174.181 202.651 174.688 202.88 175.247C202.987 175.498 203.077 175.755 203.15 176.017C203.246 176.305 203.322 176.599 203.38 176.897L198.38 179.007C198.61 179.584 199.039 180.059 199.59 180.347C199.884 180.453 200.198 180.495 200.51 180.471C200.822 180.446 201.125 180.357 201.4 180.207C201.818 180.039 202.201 179.795 202.53 179.487C202.776 179.259 202.991 179.001 203.17 178.717L204.48 179.857ZM198.81 175.087C198.579 175.168 198.369 175.3 198.196 175.473C198.023 175.646 197.891 175.856 197.81 176.087C197.684 176.604 197.712 177.146 197.89 177.647L200.97 176.337C200.842 175.828 200.537 175.382 200.11 175.077C199.911 174.966 199.686 174.909 199.459 174.911C199.231 174.913 199.007 174.973 198.81 175.087V175.087Z" fill="#333333"/>
<path d="M214.77 173.297L211.21 174.817L211.42 177.757L209.15 178.757L208.36 165.297L210.03 164.587L219.18 174.487L216.79 175.487L214.77 173.297ZM211.01 172.747L213.5 171.687L211.5 169.467L210.37 167.797H210.29L210.73 169.797L211.01 172.747Z" fill="#333333"/>
<path d="M222.58 170.296C222.535 170.191 222.466 170.099 222.377 170.027C222.288 169.955 222.182 169.907 222.07 169.886C221.79 169.835 221.505 169.812 221.22 169.816H220.16C219.788 169.847 219.413 169.817 219.05 169.726C218.689 169.631 218.35 169.468 218.05 169.246C217.591 168.851 217.262 168.327 217.107 167.741C216.951 167.156 216.977 166.537 217.18 165.966C217.582 165.247 218.233 164.699 219.01 164.426C219.581 164.172 220.183 163.994 220.8 163.896C221.259 163.815 221.726 163.795 222.19 163.836L222.37 165.596C222.07 165.596 221.71 165.596 221.27 165.686C220.843 165.743 220.426 165.857 220.03 166.026C219.39 166.296 219.17 166.686 219.38 167.176C219.423 167.274 219.491 167.358 219.577 167.422C219.663 167.485 219.764 167.524 219.87 167.536C220.148 167.58 220.429 167.597 220.71 167.586L221.76 167.536C222.135 167.517 222.511 167.544 222.88 167.616C223.241 167.701 223.581 167.858 223.88 168.076C224.234 168.356 224.507 168.725 224.67 169.146C224.84 169.509 224.929 169.905 224.929 170.306C224.929 170.707 224.84 171.103 224.67 171.466C224.213 172.291 223.464 172.915 222.57 173.216C222.012 173.458 221.423 173.62 220.82 173.696C220.332 173.761 219.838 173.761 219.35 173.696L219.26 171.836C219.656 171.871 220.054 171.871 220.45 171.836C220.925 171.799 221.392 171.684 221.83 171.496C222.103 171.39 222.345 171.214 222.53 170.986C222.594 170.884 222.632 170.768 222.641 170.647C222.649 170.527 222.628 170.407 222.58 170.296V170.296Z" fill="#333333"/>
<path d="M229.56 167.296C229.519 167.191 229.451 167.098 229.364 167.026C229.276 166.954 229.172 166.906 229.06 166.886C228.781 166.83 228.495 166.807 228.21 166.816C227.88 166.816 227.53 166.816 227.15 166.816C226.778 166.837 226.404 166.807 226.04 166.726C225.677 166.632 225.337 166.465 225.04 166.236C224.68 165.952 224.403 165.575 224.24 165.146C224.07 164.808 223.975 164.437 223.963 164.059C223.951 163.681 224.022 163.304 224.17 162.956C224.575 162.273 225.209 161.755 225.96 161.496C226.533 161.247 227.134 161.069 227.75 160.966C228.208 160.904 228.672 160.904 229.13 160.966L229.32 162.726C229.02 162.726 228.66 162.726 228.22 162.816C227.793 162.873 227.376 162.987 226.98 163.156C226.33 163.426 226.12 163.806 226.33 164.306C226.373 164.404 226.441 164.488 226.527 164.552C226.613 164.615 226.714 164.654 226.82 164.666C227.099 164.698 227.381 164.698 227.66 164.666H228.66C229.035 164.642 229.412 164.669 229.78 164.746C230.141 164.831 230.481 164.988 230.78 165.206C231.137 165.484 231.41 165.854 231.57 166.276C231.741 166.639 231.829 167.035 231.829 167.436C231.829 167.837 231.741 168.233 231.57 168.596C231.11 169.419 230.362 170.042 229.47 170.346C228.912 170.585 228.323 170.743 227.72 170.816C227.232 170.881 226.738 170.881 226.25 170.816L226.16 168.946C226.556 168.987 226.955 168.987 227.35 168.946C227.826 168.906 228.292 168.787 228.73 168.596C229.008 168.497 229.25 168.32 229.43 168.086C229.53 167.984 229.596 167.853 229.619 167.712C229.643 167.57 229.622 167.425 229.56 167.296V167.296Z" fill="#333333"/>
<path d="M229.46 157.527C229.389 157.37 229.352 157.199 229.352 157.027C229.352 156.854 229.389 156.684 229.46 156.527C229.543 156.351 229.66 156.193 229.805 156.063C229.949 155.933 230.117 155.832 230.3 155.767C230.665 155.59 231.083 155.558 231.47 155.677C231.632 155.724 231.781 155.807 231.907 155.919C232.032 156.03 232.132 156.169 232.198 156.324C232.264 156.479 232.295 156.646 232.288 156.814C232.282 156.983 232.238 157.147 232.16 157.297C231.967 157.647 231.655 157.917 231.28 158.057C230.928 158.227 230.525 158.259 230.15 158.147C229.998 158.098 229.858 158.018 229.739 157.911C229.62 157.804 229.525 157.673 229.46 157.527V157.527ZM230.77 159.727L232.93 158.817L236.45 167.097L234.3 168.007L230.77 159.727Z" fill="#333333"/>
<path d="M241.01 162.457C240.968 162.35 240.899 162.256 240.81 162.184C240.72 162.112 240.614 162.065 240.5 162.047C240.221 161.991 239.935 161.967 239.65 161.977C239.33 161.977 238.98 161.977 238.6 161.977C238.225 161.998 237.848 161.967 237.48 161.887C237.119 161.787 236.78 161.621 236.48 161.397C236.123 161.11 235.847 160.734 235.68 160.307C235.511 159.969 235.418 159.597 235.407 159.219C235.397 158.84 235.47 158.464 235.62 158.117C236.02 157.396 236.671 156.848 237.45 156.577C238.021 156.325 238.623 156.15 239.24 156.057C239.695 155.971 240.16 155.95 240.62 155.997L240.8 157.757C240.5 157.757 240.14 157.757 239.71 157.847C239.28 157.904 238.86 158.018 238.46 158.187C237.82 158.457 237.6 158.837 237.82 159.337C237.86 159.435 237.925 159.52 238.01 159.584C238.095 159.647 238.195 159.686 238.3 159.697C238.579 159.729 238.861 159.729 239.14 159.697H240.2C240.572 159.673 240.946 159.7 241.31 159.777C241.671 159.861 242.011 160.018 242.31 160.237C242.667 160.514 242.94 160.885 243.1 161.307C243.271 161.67 243.359 162.066 243.359 162.467C243.359 162.868 243.271 163.264 243.1 163.627C242.64 164.449 241.892 165.073 241 165.377C240.447 165.62 239.861 165.779 239.26 165.847C238.772 165.911 238.278 165.911 237.79 165.847L237.7 163.987C238.096 164.022 238.494 164.022 238.89 163.987C239.366 163.946 239.832 163.828 240.27 163.637C240.546 163.54 240.787 163.363 240.96 163.127C241.022 163.028 241.059 162.915 241.068 162.798C241.077 162.681 241.057 162.564 241.01 162.457V162.457Z" fill="#333333"/>
<path d="M241.16 155.297L242.3 154.817L241.64 153.257L243.53 151.727L244.45 153.897L246.45 153.037L247.23 154.857L245.23 155.717L246.58 158.897C246.735 159.325 246.973 159.719 247.28 160.057C247.389 160.153 247.525 160.215 247.67 160.232C247.814 160.25 247.961 160.224 248.09 160.157C248.285 160.075 248.469 159.971 248.64 159.847C248.8 159.714 248.951 159.57 249.09 159.417L250.18 160.917C249.911 161.213 249.613 161.481 249.29 161.717C248.934 161.984 248.548 162.208 248.14 162.387C247.845 162.541 247.52 162.632 247.188 162.652C246.855 162.673 246.522 162.623 246.21 162.507C245.56 162.13 245.075 161.524 244.85 160.807L243.08 156.637L241.93 157.127L241.16 155.297Z" fill="#333333"/>
<path d="M247.96 152.986C248.373 152.552 248.836 152.17 249.34 151.846C249.917 151.456 250.53 151.121 251.17 150.846C251.653 150.625 252.171 150.49 252.7 150.446C253.083 150.408 253.469 150.471 253.82 150.629C254.171 150.787 254.474 151.034 254.7 151.346C254.964 151.694 255.183 152.073 255.35 152.476C255.56 152.966 255.75 153.476 255.93 153.966C256.11 154.456 256.29 154.966 256.49 155.436C256.69 155.906 256.89 156.376 257.11 156.806C257.328 157.222 257.593 157.611 257.9 157.966L256.15 158.716L255.31 157.716H255.23C255.141 158.176 254.957 158.612 254.69 158.996C254.339 159.451 253.868 159.797 253.33 159.996C252.978 160.158 252.597 160.25 252.21 160.266C251.87 160.289 251.529 160.238 251.21 160.116C250.883 159.984 250.586 159.787 250.339 159.536C250.091 159.284 249.897 158.985 249.77 158.656C249.559 158.215 249.485 157.72 249.56 157.236C249.651 156.769 249.865 156.333 250.18 155.976C250.558 155.537 251.008 155.165 251.51 154.876C252.133 154.515 252.785 154.207 253.46 153.956C253.366 153.47 253.121 153.025 252.76 152.686C252.559 152.588 252.336 152.542 252.112 152.552C251.888 152.562 251.671 152.629 251.48 152.746C251.022 152.946 250.584 153.187 250.17 153.466C249.803 153.707 249.467 153.993 249.17 154.316L247.96 152.986ZM253.32 157.986C253.693 157.85 254.01 157.593 254.22 157.256C254.377 156.993 254.479 156.7 254.52 156.396L254.06 155.316C253.717 155.428 253.383 155.565 253.06 155.726C252.784 155.861 252.525 156.029 252.29 156.226C252.099 156.382 251.948 156.581 251.85 156.806C251.806 156.907 251.783 157.016 251.783 157.126C251.783 157.236 251.806 157.345 251.85 157.446C251.898 157.582 251.974 157.706 252.074 157.81C252.174 157.913 252.296 157.994 252.43 158.046C252.573 158.095 252.725 158.115 252.876 158.105C253.027 158.095 253.175 158.054 253.31 157.986H253.32Z" fill="#333333"/>
<path d="M264.61 155.117L262.61 150.407C262.431 149.891 262.117 149.431 261.7 149.077C261.521 148.974 261.317 148.92 261.11 148.92C260.903 148.92 260.7 148.974 260.52 149.077C260.14 149.228 259.827 149.513 259.64 149.877C259.46 150.229 259.381 150.623 259.41 151.017L261.69 156.387L259.54 157.297L256.01 149.017L257.72 148.297L258.43 149.297H258.5C258.612 148.806 258.823 148.343 259.12 147.937C259.49 147.443 259.993 147.064 260.57 146.847C260.939 146.688 261.33 146.587 261.73 146.547C262.092 146.522 262.453 146.591 262.78 146.747C263.153 146.948 263.475 147.232 263.72 147.577C264.064 148.055 264.349 148.572 264.57 149.117L266.76 154.267L264.61 155.117Z" fill="#333333"/>
<path d="M264.18 145.516L265.32 145.026L264.66 143.476L266.55 141.946L267.48 144.116L269.48 143.256L270.25 145.076L268.25 145.936L269.6 149.116C269.758 149.544 269.996 149.937 270.3 150.276C270.411 150.374 270.549 150.434 270.696 150.45C270.843 150.466 270.991 150.437 271.12 150.366C271.315 150.292 271.497 150.187 271.66 150.056C271.82 149.928 271.971 149.787 272.11 149.636L273.2 151.126C272.931 151.425 272.633 151.697 272.31 151.936C271.96 152.204 271.577 152.426 271.17 152.596C270.875 152.755 270.549 152.848 270.214 152.87C269.88 152.893 269.544 152.844 269.23 152.726C268.589 152.34 268.106 151.737 267.87 151.026L266.1 146.846L264.96 147.296L264.18 145.516Z" fill="#333333"/>
<path d="M200.2 335.437L200.36 335.807L205.36 347.507C205.468 347.83 205.684 348.106 205.972 348.288C206.26 348.47 206.602 348.548 206.94 348.507C207.11 348.476 207.278 348.429 207.44 348.367L212.65 346.147C212.973 346.043 213.25 345.829 213.432 345.542C213.615 345.256 213.692 344.914 213.65 344.577C213.604 344.353 213.534 344.135 213.44 343.927C212.52 341.747 211.593 339.567 210.66 337.387C210.37 336.717 210.46 336.497 211.13 336.217L215.03 334.557C215.62 334.307 215.88 334.407 216.12 334.987C217.08 337.227 218.033 339.467 218.98 341.707C219.043 341.914 219.151 342.104 219.296 342.264C219.442 342.424 219.621 342.55 219.821 342.632C220.021 342.715 220.237 342.751 220.453 342.74C220.669 342.729 220.88 342.67 221.07 342.567C222.8 341.847 224.53 341.107 226.25 340.367C226.456 340.304 226.646 340.195 226.805 340.049C226.964 339.902 227.087 339.722 227.167 339.522C227.247 339.321 227.28 339.105 227.265 338.889C227.25 338.674 227.187 338.465 227.08 338.277C225.42 334.37 223.753 330.46 222.08 326.547L221.92 326.177L223.58 325.467C223.813 325.383 224.038 325.276 224.25 325.147C224.464 325.006 224.637 324.81 224.75 324.579C224.863 324.349 224.912 324.092 224.893 323.836C224.874 323.58 224.786 323.334 224.64 323.123C224.493 322.912 224.293 322.745 224.06 322.637L223.84 322.537C217.84 320.11 211.813 317.68 205.76 315.247C205.501 315.105 205.206 315.043 204.912 315.07C204.618 315.096 204.339 315.21 204.11 315.397C203.873 315.611 203.686 315.874 203.56 316.167C201.127 322.167 198.7 328.194 196.28 334.247C196.132 334.527 196.078 334.846 196.125 335.159C196.172 335.472 196.318 335.761 196.542 335.985C196.766 336.209 197.055 336.355 197.368 336.402C197.681 336.449 198 336.395 198.28 336.247L200.2 335.437Z" fill="white"/>
<path d="M233.42 314.447L341.38 268.507" stroke="white" stroke-width="3" stroke-miterlimit="10"/>
<path d="M238.37 326.097L346.34 280.167" stroke="white" stroke-width="3" stroke-miterlimit="10"/>
<path d="M167.59 261.906L312.37 200.316" stroke="#333333" stroke-width="3" stroke-miterlimit="10"/>
<path d="M173.25 275.206L318.02 213.606" stroke="#333333" stroke-width="3" stroke-miterlimit="10"/>
<path d="M156.28 235.327L301.06 173.727" stroke="#333333" stroke-width="3" stroke-miterlimit="10"/>
<path d="M161.94 248.616L306.71 187.026" stroke="#333333" stroke-width="3" stroke-miterlimit="10"/>
<path d="M258.21 372.727L366.18 326.787" stroke="white" stroke-width="3" stroke-miterlimit="10"/>
<path d="M263.17 384.376L371.14 338.437" stroke="white" stroke-width="3" stroke-miterlimit="10"/>
<path d="M283.01 430.996L390.97 385.066" stroke="white" stroke-width="3" stroke-miterlimit="10"/>
<path d="M287.97 442.657L395.93 396.717" stroke="white" stroke-width="3" stroke-miterlimit="10"/>
<path d="M234.689 372.493L225.23 376.518L237.105 404.426L246.565 400.401L234.689 372.493Z" fill="white"/>
<path d="M219.916 389.668L223.941 399.127L251.849 387.252L247.824 377.792L219.916 389.668Z" fill="white"/>
<path d="M257.03 442.407L261.03 433.947L260.83 433.847C258.463 432.732 255.774 432.506 253.255 433.212C250.735 433.917 248.554 435.505 247.11 437.687L257.03 442.407Z" fill="white"/>
<path d="M255.86 444.847L245.96 440.097C244.972 442.646 244.982 445.474 245.986 448.017C246.991 450.56 248.917 452.63 251.38 453.817L251.58 453.917L255.86 444.847Z" fill="white"/>
<path d="M253.96 455.086L264.76 460.236C267.355 461.462 270.33 461.612 273.035 460.653C275.741 459.694 277.957 457.703 279.2 455.116L279.4 454.716C280.618 452.125 280.766 449.158 279.811 446.459C278.857 443.76 276.876 441.545 274.3 440.296L263.51 435.146L253.96 455.086Z" fill="white"/>
</svg>
