<svg width="550" height="550" viewBox="0 0 550 550" fill="none" xmlns="http://www.w3.org/2000/svg">
<path d="M274.77 549.54C426.521 549.54 549.54 426.521 549.54 274.77C549.54 123.019 426.521 0 274.77 0C123.019 0 0 123.019 0 274.77C0 426.521 123.019 549.54 274.77 549.54Z" fill="#C5CFD7"/>
<path d="M44.2744 424.682C71.5492 462.568 102.889 493.313 143.5 514.486C184.111 535.659 233.107 548 278.5 548C323.893 548 368.438 535.659 409.049 514.486C449.66 493.313 478.725 462.568 506 424.682H44.2744Z" fill="#7E7B7B"/>
<path d="M538 291H445.669V432.024L501.5 430.731C511 420.231 535 370.731 538 353.231V291Z" fill="#9A7759"/>
<path d="M493.396 290.238H390.821V431.263H493.396V290.238Z" fill="#B18B67"/>
<path d="M506.891 169H426.719V291.439H506.891V169Z" fill="#9A7759"/>
<path d="M468.159 169H379.103V291.439H468.159V169Z" fill="#B18B67"/>
<path d="M149.168 158.694C150.607 174.632 153.047 190.514 157.466 205.409C161.886 220.304 168.336 234.267 172.154 249.594C172.776 252.111 173.338 254.851 172.756 257.396C171.735 261.568 168.224 263.459 165.111 264.725L144.697 273L124.651 157.205C122.896 147.053 124.304 132.992 133.664 131.184C145.187 128.959 148.147 147.401 149.168 158.694Z" fill="#EAC219"/>
<path d="M107.187 104.186C101.783 97.8416 98.1318 90.0654 98.7163 81.3574C100.478 56.2583 135.412 61.7813 142.214 74.4452C149.016 87.1091 148.194 119.247 139.419 121.509C135.912 122.415 128.449 120.205 120.859 115.58L125.62 149.31H97.5135L107.187 104.186Z" fill="#B18B67"/>
<path d="M86.5008 73.0056C85.6474 72.0257 85.0224 70.8683 84.6711 69.6172C84.2022 68.3542 83.809 67.0644 83.4937 65.7545C82.9007 63.1116 82.9007 60.0791 84.7813 58.0291C86.3502 56.4812 88.4407 55.5749 90.6431 55.4879C92.051 55.3943 93.4636 55.5756 94.8022 56.0216C96.1237 56.4536 97.2673 57.3176 98.5464 57.8597C98.4709 54.9711 99.142 52.1118 100.495 49.5583C101.137 48.4657 102.023 47.5363 103.084 46.8428C104.145 46.1492 105.352 45.7102 106.611 45.5601C109.195 45.25 111.812 45.7785 114.073 47.0679C114.649 47.3813 115.225 47.7032 115.768 48.0759C116.203 48.4461 116.702 48.7333 117.241 48.923C117.843 49.067 118.148 48.7197 118.538 48.2792C118.995 47.7716 119.503 47.3118 120.054 46.907C121.225 45.9915 122.605 45.3807 124.07 45.1294C125.535 44.8781 127.039 44.994 128.448 45.4669C129.783 45.9654 130.955 46.8211 131.837 47.9404C132.616 48.9654 133.175 50.5918 134.251 51.3287C134.708 51.6337 135.03 51.2271 135.445 50.9306C136.072 50.4901 136.665 49.9988 137.3 49.5583C138.173 48.9532 139.149 48.5139 140.18 48.2623C141.688 47.9065 143.781 47.9912 144.213 49.9564C144.318 50.7151 144.318 51.4849 144.213 52.2436C144.136 53.2685 144.06 54.2935 143.975 55.3185C143.915 56.0882 143.816 56.8543 143.679 57.6141C143.499 58.1186 143.446 58.6599 143.526 59.1897C143.747 59.6979 144.755 59.4099 145.221 59.4268C146.079 59.4449 146.925 59.632 147.711 59.9774C148.364 60.2276 148.893 60.7231 149.185 61.3582C149.298 61.7856 149.298 62.2353 149.185 62.6627C149.137 63.1132 149.166 63.5686 149.27 64.0096C150.413 63.4505 154.352 62.1968 154.869 64.2467C154.93 64.9582 154.755 65.6701 154.369 66.2713C153.859 67.2626 153.258 68.2041 152.573 69.0836C151.158 70.8876 149.506 72.4919 147.66 73.8527C148.161 74.0671 148.6 74.4052 148.934 74.8354C149.269 75.2655 149.489 75.7737 149.574 76.3121C149.658 76.8505 149.605 77.4016 149.419 77.9138C149.232 78.4259 148.918 78.8823 148.507 79.2401C147.681 79.8988 146.627 80.2033 145.576 80.0872C145.176 80.0186 144.771 79.9846 144.365 79.9855C144.189 80.068 144.004 80.1305 143.814 80.1719C142.299 80.1936 140.788 80.0026 139.325 79.6044C136.765 79.0346 134.401 77.7985 132.472 76.0212C132.274 75.7932 132.029 75.6103 131.755 75.4846C131.48 75.359 131.182 75.2935 130.88 75.2927C130.295 75.2927 129.719 75.4621 129.126 75.4706C127.567 75.4706 126.161 74.7506 124.713 74.2423C124.595 76.2705 124.107 78.2601 123.273 80.1126C122.62 81.5442 121.257 81.7559 119.884 81.8745C115.607 82.2811 111.312 81.8745 107.026 81.8745C111.176 82.8063 115.496 83.196 119.571 84.2972C121.426 84.797 120.011 86.0507 119.215 86.9147C117.908 88.4002 116.904 90.1267 116.259 91.9972C114.234 89.3458 110.643 87.6093 107.466 88.4225C103.959 89.2696 101.486 94.0641 103.73 97.4778C105.035 99.46 107.39 100.222 109.347 101.069C107.822 102.662 107.449 105.008 106.526 106.999C106.077 107.973 105.442 109.074 104.425 109.413C104.052 109.54 103.578 109.549 103.315 109.862C103.053 110.176 102.858 110.658 102.392 110.989C101.418 111.644 100.252 111.951 99.082 111.86C97.9121 111.769 96.807 111.286 95.9458 110.489C94.4465 108.956 94.8361 106.533 96.0898 104.974C94.0992 104.127 90.4736 103.077 91.2614 99.9767C86.9498 99.6887 76.4714 92.6918 82.2654 87.5754C79.0889 85.7796 76.1664 81.3917 78.2079 77.5205C79.7835 74.5473 83.4344 73.2089 86.4331 73.0564" fill="#333333"/>
<path d="M240.527 273.511C250.192 267.708 266.397 275.162 266.388 283.464C266.388 308.283 243.695 425.266 242.517 432.661C241.34 440.056 228.659 441.978 227.922 432.661C226.753 417.828 224.534 366.461 226.753 342.692C227.651 332.874 228.625 323.531 229.582 315.196C217.689 336.655 199.305 367.387 174.429 407.392L160.926 401.225C171.532 366.275 180.229 341.605 187.017 327.216C198.638 302.566 209.532 281.473 214.123 274.019C221.332 262.355 233.894 266.412 240.527 273.511Z" fill="#B18B67"/>
<path d="M161.891 381.843L208.244 272.027C219.349 254.162 250.488 275.661 246.701 286.021C238.103 309.544 194.377 385.697 191.81 392.753L161.891 381.843Z" fill="#224D82"/>
<path d="M159.35 394.321C156.464 396.704 154.583 398.646 153.708 400.149C152.231 402.901 150.979 405.767 149.964 408.721L207.252 441.757C211.578 437.703 212.25 434.551 209.268 432.304C206.287 430.056 203.827 428.162 201.89 426.62L182.119 399.403C182.029 399.279 181.915 399.174 181.783 399.094C181.652 399.014 181.506 398.961 181.355 398.937C181.203 398.913 181.048 398.92 180.898 398.956C180.749 398.993 180.608 399.058 180.484 399.149L176.376 402.309C172.609 401.987 169.786 401.286 167.905 400.208C166.397 399.344 164.667 397.534 162.713 394.778C162.353 394.271 161.807 393.926 161.193 393.822C160.58 393.717 159.951 393.86 159.443 394.219L159.35 394.321Z" fill="white"/>
<path d="M199.06 307H84.8398V481.44H199.06V307Z" fill="#9A7759"/>
<path d="M143.88 307H17V481.44H143.88V307Z" fill="#B18B67"/>
<path d="M224.957 426.73C223.647 430.237 222.992 432.858 222.992 434.591C223.096 437.701 223.45 440.797 224.05 443.85H290.199C291.893 438.174 290.899 435.108 287.217 434.651C283.535 434.193 280.461 433.784 277.993 433.422L247.244 419.733C247.103 419.67 246.951 419.635 246.797 419.63C246.643 419.626 246.489 419.652 246.345 419.707C246.201 419.762 246.069 419.845 245.957 419.952C245.845 420.058 245.756 420.185 245.693 420.326V420.326L243.711 425.121C240.289 426.713 237.505 427.512 235.359 427.518C233.614 427.518 231.208 426.815 228.142 425.409C227.862 425.28 227.56 425.207 227.252 425.195C226.944 425.183 226.637 425.231 226.348 425.339C226.059 425.446 225.794 425.609 225.569 425.818C225.343 426.028 225.161 426.281 225.033 426.561C225.003 426.615 224.978 426.672 224.957 426.73V426.73Z" fill="white"/>
<path d="M269.631 291.901C269.631 323.057 254.833 395.737 254.824 402.598H222.991C227.65 337.785 229.307 305.017 227.963 304.294C225.93 303.252 144.636 312.409 120.257 312.409C85.0943 312.409 70.5499 290.241 69.3725 249.166H139.02C153.2 250.691 227.167 265.608 254.638 270.733C266.387 272.935 269.631 283.354 269.631 291.901Z" fill="#2158A5"/>
<path d="M72.2682 202.74C72.2682 172.519 96.5535 126 100.127 126H132.694C133.859 140.916 138.039 156.811 142.855 172.955C142.576 172.147 142.296 171.401 142.001 170.5C142.296 171.323 142.576 172.147 142.855 172.955C154.586 206.811 171.32 250.223 154.913 285.12C144.13 308.023 92.9798 286.814 71.771 290.978C58.5019 247.908 72.2682 230.335 72.2682 202.74Z" fill="#FADD4B"/>
<path d="M136.874 236.145L166.473 263.242C182.011 267.53 189.137 270.674 187.853 272.673C185.864 275.657 181.638 273.139 180.084 274.942C178.53 276.744 181.638 283.021 184.885 288.926C188.133 294.83 184.652 294.255 182.648 293.416C175.154 288.106 168.417 281.802 162.62 274.678L121.896 252.366L136.874 236.145Z" fill="#B18B67"/>
<path d="M162.714 510.308H121.741C120.413 510.308 119.336 511.384 119.336 512.713V518.75C119.336 520.078 120.413 521.155 121.741 521.155H162.714C164.042 521.155 165.119 520.078 165.119 518.75V512.713C165.119 511.384 164.042 510.308 162.714 510.308Z" fill="#1D5E5B"/>
<path d="M131.38 475.362C136.625 458.159 139.55 440.332 140.077 422.354H145.574C146.101 440.332 149.026 458.159 154.271 475.362H162.124C167.077 475.362 171.827 477.33 175.33 480.832C178.832 484.334 180.8 489.084 180.8 494.037C180.8 498.99 178.832 503.74 175.33 507.243C171.827 510.745 167.077 512.713 162.124 512.713H122.369C117.416 512.713 112.666 510.745 109.163 507.243C105.661 503.74 103.693 498.99 103.693 494.037C103.693 489.084 105.661 484.334 109.163 480.832C112.666 477.33 117.416 475.362 122.369 475.362H131.38Z" fill="#066F6C"/>
<path d="M99.605 338.847C113.407 337.493 127.211 336.819 141.02 336.825C154.828 336.832 168.633 337.506 182.434 338.847L188 434.565C172.346 436.07 156.686 436.82 141.02 436.813C125.353 436.807 109.68 436.057 94 434.565L99.605 338.847Z" fill="#FADD4B"/>
<path d="M442.082 329.107C446.363 339.25 453.626 346.302 457.474 356.889C459.705 363.338 460.819 370.12 460.768 376.944C460.768 380.732 460.768 384.519 460.717 388.307C460.667 392.094 460.596 395.68 460.284 399.387C459.972 403.094 459.619 406.721 459.458 410.468C459.327 413.288 459.327 416.653 458.32 419.292C457.544 421.397 455.56 421.699 455.036 419.161C454.801 417.689 454.726 416.196 454.814 414.709C454.814 412.845 454.965 410.981 455.016 409.118C455.237 401.623 454.955 394.139 455.106 386.645C455.247 379.332 456.194 372.018 455.106 364.756C454.175 359.11 452.298 353.661 449.556 348.639C447.149 343.884 444.52 339.24 442.888 333.831C442.397 332.259 442.059 330.643 441.88 329.006C441.981 328.986 442.042 329.016 442.082 329.107Z" fill="#FADD4B"/>
<path d="M440.924 349.154C441.7 349.824 442.342 350.633 442.818 351.541C443.523 352.639 444.359 353.626 445.074 354.724C446.555 357.011 447.854 359.438 449.214 361.826C451.846 366.339 453.698 371.263 454.694 376.391C455.546 381.861 456.111 387.372 456.386 392.901C456.83 398.734 457.273 404.606 457.333 410.459C457.458 413.129 457.411 415.803 457.192 418.467C456.991 420.089 456.266 421.489 454.614 421.489C451.108 421.489 449.466 417.581 448.781 414.438C447.84 409.681 447.485 404.826 447.724 399.983C447.915 394.211 448.922 388.52 449.355 382.758C449.819 376.714 449.557 370.67 447.462 364.948C446.454 362.047 445.175 359.217 444.077 356.346C443.666 355.104 443.167 353.892 442.586 352.719C441.798 351.498 441.085 350.23 440.451 348.922L440.924 349.154Z" fill="#0D8136"/>
<path d="M481.267 337.005L481.589 336.753C481.226 337.963 480.792 339.15 480.29 340.309C479.942 341.443 479.663 342.596 479.454 343.764C478.85 346.514 478.144 349.193 477.58 351.974C476.442 357.453 476.654 363.366 477.399 369.461C478.104 375.202 479.212 380.944 479.746 386.696C480.238 391.425 480.309 396.188 479.958 400.929C479.666 404.022 478.739 407.708 476.19 407.396C474.992 407.255 474.367 405.815 474.115 404.183C473.712 401.574 473.632 398.824 473.471 396.225C473.118 390.423 473.047 384.651 472.977 378.909C472.916 373.49 472.735 367.97 473.098 362.691C473.432 357.93 474.45 353.242 476.12 348.77C476.936 346.544 477.721 344.257 478.648 342.132C479.091 341.125 479.655 340.208 480.079 339.191C480.322 338.389 480.726 337.645 481.267 337.005V337.005Z" fill="#FADD4B"/>
<path d="M442.002 365.934C442.465 365.159 443.482 367.727 443.644 368.05L443.442 367.566C444.409 369.105 445.177 370.76 445.729 372.492C446.243 374.225 446.736 375.997 447.169 377.74C448.086 381.024 449.254 384.207 450.08 387.511C450.851 390.693 451.126 393.976 450.896 397.242C450.65 400.718 450.619 404.207 450.806 407.688C451.013 409.31 451.35 410.914 451.813 412.482C452.186 414.074 452.478 415.686 452.911 417.267C453.012 417.056 453.022 417.741 453.022 417.791C453.023 418.165 452.962 418.536 452.84 418.889C452.715 419.35 452.481 419.774 452.156 420.125C451.832 420.476 451.427 420.743 450.977 420.904C449.305 421.377 447.754 419.896 447.21 418.254C446.485 415.875 445.963 413.439 445.648 410.971C445.319 408.751 445.211 406.504 445.326 404.263C445.527 399.82 446.333 395.439 446.545 390.996C446.786 386.161 445.83 381.618 445.024 376.894C444.71 374.632 444.204 372.401 443.513 370.225C443.204 369.379 442.83 368.557 442.395 367.768C442.203 367.294 441.689 366.448 442.002 365.934Z" fill="#FADD4B"/>
<path d="M455.581 358.39C455.379 363.931 455.057 369.42 454.311 374.9C453.566 380.38 452.7 386.071 451.974 391.632C451.117 397.094 450.666 402.613 450.625 408.142C450.695 412.171 450.02 419.101 454.543 421.106C459.066 423.11 460.103 414.458 460.406 411.587C460.866 406.067 460.903 400.521 460.516 394.996C460.224 389.315 459.741 383.674 459.156 378.013C458.492 371.727 457.978 365.421 457.555 359.116C457.353 356.003 457.303 352.89 457.363 349.778C457.546 346.829 457.17 343.873 456.255 341.064L456.094 341.185" fill="#066F6C"/>
<path d="M479.212 375.938C478.386 377.137 477.56 378.325 476.775 379.595C475.172 382.019 474.139 384.773 473.753 387.653C472.957 394.453 473.591 401.756 473.753 408.807C473.623 410.214 473.763 411.633 474.166 412.987C474.679 414.226 475.636 415.163 476.543 415.163C478.497 415.163 478.195 410.368 478.205 408.263C478.205 404.576 477.792 400.849 477.832 397.182C477.837 393.572 478.099 389.967 478.618 386.394C479.123 382.993 479.912 379.641 480.975 376.371C481.116 375.938 482.154 372.564 481.177 373.138" fill="#0D8136"/>
<path d="M470.59 339.654C469.3 339.654 469.311 346.061 469.27 346.877C469.129 349.848 469.159 352.82 469.079 355.781C468.998 362.274 468.527 368.756 467.669 375.192C467.145 378.637 466.54 382.072 465.886 385.497C465.231 388.922 464.355 392.347 463.871 395.822C463.595 399.173 463.555 402.539 463.75 405.895C463.761 409.262 463.963 412.625 464.355 415.969C464.455 416.795 464.586 417.621 464.727 418.436C464.761 419.169 464.842 419.9 464.969 420.622C465.185 421.086 465.555 421.461 466.016 421.683C466.476 421.905 467 421.961 467.497 421.841C469.905 421.398 471.456 418.366 472.282 416.15C473.253 413.255 473.978 410.283 474.448 407.265C475.061 403.877 475.448 400.451 475.606 397.011C475.831 390.018 475.633 383.018 475.012 376.049C474.73 372.17 474.408 368.312 473.914 364.454C473.42 360.596 472.796 356.799 472.383 352.961C472.091 350.16 471.799 347.36 471.597 344.55C471.597 343.885 471.517 339.594 470.59 339.594" fill="#066F6C"/>
<path d="M468.978 386.192C468.767 379.463 466.067 349.929 465.453 341.82C465.301 339.805 463.821 331.314 463.629 329.007C463.105 329.662 463.146 339.805 463.156 342.102C463.166 344.399 462.874 346.675 462.733 348.962C462.592 351.248 459.117 381.528 458.704 383.785C457.807 388.257 457.213 392.851 456.749 397.424C456.286 401.997 455.601 406.58 456.205 411.063C456.324 412.094 456.561 413.108 456.91 414.085C457.303 415.092 457.565 416.049 457.918 417.107C458.095 417.917 458.432 418.684 458.909 419.362C459.387 420.04 459.995 420.616 460.698 421.055C463.529 422.516 465.05 419.212 465.815 416.331C467.052 411.715 467.854 406.994 468.213 402.229C468.788 396.876 469.07 391.495 469.059 386.112" fill="#0D8136"/>
<path d="M482.073 405.966H439.967C439.433 405.966 439 406.399 439 406.933V449.039C439 449.573 439.433 450.006 439.967 450.006H482.073C482.607 450.006 483.04 449.573 483.04 449.039V406.933C483.04 406.399 482.607 405.966 482.073 405.966Z" fill="white"/>
<path d="M392.447 361.82C394.387 362.33 395.657 364.44 395.937 366.55C396.095 368.673 395.854 370.806 395.227 372.84C394.457 376.05 392.437 380.09 389.447 379.2C389.097 383.383 389.524 387.594 390.707 391.62C392.23 389.911 393.571 388.048 394.707 386.06C401.537 374.45 408.007 351.96 399.707 339.41C396.707 334.92 391.507 332.65 386.387 332.22C378.247 331.513 370.081 333.254 362.937 337.22C356.227 341.11 348.857 349.72 351.747 358.52C352.807 361.73 354.697 364.52 356.107 367.52C356.247 367.82 369.047 355.52 370.027 354.64C379.597 346.07 385.427 354.02 388.317 363.55C389.227 362.57 390.997 361.43 392.447 361.82Z" fill="#333333"/>
<path d="M340.427 400.07C338.326 397.979 335.654 396.557 332.746 395.984C329.838 395.41 326.825 395.711 324.088 396.848C321.351 397.986 319.012 399.908 317.367 402.374C315.722 404.839 314.844 407.736 314.844 410.7C314.844 413.664 315.722 416.562 317.367 419.027C319.012 421.492 321.351 423.415 324.088 424.552C326.825 425.689 329.838 425.99 332.746 425.417C335.654 424.843 338.326 423.421 340.427 421.33C341.827 419.936 342.938 418.28 343.696 416.456C344.454 414.632 344.844 412.676 344.844 410.7C344.844 408.725 344.454 406.769 343.696 404.945C342.938 403.12 341.827 401.464 340.427 400.07ZM334.647 415.55C333.688 416.51 332.465 417.163 331.134 417.428C329.804 417.693 328.424 417.557 327.171 417.038C325.917 416.519 324.846 415.64 324.092 414.512C323.338 413.383 322.935 412.057 322.935 410.7C322.935 409.343 323.338 408.017 324.092 406.889C324.846 405.761 325.917 404.881 327.171 404.362C328.424 403.843 329.804 403.707 331.134 403.972C332.465 404.237 333.688 404.891 334.647 405.85C335.933 407.137 336.655 408.881 336.655 410.7C336.655 412.519 335.933 414.264 334.647 415.55V415.55Z" fill="#913B8E"/>
<path d="M335.577 464.57C327.377 467.15 318.957 469.75 310.457 468.94C306.366 468.448 302.355 467.44 298.517 465.94C296.867 465.34 295.047 464.7 293.457 465.48C290.817 466.78 290.787 470.82 291.187 473.97C291.557 476.97 292.117 480.26 294.367 481.97C295.823 482.896 297.523 483.363 299.247 483.31C302.146 483.461 305.053 483.37 307.937 483.04C311.367 482.65 314.757 481.93 318.197 481.74C324.357 481.39 330.487 482.74 336.647 482.61C342.807 482.48 349.417 480.61 353.217 475.31C355.647 471.92 358.497 461.31 354.447 457.92C351.857 455.74 348.947 458.42 346.707 459.78C343.208 461.828 339.47 463.436 335.577 464.57V464.57Z" fill="#D7AD93"/>
<path d="M335.577 474.57C327.377 477.15 318.957 479.75 310.457 478.94C306.366 478.448 302.355 477.44 298.517 475.94C296.867 475.34 295.047 474.7 293.457 475.48C290.817 476.78 290.787 480.82 291.187 483.97C291.557 486.97 292.117 490.26 294.367 491.97C295.823 492.896 297.523 493.363 299.247 493.31C302.146 493.461 305.053 493.37 307.937 493.04C311.367 492.65 314.757 491.93 318.197 491.74C324.357 491.39 330.487 492.74 336.647 492.61C342.807 492.48 349.417 490.61 353.217 485.31C355.647 481.92 358.497 471.31 354.447 467.92C351.857 465.74 348.947 468.42 346.707 469.78C343.208 471.828 339.47 473.436 335.577 474.57V474.57Z" fill="#D7AD93"/>
<path d="M355.077 426.51C353.667 425.37 353.017 423.57 352.337 421.89C350.912 418.337 349.133 414.936 347.027 411.74C346.027 410.3 344.737 408.74 343.027 408.88C341.317 409.02 340.197 410.88 340.217 412.55C340.384 414.247 340.972 415.876 341.927 417.29C337.927 423 327.257 421.14 324.317 427.46C324.086 427.885 323.947 428.354 323.909 428.836C323.871 429.319 323.935 429.804 324.097 430.26C324.593 431.147 325.386 431.831 326.337 432.19C330.372 434.204 334.827 435.233 339.337 435.19C342.237 435.19 345.247 434.71 347.947 435.76C351.007 436.95 353.027 439.82 355.517 441.96C357.921 444.026 360.812 445.444 363.917 446.08C365.958 446.567 368.093 446.494 370.097 445.87C372.006 445.126 373.592 443.732 374.574 441.934C375.557 440.136 375.873 438.048 375.467 436.04C373.097 426 361.017 431.35 355.077 426.51Z" fill="#D7AD93"/>
<path d="M394.637 382.47C400.357 375.76 406.217 359.09 405.577 349.88C403.707 323.35 366.767 329.18 359.577 342.58C353.337 354.21 345.367 387.78 363.507 393.07C365.921 393.668 368.392 394.004 370.877 394.07C372.149 394.215 373.427 393.856 374.437 393.07L369.437 428.73L404.917 430.23L394.637 382.47Z" fill="#D7AD93"/>
<path d="M370.647 394.5C370.54 397.356 371.233 400.186 372.647 402.67C372.932 403.218 373.319 403.706 373.787 404.11C375.607 405.52 378.267 404.25 379.957 402.68C381.837 401.141 383.08 398.961 383.447 396.56C384.037 389.21 370.987 385.34 370.647 394.5Z" fill="#D7AD93"/>
<path d="M364.577 414.129C364.457 414.609 364.337 415.129 364.227 415.639C361.967 426.549 358.157 434.349 358.527 445.899C358.677 450.489 359.067 455.639 362.397 458.649C363.965 459.897 365.752 460.839 367.667 461.429C372.667 463.279 377.377 473.269 382.667 473.739C385.275 474.107 387.856 474.638 390.397 475.329C396.607 476.649 402.797 472.559 409.087 473.329C409.788 473.447 410.506 473.403 411.187 473.199C412.697 472.659 413.497 470.869 413.517 469.199C413.422 467.549 413.085 465.922 412.517 464.369C409.367 453.789 411.577 442.369 411.097 431.369C410.557 418.589 406.097 405.679 397.227 396.809C394.841 394.206 391.808 392.281 388.437 391.229C380.637 389.229 379.027 394.959 374.757 399.799C369.887 405.179 366.387 407.279 364.577 414.129Z" fill="#D7AD93"/>
<path d="M348.267 467.64C347.062 468.436 345.679 468.92 344.241 469.049C342.802 469.178 341.355 468.948 340.027 468.38C339.582 468.21 339.187 467.932 338.877 467.57C338.676 467.286 338.531 466.967 338.447 466.63C338.008 465.265 337.746 463.851 337.667 462.42C337.606 462.001 337.68 461.574 337.877 461.2C338.138 460.876 338.484 460.633 338.877 460.5L348.077 456.38C349.108 455.775 350.319 455.552 351.497 455.75C352.105 455.967 352.644 456.343 353.057 456.84C357.477 461.82 352.437 464.84 348.267 467.64Z" fill="#224D82"/>
<path d="M329.697 397.83C331.26 397.83 332.527 396.563 332.527 395C332.527 393.437 331.26 392.17 329.697 392.17C328.134 392.17 326.867 393.437 326.867 395C326.867 396.563 328.134 397.83 329.697 397.83Z" fill="#FADD4B"/>
<path d="M329.697 397.83C331.26 397.83 332.527 396.563 332.527 395C332.527 393.437 331.26 392.17 329.697 392.17C328.134 392.17 326.867 393.437 326.867 395C326.867 396.563 328.134 397.83 329.697 397.83Z" fill="#FADD4B"/>
<path d="M340.677 402.65C342.24 402.65 343.507 401.383 343.507 399.82C343.507 398.257 342.24 396.99 340.677 396.99C339.114 396.99 337.847 398.257 337.847 399.82C337.847 401.383 339.114 402.65 340.677 402.65Z" fill="#FADD4B"/>
<path d="M329.697 397.83C331.26 397.83 332.527 396.563 332.527 395C332.527 393.437 331.26 392.17 329.697 392.17C328.134 392.17 326.867 393.437 326.867 395C326.867 396.563 328.134 397.83 329.697 397.83Z" fill="#FADD4B"/>
<path d="M340.677 402.65C342.24 402.65 343.507 401.383 343.507 399.82C343.507 398.257 342.24 396.99 340.677 396.99C339.114 396.99 337.847 398.257 337.847 399.82C337.847 401.383 339.114 402.65 340.677 402.65Z" fill="#FADD4B"/>
<path d="M318.057 424.33C319.62 424.33 320.887 423.063 320.887 421.5C320.887 419.937 319.62 418.67 318.057 418.67C316.494 418.67 315.227 419.937 315.227 421.5C315.227 423.063 316.494 424.33 318.057 424.33Z" fill="#FADD4B"/>
<path d="M313.697 413.16C315.26 413.16 316.527 411.893 316.527 410.33C316.527 408.767 315.26 407.5 313.697 407.5C312.134 407.5 310.867 408.767 310.867 410.33C310.867 411.893 312.134 413.16 313.697 413.16Z" fill="#FADD4B"/>
<path d="M318.527 402.18C320.09 402.18 321.357 400.912 321.357 399.35C321.357 397.787 320.09 396.52 318.527 396.52C316.964 396.52 315.697 397.787 315.697 399.35C315.697 400.912 316.964 402.18 318.527 402.18Z" fill="#FADD4B"/>
<path d="M403.977 467.99L403.627 468.13C394.087 471.29 375.257 464.83 367.827 458.84C365.167 456.69 362.827 454.03 359.727 452.59C350.037 448.08 349.917 459.59 344.177 463.28C342.477 464.39 340.307 464.63 338.647 465.8C335.277 468.17 335.317 473.14 336.087 477.19C336.717 480.457 337.59 483.672 338.697 486.81C340.057 490.64 342.627 494.95 346.697 494.98C349.467 494.98 351.877 492.92 354.637 492.66C355.895 492.617 357.153 492.744 358.377 493.04C369.857 495.2 381.677 494.74 393.297 493.58C398.747 493.04 404.357 492.29 409.087 489.53C413.817 486.77 417.497 481.53 416.777 476.07C416.009 469.945 414.292 463.976 411.687 458.38C408.307 460.83 407.747 466.43 403.977 467.99Z" fill="#2158A5"/>
<path d="M403.187 336.67C396.887 329.6 386.797 328.3 377.917 330.01C369.037 331.72 358.577 336.55 355.287 345.66C354.238 348.534 354.217 351.683 355.227 354.57C356.287 357.57 358.177 360.18 359.587 363.01C359.037 361.91 367.127 356.18 367.917 355.54C368.707 354.9 380.367 347.29 380.367 347.33L379.437 360.06L387.197 350.53C389.306 353.113 390.871 356.097 391.797 359.3C392.727 358.39 394.497 357.3 395.947 357.68C396.895 358.003 397.729 358.592 398.348 359.379C398.967 360.165 399.346 361.114 399.437 362.11C399.595 364.108 399.354 366.117 398.727 368.02C397.957 371.02 395.937 374.81 392.947 373.97C392.597 377.89 394.187 381.91 395.367 385.66C396.887 384.09 397.007 382.26 398.167 380.41C404.997 369.53 412.757 347.42 403.187 336.67Z" fill="#333333"/>
<path d="M399.697 329C400.447 329 396.697 336.25 396.697 336.25L391.447 333.75L399.697 329Z" fill="#333333"/>
</svg>
