<svg width="374" height="374" viewBox="0 0 374 374" fill="none" xmlns="http://www.w3.org/2000/svg">
<path d="M187.175 361.319C283.28 361.319 361.188 283.411 361.188 187.307C361.188 91.2024 283.28 13.2944 187.175 13.2944C91.0708 13.2944 13.1628 91.2024 13.1628 187.307C13.1628 283.411 91.0708 361.319 187.175 361.319Z" fill="#C5CFD7"/>
<path d="M346.774 189.479H288.726V278.13H335.652C339.798 271.351 343.549 264.177 346.774 256.806V189.479Z" fill="#9A7759"/>
<path d="M318.672 189.479H254.174V278.13H318.672V189.479Z" fill="#B18B67"/>
<path d="M293.465 203.958H221.135V314.459H293.465V203.958Z" fill="#9A7759"/>
<path d="M258.583 203.958H178.224V314.459H258.583V203.958Z" fill="#B18B67"/>
<path d="M113.727 175.197H63.3131V252.199H113.727V175.197Z" fill="#9A7759"/>
<path d="M89.3755 175.197H33.3677V252.199H89.3755V175.197Z" fill="#B18B67"/>
<path d="M131.957 87.5983L117.676 100.893C116.886 101.617 115.701 101.551 115.043 100.827L87.7302 71.4738C87.0062 70.6841 87.072 69.4994 87.796 68.8413L102.078 55.5468C102.867 54.8229 104.052 54.8887 104.71 55.6126L132.023 84.9657C132.747 85.6897 132.747 86.8743 131.957 87.5983Z" fill="#333333"/>
<path d="M190.598 88.5199C189.676 95.7595 188.162 102.999 185.464 109.778C182.7 116.623 178.751 122.941 176.382 129.917C175.987 131.036 175.658 132.286 175.987 133.471C176.579 135.38 178.817 136.235 180.725 136.827C184.938 138.078 189.15 139.328 193.428 140.579C197.574 123.006 201.72 105.434 205.866 87.8618C206.985 83.2548 206.064 76.8708 200.272 76.0152C193.099 75.028 191.256 83.3864 190.598 88.5199Z" fill="#EAC219"/>
<path d="M103.57 57.1357L89.4644 70.2852L115.18 97.8711L129.286 84.7217L103.57 57.1357Z" fill="#696666"/>
<path d="M219.095 55.5469C223.11 50.8083 225.874 45.0167 225.413 38.5011C224.097 19.7441 197.969 23.8904 192.901 33.3676C187.833 42.8448 188.426 66.867 195.007 68.5781C197.64 69.2363 203.234 67.5909 208.894 64.1686L205.34 89.3754H226.4L219.095 55.5469Z" fill="#B18B67"/>
<path d="M234.561 32.2487C235.22 31.5906 235.614 30.6034 235.943 29.682C236.273 28.7606 236.602 27.7733 236.799 26.7861C237.26 24.8117 237.26 22.574 235.812 20.9945C234.693 19.744 232.982 19.2175 231.402 19.0859C230.349 19.0201 229.296 19.1517 228.309 19.4808C227.322 19.8098 226.466 20.468 225.479 20.8629C225.413 18.7568 225.084 16.5191 224.031 14.6763C222.978 12.8994 221.333 11.978 219.424 11.7147C217.516 11.4515 215.607 11.9122 213.83 12.8336C213.369 13.0968 212.974 13.2943 212.579 13.6233C212.25 13.8866 211.856 14.1498 211.461 14.2157C211 14.3473 210.802 14.084 210.473 13.755C210.144 13.3601 209.749 13.031 209.355 12.7019C207.578 11.3856 205.142 10.8591 203.102 11.6489C202.115 12.0438 201.194 12.6361 200.536 13.4917C199.943 14.2815 199.548 15.4661 198.759 15.9926C198.429 16.1901 198.166 15.9268 197.837 15.7294C197.376 15.4003 196.916 15.0054 196.455 14.6763C195.797 14.2157 195.073 13.8866 194.283 13.6891C193.164 13.4259 191.585 13.4917 191.256 14.9396C191.124 15.4661 191.256 16.0584 191.256 16.6508C191.322 17.4405 191.387 18.1645 191.453 18.9543C191.519 19.5466 191.585 20.0731 191.651 20.6654C191.716 20.9945 191.914 21.521 191.782 21.8501C191.651 22.245 190.861 22.0475 190.532 22.0475C189.874 22.0475 189.281 22.1792 188.689 22.4424C188.228 22.6399 187.768 22.9689 187.57 23.4954C187.438 23.8245 187.504 24.1536 187.57 24.4826C187.636 24.8775 187.57 25.075 187.504 25.4699C186.649 25.075 183.687 24.0878 183.292 25.6673C183.161 26.1938 183.424 26.7203 183.687 27.181C184.082 27.905 184.543 28.6289 185.069 29.2871C186.122 30.6692 187.373 31.8538 188.755 32.841C187.175 33.565 186.78 35.6052 188.097 36.8557C188.689 37.3822 189.545 37.5138 190.269 37.5138C190.532 37.5138 190.927 37.3822 191.19 37.448C191.322 37.448 191.453 37.5796 191.585 37.5796C192.638 37.6455 193.888 37.3822 194.941 37.1848C196.85 36.7899 198.627 35.8685 200.075 34.4864C200.47 34.1573 200.733 33.9599 201.259 33.9599C201.72 33.9599 202.115 34.0915 202.576 34.0915C203.76 34.0915 204.813 33.565 205.866 33.1701C205.932 34.618 206.327 36.2634 206.919 37.5796C207.38 38.6327 208.433 38.8301 209.42 38.8959C212.645 39.225 215.804 38.8301 219.029 38.8959C215.936 39.6199 212.711 39.8831 209.618 40.7387C208.236 41.1336 209.289 42.055 209.881 42.7131C210.868 43.7662 211.592 45.0824 212.119 46.5304C213.632 44.5559 216.331 43.2397 218.7 43.832C221.333 44.4901 223.176 48.0441 221.464 50.6108C220.477 52.1246 218.7 52.6511 217.252 53.3092C218.371 54.4939 218.7 56.2708 219.358 57.7188C219.687 58.4427 220.148 59.2983 220.938 59.4957C221.201 59.5615 221.53 59.6274 221.793 59.8248C222.057 60.0881 222.123 60.4171 222.452 60.6804C223.834 61.6676 226.006 61.6018 227.256 60.2855C228.375 59.1667 228.112 57.3239 227.124 56.1392C228.638 55.5469 231.336 54.6913 230.744 52.3878C233.969 52.1904 241.801 46.9252 237.457 43.108C239.826 41.7917 241.998 38.501 240.485 35.6052C239.563 33.3675 236.799 32.3803 234.561 32.2487Z" fill="#333333"/>
<path d="M119.387 182.173C112.147 177.83 100.037 183.424 100.037 189.61C100.037 208.17 117.017 295.637 117.873 301.165C118.729 306.694 128.206 308.141 128.798 301.165C129.654 290.043 131.299 251.673 129.654 233.903C128.996 226.598 128.272 219.556 127.548 213.369C136.433 229.428 150.188 252.397 168.813 282.276L178.883 277.67C170.985 251.541 164.469 233.113 159.402 222.32C150.714 203.892 142.553 188.097 139.131 182.568C133.734 173.815 124.323 176.842 119.387 182.173Z" fill="#B18B67"/>
<path d="M178.159 263.19L143.475 181.054C135.182 167.694 111.884 183.753 114.714 191.519C121.164 209.091 153.807 266.02 155.782 271.286L178.159 263.19Z" fill="#224D82"/>
<path d="M180.116 272.496C182.28 274.277 183.669 275.687 184.366 276.85C185.168 278.225 186.073 280.343 187.138 283.238C185.55 284.145 171.285 292.4 144.285 307.969C141.016 304.943 140.57 302.557 142.765 300.86C145.017 299.197 146.844 297.744 148.27 296.591L163.054 276.249C163.342 275.883 163.881 275.738 164.304 276.058L167.347 278.423C170.164 278.15 172.289 277.629 173.664 276.826C174.794 276.187 176.114 274.821 177.535 272.754C178.086 271.932 179.156 271.79 179.978 272.34C180.002 272.43 180.059 272.463 180.116 272.496Z" fill="white"/>
<path d="M131.036 296.755C132.023 299.388 132.484 301.362 132.484 302.613C132.484 304.192 132.22 306.496 131.694 309.523C129.851 309.523 113.398 309.523 82.2676 309.523C80.9513 305.245 81.7411 303.008 84.5052 302.613C87.2694 302.284 89.5729 301.955 91.4157 301.691L114.385 291.424C114.846 291.227 115.372 291.424 115.569 291.885L117.017 295.439C119.584 296.624 121.69 297.216 123.27 297.216C124.586 297.216 126.363 296.69 128.666 295.636C129.522 295.242 130.575 295.636 130.97 296.492C130.97 296.624 130.97 296.69 131.036 296.755Z" fill="white"/>
<path d="M97.6023 195.928C97.6023 219.226 108.659 273.589 108.659 278.722H132.484C128.996 230.217 127.745 205.734 128.798 205.208C130.312 204.418 191.124 211.263 209.355 211.263C235.614 211.263 246.54 194.678 247.395 164.008H195.336C184.74 165.127 129.456 176.316 108.856 180.133C100.037 181.712 97.6023 189.478 97.6023 195.928Z" fill="#2158A5"/>
<path d="M141.237 102.933L127.877 95.5618C125.968 88.4539 123.73 84.8342 121.164 84.7683C119.189 83.8469 122.677 92.8635 118.86 92.0737C115.043 91.2839 105.763 84.3734 104.184 85.8214C101.814 87.8616 103.92 94.2456 106.421 97.4046C111.094 103.328 114.911 105.368 124.389 108.001C129.325 109.383 134.721 112.147 140.513 116.359L141.237 102.933Z" fill="#B18B67"/>
<path d="M187.636 126.034C176.316 128.864 163.482 100.103 136.827 90.6258C130.246 104.315 127.153 114.056 127.679 119.847C150.517 131.76 164.009 162.561 180.133 162.89C179.607 172.433 180.791 182.436 184.674 190.795C192.704 207.906 239.826 192.045 255.688 195.204C265.626 162.955 246.408 149.858 246.408 129.259C246.408 106.684 228.243 71.9346 225.611 71.9346H201.259C199.943 89.112 193.164 107.277 187.636 126.034Z" fill="#FADD4B"/>
<path d="M155.321 56.4684H87.8617C87.072 56.4684 86.4138 55.8102 86.4138 55.0205V12.8337C86.4138 12.0439 87.072 11.3857 87.8617 11.3857H155.321C156.111 11.3857 156.769 12.0439 156.769 12.8337V55.0863C156.703 55.8102 156.111 56.4684 155.321 56.4684Z" fill="#E6EBEF"/>
<path d="M104.644 62.3917L128.206 48.7024C128.864 48.3075 128.864 47.3203 128.206 46.9254L104.579 33.3677C103.92 32.9728 102.999 33.4993 102.999 34.2891L103.065 61.5361C103.131 62.2601 103.986 62.7866 104.644 62.3917Z" fill="#E6EBEF"/>
<path d="M141.237 56.5341L125.178 65.8139C124.718 66.0772 124.718 66.7353 125.178 67.0644L141.237 76.2783C141.698 76.5416 142.29 76.2125 142.29 75.686L142.224 57.1923C142.29 56.5999 141.698 56.2709 141.237 56.5341Z" fill="white"/>
<path d="M145.976 44.2924H128.337C127.219 44.2924 126.297 43.371 126.297 42.2521V24.614C126.297 23.4951 127.219 22.5737 128.337 22.5737H145.976C147.094 22.5737 148.016 23.4951 148.016 24.614V42.2521C147.95 43.371 147.094 44.2924 145.976 44.2924Z" fill="#0D8136"/>
<path d="M115.306 44.5559L97.4049 44.4243C96.286 44.4243 95.3646 43.5029 95.3646 42.384L95.4304 24.4826C95.4304 23.3638 96.3518 22.4424 97.4707 22.4424L115.372 22.5082C116.491 22.5082 117.412 23.4296 117.412 24.5484L117.347 42.4499C117.347 43.6345 116.425 44.5559 115.306 44.5559Z" fill="#2158A5"/>
<path d="M280.96 321.436H307.352C308.207 321.436 308.931 322.16 308.931 323.015V326.898C308.931 327.754 308.207 328.478 307.352 328.478H280.894C280.039 328.478 279.315 327.754 279.315 326.898V323.015C279.381 322.16 280.105 321.436 280.96 321.436Z" fill="#1D5E5B"/>
<path d="M287.147 298.927C290.503 288.134 292.346 276.682 292.741 264.704H294.913H296.295C296.69 276.682 298.598 288.068 301.889 298.927H306.957C313.604 298.927 319.001 304.324 319.001 310.971C319.001 317.619 313.604 323.015 306.957 323.015H281.289C274.642 323.015 269.245 317.619 269.245 310.971C269.245 304.324 274.642 298.927 281.289 298.927H287.147Z" fill="#066F6C"/>
<path d="M266.679 210.802C275.564 209.947 284.514 209.486 293.399 209.486C302.284 209.486 311.235 209.947 320.12 210.802L323.739 272.536C313.604 273.523 303.534 273.984 293.399 273.984C283.264 273.984 273.194 273.523 263.059 272.536L266.679 210.802Z" fill="#FADD4B"/>
<path d="M45.0827 181.252C47.7811 187.635 52.3222 192.045 54.7574 198.692C56.2053 202.641 56.7976 206.919 56.7976 211.329C56.7976 213.698 56.7976 216.067 56.7318 218.502C56.7318 220.806 56.666 223.109 56.4685 225.413C56.2711 227.716 56.0736 230.02 55.942 232.389C55.8762 234.232 55.8104 236.338 55.2181 237.983C54.7574 239.3 53.5069 239.497 53.1778 237.917C52.9804 236.996 53.0462 236.009 53.0462 235.087C53.0462 233.903 53.112 232.718 53.1778 231.599C53.3095 226.861 53.112 222.188 53.2436 217.449C53.3095 212.842 53.9018 208.235 53.2436 203.694C52.7171 199.943 51.335 196.652 49.7555 193.559C48.2418 190.597 46.5964 187.635 45.5434 184.279C45.2801 183.292 45.0169 182.305 44.8853 181.252C45.0169 181.186 45.0827 181.186 45.0827 181.252Z" fill="#FADD4B"/>
<path d="M44.3587 193.822C44.8852 194.217 45.2143 194.743 45.5433 195.336C46.004 195.994 46.5306 196.652 46.9913 197.31C47.9127 198.758 48.7682 200.272 49.6238 201.786C51.2692 204.616 52.4538 207.643 53.0462 210.934C53.7043 214.356 53.8359 217.844 54.0992 221.332C54.3624 225.018 54.6915 228.704 54.6915 232.389C54.6915 234.034 54.8231 235.811 54.6257 237.457C54.4941 238.444 54.0334 239.365 52.9803 239.365C50.8085 239.365 49.7555 236.93 49.2948 234.89C48.6366 231.928 48.505 228.835 48.6366 225.808C48.7682 222.188 49.3606 218.568 49.6896 214.948C49.9529 211.131 49.8213 207.38 48.505 203.76C47.8468 201.917 47.0571 200.14 46.3989 198.363C46.1357 197.573 45.8724 196.784 45.4775 196.06C45.0168 195.27 44.4903 194.546 44.1613 193.69C44.1613 193.69 44.2271 193.756 44.3587 193.822Z" fill="#0D8136"/>
<path d="M69.6971 186.188C69.763 186.122 69.8288 186.056 69.8946 186.056C69.6971 186.846 69.3681 187.57 69.1048 188.294C68.8416 188.952 68.7099 189.742 68.5783 190.466C68.1834 192.177 67.7227 193.888 67.3937 195.599C66.6697 199.022 66.8013 202.773 67.262 206.59C67.7227 210.21 68.3809 213.83 68.7099 217.449C68.9732 220.477 69.1048 223.57 68.8416 226.4C68.6441 228.375 68.0518 230.678 66.4723 230.481C65.7483 230.415 65.3534 229.493 65.156 228.44C64.8927 226.795 64.8269 225.084 64.7611 223.439C64.5637 219.819 64.4978 216.133 64.432 212.579C64.3662 209.157 64.3004 205.735 64.4978 202.378C64.6953 199.153 65.4192 196.257 66.4064 193.625C66.933 192.243 67.3937 190.795 67.986 189.478C68.2492 188.82 68.5783 188.294 68.9074 187.636C69.1706 187.043 69.3681 186.517 69.6971 186.188Z" fill="#FADD4B"/>
<path d="M45.0169 204.418C45.2802 203.958 45.9383 205.537 46.0699 205.735C46.0041 205.603 46.0041 205.537 45.9383 205.406C46.5306 206.393 47.0571 207.38 47.3862 208.499C47.7153 209.618 47.9785 210.671 48.3076 211.789C48.8999 213.83 49.6239 215.87 50.1504 217.91C50.6769 219.95 50.8085 221.925 50.6769 224.031C50.5453 226.203 50.4795 228.44 50.6111 230.612C50.6769 231.665 51.006 232.653 51.2692 233.64C51.5325 234.627 51.6641 235.68 51.9274 236.667C51.9932 236.536 51.9932 236.996 51.9932 236.996C51.9932 237.259 51.9274 237.457 51.8616 237.654C51.6641 238.247 51.2692 238.773 50.6769 238.905C49.6239 239.234 48.6367 238.247 48.3076 237.259C47.8469 235.812 47.5836 234.232 47.3204 232.653C47.1229 231.27 47.0571 229.823 47.1229 228.44C47.2546 225.676 47.7811 222.912 47.9127 220.082C48.0443 217.055 47.452 214.159 46.9255 211.197C46.6622 209.749 46.4648 208.367 46.0041 206.985C45.8067 206.459 45.5434 205.932 45.2802 205.471C45.1485 205.274 44.8195 204.747 45.0169 204.418Z" fill="#FADD4B"/>
<path d="M53.5727 199.68C53.4411 203.168 53.2436 206.59 52.7829 210.078C52.3222 213.566 51.7957 217.12 51.335 220.609C50.8743 224.031 50.4136 227.519 50.4794 231.007C50.5453 233.574 50.0846 237.918 52.9146 239.168C55.8104 240.419 56.4027 234.956 56.6002 233.179C56.995 229.691 56.8634 226.203 56.666 222.715C56.4685 219.161 56.2053 215.607 55.8104 212.053C55.4155 208.104 55.0864 204.155 54.8232 200.14C54.6916 198.166 54.6916 196.257 54.6916 194.283C54.7574 192.44 54.6257 190.597 53.9676 188.82C53.9018 188.82 53.9018 188.886 53.836 188.886" fill="#066F6C"/>
<path d="M68.4467 210.671C67.9202 211.395 67.3937 212.184 66.933 212.974C66.0774 214.422 65.2876 216.002 65.0244 218.042C64.4978 222.32 64.9585 226.927 65.0244 231.336C65.0244 232.258 64.9585 233.113 65.2876 233.969C65.6167 234.759 66.209 235.351 66.8013 235.351C68.0518 235.351 67.8544 232.323 67.8544 231.007C67.8544 228.704 67.5911 226.334 67.5911 224.031C67.5911 221.727 67.7227 219.424 68.1176 217.252C68.4467 215.014 68.9732 212.908 69.6313 210.934C69.6971 210.671 70.3553 208.565 69.763 208.894" fill="#0D8136"/>
<path d="M62.9841 187.899C62.1943 187.899 62.1943 191.914 62.1285 192.44C62.0627 194.283 62.0627 196.191 61.9969 198.034C61.8653 202.115 61.7336 206.195 61.1413 210.21C60.8122 212.382 60.4173 214.554 60.0225 216.66C59.6276 218.832 59.0353 220.938 58.772 223.175C58.5087 225.281 58.6404 227.387 58.7062 229.493C58.772 231.599 58.8378 233.771 59.1011 235.877C59.1669 236.404 59.2327 236.93 59.3643 237.457C59.4301 237.918 59.3643 238.444 59.4959 238.839C59.6934 239.497 60.549 239.695 61.0755 239.629C62.5892 239.366 63.5764 237.457 64.1029 236.075C64.7611 234.298 65.0901 232.389 65.485 230.481C65.8799 228.375 66.0774 226.203 66.209 224.031C66.4064 219.621 66.1432 215.212 65.8141 210.868C65.6167 208.433 65.4192 205.998 65.156 203.563C64.8269 201.128 64.432 198.758 64.1687 196.323C63.9713 194.546 63.7739 192.835 63.7081 191.058C63.6422 190.597 63.6422 187.899 62.9841 187.899Z" fill="#066F6C"/>
<path d="M61.9969 217.121C61.8652 212.908 60.1541 194.349 59.7592 189.215C59.6934 187.965 58.7062 182.634 58.6404 181.186C58.3113 181.581 58.3113 187.965 58.3771 189.413C58.3771 190.861 58.1797 192.309 58.1138 193.757C58.048 195.204 55.8762 214.225 55.5471 215.673C54.9548 218.503 54.6257 221.398 54.2966 224.228C54.0334 227.058 53.5727 230.02 53.9676 232.784C54.0334 233.442 54.165 234.101 54.4283 234.693C54.6915 235.351 54.8231 235.943 55.0206 236.601C55.3496 237.655 55.8762 238.642 56.7976 239.102C58.5745 240.024 59.5618 237.918 60.0225 236.141C60.8122 233.245 61.2729 230.283 61.5362 227.256C61.7336 223.899 62.1285 220.543 61.9969 217.121Z" fill="#0D8136"/>
<path d="M43.7664 229.559H70.2237C70.5527 229.559 70.816 229.822 70.816 230.151V256.674C70.816 257.004 70.5527 257.267 70.2237 257.267H43.7664C43.4373 257.267 43.1741 257.004 43.1741 256.674V230.217C43.1741 229.822 43.4373 229.559 43.7664 229.559Z" fill="white"/>
<path d="M110.897 34.4204C110.041 35.1444 108.791 35.4734 107.211 35.4734H104.118V40.8044H101.025L101.09 26.062H107.409C108.857 26.062 110.041 26.4569 110.897 27.2467C111.752 28.0364 112.213 29.2211 112.213 30.8006C112.213 32.5118 111.752 33.7623 110.897 34.4204ZM108.593 29.1553C108.198 28.8262 107.672 28.6288 106.948 28.6288H104.184V32.9725H106.948C107.672 32.9725 108.198 32.775 108.593 32.446C108.988 32.1169 109.186 31.5246 109.186 30.8006C109.186 30.0767 108.988 29.4843 108.593 29.1553Z" fill="white"/>
<path d="M170.393 80.8193H132.484C131.957 80.8193 131.562 80.4245 131.562 79.8979V49.8867C131.562 49.3602 131.957 48.9653 132.484 48.9653H170.393C170.919 48.9653 171.314 49.3602 171.314 49.8867V79.8979C171.248 80.4245 170.853 80.8193 170.393 80.8193Z" fill="white"/>
<path d="M160.389 60.5485H155.058C154.795 60.5485 154.532 60.2853 154.532 60.022V54.6911C154.532 54.4278 154.268 54.1646 154.005 54.1646H147.16C146.897 54.1646 146.634 54.4278 146.634 54.6911V60.022C146.634 60.2853 146.371 60.5485 146.107 60.5485H140.842C140.579 60.5485 140.316 60.8118 140.316 61.075V67.9197C140.316 68.1829 140.579 68.4462 140.842 68.4462H146.173C146.436 68.4462 146.7 68.7095 146.7 68.9727V74.3036C146.7 74.5669 146.963 74.8302 147.226 74.8302H154.005C154.268 74.8302 154.532 74.5669 154.532 74.3036V68.9727C154.532 68.7095 154.795 68.4462 155.058 68.4462H160.389C160.652 68.4462 160.915 68.1829 160.915 67.9197V61.075C160.915 60.8118 160.652 60.5485 160.389 60.5485Z" fill="#03AAA5"/>
<path d="M141.171 33.96C141.829 33.5652 142.553 33.1703 143.211 32.7754C143.541 33.3019 143.87 33.8942 144.133 34.4207C144.396 34.9473 144.725 35.4738 144.988 36.0003C145.252 36.6584 145.383 37.3166 145.186 37.9747C144.988 38.8303 144.528 39.4226 143.804 39.8833C143.211 40.2124 142.619 40.344 141.961 40.344C141.237 40.344 140.513 40.344 139.789 40.344C139.789 40.7389 139.789 41.1338 139.789 41.5287C138.999 40.7389 138.21 39.9491 137.354 39.0935C138.144 38.3038 138.934 37.514 139.723 36.6584C139.723 37.0533 139.723 37.4482 139.723 37.9089C139.789 37.9089 139.855 37.9089 139.921 37.9089C140.579 37.9089 141.171 37.9089 141.829 37.9089C142.027 37.9089 142.224 37.8431 142.422 37.8431C142.817 37.7114 142.948 37.514 142.817 37.1191C142.751 36.8559 142.619 36.6584 142.553 36.3952C142.093 35.6054 141.632 34.8156 141.237 34.0917C141.237 34.0917 141.171 34.0259 141.171 33.96Z" fill="white"/>
<path d="M141.04 29.024C141.434 28.8265 141.764 28.6291 142.158 28.3658C141.829 29.4847 141.566 30.6035 141.303 31.7223C140.184 31.4591 139.131 31.13 137.946 30.8668C138.341 30.6693 138.67 30.4719 139.065 30.2086C138.67 29.5505 138.341 28.8923 137.946 28.3C137.881 28.1684 137.815 28.1026 137.683 27.9709C137.354 27.6419 137.025 27.6419 136.696 27.9709C136.564 28.1026 136.433 28.3 136.301 28.4975C135.84 29.2872 135.38 30.077 134.919 30.8668C134.919 30.9326 134.853 30.9326 134.853 30.9984C134.195 30.6035 133.471 30.2086 132.813 29.8137C132.813 29.8137 132.813 29.8137 132.813 29.7479C133.405 28.7607 133.932 27.7735 134.524 26.8521C134.985 26.1281 135.643 25.6016 136.433 25.4042C137.551 25.1409 138.473 25.47 139.263 26.2598C139.592 26.5888 139.855 26.9179 140.052 27.3128C140.381 27.9051 140.711 28.4316 141.04 29.024Z" fill="white"/>
<path d="M135.445 40.3441C134.853 40.3441 134.327 40.3441 133.734 40.3441C133.142 40.3441 132.484 40.3441 131.891 40.2783C130.97 40.2125 130.114 39.8176 129.522 39.0278C129.127 38.5013 128.93 37.909 128.996 37.2509C128.996 36.5269 129.259 35.8688 129.654 35.2106C129.983 34.6841 130.312 34.0918 130.641 33.4995C130.312 33.302 129.917 33.1046 129.522 32.8413C130.641 32.5122 131.76 32.249 132.879 31.9199C133.208 33.0388 133.471 34.1576 133.8 35.2764C133.405 35.079 133.076 34.8816 132.681 34.6841L132.615 34.7499C132.286 35.3423 131.957 35.9346 131.628 36.5269C131.497 36.7243 131.431 36.9876 131.365 37.2509C131.299 37.4483 131.431 37.6457 131.628 37.7116C131.891 37.7774 132.155 37.909 132.418 37.909C133.405 37.909 134.327 37.909 135.314 37.909C135.38 37.909 135.445 37.909 135.511 37.909C135.445 38.7646 135.445 39.5544 135.445 40.3441Z" fill="white"/>
</svg>
