<svg width="550" height="553" viewBox="0 0 550 553" fill="none" xmlns="http://www.w3.org/2000/svg">
<path d="M274.77 552.681C426.521 552.681 549.54 429.662 549.54 277.911C549.54 126.159 426.521 3.14062 274.77 3.14062C123.019 3.14062 0 126.159 0 277.911C0 429.662 123.019 552.681 274.77 552.681Z" fill="#C5CFD7"/>
<path d="M526.7 281.381H435.04V421.381H509.16C515.78 410.584 521.64 399.341 526.7 387.731V281.381Z" fill="#9A7759"/>
<path d="M482.42 281.351H380.59V421.351H482.42V281.351Z" fill="#B18B67"/>
<path d="M442.66 304.141H328.44V478.581H442.66V304.141Z" fill="#9A7759"/>
<path d="M387.48 304.141H260.6V478.581H387.48V304.141Z" fill="#B18B67"/>
<path d="M158.83 258.73H79.2397V380.28H158.83V258.73Z" fill="#9A7759"/>
<path d="M120.38 258.73H31.9697V380.28H120.38V258.73Z" fill="#B18B67"/>
<path d="M154.422 74.2493L131.922 95.209C130.722 96.327 130.655 98.2064 131.773 99.4066L174.913 145.717C176.031 146.917 177.91 146.983 179.11 145.865L201.611 124.906C202.811 123.788 202.877 121.908 201.759 120.708L158.62 74.3981C157.502 73.1979 155.623 73.1313 154.422 74.2493Z" fill="#333333"/>
<path d="M280.18 121.952C278.77 133.412 276.38 144.832 272.05 155.542C267.72 166.252 261.4 176.292 257.66 187.312C257.05 189.122 256.5 191.092 257.07 192.922C258.07 195.922 261.51 197.282 264.56 198.192L284.56 204.142L304.2 120.882C305.92 113.582 304.54 103.472 295.37 102.172C284.08 100.572 281.18 113.832 280.18 121.952Z" fill="#EAC219"/>
<path d="M156.764 76.8269L134.483 97.5967L175.075 141.141L197.356 120.371L156.764 76.8269Z" fill="#696666"/>
<path d="M325.13 69.8713C331.51 62.3813 335.82 53.2013 335.13 42.9213C333.05 13.2913 291.81 19.8113 283.78 34.7613C275.75 49.7113 276.72 87.6513 287.08 90.3213C291.22 91.3913 300.03 88.7813 308.99 83.3213L303.37 123.141H336.55L325.13 69.8713Z" fill="#B18B67"/>
<path d="M349.55 33.0612C350.557 31.9044 351.295 30.5381 351.71 29.0612C352.263 27.5702 352.727 26.0475 353.1 24.5012C353.8 21.3812 353.8 17.8012 351.58 15.3812C349.727 13.5538 347.259 12.4839 344.66 12.3812C342.998 12.2707 341.33 12.4847 339.75 13.0112C338.19 13.5212 336.84 14.5412 335.33 15.1812C335.419 11.7711 334.626 8.39566 333.03 5.3812C332.271 4.09134 331.225 2.99421 329.972 2.17545C328.72 1.35669 327.295 0.838456 325.81 0.661197C322.758 0.295099 319.67 0.919094 317 2.4412C316.32 2.8112 315.64 3.1912 315 3.6312C314.486 4.06824 313.896 4.40719 313.26 4.6312C312.55 4.8012 312.19 4.3912 311.73 3.8712C311.189 3.27196 310.59 2.72917 309.94 2.2512C308.557 1.17044 306.928 0.449434 305.199 0.15275C303.469 -0.143934 301.693 -0.0070309 300.03 0.551197C298.454 1.13971 297.07 2.1498 296.03 3.4712C295.11 4.6812 294.45 6.6012 293.18 7.4712C292.64 7.8312 292.26 7.3512 291.77 7.0012C291.03 6.4812 290.33 5.9012 289.58 5.3812C288.55 4.66684 287.397 4.14819 286.18 3.8512C284.4 3.4312 281.93 3.5312 281.42 5.8512C281.295 6.74686 281.295 7.65553 281.42 8.5512C281.51 9.7612 281.6 10.9712 281.7 12.1812C281.771 13.0898 281.887 13.9943 282.05 14.8912C282.262 15.4868 282.324 16.1258 282.23 16.7512C281.97 17.3512 280.78 17.0112 280.23 17.0312C279.216 17.0525 278.217 17.2734 277.29 17.6812C276.519 17.9765 275.894 18.5615 275.55 19.3112C275.416 19.8158 275.416 20.3466 275.55 20.8512C275.606 21.383 275.572 21.9206 275.45 22.4412C274.1 21.7812 269.45 20.3012 268.84 22.7212C268.767 23.5611 268.975 24.4015 269.43 25.1112C270.031 26.2815 270.741 27.393 271.55 28.4312C273.22 30.5609 275.171 32.4548 277.35 34.0612C276.758 34.3143 276.24 34.7135 275.845 35.2213C275.45 35.7291 275.19 36.329 275.09 36.9646C274.991 37.6002 275.054 38.2508 275.274 38.8554C275.494 39.46 275.864 39.9988 276.35 40.4212C277.325 41.1988 278.569 41.5583 279.81 41.4212C280.282 41.3402 280.76 41.3001 281.24 41.3012C281.447 41.3985 281.665 41.4723 281.89 41.5212C283.679 41.5469 285.463 41.3213 287.19 40.8512C290.212 40.1786 293.003 38.7194 295.28 36.6212C295.513 36.3521 295.802 36.1361 296.127 35.9878C296.451 35.8394 296.803 35.7622 297.16 35.7612C297.85 35.7612 298.53 35.9612 299.23 35.9712C301.07 35.9712 302.73 35.1212 304.44 34.5212C304.579 36.9156 305.155 39.2642 306.14 41.4512C306.91 43.1412 308.52 43.3912 310.14 43.5312C315.19 44.0112 320.26 43.5312 325.32 43.5312C320.42 44.6312 315.32 45.0912 310.51 46.3912C308.32 46.9812 309.99 48.4612 310.93 49.4812C312.472 51.2349 313.658 53.2731 314.42 55.4812C316.81 52.3512 321.05 50.3012 324.8 51.2612C328.94 52.2612 331.86 57.9212 329.21 61.9512C327.67 64.2912 324.89 65.1912 322.58 66.1912C324.38 68.0712 324.82 70.8412 325.91 73.1912C326.44 74.3412 327.19 75.6412 328.39 76.0412C328.83 76.1912 329.39 76.2012 329.7 76.5712C330.01 76.9412 330.24 77.5112 330.79 77.9012C331.939 78.6743 333.316 79.0367 334.697 78.9296C336.078 78.8225 337.383 78.2523 338.4 77.3112C340.17 75.5012 339.71 72.6412 338.23 70.8012C340.58 69.8012 344.86 68.5612 343.93 64.9012C349.02 64.5612 361.39 56.3012 354.55 50.2612C358.3 48.1412 361.75 42.9612 359.34 38.3912C357.48 34.8812 353.17 33.3012 349.63 33.1212" fill="#333333"/>
<path d="M167.72 269.762C156.31 262.912 137.18 271.712 137.19 281.512C137.19 310.812 163.98 448.912 165.37 457.642C166.76 466.372 181.73 468.642 182.6 457.642C183.98 440.132 186.6 379.492 183.98 351.432C182.92 339.842 181.77 328.812 180.64 318.972C194.68 344.305 216.383 380.585 245.75 427.812L261.69 420.532C249.17 379.272 238.903 350.148 230.89 333.162C217.17 304.062 204.31 279.162 198.89 270.362C190.38 256.592 175.55 261.382 167.72 269.762Z" fill="#B18B67"/>
<path d="M260.55 397.651L205.83 268.011C192.72 246.921 155.96 272.301 160.43 284.531C170.58 312.301 222.2 402.201 225.23 410.531L260.55 397.651Z" fill="#224D82"/>
<path d="M263.55 412.382C266.956 415.195 269.176 417.488 270.21 419.262C271.953 422.51 273.431 425.895 274.63 429.382L207 468.382C201.893 463.595 201.1 459.875 204.62 457.222C208.14 454.568 211.043 452.332 213.33 450.512L236.67 418.382C236.777 418.235 236.911 418.111 237.066 418.017C237.221 417.922 237.393 417.859 237.573 417.831C237.752 417.804 237.935 417.811 238.111 417.854C238.287 417.897 238.453 417.974 238.6 418.082L243.45 421.812C247.896 421.432 251.23 420.605 253.45 419.332C255.23 418.312 257.273 416.175 259.58 412.922C260.004 412.322 260.649 411.916 261.373 411.793C262.097 411.669 262.84 411.838 263.44 412.262L263.55 412.382Z" fill="white"/>
<path d="M186.1 450.641C187.646 454.781 188.42 457.874 188.42 459.921C188.297 463.592 187.879 467.247 187.17 470.851H109.08C107.08 464.151 108.253 460.531 112.6 459.991C116.946 459.451 120.576 458.968 123.49 458.541L159.79 442.381C159.956 442.306 160.135 442.265 160.317 442.259C160.499 442.254 160.68 442.285 160.85 442.35C161.021 442.415 161.176 442.513 161.308 442.639C161.44 442.764 161.546 442.914 161.62 443.081V443.081L163.96 448.741C168 450.621 171.286 451.564 173.82 451.571C175.88 451.571 178.72 450.741 182.34 449.081C182.67 448.928 183.027 448.842 183.39 448.828C183.754 448.814 184.116 448.872 184.457 448.998C184.798 449.124 185.111 449.317 185.378 449.565C185.644 449.812 185.859 450.11 186.01 450.441C186.045 450.505 186.075 450.572 186.1 450.641V450.641Z" fill="white"/>
<path d="M133.36 291.471C133.36 328.251 150.83 414.051 150.84 422.151H188.42C182.92 345.638 180.963 306.955 182.55 306.101C184.95 304.871 280.92 315.681 309.7 315.681C351.21 315.681 368.38 289.511 369.77 241.021H287.55C270.81 242.821 183.49 260.431 151.06 266.481C137.19 269.081 133.36 281.381 133.36 291.471Z" fill="#2158A5"/>
<path d="M216.27 155.171L195.16 143.581C192.2 132.315 188.66 126.648 184.54 126.581C181.37 125.111 186.88 139.351 180.88 138.121C174.88 136.891 160.24 125.991 157.72 128.201C153.99 131.481 157.32 141.521 161.24 146.521C168.57 155.851 174.63 159.051 189.63 163.231C197.47 165.411 205.946 169.795 215.06 176.381L216.27 155.171Z" fill="#B18B67"/>
<path d="M275.55 181.161C257.68 185.621 253.55 154.101 211.48 139.161C201.046 160.748 196.223 176.138 197.01 185.331C233.1 204.181 238.19 238.841 263.67 239.401C262.86 254.511 264.67 270.281 270.89 283.401C283.6 310.401 358.01 285.401 383.03 290.321C398.7 239.431 368.41 218.751 368.38 186.191C368.38 150.541 339.72 95.6514 335.51 95.6514H297.05C294.93 122.881 284.26 151.511 275.55 181.161Z" fill="#FADD4B"/>
<path d="M237.43 1.1416H131C129.757 1.1416 128.75 2.14896 128.75 3.3916V70.0516C128.75 71.2942 129.757 72.3016 131 72.3016H237.43C238.672 72.3016 239.68 71.2942 239.68 70.0516V3.3916C239.68 2.14896 238.672 1.1416 237.43 1.1416Z" fill="#E6EBEF"/>
<path d="M157.49 81.6414L194.71 60.0614C194.959 59.9188 195.166 59.7128 195.311 59.4643C195.455 59.2158 195.531 58.9337 195.531 58.6464C195.531 58.3591 195.455 58.0769 195.311 57.8284C195.166 57.58 194.959 57.374 194.71 57.2314L157.4 35.7814C157.151 35.6399 156.869 35.5662 156.583 35.5674C156.296 35.5686 156.015 35.6449 155.767 35.7885C155.52 35.9321 155.314 36.1381 155.17 36.386C155.027 36.6339 154.951 36.915 154.95 37.2014L155.03 80.2014C155.026 80.4909 155.099 80.7762 155.242 81.0283C155.384 81.2804 155.591 81.4902 155.841 81.6365C156.091 81.7828 156.375 81.8603 156.665 81.8612C156.954 81.862 157.239 81.7862 157.49 81.6414V81.6414Z" fill="#E6EBEF"/>
<path d="M202.22 71.3812L176.92 86.0412C176.752 86.1402 176.613 86.2812 176.516 86.4505C176.419 86.6197 176.368 86.8113 176.368 87.0062C176.368 87.2012 176.419 87.3927 176.516 87.562C176.613 87.7312 176.752 87.8723 176.92 87.9712L202.27 102.541C202.441 102.639 202.636 102.69 202.833 102.687C203.031 102.685 203.224 102.63 203.393 102.528C203.562 102.426 203.701 102.281 203.795 102.108C203.89 101.934 203.936 101.739 203.93 101.541V72.3112C203.929 72.1122 203.875 71.9171 203.773 71.7462C203.671 71.5753 203.525 71.435 203.35 71.34C203.175 71.2449 202.978 71.1986 202.779 71.2058C202.58 71.2131 202.387 71.2737 202.22 71.3812V71.3812Z" fill="white"/>
<path d="M222.655 18.8532L194.825 18.8824C193.058 18.8842 191.627 20.3184 191.629 22.0857L191.658 49.9157C191.66 51.683 193.094 53.1142 194.861 53.1124L222.691 53.0832C224.458 53.0814 225.89 51.6472 225.888 49.8799L225.859 22.0499C225.857 20.2826 224.423 18.8514 222.655 18.8532Z" fill="#0D8136"/>
<path d="M174.468 18.7943L146.219 18.6563C144.451 18.6476 143.012 20.0733 143.003 21.8406L142.865 50.0903C142.856 51.8575 144.282 53.2972 146.049 53.3058L174.299 53.4439C176.066 53.4525 177.506 52.0269 177.515 50.2596L177.653 22.0099C177.661 20.2426 176.236 18.803 174.468 18.7943Z" fill="#2158A5"/>
<path d="M464.55 489.671H422.81C421.457 489.671 420.36 490.768 420.36 492.121V498.271C420.36 499.624 421.457 500.721 422.81 500.721H464.55C465.903 500.721 467 499.624 467 498.271V492.121C467 490.768 465.903 489.671 464.55 489.671Z" fill="#1D5E5B"/>
<path d="M432.63 454.07C437.973 436.545 440.953 418.384 441.49 400.07H447.09C447.626 418.384 450.606 436.545 455.95 454.07H463.95C468.995 454.07 473.834 456.075 477.402 459.643C480.97 463.21 482.975 468.05 482.975 473.095C482.975 478.141 480.97 482.98 477.402 486.548C473.834 490.116 468.995 492.12 463.95 492.12H423.45C418.404 492.12 413.565 490.116 409.997 486.548C406.429 482.98 404.425 478.141 404.425 473.095C404.425 468.05 406.429 463.21 409.997 459.643C413.565 456.075 418.404 454.07 423.45 454.07H432.63Z" fill="#066F6C"/>
<path d="M400.26 315C414.32 313.62 428.383 312.934 442.45 312.94C456.516 312.947 470.58 313.634 484.64 315L490.31 412.51C474.363 414.044 458.41 414.807 442.45 414.8C426.49 414.794 410.523 414.03 394.55 412.51L400.26 315Z" fill="#FADD4B"/>
<path d="M50.4297 268.311C54.6797 278.381 61.8897 285.381 65.7097 295.891C67.9247 302.293 69.0306 309.027 68.9797 315.801C68.9797 319.561 68.9797 323.321 68.9297 327.081C68.8797 330.841 68.8097 334.401 68.4997 338.081C68.1897 341.761 67.8397 345.361 67.6797 349.081C67.5497 351.881 67.5497 355.221 66.5497 357.841C65.7797 359.931 63.8097 360.231 63.2897 357.711C63.0563 356.25 62.9825 354.768 63.0697 353.291C63.0697 351.441 63.2197 349.591 63.2697 347.741C63.4897 340.301 63.2097 332.871 63.3597 325.431C63.4997 318.171 64.4397 310.911 63.3597 303.701C62.4348 298.096 60.572 292.687 57.8497 287.701C55.4597 282.981 52.8497 278.371 51.2297 273.001C50.7424 271.44 50.4075 269.836 50.2297 268.211C50.3297 268.191 50.3897 268.221 50.4297 268.311Z" fill="#FADD4B"/>
<path d="M49.2796 288.21C50.0493 288.876 50.6871 289.68 51.1596 290.58C51.8596 291.67 52.6896 292.65 53.3996 293.74C54.8696 296.01 56.1596 298.42 57.5096 300.79C60.1218 305.271 61.9609 310.159 62.9496 315.25C63.7953 320.681 64.3561 326.152 64.6296 331.64C65.0696 337.43 65.5096 343.26 65.5696 349.07C65.6931 351.721 65.6463 354.376 65.4296 357.02C65.2296 358.63 64.5096 360.02 62.8696 360.02C59.3896 360.02 57.7596 356.14 57.0796 353.02C56.1454 348.298 55.7928 343.479 56.0296 338.67C56.2196 332.94 57.2196 327.29 57.6496 321.57C58.1096 315.57 57.8496 309.57 55.7696 303.89C54.7696 301.01 53.4996 298.2 52.4096 295.35C52.0011 294.117 51.5066 292.914 50.9296 291.75C50.1473 290.538 49.4394 289.279 48.8096 287.98L49.2796 288.21Z" fill="#0D8136"/>
<path d="M89.3297 276.15L89.6497 275.9C89.2893 277.101 88.8585 278.28 88.3597 279.43C88.0141 280.556 87.7369 281.701 87.5297 282.86C86.9297 285.59 86.2297 288.25 85.6697 291.01C84.5397 296.45 84.7497 302.32 85.4897 308.37C86.1897 314.07 87.2897 319.77 87.8197 325.48C88.3079 330.175 88.3782 334.903 88.0297 339.61C87.7397 342.68 86.8197 346.34 84.2897 346.03C83.0997 345.89 82.4797 344.46 82.2297 342.84C81.8297 340.25 81.7497 337.52 81.5897 334.94C81.2397 329.18 81.1697 323.45 81.0997 317.75C81.0397 312.37 80.8597 306.89 81.2197 301.65C81.5518 296.924 82.5621 292.269 84.2197 287.83C85.0297 285.62 85.8097 283.35 86.7297 281.24C87.1697 280.24 87.7297 279.33 88.1497 278.32C88.3915 277.524 88.793 276.786 89.3297 276.15V276.15Z" fill="#FADD4B"/>
<path d="M50.3497 304.871C50.8097 304.101 51.8197 306.651 51.9797 306.971L51.7797 306.491C52.7392 308.019 53.502 309.662 54.0497 311.381C54.5597 313.101 55.0497 314.861 55.4797 316.591C56.3897 319.851 57.5497 323.011 58.3697 326.291C59.1343 329.45 59.4075 332.708 59.1797 335.951C58.9347 339.402 58.9046 342.866 59.0897 346.321C59.2958 347.931 59.6302 349.523 60.0897 351.081C60.4597 352.661 60.7497 354.261 61.1797 355.831C61.2797 355.621 61.2897 356.301 61.2897 356.351C61.2909 356.722 61.2301 357.09 61.1097 357.441C60.9855 357.899 60.7525 358.32 60.4303 358.668C60.1081 359.016 59.7065 359.281 59.2597 359.441C57.5997 359.911 56.0597 358.441 55.5197 356.811C54.8004 354.449 54.2819 352.03 53.9697 349.581C53.643 347.377 53.5358 345.146 53.6497 342.921C53.8497 338.511 54.6497 334.161 54.8597 329.751C55.0997 324.951 54.1497 320.441 53.3497 315.751C53.0381 313.506 52.5363 311.291 51.8497 309.131C51.5431 308.29 51.172 307.474 50.7397 306.691C50.5497 306.221 50.0397 305.381 50.3497 304.871Z" fill="#FADD4B"/>
<path d="M63.8297 297.381C63.6297 302.881 63.3097 308.331 62.5697 313.771C61.8297 319.211 60.9697 324.861 60.2497 330.381C59.3984 335.803 58.9505 341.282 58.9097 346.771C58.9797 350.771 58.3097 357.651 62.7997 359.641C67.2897 361.631 68.3197 353.041 68.6197 350.191C69.0764 344.712 69.1131 339.205 68.7297 333.721C68.4397 328.081 67.9597 322.481 67.3797 316.861C66.7197 310.621 66.2097 304.361 65.7897 298.101C65.5897 295.011 65.5397 291.921 65.5997 288.831C65.7813 285.904 65.4081 282.969 64.4997 280.181L64.3397 280.301" fill="#066F6C"/>
<path d="M87.2897 314.801C86.4697 315.991 85.6497 317.171 84.8697 318.431C83.279 320.837 82.2534 323.572 81.8697 326.431C81.0797 333.181 81.7097 340.431 81.8697 347.431C81.7405 348.828 81.8796 350.237 82.2797 351.581C82.7897 352.811 83.7397 353.741 84.6397 353.741C86.5797 353.741 86.2797 348.981 86.2897 346.891C86.2897 343.231 85.8797 339.531 85.9197 335.891C85.9241 332.307 86.1848 328.728 86.6997 325.181C87.2012 321.805 87.9839 318.477 89.0397 315.231C89.1797 314.801 90.2097 311.451 89.2397 312.021" fill="#0D8136"/>
<path d="M78.7297 278.781C77.4497 278.781 77.4597 285.141 77.4197 285.951C77.2797 288.901 77.3097 291.851 77.2297 294.791C77.1492 301.236 76.6817 307.671 75.8297 314.061C75.3097 317.481 74.7097 320.891 74.0597 324.291C73.4097 327.691 72.5397 331.091 72.0597 334.541C71.7861 337.867 71.746 341.209 71.9397 344.541C71.9504 347.883 72.1508 351.221 72.5397 354.541C72.6397 355.361 72.7697 356.181 72.9097 356.991C72.9435 357.718 73.0237 358.443 73.1497 359.161C73.3641 359.621 73.7312 359.993 74.1887 360.214C74.6462 360.434 75.166 360.49 75.6597 360.371C78.0497 359.931 79.5897 356.921 80.4097 354.721C81.3736 351.847 82.0929 348.896 82.5597 345.901C83.1681 342.537 83.5523 339.136 83.7097 335.721C83.9332 328.778 83.7361 321.829 83.1197 314.911C82.8397 311.061 82.5197 307.231 82.0297 303.401C81.5397 299.571 80.9197 295.801 80.5097 291.991C80.2197 289.211 79.9297 286.431 79.7297 283.641C79.7297 282.981 79.6497 278.721 78.7297 278.721" fill="#066F6C"/>
<path d="M77.1297 324.981C76.9197 318.301 74.2397 288.981 73.6297 280.931C73.4797 278.931 72.0097 270.501 71.8197 268.211C71.2997 268.861 71.3397 278.931 71.3497 281.211C71.3597 283.491 71.0697 285.751 70.9297 288.021C70.7897 290.291 67.3397 320.351 66.9297 322.591C66.0397 327.031 65.4497 331.591 64.9897 336.131C64.5297 340.671 63.8497 345.221 64.4497 349.671C64.5677 350.694 64.8025 351.701 65.1497 352.671C65.5397 353.671 65.7997 354.621 66.1497 355.671C66.3255 356.475 66.6602 357.236 67.1341 357.909C67.6081 358.583 68.2118 359.154 68.9097 359.591C71.7197 361.041 73.2297 357.761 73.9897 354.901C75.2174 350.319 76.0142 345.632 76.3697 340.901C76.941 335.587 77.2214 330.246 77.2097 324.901" fill="#0D8136"/>
<path d="M90.1296 344.61H48.3296C47.7994 344.61 47.3696 345.04 47.3696 345.57V387.37C47.3696 387.901 47.7994 388.33 48.3296 388.33H90.1296C90.6598 388.33 91.0896 387.901 91.0896 387.37V345.57C91.0896 345.04 90.6598 344.61 90.1296 344.61Z" fill="white"/>
<path d="M167.35 37.5405C165.672 38.7609 163.62 39.3553 161.55 39.2205H156.7V47.5905H151.87L151.98 24.3105L161.98 24.3605C163.976 24.2674 165.937 24.9196 167.48 26.1905C168.813 27.3972 169.48 29.2572 169.48 31.7705C169.426 34.4905 168.716 36.4139 167.35 37.5405ZM163.68 29.1405C162.94 28.5802 162.026 28.3003 161.1 28.3505H156.71V35.2005H161.09C162.029 35.2691 162.959 34.9758 163.69 34.3805C164.023 34.0298 164.279 33.6122 164.439 33.1554C164.599 32.6986 164.661 32.2129 164.62 31.7305C164.668 31.2559 164.608 30.7765 164.446 30.3281C164.283 29.8796 164.021 29.4737 163.68 29.1405V29.1405Z" fill="white"/>
<path d="M248.23 59.5508H188.35C187.565 59.5508 186.93 60.1865 186.93 60.9708V108.311C186.93 109.095 187.565 109.731 188.35 109.731H248.23C249.014 109.731 249.65 109.095 249.65 108.311V60.9708C249.65 60.1865 249.014 59.5508 248.23 59.5508Z" fill="white"/>
<path d="M232.48 77.751H224.08C223.862 77.751 223.654 77.6646 223.5 77.5108C223.346 77.357 223.26 77.1485 223.26 76.931V68.531C223.26 68.4225 223.238 68.315 223.196 68.2149C223.155 68.1147 223.093 68.0239 223.016 67.9476C222.939 67.8713 222.847 67.8111 222.747 67.7705C222.646 67.7299 222.538 67.7097 222.43 67.711H211.61C211.392 67.711 211.184 67.7974 211.03 67.9512C210.876 68.105 210.79 68.3135 210.79 68.531V76.931C210.787 77.1494 210.698 77.3579 210.543 77.5114C210.388 77.6649 210.178 77.751 209.96 77.751H201.55C201.331 77.751 201.122 77.8371 200.966 77.9906C200.811 78.1441 200.722 78.3526 200.72 78.571V89.381C200.722 89.5994 200.811 89.8079 200.966 89.9614C201.122 90.1149 201.331 90.201 201.55 90.201H209.94C210.158 90.201 210.368 90.2871 210.523 90.4406C210.678 90.5941 210.767 90.8026 210.77 91.021V99.421C210.77 99.6385 210.856 99.847 211.01 100.001C211.164 100.155 211.372 100.241 211.59 100.241H222.41C222.518 100.242 222.626 100.222 222.727 100.181C222.827 100.141 222.919 100.081 222.996 100.004C223.073 99.9281 223.135 99.8373 223.176 99.7371C223.218 99.637 223.24 99.5295 223.24 99.421V91.021C223.24 90.8035 223.326 90.5949 223.48 90.4412C223.634 90.2874 223.842 90.201 224.06 90.201H232.46C232.677 90.201 232.886 90.1146 233.04 89.9608C233.193 89.807 233.28 89.5985 233.28 89.381V78.571C233.28 78.3569 233.196 78.1513 233.047 77.9981C232.897 77.8449 232.694 77.7562 232.48 77.751V77.751Z" fill="#03AAA5"/>
<path d="M215.1 36.7811L218.32 34.9111C218.83 35.7811 219.32 36.6311 219.81 37.4911C220.3 38.3511 220.81 39.1211 221.15 39.9811C221.61 40.9672 221.737 42.0767 221.51 43.1411C221.393 43.7759 221.133 44.3759 220.75 44.8956C220.367 45.4153 219.871 45.8412 219.3 46.1411C218.399 46.6354 217.387 46.8902 216.36 46.8811C215.24 46.8811 214.11 46.8811 212.95 46.8811V48.7811L209.15 44.9811L212.92 41.1711V43.1711H213.2C214.2 43.1711 215.2 43.1711 216.2 43.1711C216.538 43.1654 216.874 43.115 217.2 43.0211C217.325 43.0039 217.445 42.9578 217.55 42.8865C217.654 42.8152 217.741 42.7206 217.803 42.6102C217.865 42.4998 217.901 42.3765 217.907 42.25C217.913 42.1235 217.89 41.9972 217.84 41.8811C217.728 41.5016 217.574 41.1359 217.38 40.7911C216.68 39.5511 215.96 38.3311 215.26 37.1011L215.1 36.7811Z" fill="white"/>
<path d="M214.89 28.9808L216.61 27.9808L215.21 33.2408L209.95 31.8408L211.66 30.8408C211.07 29.8408 210.48 28.8408 209.89 27.8408C209.794 27.6752 209.68 27.5209 209.55 27.3808C209.466 27.2507 209.352 27.1437 209.216 27.0695C209.081 26.9954 208.929 26.9565 208.775 26.9565C208.62 26.9565 208.468 26.9954 208.333 27.0695C208.197 27.1437 208.083 27.2507 208 27.3808C207.783 27.6299 207.589 27.8976 207.42 28.1808C206.7 29.4208 205.99 30.6708 205.28 31.9108L205.13 32.1608L201.92 30.3208V30.2608C202.82 28.7208 203.68 27.1608 204.62 25.6508C205.285 24.5253 206.36 23.7011 207.62 23.3508C208.423 23.1432 209.268 23.1592 210.063 23.3971C210.858 23.6351 211.572 24.0859 212.13 24.7008C212.62 25.1973 213.034 25.7634 213.36 26.3808C213.873 27.2274 214.383 28.0941 214.89 28.9808Z" fill="white"/>
<path d="M206.06 46.8705H203.39C202.39 46.8705 201.39 46.8705 200.48 46.8105C199.761 46.7718 199.058 46.5806 198.418 46.2495C197.779 45.9185 197.217 45.4553 196.77 44.8905C196.168 44.0879 195.861 43.1028 195.9 42.1005C195.952 40.9594 196.297 39.8507 196.9 38.8805C197.41 38.0105 197.9 37.1305 198.44 36.2305L196.71 35.2305L201.97 33.8105L203.4 39.0705L201.68 38.0705L201.59 38.1905C201.07 39.1105 200.52 40.0205 200.02 40.9605C199.85 41.3171 199.726 41.6933 199.65 42.0805C199.607 42.2304 199.623 42.3908 199.693 42.5298C199.764 42.6688 199.884 42.7761 200.03 42.8305C200.419 42.9873 200.831 43.0818 201.25 43.1105C202.76 43.1105 204.25 43.1105 205.78 43.1105H206.07L206.06 46.8705Z" fill="white"/>
</svg>
