<svg width="550" height="561" viewBox="0 0 550 561" fill="none" xmlns="http://www.w3.org/2000/svg">
<path d="M274.77 560.681C426.521 560.681 549.54 437.662 549.54 285.911C549.54 134.159 426.521 11.1406 274.77 11.1406C123.019 11.1406 0 134.159 0 285.911C0 437.662 123.019 560.681 274.77 560.681Z" fill="#C5CFD7"/>
<path d="M526.7 289.381H435.04V429.381H509.16C515.779 418.584 521.64 407.341 526.7 395.731V289.381Z" fill="#9A7759"/>
<path d="M482.42 289.351H380.59V429.351H482.42V289.351Z" fill="#B18B67"/>
<path d="M229.06 309H114.84V483.44H229.06V309Z" fill="#9A7759"/>
<path d="M173.88 309H47V483.44H173.88V309Z" fill="#B18B67"/>
<path d="M489.86 168H410.27V289.55H489.86V168Z" fill="#9A7759"/>
<path d="M451.41 168H363V289.55H451.41V168Z" fill="#B18B67"/>
<path d="M310.107 74.2493L332.607 95.209C333.807 96.327 333.873 98.2064 332.755 99.4066L289.616 145.717C288.498 146.917 286.619 146.983 285.418 145.865L262.918 124.906C261.718 123.788 261.651 121.908 262.769 120.708L305.909 74.3981C307.027 73.1979 308.906 73.1313 310.107 74.2493Z" fill="#333333"/>
<path d="M184.349 121.952C185.759 133.412 188.149 144.832 192.479 155.542C196.809 166.252 203.129 176.292 206.869 187.312C207.479 189.122 208.029 191.092 207.459 192.922C206.459 195.922 203.019 197.282 199.969 198.192L179.969 204.142L160.329 120.882C158.609 113.582 159.989 103.472 169.159 102.172C180.449 100.572 183.349 113.832 184.349 121.952Z" fill="#EAC219"/>
<path d="M307.765 76.8269L330.045 97.5967L289.454 141.141L267.173 120.371L307.765 76.8269Z" fill="#696666"/>
<path d="M139.399 69.8713C133.019 62.3813 128.709 53.2013 129.399 42.9213C131.479 13.2913 172.719 19.8113 180.749 34.7613C188.779 49.7113 187.809 87.6513 177.449 90.3213C173.309 91.3913 164.499 88.7813 155.539 83.3213L161.159 123.141H127.979L139.399 69.8713Z" fill="#B18B67"/>
<path d="M114.979 33.0612C113.971 31.9044 113.234 30.5381 112.819 29.0612C112.265 27.5702 111.801 26.0475 111.429 24.5012C110.729 21.3812 110.729 17.8012 112.949 15.3812C114.801 13.5538 117.269 12.4839 119.869 12.3812C121.531 12.2707 123.199 12.4847 124.779 13.0112C126.339 13.5212 127.689 14.5412 129.199 15.1812C129.11 11.7711 129.902 8.39566 131.499 5.3812C132.257 4.09134 133.304 2.99421 134.556 2.17545C135.809 1.35669 137.233 0.838456 138.719 0.661197C141.771 0.295099 144.859 0.919094 147.529 2.4412C148.209 2.8112 148.889 3.1912 149.529 3.6312C150.043 4.06824 150.633 4.40719 151.269 4.6312C151.979 4.8012 152.339 4.3912 152.799 3.8712C153.339 3.27196 153.939 2.72917 154.589 2.2512C155.971 1.17044 157.6 0.449434 159.33 0.15275C161.059 -0.143934 162.835 -0.0070309 164.499 0.551197C166.075 1.13971 167.458 2.1498 168.499 3.4712C169.419 4.6812 170.079 6.6012 171.349 7.4712C171.889 7.8312 172.269 7.3512 172.759 7.0012C173.499 6.4812 174.199 5.9012 174.949 5.3812C175.979 4.66684 177.131 4.14819 178.349 3.8512C180.129 3.4312 182.599 3.5312 183.109 5.8512C183.234 6.74686 183.234 7.65553 183.109 8.5512C183.019 9.7612 182.929 10.9712 182.829 12.1812C182.758 13.0898 182.641 13.9943 182.479 14.8912C182.266 15.4868 182.205 16.1258 182.299 16.7512C182.559 17.3512 183.749 17.0112 184.299 17.0312C185.312 17.0525 186.311 17.2734 187.239 17.6812C188.01 17.9765 188.634 18.5615 188.979 19.3112C189.113 19.8158 189.113 20.3466 188.979 20.8512C188.922 21.383 188.956 21.9206 189.079 22.4412C190.429 21.7812 195.079 20.3012 195.689 22.7212C195.761 23.5611 195.554 24.4015 195.099 25.1112C194.497 26.2815 193.788 27.393 192.979 28.4312C191.308 30.5609 189.357 32.4548 187.179 34.0612C187.771 34.3143 188.288 34.7135 188.683 35.2213C189.078 35.7291 189.338 36.329 189.438 36.9646C189.538 37.6002 189.475 38.2508 189.255 38.8554C189.034 39.46 188.664 39.9988 188.179 40.4212C187.203 41.1988 185.959 41.5583 184.719 41.4212C184.247 41.3402 183.768 41.3001 183.289 41.3012C183.081 41.3985 182.863 41.4723 182.639 41.5212C180.85 41.5469 179.066 41.3213 177.339 40.8512C174.317 40.1786 171.526 38.7194 169.249 36.6212C169.015 36.3521 168.726 36.1361 168.402 35.9878C168.078 35.8394 167.726 35.7622 167.369 35.7612C166.679 35.7612 165.999 35.9612 165.299 35.9712C163.459 35.9712 161.799 35.1212 160.089 34.5212C159.95 36.9156 159.374 39.2642 158.389 41.4512C157.619 43.1412 156.009 43.3912 154.389 43.5312C149.339 44.0112 144.269 43.5312 139.209 43.5312C144.109 44.6312 149.209 45.0912 154.019 46.3912C156.209 46.9812 154.539 48.4612 153.599 49.4812C152.056 51.2349 150.871 53.2731 150.109 55.4812C147.719 52.3512 143.479 50.3012 139.729 51.2612C135.589 52.2612 132.669 57.9212 135.319 61.9512C136.859 64.2912 139.639 65.1912 141.949 66.1912C140.149 68.0712 139.709 70.8412 138.619 73.1912C138.089 74.3412 137.339 75.6412 136.139 76.0412C135.699 76.1912 135.139 76.2012 134.829 76.5712C134.519 76.9412 134.289 77.5112 133.739 77.9012C132.589 78.6743 131.213 79.0367 129.831 78.9296C128.45 78.8225 127.146 78.2523 126.129 77.3112C124.359 75.5012 124.819 72.6412 126.299 70.8012C123.949 69.8012 119.669 68.5612 120.599 64.9012C115.509 64.5612 103.139 56.3012 109.979 50.2612C106.229 48.1412 102.779 42.9612 105.189 38.3912C107.049 34.8812 111.359 33.3012 114.899 33.1212" fill="#333333"/>
<path d="M296.809 269.762C308.219 262.912 327.349 271.712 327.339 281.512C327.339 310.812 300.549 448.912 299.159 457.642C297.769 466.372 282.799 468.642 281.929 457.642C280.549 440.132 277.929 379.492 280.549 351.432C281.609 339.842 282.759 328.812 283.889 318.972C269.849 344.305 248.146 380.585 218.779 427.812L202.839 420.532C215.359 379.272 225.626 350.148 233.639 333.162C247.359 304.062 260.219 279.162 265.639 270.362C274.149 256.592 288.979 261.382 296.809 269.762Z" fill="#B18B67"/>
<path d="M203.979 397.651L258.699 268.011C271.809 246.921 308.569 272.301 304.099 284.531C293.949 312.301 242.329 402.201 239.299 410.531L203.979 397.651Z" fill="#224D82"/>
<path d="M200.979 412.382C197.572 415.195 195.352 417.488 194.319 419.262C192.576 422.51 191.098 425.895 189.899 429.382L257.529 468.382C262.636 463.595 263.429 459.875 259.909 457.222C256.389 454.568 253.486 452.332 251.199 450.512L227.859 418.382C227.752 418.235 227.617 418.111 227.462 418.017C227.308 417.922 227.136 417.859 226.956 417.831C226.777 417.804 226.594 417.811 226.418 417.854C226.241 417.897 226.075 417.974 225.929 418.082L221.079 421.812C216.632 421.432 213.299 420.605 211.079 419.332C209.299 418.312 207.256 416.175 204.949 412.922C204.525 412.322 203.879 411.916 203.156 411.793C202.432 411.669 201.689 411.838 201.089 412.262L200.979 412.382Z" fill="white"/>
<path d="M278.429 450.641C276.882 454.781 276.109 457.874 276.109 459.921C276.232 463.592 276.65 467.247 277.359 470.851H355.449C357.449 464.151 356.276 460.531 351.929 459.991C347.582 459.451 343.952 458.968 341.039 458.541L304.739 442.381C304.573 442.306 304.394 442.265 304.212 442.259C304.03 442.254 303.848 442.285 303.678 442.35C303.508 442.415 303.353 442.513 303.221 442.639C303.089 442.764 302.983 442.914 302.909 443.081V443.081L300.569 448.741C296.529 450.621 293.242 451.564 290.709 451.571C288.649 451.571 285.809 450.741 282.189 449.081C281.859 448.928 281.502 448.842 281.139 448.828C280.775 448.814 280.412 448.872 280.071 448.998C279.73 449.124 279.418 449.317 279.151 449.565C278.885 449.812 278.67 450.11 278.519 450.441C278.484 450.505 278.454 450.572 278.429 450.641V450.641Z" fill="white"/>
<path d="M331.169 291.471C331.169 328.251 313.699 414.051 313.689 422.151H276.109C281.609 345.638 283.566 306.955 281.979 306.101C279.579 304.871 183.609 315.681 154.829 315.681C113.319 315.681 96.1489 289.511 94.7589 241.021H176.979C193.719 242.821 281.039 260.431 313.469 266.481C327.339 269.081 331.169 281.381 331.169 291.471Z" fill="#2158A5"/>
<path d="M248.259 155.171L269.369 143.581C272.329 132.315 275.869 126.648 279.989 126.581C283.159 125.111 277.649 139.351 283.649 138.121C289.649 136.891 304.289 125.991 306.809 128.201C310.539 131.481 307.209 141.521 303.289 146.521C295.959 155.851 289.899 159.051 274.899 163.231C267.059 165.411 258.583 169.795 249.469 176.381L248.259 155.171Z" fill="#B18B67"/>
<path d="M188.979 181.161C206.849 185.621 210.979 154.101 253.049 139.161C263.483 160.748 268.306 176.138 267.519 185.331C231.429 204.181 226.339 238.841 200.859 239.401C201.669 254.511 199.859 270.281 193.639 283.401C180.929 310.401 106.519 285.401 81.4993 290.321C65.8293 239.431 96.1193 218.751 96.1493 186.191C96.1493 150.541 124.809 95.6514 129.019 95.6514H167.479C169.599 122.881 180.269 151.511 188.979 181.161Z" fill="#FADD4B"/>
<path d="M483 455.729H441.26C439.907 455.729 438.81 456.826 438.81 458.179V464.329C438.81 465.683 439.907 466.779 441.26 466.779H483C484.353 466.779 485.45 465.683 485.45 464.329V458.179C485.45 456.826 484.353 455.729 483 455.729Z" fill="#1D5E5B"/>
<path d="M451.08 420.13C456.424 402.604 459.403 384.444 459.94 366.13H465.54C466.077 384.444 469.056 402.604 474.4 420.13H482.4C487.446 420.13 492.285 422.134 495.853 425.702C499.421 429.27 501.425 434.109 501.425 439.155C501.425 444.201 499.421 449.04 495.853 452.608C492.285 456.175 487.446 458.18 482.4 458.18H441.9C436.854 458.18 432.015 456.175 428.447 452.608C424.879 449.04 422.875 444.201 422.875 439.155C422.875 434.109 424.879 429.27 428.447 425.702C432.015 422.134 436.854 420.13 441.9 420.13H451.08Z" fill="#066F6C"/>
<path d="M418.71 281.06C432.77 279.68 446.833 278.993 460.9 279C474.967 279.007 489.03 279.693 503.09 281.06L508.76 378.57C492.813 380.103 476.86 380.867 460.9 380.86C444.94 380.853 428.973 380.09 413 378.57L418.71 281.06Z" fill="#FADD4B"/>
<path d="M352.06 314.106C356.31 324.176 363.52 331.176 367.34 341.686C369.555 348.088 370.661 354.822 370.61 361.596C370.61 365.356 370.61 369.116 370.56 372.876C370.51 376.636 370.44 380.196 370.13 383.876C369.82 387.556 369.47 391.156 369.31 394.876C369.18 397.676 369.18 401.016 368.18 403.636C367.41 405.726 365.44 406.026 364.92 403.506C364.686 402.045 364.613 400.563 364.7 399.086C364.7 397.236 364.85 395.386 364.9 393.536C365.12 386.096 364.84 378.666 364.99 371.226C365.13 363.966 366.07 356.706 364.99 349.496C364.065 343.891 362.202 338.482 359.48 333.496C357.09 328.776 354.48 324.166 352.86 318.796C352.373 317.235 352.038 315.631 351.86 314.006C351.96 313.986 352.02 314.016 352.06 314.106Z" fill="#FADD4B"/>
<path d="M350.91 334.006C351.68 334.671 352.317 335.475 352.79 336.376C353.49 337.466 354.32 338.446 355.03 339.536C356.5 341.806 357.79 344.216 359.14 346.586C361.752 351.067 363.591 355.955 364.58 361.046C365.426 366.477 365.986 371.947 366.26 377.436C366.7 383.226 367.14 389.056 367.2 394.866C367.323 397.517 367.277 400.172 367.06 402.816C366.86 404.426 366.14 405.816 364.5 405.816C361.02 405.816 359.39 401.936 358.71 398.816C357.776 394.094 357.423 389.275 357.66 384.466C357.85 378.736 358.85 373.086 359.28 367.366C359.74 361.366 359.48 355.366 357.4 349.686C356.4 346.806 355.13 343.996 354.04 341.146C353.631 339.913 353.137 338.71 352.56 337.546C351.778 336.334 351.07 335.075 350.44 333.776L350.91 334.006Z" fill="#0D8136"/>
<path d="M390.96 321.946L391.28 321.696C390.92 322.897 390.489 324.076 389.99 325.226C389.644 326.352 389.367 327.497 389.16 328.656C388.56 331.386 387.86 334.046 387.3 336.806C386.17 342.246 386.38 348.116 387.12 354.166C387.82 359.866 388.92 365.566 389.45 371.276C389.938 375.971 390.009 380.699 389.66 385.406C389.37 388.476 388.45 392.136 385.92 391.826C384.73 391.686 384.11 390.256 383.86 388.636C383.46 386.046 383.38 383.316 383.22 380.736C382.87 374.976 382.8 369.246 382.73 363.546C382.67 358.166 382.49 352.686 382.85 347.446C383.182 342.72 384.192 338.065 385.85 333.626C386.66 331.416 387.44 329.146 388.36 327.036C388.8 326.036 389.36 325.126 389.78 324.116C390.022 323.32 390.423 322.582 390.96 321.946V321.946Z" fill="#FADD4B"/>
<path d="M351.98 350.666C352.44 349.896 353.45 352.446 353.61 352.766L353.41 352.286C354.37 353.814 355.132 355.457 355.68 357.176C356.19 358.896 356.68 360.656 357.11 362.386C358.02 365.646 359.18 368.806 360 372.086C360.765 375.245 361.038 378.503 360.81 381.746C360.565 385.197 360.535 388.66 360.72 392.116C360.926 393.726 361.261 395.318 361.72 396.876C362.09 398.456 362.38 400.056 362.81 401.626C362.91 401.416 362.92 402.096 362.92 402.146C362.921 402.517 362.86 402.885 362.74 403.236C362.616 403.694 362.383 404.115 362.061 404.463C361.739 404.811 361.337 405.076 360.89 405.236C359.23 405.706 357.69 404.236 357.15 402.606C356.431 400.244 355.912 397.825 355.6 395.376C355.273 393.172 355.166 390.941 355.28 388.716C355.48 384.306 356.28 379.956 356.49 375.546C356.73 370.746 355.78 366.236 354.98 361.546C354.668 359.3 354.167 357.086 353.48 354.926C353.173 354.085 352.802 353.269 352.37 352.486C352.18 352.016 351.67 351.176 351.98 350.666Z" fill="#FADD4B"/>
<path d="M365.46 343.176C365.26 348.676 364.94 354.126 364.2 359.566C363.46 365.006 362.6 370.656 361.88 376.176C361.029 381.598 360.581 387.077 360.54 392.566C360.61 396.566 359.94 403.446 364.43 405.436C368.92 407.426 369.95 398.836 370.25 395.986C370.707 390.506 370.744 385 370.36 379.516C370.07 373.876 369.59 368.276 369.01 362.656C368.35 356.416 367.84 350.156 367.42 343.896C367.22 340.806 367.17 337.716 367.23 334.626C367.412 331.699 367.038 328.764 366.13 325.976L365.97 326.096" fill="#066F6C"/>
<path d="M388.92 360.596C388.1 361.786 387.28 362.966 386.5 364.226C384.909 366.632 383.884 369.367 383.5 372.226C382.71 378.976 383.34 386.226 383.5 393.226C383.371 394.623 383.51 396.032 383.91 397.376C384.42 398.606 385.37 399.536 386.27 399.536C388.21 399.536 387.91 394.776 387.92 392.686C387.92 389.026 387.51 385.326 387.55 381.686C387.554 378.102 387.815 374.523 388.33 370.976C388.831 367.6 389.614 364.272 390.67 361.026C390.81 360.596 391.84 357.246 390.87 357.816" fill="#0D8136"/>
<path d="M380.36 324.576C379.08 324.576 379.09 330.936 379.05 331.746C378.91 334.696 378.94 337.646 378.86 340.586C378.78 347.031 378.312 353.466 377.46 359.856C376.94 363.276 376.34 366.686 375.69 370.086C375.04 373.486 374.17 376.886 373.69 380.336C373.416 383.662 373.376 387.004 373.57 390.336C373.581 393.678 373.781 397.016 374.17 400.336C374.27 401.156 374.4 401.976 374.54 402.786C374.574 403.513 374.654 404.238 374.78 404.956C374.994 405.416 375.362 405.788 375.819 406.009C376.277 406.229 376.796 406.285 377.29 406.166C379.68 405.726 381.22 402.716 382.04 400.516C383.004 397.641 383.723 394.691 384.19 391.696C384.799 388.332 385.183 384.931 385.34 381.516C385.564 374.573 385.366 367.624 384.75 360.706C384.47 356.856 384.15 353.026 383.66 349.196C383.17 345.366 382.55 341.596 382.14 337.786C381.85 335.006 381.56 332.226 381.36 329.436C381.36 328.776 381.28 324.516 380.36 324.516" fill="#066F6C"/>
<path d="M378.76 370.776C378.55 364.096 375.87 334.776 375.26 326.726C375.11 324.726 373.64 316.296 373.45 314.006C372.93 314.656 372.97 324.726 372.98 327.006C372.99 329.286 372.7 331.546 372.56 333.816C372.42 336.086 368.97 366.146 368.56 368.386C367.67 372.826 367.08 377.386 366.62 381.926C366.16 386.466 365.48 391.016 366.08 395.466C366.198 396.489 366.433 397.496 366.78 398.466C367.17 399.466 367.43 400.416 367.78 401.466C367.956 402.27 368.291 403.031 368.765 403.704C369.238 404.378 369.842 404.949 370.54 405.386C373.35 406.836 374.86 403.556 375.62 400.696C376.848 396.114 377.645 391.426 378 386.696C378.571 381.382 378.852 376.041 378.84 370.696" fill="#0D8136"/>
<path d="M391.76 390.406H349.96C349.43 390.406 349 390.836 349 391.366V433.166C349 433.696 349.43 434.126 349.96 434.126H391.76C392.29 434.126 392.72 433.696 392.72 433.166V391.366C392.72 390.836 392.29 390.406 391.76 390.406Z" fill="white"/>
</svg>
