<svg width="551" height="553" viewBox="0 0 551 553" fill="none" xmlns="http://www.w3.org/2000/svg">
<path d="M275.36 550.72C427.437 550.72 550.72 427.437 550.72 275.36C550.72 123.283 427.437 0 275.36 0C123.283 0 0 123.283 0 275.36C0 427.437 123.283 550.72 275.36 550.72Z" fill="#C5CFD7"/>
<path d="M527.35 386.54H213.09V543.64C233.511 548.354 254.402 550.726 275.36 550.71C387.88 550.71 484.63 483.21 527.35 386.54Z" fill="#E6EBEF"/>
<path d="M536.09 367.49H253.09V386.49H536.09V367.49Z" fill="white"/>
<path d="M518.58 404.54H224.77V479.54H460.12C483.792 458.104 503.571 432.728 518.58 404.54V404.54Z" fill="white"/>
<path d="M224.77 546.06C241.456 549.154 258.39 550.711 275.36 550.71C333.006 550.795 389.213 532.708 435.99 499.02H224.77V546.06Z" fill="white"/>
<path d="M481.97 355.221H435.29C433.771 355.221 432.54 356.452 432.54 357.971V364.831C432.54 366.35 433.771 367.581 435.29 367.581H481.97C483.489 367.581 484.72 366.35 484.72 364.831V357.971C484.72 356.452 483.489 355.221 481.97 355.221Z" fill="#1D5E5B"/>
<path d="M446.27 315.4C452.251 295.792 455.584 275.472 456.18 254.98H462.45C463.051 275.472 466.384 295.791 472.36 315.4H481.29C486.934 315.4 492.346 317.642 496.337 321.633C500.328 325.624 502.57 331.037 502.57 336.68C502.57 342.324 500.328 347.737 496.337 351.728C492.346 355.718 486.934 357.96 481.29 357.96H435.97C430.326 357.96 424.913 355.718 420.923 351.728C416.932 347.737 414.69 342.324 414.69 336.68C414.69 331.037 416.932 325.624 420.923 321.633C424.913 317.642 430.326 315.4 435.97 315.4H446.27Z" fill="#066F6C"/>
<path d="M410.05 159.79C425.79 158.257 441.527 157.49 457.26 157.49C472.993 157.49 488.727 158.257 504.46 159.79L510.81 268.89C492.957 270.597 475.107 271.454 457.26 271.46C439.413 271.467 421.563 270.61 403.71 268.89L410.05 159.79Z" fill="#FADD4B"/>
<path d="M261.18 316.861L282.89 297.541C296.89 298.741 304.777 297.011 306.55 292.351C309.55 289.351 291.07 289.841 294.91 283.521C298.75 277.201 317.08 264.961 315.59 261.191C313.38 255.621 300.59 255.331 293.33 257.771C279.73 262.311 273.64 267.921 262.8 283.291C257.134 291.291 248.71 299.157 237.53 306.891L261.18 316.861Z" fill="#B18B67"/>
<path d="M367.59 461.09C376.3 461.09 383.36 454.029 383.36 445.32C383.36 436.61 376.3 429.55 367.59 429.55C358.881 429.55 351.82 436.61 351.82 445.32C351.82 454.029 358.881 461.09 367.59 461.09Z" fill="#E6EBEF"/>
<path d="M363.93 458.431C372.64 458.431 379.7 451.37 379.7 442.661C379.7 433.951 372.64 426.891 363.93 426.891C355.221 426.891 348.16 433.951 348.16 442.661C348.16 451.37 355.221 458.431 363.93 458.431Z" fill="#FADD4B"/>
<path d="M367.59 552.76C376.3 552.76 383.36 545.699 383.36 536.99C383.36 528.28 376.3 521.22 367.59 521.22C358.881 521.22 351.82 528.28 351.82 536.99C351.82 545.699 358.881 552.76 367.59 552.76Z" fill="#E6EBEF"/>
<path d="M460.12 479.54H527.75V404.54H518.58C503.571 432.728 483.792 458.104 460.12 479.54V479.54Z" fill="white"/>
<path d="M360.06 519.04C358.052 519.548 356.163 520.447 354.503 521.685C352.842 522.923 351.441 524.475 350.381 526.255C349.32 528.034 348.621 530.005 348.322 532.054C348.023 534.104 348.131 536.192 348.64 538.2C348.857 539.024 349.137 539.83 349.48 540.61C359.567 537.789 369.483 534.39 379.18 530.43C378.145 526.391 375.552 522.925 371.97 520.791C368.387 518.656 364.105 518.027 360.06 519.04V519.04Z" fill="#FADD4B"/>
<path d="M249.38 281.12C270.007 301.44 281.737 316.99 284.57 327.77C254.74 359.98 247.99 414.33 226.42 433.41L199.58 358.14C210.47 337.16 221.89 303.54 249.38 281.12Z" fill="#224D82"/>
<path d="M441.377 80.5998L244.41 79.4997C242.118 79.4869 240.249 81.3346 240.237 83.6265L239.548 207.005C239.535 209.297 241.382 211.165 243.674 211.178L440.641 212.278C442.933 212.291 444.802 210.443 444.814 208.151L445.503 84.7729C445.516 82.481 443.669 80.6126 441.377 80.5998Z" fill="white"/>
<path d="M279.357 288.11L307.792 314.597C309.311 316.013 311.69 315.928 313.106 314.409L367.628 255.879C369.044 254.36 368.959 251.981 367.44 250.565L339.006 224.078C337.486 222.662 335.107 222.747 333.691 224.266L279.169 282.796C277.754 284.315 277.838 286.694 279.357 288.11Z" fill="#333333"/>
<path d="M284.696 282.351L312.857 308.603L364.175 253.552L336.013 227.3L284.696 282.351Z" fill="#696666"/>
<path d="M87.0596 433.479C87.6129 448.026 87.9129 462.569 87.9596 477.109C116.141 503.321 149.506 523.331 185.9 535.849C193.98 503.069 201.26 469.109 207.76 433.479H87.0596Z" fill="#333333"/>
<path d="M128.18 264.91H177.73L169.33 205.54C182.7 213.6 195.84 217.49 202 215.9C217.47 211.9 218.89 155.35 206.92 133.04C194.95 110.73 133.45 101.04 130.35 145.21C129.27 160.54 135.71 174.21 145.23 185.4L128.18 264.91Z" fill="#B18B67"/>
<path d="M108.739 130.54C103.459 130.82 97.0295 133.16 94.2595 138.41C90.6595 145.22 95.8095 152.95 101.399 156.11C91.1995 165.11 109.649 177.43 117.239 177.94C115.849 183.4 122.239 185.28 125.739 186.74C123.539 189.48 122.859 193.74 125.489 196.45C127.007 197.852 128.953 198.701 131.013 198.859C133.073 199.017 135.126 198.475 136.839 197.32C137.659 196.75 137.839 196 138.459 195.32C139.05 194.895 139.738 194.627 140.459 194.54C142.239 193.94 143.359 192 144.159 190.28C145.779 186.81 146.429 182.68 149.159 179.88C145.709 178.38 141.569 177.03 139.269 173.55C135.319 167.55 139.669 159.18 145.849 157.55C151.449 156.12 157.759 159.19 161.329 163.84C162.466 160.554 164.236 157.524 166.539 154.92C167.939 153.39 170.429 151.19 167.159 150.31C159.929 148.37 152.379 147.69 145.079 146.04C152.619 146.04 160.179 146.82 167.719 146.11C170.069 145.89 172.469 145.52 173.619 143C175.083 139.738 175.944 136.238 176.159 132.67C178.709 133.56 181.159 134.9 183.929 134.83C184.929 134.83 185.979 134.52 187.019 134.51C187.549 134.514 188.071 134.63 188.552 134.85C189.033 135.071 189.461 135.391 189.809 135.79C193.201 138.928 197.367 141.106 201.879 142.1C204.457 142.799 207.119 143.136 209.789 143.1C210.133 143.022 210.468 142.912 210.789 142.77C211.503 142.762 212.216 142.819 212.919 142.94C213.835 143.043 214.763 142.965 215.648 142.709C216.534 142.454 217.36 142.026 218.079 141.45C218.806 140.821 219.361 140.017 219.692 139.114C220.023 138.212 220.119 137.24 219.971 136.29C219.823 135.34 219.436 134.443 218.846 133.684C218.257 132.925 217.483 132.328 216.599 131.95C219.849 129.557 222.759 126.735 225.249 123.56C226.488 122.017 227.576 120.359 228.499 118.61C229.009 117.61 229.669 116.24 229.379 115.04C228.499 111.44 221.529 113.64 219.519 114.63C219.334 113.854 219.287 113.052 219.379 112.26C219.562 111.497 219.538 110.7 219.309 109.95C219.05 109.386 218.681 108.879 218.225 108.459C217.768 108.038 217.233 107.712 216.649 107.5C215.27 106.88 213.781 106.54 212.269 106.5C211.509 106.5 209.739 106.98 209.349 106.08C209.039 105.37 209.479 104.08 209.609 103.31C209.855 101.986 210.032 100.651 210.139 99.3098C210.299 97.4998 210.429 95.6998 210.559 93.8898C210.748 92.5631 210.748 91.2165 210.559 89.8898C209.799 86.4098 206.129 86.2698 203.479 86.8898C201.658 87.3291 199.935 88.1059 198.399 89.1798C197.289 89.9498 196.239 90.8098 195.139 91.5998C194.409 92.1198 193.839 92.8298 193.029 92.2898C191.139 91.0398 190.159 88.1798 188.779 86.3698C187.217 84.3961 185.141 82.891 182.779 82.0198C177.739 80.1398 172.179 81.4298 167.889 84.5398C166.906 85.2561 165.998 86.0703 165.179 86.9698C164.489 87.7498 163.969 88.3598 162.909 88.1098C161.964 87.7932 161.083 87.3087 160.309 86.6798C159.309 86.0198 158.309 85.4498 157.309 84.8898C153.328 82.627 148.726 81.7016 144.179 82.2498C141.966 82.5072 139.842 83.273 137.974 84.4873C136.106 85.7016 134.543 87.3316 133.409 89.2498C130.869 93.5198 130.009 98.7598 129.919 103.76C127.659 102.82 125.649 101.29 123.319 100.52C120.963 99.7389 118.477 99.4231 115.999 99.5898C112.319 99.8798 108.339 101.17 105.679 104.07C102.369 107.67 102.379 113.01 103.419 117.66C103.974 119.968 104.662 122.241 105.479 124.47C106.101 126.683 107.204 128.732 108.709 130.47" fill="#333333"/>
<path d="M115.05 433.98C119.85 455.88 125.643 481.473 132.43 510.76C164.207 530.102 199.594 542.76 236.43 547.96C230.43 503.74 222.36 466.3 212.68 433.96L115.05 433.98Z" fill="#1C1C1C"/>
<path d="M127.74 224.84C128.22 223.28 128.74 221.71 129.2 220.14L131.02 221C131.3 220.71 131.59 220.42 131.88 220.14L189.31 229.02C189.31 261.32 215.01 291.54 231.31 317.54C256.58 357.95 301.55 402.75 272.72 462.79C246.72 516.896 179.053 525.683 69.7197 489.15C69.7197 460.01 93.7197 430.72 94.4297 395.28C95.1097 361.54 101.42 259.36 127.74 224.84Z" fill="#2158A5"/>
<path d="M199.08 447.45C202.92 427.63 205.41 414.4 206.55 407.76C237.15 442.333 254.816 459.82 259.55 460.22C268.49 460.97 275.1 453.04 276.98 455.27C280.09 464.51 271.31 487.62 254.52 490.98C246.52 492.58 234.1 476.05 228.98 470.19C226.993 467.89 217.026 460.31 199.08 447.45Z" fill="#B18B67"/>
<path d="M183.07 477.62L181.63 482.77C91.7698 419.97 91.7198 343.86 118.45 258.54C98.3098 342.54 106.51 413.37 183.07 477.62Z" fill="#224D82"/>
<path d="M291.33 132.46L283.09 124.13L254.6 188.6L255.41 187.77L291.33 132.46Z" fill="#FADD4B"/>
<path d="M300.54 141.78L291.33 132.46L255.41 187.77L300.54 141.78Z" fill="#FEF0BA"/>
<path d="M300.54 141.779L255.41 187.769L254.93 188.509L320.35 161.809L300.54 141.779Z" fill="#FADD4B"/>
<path d="M333.45 187.8C335.92 185.91 337.59 184.4 339.45 183.25C342.18 181.57 345.1 181.41 347.45 183.85C348.744 185.256 349.73 186.918 350.345 188.728C350.96 190.538 351.19 192.456 351.02 194.36C350.96 195.87 349.45 195.52 348.39 195.65C345.69 195.98 345.91 193.96 345.39 192.26C344.63 189.72 344.6 185.66 340.12 189.49C330.85 197.41 330.78 197.33 326.47 186.13C324.75 188.59 323.37 191.13 321.47 193.13C317.94 196.88 313.24 195.72 311.37 190.97C310.07 187.68 312.04 186.15 314.37 187.48C318.9 190.1 319.37 186.71 320.78 184.22C321 183.83 321.2 183.43 321.44 183.05C323.05 180.52 323.63 176.35 327.53 176.82C331.66 177.31 331.72 181.46 332.53 184.67C332.71 185.54 333 186.33 333.45 187.8Z" fill="#E72262"/>
<path d="M261.18 113.74C254.57 108.74 253.08 104.74 256.35 100.94C257.84 99.2197 260.05 97.4097 262.07 98.6697C263.63 99.6697 263.57 102.25 261.57 103.81C259.57 105.37 260.71 106.29 262.01 107.5C269.71 114.65 269.7 114.68 261.66 121.19C263.49 123.09 265.85 122.09 267.92 122.38C270.32 122.72 272.32 123.62 273.18 125.95C274.04 128.28 272.63 130.29 271.01 131.95C268.42 134.53 265.17 136.04 261.84 137.41C260.13 138.12 259.06 138.1 258.25 136.02C257.51 134.11 257.92 133.13 259.64 132.33C261.81 131.33 264.28 130.75 266.09 128.33C261.66 127.17 256.09 127.96 254.82 122.08C253.77 117.42 258.18 116.34 261.18 113.74Z" fill="#2158A5"/>
<path d="M320.352 161.814C324.346 157.865 319.244 146.23 308.957 135.828C298.67 125.425 287.093 120.194 283.1 124.143C279.106 128.092 284.207 139.727 294.495 150.13C304.782 160.532 316.358 165.763 320.352 161.814Z" fill="#333333"/>
<path d="M254.6 188.6L254.57 188.66L254.93 188.51L255.41 187.77L254.6 188.6Z" fill="#FADD4B"/>
<path d="M312.09 138.639C308.43 139.546 304.763 140.466 301.09 141.399C301.582 139.913 302.575 138.644 303.9 137.809C305.282 136.684 306.721 135.629 308.21 134.649C309.97 133.649 312.13 133.349 314.04 132.649C317.19 131.549 321.45 131.339 323.25 129.129C325.73 126.079 320.93 123.719 319.98 120.719C318.38 115.659 320.09 112.719 325.3 112.589C326.648 112.622 327.989 112.8 329.3 113.119C333.8 114.049 338.38 115.509 335.67 107.629C334.67 104.579 336.86 102.029 339.67 100.549C343.047 98.6942 346.967 98.0787 350.75 98.8094C352 99.0494 351.75 100.619 351.75 101.709C351.81 103.469 350.75 103.979 349.22 103.999C342.93 104.099 339.22 105.309 343.02 113.069C345.29 117.649 341.87 119.999 337.11 120.069C333.54 120.069 330.22 117.959 326.55 118.819C326.41 119.289 326.08 119.819 326.21 120.049C332.02 131.179 330.75 134.049 318.57 137.049L312.09 138.639Z" fill="#FADD4B"/>
<path d="M319.459 150.08C317.459 150.23 315.459 150.55 313.459 150.79C313.156 150.827 312.848 150.767 312.58 150.62C312.312 150.472 312.097 150.244 311.965 149.968C311.833 149.691 311.792 149.381 311.847 149.08C311.901 148.778 312.049 148.502 312.269 148.29C312.613 147.952 312.996 147.657 313.41 147.41C317.13 145.18 320.929 144.96 325.109 144.55C330.312 143.867 335.6 144.321 340.609 145.88C344.899 147.36 348.909 149.34 350.729 153.95C351.189 155.12 352.169 156.61 350.729 157.51C349.289 158.41 347.269 158.51 346.389 157.23C342.609 151.71 336.91 149.73 330.44 149.73C326.94 149.73 323.44 149.82 319.93 150.05L319.459 150.08Z" fill="#2158A5"/>
<path d="M298.96 127.739C298.264 129.528 297.112 131.104 295.62 132.309C295.452 132.425 295.257 132.495 295.054 132.513C294.85 132.53 294.646 132.494 294.461 132.408C294.276 132.322 294.117 132.19 293.999 132.023C293.881 131.857 293.809 131.662 293.789 131.459C293.745 129.234 294.007 127.013 294.57 124.859C295.68 117.669 295.19 111.219 286.43 109.259C283.73 108.659 284.18 106.849 284.43 105.199C284.82 102.679 286.8 103.769 288.13 103.989C298.86 105.759 301.38 116.379 299.63 125.599C299.477 126.333 299.253 127.05 298.96 127.739V127.739Z" fill="#E72262"/>
<path d="M306.73 104.329C308.563 104.329 310.05 102.843 310.05 101.009C310.05 99.1759 308.563 97.6895 306.73 97.6895C304.896 97.6895 303.41 99.1759 303.41 101.009C303.41 102.843 304.896 104.329 306.73 104.329Z" fill="#FADD4B"/>
<path d="M309.84 122.49C311.673 122.49 313.16 121.003 313.16 119.17C313.16 117.336 311.673 115.85 309.84 115.85C308.006 115.85 306.52 117.336 306.52 119.17C306.52 121.003 308.006 122.49 309.84 122.49Z" fill="#2158A5"/>
<path d="M342.16 138.45C343.993 138.45 345.48 136.963 345.48 135.13C345.48 133.296 343.993 131.81 342.16 131.81C340.326 131.81 338.84 133.296 338.84 135.13C338.84 136.963 340.326 138.45 342.16 138.45Z" fill="#E72262"/>
<path d="M347.6 171.749C349.433 171.749 350.92 170.263 350.92 168.429C350.92 166.596 349.433 165.109 347.6 165.109C345.766 165.109 344.28 166.596 344.28 168.429C344.28 170.263 345.766 171.749 347.6 171.749Z" fill="#FADD4B"/>
<path d="M332.07 166.7C333.903 166.7 335.389 165.213 335.389 163.38C335.389 161.546 333.903 160.06 332.07 160.06C330.236 160.06 328.75 161.546 328.75 163.38C328.75 165.213 330.236 166.7 332.07 166.7Z" fill="#FADD4B"/>
<path d="M305.84 182.11C307.673 182.11 309.16 180.623 309.16 178.79C309.16 176.956 307.673 175.47 305.84 175.47C304.006 175.47 302.52 176.956 302.52 178.79C302.52 180.623 304.006 182.11 305.84 182.11Z" fill="#2158A5"/>
<path d="M284.17 191.93C286.003 191.93 287.49 190.444 287.49 188.61C287.49 186.776 286.003 185.29 284.17 185.29C282.336 185.29 280.85 186.776 280.85 188.61C280.85 190.444 282.336 191.93 284.17 191.93Z" fill="#FADD4B"/>
<path d="M259.1 155.06C260.933 155.06 262.42 153.573 262.42 151.74C262.42 149.906 260.933 148.42 259.1 148.42C257.266 148.42 255.78 149.906 255.78 151.74C255.78 153.573 257.266 155.06 259.1 155.06Z" fill="#E72262"/>
<path d="M274.72 104.15C276.553 104.15 278.04 102.663 278.04 100.83C278.04 98.9962 276.553 97.5098 274.72 97.5098C272.886 97.5098 271.4 98.9962 271.4 100.83C271.4 102.663 272.886 104.15 274.72 104.15Z" fill="#FADD4B"/>
<path d="M397.03 172.2C412.958 172.2 425.87 159.287 425.87 143.36C425.87 127.432 412.958 114.52 397.03 114.52C381.102 114.52 368.19 127.432 368.19 143.36C368.19 159.287 381.102 172.2 397.03 172.2Z" fill="#2158A5"/>
<path d="M400.39 129.309L392.39 129.259V121.939H400.44L400.39 129.309ZM392.32 132.879H400.37L400.18 163.289L392.18 163.239L392.32 132.879Z" fill="white"/>
<path d="M340.18 204.54L340.07 234.03C340.068 234.601 340.216 235.163 340.5 235.658C340.784 236.154 341.193 236.566 341.687 236.853C342.181 237.14 342.741 237.291 343.312 237.293C343.883 237.294 344.445 237.145 344.94 236.86L401.36 204.54H340.18Z" fill="white"/>
<path d="M276.89 267.31C275.83 268.18 271.46 275.71 270.89 276.97C268.02 283.57 276.28 289.16 278.56 295.97C278.76 296.57 286.56 296.78 286.56 296.78C300.306 293.593 307.293 289.513 307.52 284.54C308.52 282.54 298.45 282.86 297.52 282.84C294.901 282.895 292.283 282.705 289.7 282.27C286.07 281.5 285.42 280.36 285.52 276.57C285.52 275.04 285.02 271.67 282.73 272.4C281.56 272.79 277.86 266.54 276.89 267.31Z" fill="#B18B67"/>
</svg>
