<svg width="534" height="525" viewBox="0 0 534 525" fill="none" xmlns="http://www.w3.org/2000/svg">
<path d="M350.39 424.08C451.386 424.08 533.26 342.206 533.26 241.21C533.26 140.214 451.386 58.3398 350.39 58.3398C249.394 58.3398 167.52 140.214 167.52 241.21C167.52 342.206 249.394 424.08 350.39 424.08Z" fill="#E6EBEF"/>
<path d="M111.94 232.15C173.763 232.15 223.88 182.032 223.88 120.21C223.88 58.3868 173.763 8.26953 111.94 8.26953C50.1172 8.26953 0 58.3868 0 120.21C0 182.032 50.1172 232.15 111.94 232.15Z" fill="#C5CFD7"/>
<path d="M350.39 424.079C378.697 424.108 406.623 417.554 431.961 404.935C457.3 392.317 479.357 373.978 496.39 351.369H204.42C221.45 373.974 243.502 392.31 268.835 404.929C294.168 417.548 322.088 424.104 350.39 424.079V424.079Z" fill="#7E7B7B"/>
<path d="M193.006 38.2897L104.322 3.37398C99.5888 1.51058 94.2414 3.8368 92.378 8.56973L20.5169 191.093C18.6535 195.826 20.9798 201.173 25.7127 203.037L114.397 237.952C119.13 239.816 124.477 237.49 126.341 232.757L198.202 50.2334C200.065 45.5005 197.739 40.1531 193.006 38.2897Z" fill="#333333"/>
<path d="M189.025 48.2224L101.15 13.6787L35.2898 181.218L123.164 215.762L189.025 48.2224Z" fill="#FADD4B"/>
<path d="M75.5303 216.44C79.2251 216.44 82.2203 213.444 82.2203 209.75C82.2203 206.055 79.2251 203.06 75.5303 203.06C71.8355 203.06 68.8403 206.055 68.8403 209.75C68.8403 213.444 71.8355 216.44 75.5303 216.44Z" fill="#565353"/>
<path d="M172.055 80.2258L92.2632 49.1484L82.388 74.5032L162.18 105.581L172.055 80.2258Z" fill="white"/>
<path d="M160.235 110.572L80.4434 79.4951L55.67 143.101L135.462 174.178L160.235 110.572Z" fill="white"/>
<path d="M219.02 297.71L226.01 298.38L218.63 376.27H211.57L219.02 297.71Z" fill="#1D5E5B"/>
<path d="M213.35 295.16L221.11 295.89L212.92 382.33H205.08L213.35 295.16Z" fill="#066F6C"/>
<path d="M124.024 111.547L81.2818 94.8999C80.7826 94.7055 80.2203 94.9525 80.0259 95.4517L69.599 122.223C69.4046 122.722 69.6517 123.284 70.1509 123.479L112.893 140.126C113.393 140.321 113.955 140.074 114.149 139.574L124.576 112.803C124.771 112.304 124.523 111.742 124.024 111.547Z" fill="#E6EBEF"/>
<path d="M79.3102 133.26L97.6302 130.42C97.7518 130.399 97.8661 130.348 97.9616 130.27C98.0572 130.192 98.1308 130.09 98.1752 129.975C98.2196 129.86 98.2333 129.735 98.2149 129.614C98.1965 129.492 98.1466 129.377 98.0702 129.28L86.4402 114.89C86.3637 114.793 86.2631 114.719 86.1487 114.674C86.0342 114.629 85.9099 114.614 85.7882 114.633C85.6665 114.651 85.5518 114.701 85.4556 114.778C85.3594 114.854 85.2851 114.955 85.2402 115.07L78.5402 132.36C78.5052 132.473 78.4993 132.593 78.5232 132.709C78.5471 132.824 78.6 132.932 78.6769 133.022C78.7538 133.112 78.8522 133.181 78.963 133.223C79.0737 133.264 79.1932 133.277 79.3102 133.26Z" fill="#E6EBEF"/>
<path d="M90.8009 147.291L133.543 163.938C134.043 164.132 134.605 163.885 134.799 163.386L145.226 136.615C145.421 136.116 145.174 135.554 144.674 135.359L101.932 118.712C101.433 118.517 100.87 118.764 100.676 119.264L90.2491 146.035C90.0547 146.534 90.3017 147.096 90.8009 147.291Z" fill="#C5CFD7"/>
<path d="M120.16 164.97L108.59 150.48C108.513 150.384 108.463 150.268 108.445 150.146C108.426 150.024 108.441 149.899 108.487 149.784C108.532 149.67 108.608 149.569 108.705 149.493C108.802 149.416 108.918 149.367 109.04 149.35L127.37 146.57C127.492 146.551 127.617 146.564 127.732 146.609C127.848 146.653 127.949 146.728 128.026 146.824C128.103 146.921 128.154 147.036 128.172 147.158C128.19 147.28 128.176 147.405 128.13 147.52L121.37 164.79C121.324 164.905 121.248 165.005 121.151 165.081C121.054 165.158 120.939 165.208 120.816 165.226C120.694 165.244 120.569 165.23 120.454 165.185C120.339 165.14 120.238 165.066 120.16 164.97V164.97Z" fill="#C5CFD7"/>
<path d="M375.37 38.1201H269.82C268.588 38.1201 267.59 39.1185 267.59 40.3501V106.46C267.59 107.692 268.588 108.69 269.82 108.69H375.37C376.601 108.69 377.6 107.692 377.6 106.46V40.3501C377.6 39.1185 376.601 38.1201 375.37 38.1201Z" fill="#C5CFD7"/>
<path d="M286.29 122.06L323.2 100.65C323.447 100.508 323.653 100.303 323.795 100.057C323.938 99.8101 324.013 99.5301 324.013 99.245C324.013 98.9599 323.938 98.6799 323.795 98.4332C323.653 98.1865 323.447 97.9819 323.2 97.84L286.2 76.58C285.954 76.4367 285.674 76.3613 285.39 76.3613C285.105 76.3614 284.825 76.4369 284.579 76.5802C284.333 76.7236 284.13 76.9295 283.989 77.1772C283.849 77.4249 283.777 77.7053 283.78 77.99L283.86 120.66C283.86 120.944 283.936 121.223 284.078 121.469C284.22 121.715 284.425 121.919 284.671 122.061C284.917 122.203 285.197 122.277 285.481 122.277C285.765 122.277 286.044 122.202 286.29 122.06V122.06Z" fill="#C5CFD7"/>
<path d="M319.62 151.55H414.63C415.796 151.55 416.74 150.605 416.74 149.44V83.0898C416.74 81.9245 415.796 80.9798 414.63 80.9798L319.62 80.9798C318.455 80.9798 317.51 81.9245 317.51 83.0898V149.44C317.51 150.605 318.455 151.55 319.62 151.55Z" fill="white"/>
<path d="M396.7 164.89L359.79 143.49C359.543 143.348 359.337 143.144 359.195 142.897C359.052 142.65 358.977 142.37 358.977 142.085C358.977 141.8 359.052 141.52 359.195 141.273C359.337 141.027 359.543 140.822 359.79 140.68L396.79 119.42C397.036 119.278 397.315 119.203 397.599 119.203C397.883 119.203 398.163 119.278 398.409 119.419C398.655 119.561 398.86 119.765 399.002 120.011C399.144 120.257 399.22 120.536 399.22 120.82L399.14 163.49C399.141 163.776 399.066 164.056 398.923 164.304C398.78 164.551 398.574 164.756 398.326 164.898C398.079 165.04 397.798 165.114 397.512 165.113C397.227 165.112 396.946 165.035 396.7 164.89V164.89Z" fill="white"/>
<path d="M132.94 512.64C194.763 512.64 244.88 462.523 244.88 400.7C244.88 338.877 194.763 288.76 132.94 288.76C71.1172 288.76 21 338.877 21 400.7C21 462.523 71.1172 512.64 132.94 512.64Z" fill="#C5CFD7"/>
<path d="M119.102 286.289L35.9034 332.787C31.4632 335.269 29.8754 340.88 32.357 345.32L128.056 516.552C130.537 520.992 136.148 522.58 140.588 520.099L223.787 473.601C228.227 471.119 229.814 465.508 227.333 461.068L131.634 289.836C129.153 285.395 123.542 283.808 119.102 286.289Z" fill="#333333"/>
<path d="M124.268 295.659L41.8706 341.766L129.777 498.863L212.175 452.756L124.268 295.659Z" fill="white"/>
<path d="M177.34 492.49C181.035 492.49 184.03 489.495 184.03 485.8C184.03 482.106 181.035 479.11 177.34 479.11C173.645 479.11 170.65 482.106 170.65 485.8C170.65 489.495 173.645 492.49 177.34 492.49Z" fill="#565353"/>
<path d="M100.62 76.2595C105.955 76.2595 110.28 71.9345 110.28 66.5994C110.28 61.2644 105.955 56.9395 100.62 56.9395C95.2849 56.9395 90.96 61.2644 90.96 66.5994C90.96 71.9345 95.2849 76.2595 100.62 76.2595Z" fill="#C5CFD7"/>
<path d="M105.24 68.3695L105.18 68.5395C104.51 70.2395 103.85 71.9295 103.18 73.6295C103.143 73.7722 103.056 73.8968 102.935 73.9811C102.814 74.0654 102.667 74.1039 102.52 74.0895H102.3L100.03 73.1995C99.8913 73.1583 99.7712 73.0697 99.6908 72.9491C99.6105 72.8285 99.5748 72.6836 99.5902 72.5395C99.6031 72.4428 99.63 72.3485 99.6702 72.2595L100.78 69.4095C100.89 69.1195 100.85 69.0295 100.56 68.9195L98.8602 68.2595C98.6002 68.1595 98.4902 68.1995 98.4002 68.4595L97.2602 71.3795C97.2359 71.4697 97.192 71.5534 97.1314 71.6245C97.0708 71.6956 96.9952 71.7523 96.9101 71.7906C96.8249 71.8289 96.7322 71.8478 96.6389 71.8458C96.5455 71.8439 96.4537 71.8213 96.3702 71.7795L94.1302 70.8895C94.0398 70.8658 93.956 70.8219 93.885 70.7611C93.814 70.7004 93.7576 70.6244 93.7201 70.5388C93.6826 70.4532 93.6649 70.3602 93.6684 70.2669C93.6719 70.1735 93.6964 70.0821 93.7402 69.9995L95.7402 64.8995L95.8002 64.7395L95.0802 64.4495C94.9811 64.4156 94.8843 64.3755 94.7902 64.3295C94.6947 64.2742 94.6154 64.1947 94.5603 64.099C94.5052 64.0034 94.4762 63.8949 94.4762 63.7845C94.4762 63.6742 94.5052 63.5657 94.5603 63.4701C94.6154 63.3744 94.6947 63.2949 94.7902 63.2395H94.8802L102.55 59.8695C102.657 59.7986 102.782 59.7607 102.91 59.7607C103.038 59.7607 103.164 59.7986 103.27 59.8695C103.375 59.9556 103.457 60.0653 103.51 60.1895C104.644 62.7495 105.767 65.3062 106.88 67.8595C106.946 67.9739 106.974 68.1064 106.96 68.2377C106.946 68.369 106.89 68.4923 106.8 68.5895C106.708 68.6979 106.581 68.7718 106.441 68.799C106.302 68.8263 106.157 68.8053 106.03 68.7395L105.24 68.3695Z" fill="black"/>
<path d="M116.15 65.8291L166.58 85.4691" stroke="#1D1D1B" stroke-miterlimit="10"/>
<path d="M114.43 70.2695L164.85 89.8995" stroke="#1D1D1B" stroke-miterlimit="10"/>
<path d="M112.7 74.6992L163.13 94.3392" stroke="#1D1D1B" stroke-miterlimit="10"/>
<path d="M110.97 79.1299L161.4 98.7699" stroke="#1D1D1B" stroke-miterlimit="10"/>
<path d="M265.81 290.77C273.39 290.77 282.12 294.71 289.49 294.09C300.91 293.09 310.49 287.66 321.27 288.9C321.957 288.923 322.634 289.069 323.27 289.33C323.229 289.302 323.192 289.268 323.16 289.23L327.83 285.1C328.172 284.793 328.431 284.406 328.585 283.973C328.739 283.541 328.782 283.077 328.71 282.624C328.638 282.17 328.455 281.742 328.175 281.378C327.896 281.014 327.53 280.726 327.11 280.54C325.596 279.909 323.994 279.518 322.36 279.38C310.63 278.02 298.87 279.009 287.49 279.969C276.11 280.929 265.63 281.81 255 280.64C252.71 280.39 250.2 279.97 248.93 278.76C247.13 277.04 247.11 273.14 247.24 269.61C247.657 257.704 246.758 245.788 244.56 234.08C241.96 220.82 237.75 210.55 232.04 203.49C231.801 203.199 231.504 202.962 231.169 202.791C230.833 202.621 230.466 202.522 230.09 202.501C229.715 202.479 229.339 202.535 228.986 202.666C228.633 202.796 228.311 202.999 228.04 203.26L225.04 206.11C224.545 206.578 224.244 207.215 224.197 207.896C224.151 208.576 224.363 209.248 224.79 209.78C234.7 222.37 238.42 248.27 237.65 269.26C237.51 273.32 237.23 280.86 242.31 285.7C245.64 288.88 250.06 289.7 253.94 290.17C257.883 290.584 261.846 290.785 265.81 290.77V290.77Z" fill="#1D5E5B"/>
<path d="M423.7 233.64L408.1 254.21C398.72 258.73 394.57 261.543 395.65 262.65C397.25 264.31 399.65 262.24 400.87 263.18C402.09 264.12 400.87 268.47 399.44 272.54C398.01 276.61 400.2 275.89 401.37 275.12C405.504 270.898 409.04 266.131 411.88 260.95L435.09 242.12L423.7 233.64Z" fill="#B18B67"/>
<path d="M436.97 183.76C434.34 188.18 424.11 230.54 417.62 238.22C417.471 238.399 417.366 238.61 417.315 238.837C417.263 239.064 417.266 239.3 417.324 239.526C417.382 239.751 417.492 239.96 417.646 240.135C417.8 240.309 417.993 240.445 418.21 240.53L427.82 244.34C436.99 234.26 456.17 201.99 455.32 190.12C454.83 183.37 445.85 177.97 439.59 181.12C438.484 181.734 437.575 182.649 436.97 183.76V183.76Z" fill="#702370"/>
<path d="M440.03 292.05C432.45 292.05 424.92 291.42 417.54 290.8C406.13 289.8 395.35 288.94 384.54 290.18C383.854 290.205 383.177 290.351 382.54 290.61L382.65 290.51L377.99 286.37C377.649 286.064 377.389 285.678 377.235 285.246C377.081 284.815 377.038 284.351 377.11 283.898C377.181 283.446 377.366 283.018 377.645 282.655C377.925 282.292 378.291 282.005 378.71 281.82C380.221 281.191 381.82 280.8 383.45 280.66C395.18 279.3 406.95 280.29 418.33 281.25C429.71 282.21 440.19 283.08 450.82 281.92C453.11 281.67 455.62 281.25 456.89 280.04C458.69 278.32 458.7 274.41 458.57 270.89C458.158 258.984 459.057 247.069 461.25 235.36C463.86 222.1 468.06 211.82 473.77 204.77C474.01 204.48 474.306 204.242 474.642 204.072C474.977 203.901 475.345 203.802 475.72 203.781C476.096 203.759 476.472 203.816 476.825 203.946C477.177 204.077 477.499 204.279 477.77 204.54L480.77 207.38C481.265 207.851 481.565 208.49 481.611 209.171C481.657 209.852 481.446 210.526 481.02 211.06C471.12 223.65 467.4 249.55 468.16 270.54C468.31 274.59 468.58 282.14 463.51 286.98C460.17 290.16 455.75 290.98 451.87 291.45C447.937 291.864 443.985 292.064 440.03 292.05V292.05Z" fill="#1D5E5B"/>
<path d="M275.07 137.65C277.93 148.19 281.65 171.88 277.85 175.65H253.78V175.52C249.419 175.031 245.392 172.952 242.466 169.682C239.54 166.411 237.922 162.178 237.92 157.79V140.31C237.92 135.578 239.799 131.041 243.145 127.695C246.491 124.349 251.028 122.47 255.76 122.47H257.42C261.691 122.472 265.82 124.004 269.058 126.789C272.296 129.574 274.429 133.427 275.07 137.65Z" fill="#F49819"/>
<path d="M247.27 154.409C243.44 149.919 240.85 144.409 241.27 138.259C242.51 120.499 267.27 124.409 272.04 133.369C276.81 142.329 276.28 165.069 270.04 166.669C267.56 167.309 262.28 165.739 256.9 162.509L260.28 186.369H240.41L247.27 154.409Z" fill="#E2B7A1"/>
<path d="M252.7 151.41C253.62 161.27 253.25 172.52 250.52 175.2H226.4C225.06 151.89 238.02 160.89 238.02 138.99C238.83 138.2 239.59 137.42 240.34 136.74V136.1C244.5 127.573 249.787 123.306 256.2 123.3C265.81 123.3 268.84 127.77 271.42 131.57C269.49 138.19 262 139.18 255.34 143.31C254.773 142.853 254.104 142.538 253.391 142.392C252.677 142.246 251.938 142.274 251.237 142.472C250.536 142.67 249.893 143.033 249.361 143.531C248.829 144.029 248.425 144.647 248.181 145.334C247.937 146.02 247.861 146.755 247.96 147.477C248.059 148.199 248.329 148.887 248.748 149.483C249.167 150.079 249.722 150.565 250.368 150.902C251.014 151.24 251.731 151.417 252.46 151.42L252.7 151.41Z" fill="#F49819"/>
<path d="M426.58 297.709L433.57 298.379L426.19 376.269H419.13L426.58 297.709Z" fill="#1D5E5B"/>
<path d="M486.19 297.709L479.19 298.379L486.58 376.269H493.64L486.19 297.709Z" fill="#1D5E5B"/>
<path d="M407.2 296.269C408.4 294.919 410.34 294.579 412.14 294.369C434.48 291.779 457.14 298.079 479.48 295.629C482.65 295.279 486.02 294.629 488.33 292.449C491.61 289.319 491.66 284.189 491.5 279.659C490.79 260.129 489.59 228.559 503.04 214.389L478.04 206.829L436.16 271.889L407.16 296.259" fill="#1D5E5B"/>
<path d="M383.01 267.609C383.01 283.609 397.62 358.919 398.38 363.679C399.14 368.439 407.3 369.679 407.78 363.679C408.53 354.119 409.94 321.049 408.53 305.739C407.95 299.429 407.33 293.409 406.71 288.039C407.11 288.769 407.53 289.519 407.96 290.269L396.13 259.989C390.14 259.159 383.01 263.189 383.01 267.609Z" fill="#B18B67"/>
<path d="M409.7 359.89C410.389 361.501 410.815 363.213 410.96 364.96C410.897 366.975 410.669 368.981 410.28 370.96H367.7C366.587 367.3 367.227 365.323 369.62 365.03C372.013 364.736 373.993 364.473 375.56 364.24L395.36 355.42C395.45 355.377 395.548 355.352 395.648 355.348C395.748 355.344 395.848 355.36 395.941 355.396C396.035 355.431 396.12 355.485 396.192 355.555C396.264 355.624 396.321 355.708 396.36 355.8V355.8L397.64 358.89C399.306 359.773 401.139 360.297 403.02 360.43C404.643 360.294 406.221 359.831 407.66 359.07V359.07C408.025 358.906 408.44 358.894 408.814 359.034C409.188 359.174 409.492 359.457 409.66 359.82C409.671 359.844 409.684 359.868 409.7 359.89V359.89Z" fill="white"/>
<path d="M382.2 273.04C382.2 293.11 391.73 339.9 391.73 344.32H412.23C409.23 302.56 408.167 281.456 409.04 281.01C410.35 280.33 440.97 286.23 456.67 286.23C479.31 286.23 444.59 245.51 444.59 245.51C435.46 246.51 409.59 256.09 391.86 259.4C384.29 260.83 382.2 267.52 382.2 273.04Z" fill="#224D82"/>
<path d="M375.35 270.81C375.35 286.81 389.95 362.11 390.71 366.88C391.47 371.65 399.63 372.88 400.11 366.88C400.87 357.33 398.44 324.26 397.03 308.95C396.45 302.63 399.66 296.61 399.03 291.24L400.28 293.48L388.45 263.19C382.48 262.35 375.34 266.39 375.35 270.81Z" fill="#B18B67"/>
<path d="M456.12 156.969C459.6 152.879 461.96 147.879 461.57 142.269C460.43 126.109 437.94 129.659 433.57 137.819C429.2 145.979 429.71 166.659 435.37 168.119C437.62 168.699 442.43 167.279 447.32 164.329L444.25 186.049H462.37L456.12 156.969Z" fill="#B18B67"/>
<path d="M469.47 136.889C470.019 136.251 470.422 135.5 470.65 134.689C470.952 133.876 471.202 133.044 471.4 132.199C471.79 130.499 471.79 128.549 470.58 127.199C469.567 126.203 468.22 125.618 466.8 125.559C465.894 125.503 464.984 125.618 464.12 125.899C463.27 126.179 462.54 126.739 461.71 127.089C461.75 125.24 461.313 123.411 460.44 121.779C460.025 121.077 459.454 120.48 458.771 120.034C458.087 119.589 457.31 119.306 456.5 119.209C454.834 119.016 453.151 119.367 451.7 120.209C451.321 120.404 450.954 120.622 450.6 120.859C450.316 121.086 449.995 121.262 449.65 121.379C449.26 121.469 449.07 121.249 448.81 120.969C448.512 120.636 448.176 120.337 447.81 120.079C447.057 119.49 446.169 119.097 445.227 118.936C444.284 118.776 443.316 118.852 442.41 119.159C441.543 119.473 440.781 120.024 440.21 120.749C439.71 121.409 439.35 122.449 438.65 122.909C438.36 123.109 438.15 122.849 437.88 122.659C437.61 122.469 437.1 122.059 436.69 121.779C436.132 121.379 435.5 121.094 434.83 120.939C433.83 120.709 432.52 120.769 432.24 122.039C432.175 122.527 432.175 123.021 432.24 123.509L432.39 125.509C432.432 126.006 432.499 126.5 432.59 126.989C432.698 127.311 432.729 127.654 432.68 127.989C432.54 128.319 431.89 128.129 431.62 128.149C431.066 128.156 430.518 128.275 430.01 128.499C429.792 128.575 429.592 128.694 429.42 128.849C429.248 129.003 429.109 129.19 429.01 129.399C428.941 129.675 428.941 129.964 429.01 130.239C429.065 130.527 429.065 130.822 429.01 131.109C428.28 130.739 425.73 129.939 425.41 131.259C425.365 131.717 425.478 132.176 425.73 132.559C426.063 133.202 426.462 133.809 426.92 134.369C427.828 135.533 428.891 136.566 430.08 137.439C429.757 137.577 429.475 137.795 429.259 138.073C429.044 138.35 428.902 138.678 428.848 139.025C428.794 139.372 428.829 139.727 428.951 140.056C429.072 140.386 429.275 140.68 429.54 140.909C429.803 141.122 430.105 141.28 430.43 141.375C430.754 141.469 431.095 141.498 431.43 141.459C431.688 141.416 431.949 141.396 432.21 141.399C432.323 141.45 432.44 141.49 432.56 141.519C433.536 141.531 434.509 141.406 435.45 141.149C437.102 140.783 438.627 139.986 439.87 138.839C439.996 138.696 440.149 138.581 440.321 138.5C440.493 138.419 440.68 138.375 440.87 138.369C441.25 138.369 441.62 138.479 442 138.489C442.988 138.404 443.951 138.136 444.84 137.699C444.921 139.005 445.236 140.285 445.77 141.479C446.19 142.399 447.07 142.539 447.93 142.619C450.68 142.879 453.45 142.619 456.21 142.619C453.54 143.219 450.78 143.469 448.13 144.179C446.93 144.499 447.85 145.309 448.36 145.869C449.201 146.821 449.847 147.929 450.26 149.129C450.894 148.255 451.76 147.575 452.761 147.169C453.762 146.762 454.856 146.645 455.92 146.829C458.18 147.409 459.78 150.469 458.33 152.659C457.49 153.939 455.98 154.429 454.72 154.979C455.72 155.979 455.94 157.509 456.53 158.779C456.758 159.456 457.243 160.017 457.88 160.339C458.139 160.373 458.386 160.469 458.6 160.619C458.84 160.869 458.89 161.139 459.19 161.349C459.817 161.772 460.568 161.97 461.321 161.912C462.074 161.854 462.786 161.543 463.34 161.029C463.757 160.527 463.978 159.89 463.961 159.237C463.945 158.585 463.692 157.96 463.25 157.479C464.53 156.949 466.87 156.259 466.36 154.259C469.14 154.079 475.88 149.569 472.15 146.259C474.2 145.099 476.08 142.259 474.77 139.779C473.77 137.869 471.4 137.009 469.47 136.909" fill="#333333"/>
<path d="M402.02 363.059C402.712 364.667 403.141 366.375 403.29 368.119C403.222 370.134 402.995 372.14 402.61 374.119H360.01C358.91 370.459 359.55 368.486 361.93 368.199C364.31 367.909 366.3 367.639 367.87 367.409L387.67 358.579C387.853 358.498 388.061 358.492 388.249 358.563C388.436 358.634 388.587 358.777 388.67 358.959L389.94 362.049C391.607 362.933 393.439 363.461 395.32 363.599C396.945 363.457 398.525 362.995 399.97 362.239V362.239C400.334 362.072 400.748 362.057 401.123 362.196C401.498 362.334 401.803 362.616 401.97 362.979L402.02 363.059Z" fill="white"/>
<path d="M373.25 276.24C373.25 296.3 382.78 343.1 382.79 347.52H403.29C400.29 305.773 399.223 284.67 400.09 284.21C401.4 283.54 432.02 289.44 447.72 289.44C470.36 289.44 479.72 275.16 480.49 248.72H435.64C426.51 249.72 400.64 259.3 382.92 262.6C375.35 264.03 373.25 270.71 373.25 276.24Z" fill="#2158A5"/>
<path d="M480.49 248.729H435.64C426.51 249.729 400.64 259.309 382.92 262.609C375.35 264.029 373.25 270.71 373.25 276.24C373.25 296.3 382.78 343.1 382.79 347.52H403.29C401.957 328.78 401 314.206 400.42 303.799C398.05 301.679 395.77 299.449 393.55 297.249C391.55 295.319 389.55 293.249 388.86 290.609C388.361 288.122 388.587 285.543 389.51 283.18C391.45 277.09 395.19 271.119 401.09 268.659C405.53 266.819 410.53 267.199 415.32 267.659L428.04 268.749C437.32 269.549 446.72 270.37 455.49 273.52C460.758 275.413 465.7 278.111 470.14 281.52C476.89 274.7 480.06 263.649 480.49 248.729Z" fill="#2158A5"/>
<path d="M468.15 300.999C460.57 300.999 453.03 300.359 445.66 299.739C434.25 298.739 423.47 297.879 412.66 299.129C411.973 299.147 411.296 299.29 410.66 299.549C410.701 299.521 410.738 299.488 410.77 299.449L406.1 295.319C405.758 295.013 405.499 294.626 405.345 294.193C405.192 293.761 405.149 293.297 405.22 292.843C405.292 292.39 405.476 291.962 405.755 291.598C406.035 291.234 406.401 290.946 406.82 290.759C408.332 290.127 409.936 289.738 411.57 289.609C423.3 288.249 435.06 289.239 446.44 290.189C457.82 291.139 468.3 292.029 478.93 290.869C481.22 290.609 483.73 290.189 485 288.979C486.8 287.269 486.82 283.359 486.69 279.829C486.273 267.923 487.172 256.008 489.37 244.299C491.97 231.039 496.18 220.769 501.89 213.709C502.129 213.419 502.426 213.181 502.762 213.011C503.097 212.841 503.464 212.742 503.84 212.72C504.215 212.699 504.591 212.755 504.944 212.886C505.297 213.016 505.619 213.218 505.89 213.479L508.89 216.329C509.384 216.8 509.684 217.439 509.73 218.121C509.777 218.802 509.566 219.476 509.14 220.009C499.23 232.599 495.51 258.499 496.28 279.479C496.42 283.539 496.7 291.079 491.62 295.919C488.29 299.099 483.87 299.969 479.99 300.389C476.058 300.811 472.105 301.015 468.15 300.999V300.999Z" fill="#066F6C"/>
<path d="M426.79 279.23C422.55 278.87 419.56 267.98 415.32 267.62C410.53 267.21 405.53 266.83 401.09 268.62C395.19 271.08 391.45 277.05 389.51 283.14C388.587 285.503 388.362 288.082 388.86 290.57C389.57 293.22 391.6 295.28 393.55 297.21C395.77 299.41 398.05 301.64 400.42 303.76C399.72 290.96 399.61 284.43 400.09 284.17C401.4 283.5 432.02 289.4 447.72 289.4C457.58 289.4 464.93 286.69 470.14 281.4C465.7 278 458.89 283.16 453.63 281.27C444.86 278.22 436.07 280.03 426.79 279.23Z" fill="#2158A5"/>
<path d="M491.86 295.159L484.09 295.889L492.29 382.329H500.12L491.86 295.159Z" fill="#066F6C"/>
<path d="M420.79 295.159L428.56 295.889L420.36 382.329H412.53L420.79 295.159Z" fill="#066F6C"/>
<path d="M278.63 297.709L271.63 298.379L279.02 376.269H286.08L278.63 297.709Z" fill="#1D5E5B"/>
<path d="M298 296.269C296.81 294.919 294.86 294.579 293.07 294.369C270.73 291.779 248.07 298.079 225.73 295.629C222.56 295.279 219.19 294.629 216.88 292.449C213.6 289.319 213.54 284.189 213.71 279.659C214.42 260.129 215.62 228.559 202.16 214.389L227.16 206.829L269.04 271.889L298.04 296.259" fill="#1D5E5B"/>
<path d="M322.19 267.609C322.19 283.609 308.45 358.919 307.73 363.679C307.01 368.439 299.34 369.679 298.89 363.679C298.18 354.119 296.89 321.049 298.18 305.749C298.73 299.429 299.32 293.409 299.9 288.039C299.52 288.769 299.12 289.519 298.72 290.269L309.85 259.989C315.48 259.159 322.2 263.189 322.19 267.609Z" fill="#B18B67"/>
<path d="M295.56 359.769C295.642 359.588 295.759 359.426 295.904 359.29C296.049 359.155 296.219 359.049 296.405 358.98C296.59 358.91 296.788 358.878 296.986 358.884C297.184 358.891 297.379 358.937 297.56 359.019V359.019C299.003 359.78 300.584 360.242 302.21 360.379C304.091 360.245 305.923 359.721 307.59 358.839L308.86 355.749C308.943 355.567 309.095 355.424 309.282 355.353C309.469 355.282 309.677 355.288 309.86 355.369L329.66 364.189C331.233 364.429 333.213 364.692 335.6 364.979C337.987 365.266 338.623 367.242 337.51 370.909H294.93C294.546 368.93 294.318 366.924 294.25 364.909C294.395 363.161 294.824 361.449 295.52 359.839L295.56 359.769Z" fill="white"/>
<path d="M313.34 259.419C295.65 256.109 269.75 246.509 260.62 245.529C260.62 245.529 225.9 286.249 248.54 286.249C264.24 286.249 294.86 280.349 296.17 281.029C297.04 281.479 297.74 317.559 294.74 359.319L308.37 359.109C308.37 354.689 323.01 293.109 323.01 273.039C323.01 267.519 320.91 260.829 313.34 259.419Z" fill="#1C1C1C"/>
<path d="M329.86 270.81C329.86 286.81 315.25 362.11 314.49 366.88C313.73 371.65 305.57 372.88 305.1 366.88C304.34 357.33 306.77 324.26 308.18 308.95C308.76 302.63 305.55 296.61 306.18 291.24L304.94 293.48L316.7 263.2C322.7 262.35 329.87 266.39 329.86 270.81Z" fill="#B18B67"/>
<path d="M303.23 362.959C303.312 362.779 303.429 362.616 303.574 362.481C303.719 362.346 303.89 362.241 304.076 362.172C304.261 362.103 304.459 362.072 304.657 362.08C304.856 362.088 305.05 362.136 305.23 362.219C306.674 362.977 308.255 363.439 309.88 363.579C311.761 363.441 313.593 362.913 315.26 362.029L316.53 358.939C316.613 358.757 316.764 358.615 316.952 358.544C317.139 358.473 317.347 358.478 317.53 358.559L337.32 367.389C338.9 367.619 340.88 367.889 343.27 368.179C345.66 368.469 346.27 370.439 345.18 374.099H302.6C302.216 372.12 301.988 370.114 301.92 368.099C302.064 366.355 302.493 364.645 303.19 363.039C303.2 363.011 303.214 362.985 303.23 362.959V362.959Z" fill="white"/>
<path d="M307.52 348.46L318.59 348.78C318.59 343.37 331.95 296.54 331.95 276.24C331.95 270.71 329.86 264.029 322.29 262.609C304.6 259.309 278.7 249.699 269.56 248.729H224.7C225.46 275.169 234.82 289.449 257.46 289.449C273.16 289.449 304.73 282.799 305.09 284.219" fill="#333333"/>
<path d="M286.23 212.069L305.28 194.629C315.28 191.856 319.867 189.833 319.04 188.559C317.76 186.639 315.04 188.259 314.04 187.099C313.04 185.939 315.04 181.899 317.14 178.099C319.24 174.299 316.99 174.669 315.7 175.209C310.877 178.627 306.541 182.684 302.81 187.269L276.6 201.629L286.23 212.069ZM318.23 225.349C322.4 222.167 327.094 219.737 332.1 218.169C340.28 215.889 343.59 214.169 347.59 209.059C349.73 206.329 351.54 200.859 349.51 199.059C348.13 197.859 340.14 203.799 336.87 204.469C333.6 205.139 336.61 197.369 334.87 198.179C332.623 198.219 330.693 201.313 329.08 207.459L317.6 213.789L318.23 225.349Z" fill="#E2B7A1"/>
<path d="M270.64 215.57C281.72 215.88 294.39 208.57 303.4 199.57L298.27 188.13C287.991 194.779 276.031 198.362 263.79 198.46C262.391 199.843 261.431 201.608 261.03 203.534C260.629 205.46 260.805 207.462 261.537 209.288C262.268 211.115 263.522 212.685 265.141 213.802C266.76 214.92 268.673 215.534 270.64 215.57Z" fill="#224D82"/>
<path d="M224.7 248.729H269.54C278.68 249.729 304.54 259.309 322.27 262.609C329.84 264.029 331.93 270.71 331.93 276.24C331.93 296.3 318.79 355.969 318.79 360.379L303.02 360.599C304.37 341.859 304.2 314.23 304.77 303.81C307.14 301.69 309.42 299.459 311.64 297.259C313.64 295.329 315.64 293.26 316.33 290.62C316.99 288.19 316.44 285.619 315.67 283.189C313.73 277.099 309.99 271.129 304.09 268.669C299.66 266.829 294.65 267.209 289.87 267.669L277.15 268.759C267.87 269.559 258.46 270.38 249.7 273.53C244.432 275.421 239.489 278.12 235.05 281.53C228.32 274.7 225.15 263.649 224.7 248.729Z" fill="#333333"/>
<path d="M264.4 169.43H243.4C241.11 169.43 225.49 199.37 225.47 218.82C225.47 236.58 216.6 247.82 225.15 275.61C238.8 272.93 271.72 286.61 278.65 271.84C282.02 264.67 283.03 256.84 282.59 248.58C296.48 248.27 313.35 243.69 333.03 233.41C333.457 228.396 330.827 220.003 325.14 208.23C302.2 216.39 285.867 219.256 276.14 216.83C271.37 200.66 265.55 184.29 264.4 169.43Z" fill="#2158A5"/>
<path d="M237.06 300.999C244.64 300.999 252.18 300.359 259.55 299.739C270.96 298.739 281.74 297.879 292.55 299.129C293.236 299.149 293.914 299.291 294.55 299.549C294.509 299.521 294.471 299.488 294.44 299.449L299.1 295.319C299.444 295.014 299.706 294.627 299.861 294.194C300.016 293.761 300.06 293.296 299.988 292.842C299.916 292.388 299.731 291.959 299.45 291.595C299.169 291.231 298.801 290.944 298.38 290.759C296.871 290.128 295.271 289.74 293.64 289.609C281.91 288.249 270.14 289.239 258.76 290.189C247.38 291.139 236.9 292.029 226.27 290.869C223.98 290.609 221.47 290.189 220.21 288.979C218.4 287.269 218.39 283.359 218.52 279.829C218.932 267.923 218.033 256.009 215.84 244.299C213.23 231.039 209.03 220.769 203.32 213.709C203.081 213.419 202.784 213.181 202.448 213.011C202.113 212.841 201.746 212.742 201.37 212.72C200.995 212.699 200.619 212.755 200.266 212.886C199.913 213.016 199.591 213.218 199.32 213.479L196.32 216.329C195.826 216.8 195.526 217.439 195.479 218.121C195.433 218.802 195.644 219.476 196.07 220.009C205.97 232.599 209.69 258.499 208.93 279.479C208.78 283.539 208.51 291.079 213.58 295.919C216.92 299.099 221.34 299.969 225.22 300.389C229.152 300.811 233.105 301.015 237.06 300.999V300.999Z" fill="#066F6C"/>
<path d="M278.41 279.23C282.65 278.87 285.65 267.98 289.89 267.62C294.67 267.21 299.68 266.83 304.11 268.62C310.01 271.08 313.75 277.05 315.69 283.14C316.46 285.54 317.01 288.14 316.35 290.57C315.63 293.22 313.61 295.28 311.66 297.21C309.44 299.41 307.16 301.64 304.79 303.76C305.457 290.96 305.564 284.43 305.11 284.17C303.8 283.5 273.18 289.4 257.48 289.4C247.62 289.4 240.28 286.69 235.07 281.4C239.5 278 246.32 283.16 251.58 281.27C260.34 278.22 269.13 280.03 278.41 279.23Z" fill="#333333"/>
<path d="M284.41 295.159L276.65 295.889L284.84 382.329H292.68L284.41 295.159Z" fill="#066F6C"/>
<path d="M479.7 218.82C479.7 199.37 464.07 169.43 461.77 169.43H440.81C440.06 179.03 437.37 189.26 434.27 199.65C434.45 199.13 434.63 198.65 434.82 198.07C434.63 198.6 434.45 199.13 434.27 199.65C426.72 221.44 415.95 249.38 426.51 271.84C433.45 286.58 466.37 272.93 480.02 275.61C488.56 247.89 479.7 236.58 479.7 218.82Z" fill="#913B8E"/>
<path d="M438.12 240.319L419.07 257.759C409.07 260.519 404.483 262.543 405.31 263.829C406.59 265.749 409.31 264.129 410.31 265.289C411.31 266.449 409.31 270.489 407.22 274.289C405.13 278.089 407.37 277.719 408.66 277.179C413.483 273.762 417.819 269.704 421.55 265.119L447.76 250.759L438.12 240.319Z" fill="#B18B67"/>
<path d="M91.3202 343.29C96.6552 343.29 100.98 338.965 100.98 333.63C100.98 328.295 96.6552 323.97 91.3202 323.97C85.9851 323.97 81.6602 328.295 81.6602 333.63C81.6602 338.965 85.9851 343.29 91.3202 343.29Z" fill="#333333"/>
<path d="M84 332.549C84.1099 332.451 84.2269 332.36 84.35 332.279L93.77 326.989C93.916 326.925 94.0664 326.872 94.22 326.829V326.989C93.5 329.409 92.77 331.829 92.05 334.239C92.0393 334.298 92.0156 334.355 91.9807 334.404C91.9457 334.453 91.9004 334.494 91.8478 334.523C91.7953 334.553 91.7369 334.571 91.6768 334.575C91.6167 334.58 91.5563 334.571 91.5 334.549L84.18 332.619H84.06L84 332.549Z" fill="white"/>
<path d="M88.25 339.979L89.82 334.789H89.96L91.34 335.149C91.5533 335.215 91.7824 335.207 91.9907 335.127C92.1991 335.048 92.3749 334.901 92.49 334.709C92.5475 334.616 92.5913 334.515 92.62 334.409C92.77 333.929 92.91 333.409 93.06 332.939L98.31 334.309C98.18 334.399 98.09 334.479 97.98 334.539L88.61 339.789C88.51 339.889 88.4 339.889 88.25 339.979Z" fill="white"/>
<path d="M98.5402 333.74L93.2402 332.36L94.8502 327.02C94.9202 327.1 94.9902 327.15 95.0402 327.22C95.0926 327.286 95.1394 327.356 95.1802 327.43L98.3702 333.11C98.4876 333.298 98.5467 333.517 98.5402 333.74V333.74Z" fill="white"/>
<path d="M83.8403 333.209L89.2103 334.629L87.6203 339.889C87.441 339.795 87.2945 339.648 87.2003 339.469L83.9603 333.669C83.895 333.541 83.8414 333.407 83.8003 333.269L83.8403 333.209Z" fill="white"/>
<path d="M70.3701 367.919L133.5 332.529" stroke="#1D1D1B" stroke-miterlimit="10"/>
<path d="M74.96 376.089L138.09 340.709" stroke="#1D1D1B" stroke-miterlimit="10"/>
<path d="M79.54 384.27L142.67 348.89" stroke="#1D1D1B" stroke-miterlimit="10"/>
<path d="M123.34 462.419L186.47 427.039" stroke="#1D1D1B" stroke-miterlimit="10"/>
<path d="M127.92 470.599L191.05 435.209" stroke="#1D1D1B" stroke-miterlimit="10"/>
<path d="M132.5 478.78L195.64 443.39" stroke="#1D1D1B" stroke-miterlimit="10"/>
<path d="M92.8733 388.358L84.3682 393.125L89.1352 401.63L97.6404 396.863L92.8733 388.358Z" stroke="#1D1D1B" stroke-miterlimit="10"/>
<path d="M99.6401 389.719L149.8 361.609" stroke="#1D1D1B" stroke-miterlimit="10"/>
<path d="M102.652 405.8L94.1465 410.567L98.9135 419.073L107.419 414.306L102.652 405.8Z" stroke="#1D1D1B" stroke-miterlimit="10"/>
<path d="M109.42 407.17L159.58 379.06" stroke="#1D1D1B" stroke-miterlimit="10"/>
<path d="M112.426 423.255L103.921 428.022L108.688 436.528L117.193 431.761L112.426 423.255Z" stroke="#1D1D1B" stroke-miterlimit="10"/>
<path d="M119.2 424.619L169.36 396.499" stroke="#1D1D1B" stroke-miterlimit="10"/>
<path d="M122.209 440.696L113.704 445.463L118.471 453.968L126.976 449.201L122.209 440.696Z" stroke="#1D1D1B" stroke-miterlimit="10"/>
<path d="M128.98 442.059L179.14 413.949" stroke="#1D1D1B" stroke-miterlimit="10"/>
</svg>
