<svg fill="none" height="572" viewBox="0 0 534 572" width="534" xmlns="http://www.w3.org/2000/svg"><path d="m266.87 554.208c147.388 0 266.87-119.482 266.87-266.87s-119.482-266.8702-266.87-266.8702-266.87 119.4822-266.87 266.8702 119.482 266.87 266.87 266.87z" fill="#c5cfd7"/><path d="m482.089 119.157-196.349-108.6596c-10.477-5.79754-23.669-2.00465-29.467 8.4717l-223.6369 404.1169c-5.7976 10.476-2.0047 23.669 8.4717 29.466l196.3492 108.66c10.476 5.797 23.669 2.004 29.467-8.472l223.637-404.117c5.797-10.476 2.004-23.669-8.472-29.466z" fill="#333"/><path d="m468.427 139.245-195.565-105.6971-201.5232 372.8651 195.5642 105.697z" fill="#fadd4b"/><path d="m153.43 499.138c8.699 0 15.75-7.052 15.75-15.75 0-8.699-7.051-15.75-15.75-15.75-8.698 0-15.75 7.051-15.75 15.75 0 8.698 7.052 15.75 15.75 15.75z" fill="#565353"/><path d="m452.872 145.29-177.354-95.8955-189.8553 351.1295 177.3543 95.895z" fill="#fff"/><path d="m271.514 252.564-63.25-34.128c-1.303-.703-2.928-.217-3.631 1.086l-12.931 23.964c-.703 1.302-.216 2.928 1.086 3.631l63.25 34.128c1.303.703 2.929.217 3.632-1.086l12.93-23.964c.703-1.303.217-2.929-1.086-3.631z" fill="#e6ebef"/><path d="m347.527 293.32-63.25-34.127c-1.303-.703-2.928-.217-3.631 1.086l-12.93 23.964c-.703 1.302-.217 2.928 1.085 3.631l63.251 34.128c1.302.703 2.928.216 3.631-1.086l12.93-23.964c.703-1.303.217-2.929-1.086-3.632z" fill="#066f6c"/><path d="m325.853 349.054-110.818-59.794c-3.11-1.679-6.993-.518-8.671 2.593l-43.15 79.971c-1.679 3.111-.518 6.994 2.593 8.672l110.817 59.794c3.111 1.678 6.993.517 8.672-2.593l43.15-79.972c1.679-3.111.517-6.993-2.593-8.671z" fill="#c5cfd7"/><g fill="#1d1d1b"><path d="m287.13 87.0283c.533.1686 1.057.3655 1.57.59.56.24 1.1.5 1.63.79.557.2885 1.089.623 1.59 1 .482.3699.889.828 1.2 1.35.303.52.468 1.1085.48 1.71-.011.7394-.214 1.4631-.59 2.1-.312.6188-.764 1.1563-1.32 1.57-.476.3389-1.023.5647-1.6.66-.576.0915-1.164.0677-1.73-.07-.597-.1426-1.172-.3646-1.71-.66l-.25-.13c-.124-.0624-.245-.1326-.36-.21l-.36-.22c-.11-.08-.2-.13-.24-.17l-2.06 3.88-2.17-1.17zm2.37 3.34c-.2-.1141-.407-.2143-.62-.3-.19-.09-.36-.15-.49-.2l-1.94 3.6.18.14.25.16.28.16.19.11c.289.1513.59.2784.9.38.293.0956.602.1329.91.11.305-.0275.598-.1343.85-.31.312-.2333.562-.5387.73-.89.18-.3028.276-.6478.28-1-.005-.2816-.073-.5586-.2-.81-.143-.2562-.333-.4834-.56-.67-.238-.1825-.493-.3431-.76-.48z"/><path d="m293.74 95.1279c.595.0543 1.182.1751 1.75.36.661.2118 1.301.4864 1.91.82.472.2412.901.5588 1.27.94.271.2816.47.6247.58 1 .085.3685.085.7515 0 1.12-.114.42-.275.8261-.48 1.2101-.26.46-.52.92-.81 1.38s-.55.9-.8 1.35-.48.9-.68 1.35c-.192.428-.33.878-.41 1.34l-1.68-.91.26-1.27h-.08c-.416.215-.872.341-1.34.37-.576.013-1.144-.136-1.64-.43-.342-.178-.65-.415-.91-.7-.229-.257-.399-.561-.5-.89-.105-.322-.139-.663-.1-1 .043-.352.155-.692.33-1 .231-.422.578-.769 1-1.0001.42-.2251.894-.3289 1.37-.3.579.0239 1.149.1422 1.69.35.671.2775 1.316.6121 1.93 1.0001.325-.3753.522-.845.56-1.3401 0-.34-.3-.66-.85-1-.441-.236-.903-.4302-1.38-.58-.425-.1419-.864-.2358-1.31-.28zm-.57 7.3001c.341.21.742.302 1.14.26.301-.045.591-.15.85-.31l.56-1c-.297-.196-.608-.37-.93-.52-.281-.13-.577-.227-.88-.29-.24-.056-.49-.056-.73 0-.104.031-.201.084-.283.154-.083.071-.15.158-.197.256-.077.122-.127.26-.146.403s-.007.289.036.427c.051.137.128.262.228.368.099.107.219.192.352.252z"/><path d="m302.37 104.938-.38 1.39h.1l.87-1.11 3.6-3.78 2.12 1.14-6.26 5.85c-.52.48-1 .92-1.46 1.31-.402.358-.837.676-1.3.95-.361.22-.762.366-1.18.43-.387.05-.78-.027-1.12-.22-.466-.233-.867-.576-1.17-1l1.27-1.44c.123.135.265.253.42.35.275.131.588.156.88.07.447-.16.834-.453 1.11-.84l1-9.7099 2.47 1.34z"/><path d="m309.69 113.368 2.32-4.31c.318-.508.535-1.071.64-1.66 0-.197-.058-.389-.166-.552-.109-.164-.263-.292-.444-.368-.298-.184-.656-.249-1-.18-.337.084-.649.249-.91.48l-2.85 5.27-2.06-1.11 4.27-7.92 1.6.87-.32 1.17h.06c.445-.207.922-.336 1.41-.38.578-.037 1.153.103 1.65.4.451.219.827.567 1.08 1 .218.446.285.952.19 1.44.443-.272.943-.437 1.46-.48.552-.026 1.1.106 1.58.38.387.202.741.461 1.05.77.254.277.415.626.46 1 .055.427.014.86-.12 1.27-.189.601-.44 1.181-.75 1.73l-2.56 4.75-2.06-1.11 2.4-4.45c.279-.465.468-.977.56-1.51.002-.202-.057-.4-.169-.568s-.273-.298-.461-.372c-.3-.181-.656-.245-1-.18-.354.105-.675.302-.93.57l-2.8 5.19z"/><path d="m324.65 120.558c-.542.098-1.098.098-1.64 0-.658-.129-1.292-.359-1.88-.68-.544-.244-1.023-.612-1.4-1.073-.377-.462-.64-1.006-.77-1.587-.154-1.233.118-2.482.77-3.54.526-1.182 1.491-2.114 2.69-2.6.563-.161 1.154-.203 1.735-.122.58.081 1.137.283 1.635.592.396.21.76.476 1.08.79.319.301.571.665.74 1.07.164.433.226.899.18 1.36-.07.595-.26 1.17-.56 1.69-.12.22-.26.45-.42.69-.17.24-.35.48-.55.73l-4.75-2.57c-.308.539-.414 1.17-.3 1.78.103.296.266.567.48.796.213.229.472.411.76.534.393.22.824.365 1.27.43.332.044.668.044 1 0zm.19-7.4c-.214-.14-.457-.227-.711-.255s-.51.005-.749.095c-.476.212-.88.56-1.16 1l2.94 1.59c.313-.417.472-.929.45-1.45-.039-.214-.129-.415-.263-.586s-.308-.306-.507-.394z"/><path d="m330.84 124.778 2.43-4.5c.29-.463.453-.994.47-1.54-.026-.205-.105-.4-.229-.565-.125-.165-.291-.294-.481-.375-.358-.203-.777-.271-1.18-.19-.374.085-.719.268-1 .53l-2.77 5.14-2.12-1.06 4.3-8 1.64.89-.33 1.17h.06c.456-.212.948-.334 1.45-.36.616-.023 1.225.137 1.75.46.375.176.714.42 1 .72.248.262.421.587.5.94.078.415.057.843-.06 1.25-.158.569-.387 1.117-.68 1.63l-2.65 4.92z"/><path d="m338.07 118.458 1.1.59.8-1.49 2.38.52-1.12 2.08 1.93 1-.94 1.75-1.93-1-1.65 3c-.234.39-.394.821-.47 1.27-.006.147.033.293.111.418.079.125.194.223.329.282.183.101.378.179.58.23.204.044.412.075.62.09l-.49 1.78c-.402-.025-.8-.089-1.19-.19-.428-.11-.841-.271-1.23-.48-.306-.134-.581-.33-.806-.577-.226-.246-.398-.537-.504-.853-.103-.745.067-1.502.48-2.13l2.16-4-1.1-.59z"/><path d="m351.76 135.478c-.533.053-1.072-.008-1.58-.18-.587-.175-1.154-.413-1.69-.71-.644-.343-1.226-.793-1.72-1.33-.476-.528-.819-1.163-1-1.85-.214-.772-.255-1.581-.12-2.37.162-1.014.501-1.992 1-2.89.476-.947 1.131-1.793 1.93-2.49.62-.528 1.347-.917 2.13-1.14.695-.186 1.421-.22 2.13-.1.675.12 1.326.346 1.93.67.543.285 1.059.619 1.54 1 .335.266.643.564.92.89l-1.42 1.6c-.209-.269-.451-.511-.72-.72-.374-.268-.765-.512-1.17-.73-.393-.23-.833-.367-1.287-.402s-.91.034-1.333.202c-1.056.519-1.895 1.393-2.37 2.47-.289.526-.507 1.087-.65 1.67-.126.493-.15 1.007-.07 1.51.072.471.257.917.54 1.3.314.421.721.764 1.19 1 .4.23.831.402 1.28.51.344.08.697.113 1.05.1z"/><path d="m356.61 129.058c.597.043 1.185.164 1.75.36.661.208 1.301.479 1.91.81.474.238.904.556 1.27.94.27.283.468.625.58 1 .09.368.09.752 0 1.12-.104.423-.265.83-.48 1.21-.25.47-.52.93-.8 1.38s-.56.9-.81 1.36-.47.9-.67 1.34c-.195.427-.336.877-.42 1.34l-1.68-.91.26-1.27h-.08c-.413.221-.871.347-1.34.37-.575.017-1.143-.129-1.64-.42-.342-.182-.65-.422-.91-.71-.225-.257-.395-.556-.5-.88-.098-.324-.132-.664-.1-1 .049-.352.164-.692.34-1 .223-.444.571-.812 1-1.06.424-.215.896-.319 1.37-.3.58.022 1.152.144 1.69.36.675.269 1.321.604 1.93 1 .33-.377.527-.851.56-1.35 0-.34-.3-.66-.85-1-.438-.232-.897-.422-1.37-.57-.422-.15-.863-.244-1.31-.28zm-.56 7.3c.338.207.736.295 1.13.25.305-.037.599-.14.86-.3l.55-1c-.294-.203-.605-.38-.93-.53-.282-.128-.577-.226-.88-.29-.236-.057-.483-.057-.72 0-.104.032-.202.085-.286.156-.084.07-.153.156-.204.254-.077.122-.127.259-.146.403-.019.143-.006.289.036.427.109.277.321.502.59.63z"/><path d="m364.05 139.269c-.17.264-.27.566-.29.88-.002.105.028.209.085.297.057.089.138.16.235.203.124.069.255.126.39.17.171.056.35.089.53.1l-.65 1.74c-.309-.023-.614-.08-.91-.17-.401-.101-.787-.253-1.15-.45-.514-.237-.923-.653-1.15-1.17-.075-.277-.09-.567-.044-.85.047-.283.154-.552.314-.79l5.13-9.5 2.06 1.11z"/><path d="m371.02 145.828c-.478.058-.963.028-1.43-.09-.52-.121-1.022-.313-1.49-.57-.556-.281-1.047-.676-1.44-1.16-.323-.416-.533-.909-.61-1.43-.077-.548-.04-1.107.11-1.64.179-.63.431-1.237.75-1.81.523-1.145 1.433-2.069 2.57-2.61.526-.194 1.09-.265 1.648-.208s1.096.241 1.572.538c.474.247.917.549 1.32.9.284.266.538.561.76.88l-1.4 1.42c-.166-.239-.357-.461-.57-.66-.233-.212-.492-.393-.77-.54-.238-.146-.506-.234-.785-.257-.278-.022-.557.021-.815.127-.629.346-1.125.892-1.41 1.55-.171.316-.302.652-.39 1-.082.3-.106.612-.07.92.029.293.136.573.31.81.188.267.439.483.73.63.309.177.648.296 1 .35.272.035.548.035.82 0z"/><path d="m378.26 140.138-2.43 4.5c-.284.462-.461.981-.52 1.52.007.201.075.396.194.558.12.163.286.285.476.352.35.203.765.268 1.16.18.372-.102.715-.291 1-.55l2.76-5.11 2.06 1.11-3 5.51c-.236.423-.446.861-.63 1.31-.168.403-.308.817-.42 1.24l-1.55-.84.26-1.37h-.06c-.472.273-1.004.427-1.55.45-.613.019-1.219-.133-1.75-.44-.373-.188-.711-.438-1-.74-.254-.264-.43-.593-.51-.95-.093-.408-.093-.832 0-1.24.158-.573.386-1.124.68-1.64l2.65-4.93z"/><path d="m384.09 150.078c-.17.264-.27.567-.29.88-.001.106.028.209.085.298s.139.159.235.202c.124.069.255.126.39.17.171.056.35.09.53.1l-.65 1.74c-.312-.023-.62-.08-.92-.17-.397-.103-.78-.254-1.14-.45-.513-.232-.922-.645-1.15-1.16-.077-.278-.092-.57-.046-.854.047-.285.154-.557.316-.796l5.13-9.5 2.06 1.11z"/><path d="m389.17 146.618c.595.056 1.182.176 1.75.36.661.214 1.3.488 1.91.82.474.238.904.556 1.27.94.271.28.467.624.57 1 .095.367.095.753 0 1.12-.104.427-.265.837-.48 1.22-.25.46-.52.92-.8 1.37s-.55.91-.8 1.36-.48.9-.68 1.34c-.194.427-.332.878-.41 1.34l-1.68-.9.25-1.27h-.08c-.409.224-.864.354-1.33.38-.576.015-1.145-.134-1.64-.43-.344-.175-.652-.413-.91-.7-.232-.257-.406-.56-.51-.89-.101-.323-.132-.664-.09-1 .041-.352.154-.692.33-1 .226-.426.574-.774 1-1 .42-.225.894-.332 1.37-.31.578.034 1.148.155 1.69.36.672.276 1.318.61 1.93 1 .323-.376.519-.845.56-1.34 0-.34-.3-.67-.85-1-.442-.234-.903-.429-1.38-.58-.423-.147-.863-.241-1.31-.28zm-.57 7.3c.337.211.735.302 1.13.26.305-.043.598-.148.86-.31l.56-1c-.297-.202-.611-.376-.94-.52-.277-.131-.569-.228-.87-.29-.239-.061-.491-.061-.73 0-.105.032-.202.085-.287.155-.084.071-.153.158-.203.255-.077.122-.127.26-.146.403s-.007.289.036.427c.107.277.319.5.59.62z"/><path d="m396.5 149.978 1.09.59.8-1.49 2.38.53-1.12 2.07 1.93 1-.94 1.75-1.93-1.05-1.64 3.05c-.245.385-.405.818-.47 1.27-.009.146.028.29.105.414s.19.22.325.276c.183.102.378.179.58.23.204.044.412.074.62.09l-.49 1.78c-.402-.025-.8-.088-1.19-.19-.428-.109-.841-.27-1.23-.48-.307-.132-.583-.328-.809-.574-.225-.247-.396-.538-.501-.856-.104-.745.067-1.502.48-2.13l2.16-4-1.09-.59z"/><path d="m400.25 157.118c.533-1.16 1.482-2.078 2.66-2.57.553-.179 1.138-.235 1.715-.164s1.131.267 1.625.574c.572.287 1.077.692 1.48 1.19.347.427.587.931.7 1.47.115.557.115 1.132 0 1.69-.145.643-.381 1.262-.7 1.84-.526 1.158-1.468 2.075-2.64 2.57-.552.179-1.137.237-1.714.168s-1.132-.263-1.626-.568c-.568-.293-1.072-.698-1.48-1.19-.348-.432-.592-.939-.71-1.48-.12-.557-.12-1.133 0-1.69.14-.644.372-1.264.69-1.84zm2.12 1.15c-.174.318-.315.653-.42 1-.093.301-.14.614-.14.93.007.278.087.55.23.79.157.244.374.444.63.58.226.141.485.221.752.232.267.01.531-.049.768-.172.617-.398 1.104-.968 1.4-1.64.359-.608.562-1.295.59-2 .001-.284-.081-.562-.235-.8-.155-.238-.375-.426-.635-.54-.224-.136-.479-.214-.741-.226-.262-.013-.523.041-.759.156-.647.396-1.152.988-1.44 1.69z"/><path d="m414.61 162.218c-.228-.263-.498-.486-.8-.66-.326-.189-.708-.259-1.08-.2-.348.055-.668.224-.91.48l-2.76 5.12-2.1-1.08 4.28-7.92 1.6.86-.33 1.17h.06c.35-.283.773-.46 1.22-.51.434-.046.871.045 1.25.26.311.185.594.414.84.68z"/></g><path d="m226.531 238.749c.381.12.785.275 1.213.463.441.185.867.389 1.278.61.427.231.834.498 1.222.802.399.301.714.651.944 1.051.234.391.356.834.366 1.327.022.489-.128 1.034-.452 1.633-.292.542-.635.951-1.028 1.227-.388.268-.803.437-1.243.506-.441.07-.891.05-1.352-.06-.451-.106-.891-.275-1.318-.505-.041-.022-.107-.058-.197-.106-.091-.049-.185-.1-.284-.153-.094-.062-.188-.123-.282-.185-.086-.057-.147-.1-.184-.131l-1.602 2.97-1.688-.911zm1.842 2.6c-.164-.088-.325-.164-.481-.228-.153-.071-.278-.123-.378-.156l-1.509 2.797c.029.026.074.061.135.105.061.043.126.089.196.137.074.04.144.078.209.113.074.04.128.069.161.087.221.119.45.216.686.29.244.079.481.112.711.098.234-.022.454-.105.659-.249.213-.14.406-.369.579-.69.146-.271.217-.519.211-.745-.001-.234-.055-.448-.161-.644-.099-.191-.24-.362-.423-.514s-.381-.286-.595-.401zm3.298 3.705c.408.029.861.125 1.357.286.5.154.997.363 1.49.629.427.231.755.477.985.739.235.253.383.519.445.797.071.282.068.572-.008.87-.068.303-.191.618-.368.947-.195.361-.404.72-.628 1.077-.22.348-.429.696-.628 1.045-.191.353-.365.705-.522 1.055-.152.342-.259.687-.32 1.036l-1.306-.705.2-.99-.062-.033c-.301.166-.651.264-1.049.293-.385.026-.807-.085-1.267-.334-.288-.155-.524-.335-.71-.542-.181-.214-.312-.444-.392-.688-.075-.253-.101-.511-.076-.773.029-.271.117-.542.263-.813.204-.377.457-.649.759-.815.314-.17.669-.249 1.066-.237.409.009.846.102 1.313.279.479.174.983.419 1.511.737.306-.429.451-.776.434-1.039-.013-.272-.232-.523-.66-.754-.32-.173-.678-.324-1.075-.453-.389-.125-.727-.196-1.015-.213zm-.44 5.68c.32.173.613.24.877.203.269-.046.493-.127.672-.243l.432-.8c-.242-.162-.486-.3-.733-.412-.239-.107-.464-.181-.676-.221s-.4-.036-.564.014c-.164.049-.291.155-.38.32-.124.23-.155.446-.095.648.073.199.229.362.467.491zm7.157 1.952-.297 1.081.074.04.685-.887 2.798-2.945 1.651.891-4.871 4.546c-.404.376-.782.713-1.134 1.011-.348.311-.684.559-1.007.746-.323.186-.631.295-.925.328-.289.045-.578-.01-.865-.165-.427-.23-.73-.484-.91-.761l.987-1.122c.097.116.207.207.33.273.189.102.414.118.675.046.265-.058.556-.272.872-.643l.749-7.55 1.922 1.038z" fill="#333"/><path d="m309.606 284.353c.128-.239.31-.39.546-.453.244-.059.49-.023.736.11.296.16.477.385.543.675s.012.596-.16.916c-.178.328-.382.579-.613.751-.222.177-.45.304-.682.38-.219.072-.435.11-.648.111-.201-.002-.365-.011-.494-.028l-.041-.897c.204.015.401-.006.59-.063.198-.052.356-.168.475-.348-.169-.081-.292-.227-.369-.438-.064-.215-.025-.454.117-.716zm1.259 2.97.85.458.625-1.158 1.848.409-.871 1.614 1.503.811-.732 1.355-1.503-.811-1.276 2.366c-.231.427-.356.757-.375.99-.008.23.108.409.346.537.164.089.313.148.446.177.141.033.303.057.486.071l-.381 1.385c-.28-.013-.587-.062-.923-.147-.335-.086-.655-.211-.959-.375-.567-.306-.908-.675-1.024-1.109-.104-.438.024-.989.383-1.654l1.676-3.105-.851-.459zm8.052 4.345 1.171.631-.214.839.049.027c.382-.197.757-.292 1.124-.285.375.012.772.131 1.191.357.772.416 1.219.975 1.339 1.676.124.693-.106 1.582-.691 2.666-.284.526-.602.969-.956 1.33-.349.352-.727.61-1.133.772-.397.168-.815.234-1.252.199-.43-.03-.87-.167-1.322-.41-.255-.138-.453-.271-.595-.401-.147-.121-.28-.268-.4-.438l-1.363 2.525-1.601-.864zm2.11 2.665c-.313-.169-.601-.223-.866-.165-.257.063-.519.224-.786.483l-1.382 2.563c.066.152.149.293.25.421.113.125.28.247.502.366.46.249.891.275 1.294.078.407-.204.813-.68 1.216-1.428.293-.542.428-1.009.407-1.403-.021-.393-.233-.698-.635-.915zm4.314 1.262c.409.03.861.125 1.357.287.5.153.997.363 1.49.629.427.23.756.476.985.738.235.254.383.519.445.797.071.282.068.572-.008.87-.068.303-.19.619-.368.947-.195.362-.404.721-.628 1.077-.22.348-.429.697-.628 1.045-.191.354-.364.705-.522 1.055-.152.342-.259.687-.32 1.036l-1.306-.704.2-.99-.062-.033c-.301.166-.651.263-1.049.293-.385.025-.807-.086-1.267-.334-.287-.155-.524-.336-.71-.542-.181-.215-.312-.444-.392-.689-.075-.253-.101-.51-.076-.773.029-.27.117-.541.264-.812.203-.378.456-.65.758-.816.314-.17.669-.248 1.066-.236.409.009.846.102 1.313.279.479.174.983.419 1.512.736.305-.429.45-.775.433-1.039-.013-.272-.232-.523-.659-.753-.321-.173-.679-.324-1.076-.453-.389-.125-.727-.196-1.015-.214zm-.44 5.68c.32.173.613.241.877.203.269-.046.493-.127.672-.242l.432-.801c-.242-.162-.486-.299-.733-.411-.239-.108-.464-.182-.676-.222s-.4-.035-.564.014-.291.156-.38.32c-.124.23-.155.446-.095.649.073.198.229.362.467.49zm7.157 1.953-.297 1.081.074.039.685-.887 2.798-2.944 1.651.891-4.871 4.546c-.404.376-.782.713-1.134 1.011-.348.31-.684.559-1.007.745s-.631.296-.924.328c-.29.046-.579-.009-.866-.164-.427-.231-.73-.485-.91-.762l.987-1.122c.097.116.207.207.33.274.189.102.414.117.675.046.265-.059.556-.273.872-.643l.749-7.55 1.922 1.037z" fill="#fff"/><path d="m301.259 141.263c-.756-.408-1.238-.987-1.445-1.738-.206-.755-.084-1.548.365-2.38l.095-.175c.298-.554.669-.99 1.113-1.31.448-.322.928-.503 1.437-.543.516-.041.995.057 1.438.297.726.391 1.161.934 1.305 1.629s-.024 1.488-.504 2.378l-.214.397-3.78-2.039c-.283.557-.364 1.088-.241 1.594.127.504.428.884.903 1.14.337.181.659.267.967.255.308-.011.611-.083.909-.215l.338.768c-.856.466-1.751.447-2.686-.058zm2.58-5.065c-.385-.208-.784-.242-1.197-.101-.412.138-.785.443-1.119.914l2.795 1.509.039-.073c.234-.499.305-.944.214-1.335-.089-.395-.333-.699-.732-.914zm4.544 4.202 2.337-1.369 1.113.601-3.314 1.774.361 3.836-1.104-.595-.162-2.784-2.416 1.392-1.109-.598 3.404-1.805-.337-3.744 1.104.596zm6.49-.873-.729 1.351 1.041.563-.398.737-1.041-.562-1.867 3.46c-.121.223-.165.417-.134.58.034.161.162.301.386.421.11.06.272.121.487.183l-.418.774c-.288-.067-.55-.164-.787-.292-.427-.23-.679-.532-.756-.907-.078-.375.012-.799.268-1.274l1.867-3.46-1.016-.548.398-.737 1.016.548.729-1.351zm7.225 9.325c-.458.85-1.021 1.429-1.69 1.738-.668.31-1.334.286-1.998-.072-.677-.366-1.094-.868-1.251-1.508l-1.449 2.687-.954-.515 4.168-7.724.871.47-.287.644c.648-.272 1.317-.221 2.008.152.671.361 1.064.9 1.18 1.615.119.716-.064 1.525-.55 2.426zm-.895-.623c.339-.629.473-1.198.402-1.707-.072-.509-.341-.89-.809-1.142-.578-.312-1.149-.289-1.714.067l-1.439 2.666c.011.663.311 1.153.898 1.47.458.247.918.262 1.381.046.468-.218.895-.685 1.281-1.4zm4.085 5.867c.004-.14.065-.36.183-.661-.692.222-1.346.166-1.961-.166-.55-.296-.919-.695-1.106-1.196-.182-.502-.144-.991.114-1.469.314-.581.777-.913 1.389-.995.618-.084 1.327.09 2.128.522l.929.501.236-.438c.18-.334.223-.652.13-.956-.092-.307-.332-.565-.721-.775-.34-.183-.672-.251-.995-.204-.323.048-.55.194-.682.438l-.959-.518c.15-.278.393-.493.728-.645.34-.154.719-.216 1.138-.185.422.032.836.158 1.241.377.643.347 1.06.78 1.25 1.3.192.516.142 1.06-.148 1.631l-1.386 2.568c-.276.512-.431.955-.463 1.328l-.045.082zm-1.191-1.582c.299.162.625.237.976.227.352-.01.655-.106.908-.289l.618-1.144-.748-.404c-1.168-.63-1.937-.604-2.307.08-.161.299-.187.587-.079.863.109.276.319.498.632.667zm5.988 2.365 3.556-3.48 1.021.55-5.719 5.231c-.848.741-1.65.907-2.406.499l-.172-.113-.32-.259.417-.773.247.159c.323.175.61.245.859.211.252-.033.531-.191.835-.475l.518-.453.986-6.592 1.042.562zm6.33-1.984-.308.633c.669-.26 1.35-.203 2.045.171.78.421 1.15 1.007 1.109 1.757.33-.168.688-.254 1.072-.26.389-.003.785.104 1.191.323 1.224.66 1.497 1.644.818 2.951l-2.017 3.739-.954-.515 1.986-3.682c.215-.398.285-.745.208-1.039-.074-.298-.326-.563-.756-.795-.354-.191-.706-.243-1.054-.156-.347.084-.636.294-.867.631l-1.998 3.703-.959-.518 1.973-3.656c.438-.811.259-1.431-.535-1.859-.625-.338-1.197-.303-1.715.106l-2.198 4.074-.954-.515 3.011-5.579zm7.613 11.445c-.756-.408-1.238-.987-1.445-1.738-.206-.755-.084-1.548.365-2.38l.095-.175c.298-.554.669-.99 1.113-1.31.448-.322.928-.503 1.437-.543.516-.041.995.057 1.438.297.726.391 1.161.934 1.305 1.629s-.024 1.488-.504 2.378l-.214.397-3.78-2.04c-.283.558-.363 1.089-.241 1.595.127.504.428.884.903 1.14.337.181.659.267.967.255.308-.011.611-.083.909-.215l.338.768c-.856.466-1.751.447-2.686-.058zm2.58-5.066c-.385-.207-.784-.241-1.197-.1-.412.138-.785.442-1.119.914l2.795 1.508.039-.072c.234-.499.305-.945.214-1.335-.089-.395-.333-.699-.732-.915zm4.674 1.643-.348.718c.716-.306 1.417-.274 2.105.097 1.179.636 1.415 1.622.707 2.958l-1.989 3.687-.954-.514 1.992-3.692c.214-.405.281-.752.203-1.043-.075-.289-.303-.536-.685-.742-.309-.167-.625-.231-.948-.192s-.622.157-.897.355l-2.145 3.975-.954-.514 3.01-5.58zm6.947 2.005-.729 1.351 1.042.562-.398.737-1.041-.562-1.867 3.46c-.121.224-.165.417-.134.581.034.16.162.3.385.421.11.059.273.12.488.182l-.418.774c-.288-.067-.55-.164-.788-.292-.426-.23-.678-.532-.755-.907-.078-.375.012-.799.268-1.274l1.867-3.46-1.016-.548.398-.737 1.015.548.729-1.351zm2.339 6.548c.462-.856 1.036-1.434 1.722-1.734.687-.304 1.359-.279 2.016.076.653.352 1.05.855 1.19 1.507l1.57-2.908.954.515-4.274 7.92-.877-.473.277-.623c-.634.262-1.291.209-1.972-.158-.646-.349-1.031-.898-1.155-1.649-.12-.748.05-1.548.51-2.401zm.896.623c-.341.633-.478 1.198-.41 1.697.069.498.333.872.794 1.12.605.327 1.193.293 1.765-.1l1.383-2.562c-.002-.68-.298-1.18-.89-1.499-.467-.252-.929-.268-1.385-.048s-.875.684-1.257 1.392zm7.509 6.862c-.606.236-1.269.16-1.988-.228-.594-.32-.955-.737-1.083-1.25-.122-.514-.002-1.111.36-1.79l1.959-3.63.954.515-1.945 3.604c-.456.846-.341 1.454.347 1.825.729.394 1.36.384 1.894-.03l2.189-4.058.954.515-3.01 5.579-.908-.49zm4.345 3.189c-.757-.408-1.238-.987-1.446-1.738-.205-.755-.083-1.548.366-2.38l.094-.175c.299-.554.67-.991 1.113-1.311.449-.321.928-.502 1.438-.542.515-.042.995.057 1.438.296.725.392 1.16.935 1.305 1.63.144.695-.024 1.487-.504 2.378l-.215.397-3.779-2.04c-.284.558-.364 1.089-.242 1.595.128.503.429.883.903 1.139.337.182.66.267.968.256s.611-.083.908-.216l.338.769c-.855.466-1.75.447-2.685-.058zm2.58-5.066c-.385-.207-.784-.241-1.198-.1-.411.138-.784.442-1.119.914l2.795 1.508.039-.072c.234-.5.306-.945.215-1.336-.089-.394-.333-.699-.732-.914z" fill="#1d1d1b"/><path d="m306.69 247.078c22.915 0 41.49-18.576 41.49-41.49 0-22.915-18.575-41.49-41.49-41.49-22.914 0-41.49 18.575-41.49 41.49 0 22.914 18.576 41.49 41.49 41.49z" fill="#e6ebef"/><path d="m337.25 208.218 3.95-7.23c.205-.374.334-.784.379-1.207.046-.424.008-.852-.112-1.261-.119-.408-.319-.789-.586-1.121s-.597-.607-.971-.811l-42.53-23.25c-.373-.204-.782-.333-1.205-.379-.422-.046-.85-.007-1.258.112-.407.12-.788.319-1.118.587-.331.267-.606.596-.809.97l-4 7.23z" fill="#333"/><path d="m288.02 183.758-15.25 27.9c-.48.773-.633 1.705-.427 2.592s.755 1.655 1.527 2.138l42.53 23.26c.823.388 1.766.436 2.623.133.858-.304 1.561-.934 1.957-1.753l15.26-27.91z" fill="#333"/><path d="m297.21 181.948c1.21 0 2.19-.98 2.19-2.19 0-1.209-.98-2.19-2.19-2.19-1.209 0-2.19.981-2.19 2.19 0 1.21.981 2.19 2.19 2.19z" fill="#e6ebef"/><path d="m334.57 202.378c1.209 0 2.19-.98 2.19-2.19 0-1.209-.981-2.19-2.19-2.19-1.21 0-2.19.981-2.19 2.19 0 1.21.98 2.19 2.19 2.19z" fill="#e6ebef"/><path d="m293.14 213.648c.395.248.836.413 1.296.487.461.074.931.055 1.384-.057.387-.115.747-.308 1.058-.565.311-.258.567-.576.752-.935.233-.357.379-.764.426-1.188s-.007-.853-.156-1.252c-.497-.891-1.274-1.594-2.21-2l-1.73-.92.89-1.65 5-2.38 1.94-.34-2-.81-4-2.16 1.42-2.63 9.13 4.92-.92 1.7-5.8 2.7-1.4.07-.07.12 1.08.4c.526.337.995.756 1.39 1.24.385.473.668 1.022.83 1.61.164.626.201 1.279.11 1.92-.105.763-.352 1.499-.73 2.17-.434.824-1.037 1.546-1.77 2.12-.656.495-1.414.837-2.22 1-.818.165-1.662.165-2.48 0-.891-.206-1.747-.543-2.54-1-.728-.392-1.421-.847-2.07-1.36-.583-.428-1.095-.944-1.52-1.53l2.23-2.13c.319.457.688.876 1.1 1.25.477.462 1.007.865 1.58 1.2z" fill="#e6ebef"/><path d="m305.17 212.268c1.58-2.93 3.25-4.84 5-5.72.876-.39 1.83-.575 2.789-.541.958.033 1.897.285 2.744.735s1.58 1.087 2.144 1.862c.565.776.945 1.67 1.113 2.614.18 1.92-.527 4.36-2.12 7.32-1.6 2.95-3.28 4.86-5.07 5.75-.855.44-1.809.653-2.77.62s-1.897-.312-2.72-.81c-.899-.412-1.67-1.06-2.23-1.876-.56-.815-.888-1.767-.95-2.754-.14-1.99.56-4.4 2.07-7.2zm3.1 1.68c-.887 1.49-1.494 3.131-1.79 4.84-.129.517-.088 1.062.117 1.553.205.492.563.905 1.02 1.178.458.272.991.39 1.521.336s1.029-.278 1.422-.637c1.323-1.211 2.396-2.668 3.16-4.29.883-1.478 1.489-3.105 1.79-4.8.116-.531.053-1.085-.179-1.577-.231-.492-.618-.894-1.101-1.143-.453-.253-.976-.354-1.491-.288-.515.067-.995.298-1.369.658-1.287 1.182-2.339 2.597-3.1 4.17z" fill="#e6ebef"/><path d="m180.1 300.748 25.18 41.95 23.74-42.79z" fill="#c5cfd7"/><path d="m326.65 143.538c2.027 0 3.67-1.643 3.67-3.67s-1.643-3.67-3.67-3.67-3.67 1.643-3.67 3.67 1.643 3.67 3.67 3.67z" fill="#fff"/><path d="m342.51 152.098c2.027 0 3.67-1.643 3.67-3.67s-1.643-3.67-3.67-3.67-3.67 1.643-3.67 3.67 1.643 3.67 3.67 3.67z" fill="#fff"/><path d="m202.75 330.979 99.46 53.66" stroke="#333" stroke-miterlimit="10" stroke-width="2.54"/><path d="m195.89 343.688 99.46 53.67" stroke="#333" stroke-miterlimit="10" stroke-width="2.54"/><path d="m216.46 305.548 99.47 53.67" stroke="#333" stroke-miterlimit="10" stroke-width="2.54"/><path d="m209.6 318.258 99.47 53.67" stroke="#333" stroke-miterlimit="10" stroke-width="2.54"/><path d="m188.92 356.588 99.47 53.67" stroke="#333" stroke-miterlimit="10" stroke-width="2.54"/><path d="m182.06 369.309 99.47 53.67" stroke="#333" stroke-miterlimit="10" stroke-width="2.54"/><path d="m167.76 303.998c6.545 0 11.85-5.306 11.85-11.85 0-6.545-5.305-11.85-11.85-11.85-6.544 0-11.85 5.305-11.85 11.85 0 6.544 5.306 11.85 11.85 11.85z" fill="#333"/><path d="m163.32 292.218c-.463.908-.553 1.963-.248 2.936.304.974.978 1.789 1.877 2.272.898.483 1.95.594 2.93.31.98-.283 1.81-.94 2.311-1.828z" fill="#fff"/><path d="m165.73 288.928c.922 0 1.67-.748 1.67-1.67s-.748-1.67-1.67-1.67-1.67.748-1.67 1.67.748 1.67 1.67 1.67z" fill="#fff"/><path d="m172.96 292.819c.922 0 1.67-.748 1.67-1.671 0-.922-.748-1.669-1.67-1.669s-1.67.747-1.67 1.669c0 .923.748 1.671 1.67 1.671z" fill="#fff"/></svg>