<svg width="373" height="373" viewBox="0 0 373 373" fill="none" xmlns="http://www.w3.org/2000/svg">
<path d="M185.678 370.565C285.753 370.565 366.881 289.437 366.881 189.362C366.881 89.2857 285.753 8.1582 185.678 8.1582C85.6017 8.1582 4.47412 89.2857 4.47412 189.362C4.47412 289.437 85.6017 370.565 185.678 370.565Z" fill="#C5CFD7"/>
<path d="M351.485 262.462H144.686V365.894C157.846 368.921 171.597 370.565 185.677 370.565C259.698 370.565 323.389 326.153 351.485 262.462Z" fill="#E6EBEF"/>
<path d="M357.209 249.96H171.005V262.461H357.209V249.96Z" fill="white"/>
<path d="M345.694 274.371H152.385V323.718H307.269C322.732 309.638 335.759 292.991 345.694 274.371Z" fill="white"/>
<path d="M152.385 367.472C163.175 369.446 174.295 370.565 185.678 370.565C225.155 370.565 261.607 357.932 291.347 336.548H152.385V367.472Z" fill="white"/>
<path d="M290.886 241.933H321.613C322.6 241.933 323.389 242.722 323.389 243.709V248.249C323.389 249.236 322.6 250.026 321.613 250.026H290.886C289.899 250.026 289.109 249.236 289.109 248.249V243.709C289.109 242.722 289.899 241.933 290.886 241.933Z" fill="#1D5E5B"/>
<path d="M298.124 215.746C302.006 203.179 304.177 189.954 304.637 176.005H307.138H308.717C309.177 189.954 311.349 203.179 315.231 215.746H321.087C328.851 215.746 335.101 221.997 335.101 229.761C335.101 237.525 328.851 243.775 321.087 243.775H291.281C283.517 243.775 277.266 237.525 277.266 229.761C277.266 221.997 283.517 215.746 291.281 215.746H298.124Z" fill="#066F6C"/>
<path d="M274.305 113.367C284.635 112.38 295.031 111.854 305.361 111.854C315.691 111.854 326.087 112.38 336.417 113.367L340.562 185.151C328.785 186.269 317.073 186.861 305.295 186.861C293.518 186.861 281.806 186.269 270.029 185.151L274.305 113.367Z" fill="#FADD4B"/>
<path d="M168.505 178.703L187.191 196.139C188.178 197.06 189.757 196.994 190.678 196.007L226.537 157.516C227.458 156.529 227.392 154.95 226.406 154.029L207.719 136.593C206.732 135.672 205.153 135.738 204.232 136.725L168.439 175.216C167.452 176.202 167.518 177.782 168.505 178.703Z" fill="#333333"/>
<path d="M205.845 138.644L172.06 174.886L190.59 192.159L224.375 155.917L205.845 138.644Z" fill="#696666"/>
<path d="M246.342 311.612C252.083 311.612 256.738 306.958 256.738 301.216C256.738 295.475 252.083 290.82 246.342 290.82C240.6 290.82 235.946 295.475 235.946 301.216C235.946 306.958 240.6 311.612 246.342 311.612Z" fill="#E6EBEF"/>
<path d="M243.907 309.836C249.649 309.836 254.303 305.181 254.303 299.44C254.303 293.698 249.649 289.044 243.907 289.044C238.166 289.044 233.512 293.698 233.512 299.44C233.512 305.181 238.166 309.836 243.907 309.836Z" fill="#FADD4B"/>
<path d="M241.407 349.708C235.88 351.09 232.459 356.748 233.906 362.341C234.038 362.867 234.235 363.394 234.433 363.92C241.144 362.078 247.658 359.841 253.974 357.209C252.593 351.682 246.934 348.326 241.407 349.708Z" fill="#FADD4B"/>
<path d="M175.084 225.09C180.151 217.721 185.349 212.194 190.612 208.443C200.745 201.337 204.429 197.324 207.39 188.375C208.969 183.572 208.772 175.216 205.153 173.703C202.653 172.716 194.626 184.757 190.481 187.323C186.335 189.823 186.664 177.716 184.691 179.69C181.598 180.875 180.48 186.007 181.269 195.284L168.57 209.628L175.084 225.09Z" fill="#B18B67"/>
<path d="M168.57 193.179C182.125 206.535 189.889 216.8 191.731 223.84C172.123 245.026 167.649 280.82 153.437 293.321L135.804 243.776C142.976 230.025 150.476 207.917 168.57 193.179Z" fill="#224D82"/>
<path d="M278.056 121.987H167.912C166.597 121.987 165.61 120.934 165.61 119.684V50.6632C165.61 49.3473 166.662 48.3604 167.912 48.3604H278.056C279.372 48.3604 280.359 49.4131 280.359 50.6632V119.684C280.359 120.934 279.306 121.987 278.056 121.987Z" fill="white"/>
<path d="M195.284 131.658L233.775 109.353C234.893 108.695 234.893 107.05 233.775 106.392L195.218 84.2189C194.1 83.561 192.652 84.4163 192.652 85.6664L192.718 130.211C192.784 131.527 194.165 132.316 195.284 131.658Z" fill="white"/>
<path d="M61.7828 293.386C62.1776 302.992 62.375 312.533 62.375 322.073C80.7322 339.115 102.642 352.405 126.79 360.696C132.119 339.115 136.922 316.81 141.199 293.32L61.7828 293.386Z" fill="#333333"/>
<path d="M88.8252 182.519H121.46L115.933 143.436C124.75 148.765 133.369 151.331 137.449 150.278C147.647 147.647 148.568 110.406 140.673 95.7332C132.777 81.0606 92.3124 74.6784 90.2727 103.76C89.549 113.827 93.8257 122.841 100.076 130.211L88.8252 182.519Z" fill="#B18B67"/>
<path d="M76.0607 94.0888C72.5734 94.2862 68.3625 95.7995 66.5202 99.2867C64.1515 103.761 67.5071 108.827 71.1917 110.933C64.4805 116.854 76.587 124.947 81.5876 125.276C80.6664 128.895 84.8774 130.079 87.1803 131.066C85.7327 132.843 85.2722 135.672 86.9829 137.449C88.891 139.423 92.3124 139.554 94.4179 138.041C94.9442 137.646 95.0758 137.185 95.4706 136.725C95.7996 136.396 96.326 136.33 96.7865 136.198C97.9709 135.804 98.6946 134.554 99.221 133.369C100.274 131.066 100.734 128.369 102.511 126.526C100.274 125.539 97.5103 124.684 95.997 122.381C93.3651 118.433 96.2602 112.907 100.34 111.92C104.024 110.998 108.169 112.972 110.538 116.065C111.328 113.893 112.446 111.854 113.959 110.209C114.881 109.222 116.525 107.774 114.354 107.182C109.617 105.932 104.616 105.472 99.8132 104.353C104.748 104.353 109.748 104.879 114.683 104.419C116.262 104.287 117.841 104.024 118.565 102.379C119.486 100.339 120.144 97.8392 120.21 95.6021C121.855 96.1943 123.5 97.0496 125.342 97.0496C126 97.0496 126.724 96.8522 127.382 96.8522C128.171 96.8522 128.632 97.1812 129.224 97.7076C131.461 99.8131 134.225 101.195 137.186 101.853C138.83 102.248 140.739 102.642 142.383 102.511C142.647 102.511 142.844 102.313 143.041 102.313C143.37 102.248 144.028 102.379 144.423 102.445C145.607 102.511 146.858 102.313 147.845 101.458C149.95 99.5499 149.358 96.3259 146.858 95.2073C148.963 93.6282 150.937 91.7859 152.582 89.6804C153.371 88.6935 154.161 87.5749 154.687 86.4564C155.016 85.7984 155.477 84.8773 155.28 84.0877C154.687 81.719 150.147 83.1666 148.766 83.8245C148.7 83.2324 148.568 82.9034 148.7 82.2454C148.766 81.719 148.832 81.1927 148.634 80.7321C148.305 79.9425 147.581 79.4162 146.858 79.0872C145.936 78.6924 144.95 78.495 143.963 78.4292C143.436 78.4292 142.318 78.7582 142.054 78.166C141.857 77.7055 142.12 76.7843 142.252 76.3237C142.449 75.4684 142.515 74.5472 142.581 73.6919C142.712 72.5075 142.778 71.3232 142.844 70.1389C142.91 69.2835 143.041 68.3624 142.844 67.507C142.318 65.2041 139.949 65.1383 138.172 65.5331C136.988 65.7963 135.87 66.3227 134.817 67.0464C134.093 67.5728 133.369 68.0992 132.646 68.6256C132.185 68.9545 131.79 69.4151 131.264 69.0861C130.014 68.2308 129.356 66.3885 128.435 65.2041C127.448 63.8882 125.934 62.9013 124.487 62.3091C121.263 61.059 117.578 61.9143 114.749 63.954C114.091 64.4146 113.499 64.941 112.972 65.5331C112.512 66.0595 112.183 66.4543 111.459 66.2569C110.801 66.1253 110.275 65.6647 109.748 65.3357C109.09 64.8752 108.432 64.5462 107.775 64.1514C105.077 62.7039 102.116 61.9801 99.1552 62.4407C96.2602 62.8355 93.6941 64.3488 92.0492 67.0464C90.4043 69.8757 89.8121 73.2971 89.7463 76.5869C88.233 75.9948 86.9171 74.942 85.4038 74.4814C83.8904 73.9551 82.1797 73.7577 80.6006 73.8893C78.1661 74.0867 75.5343 74.942 73.8236 76.8501C71.6523 79.2188 71.6523 82.706 72.3103 85.7984C72.6392 87.3117 73.1656 88.8251 73.692 90.2726C74.4157 91.5227 75.0079 93.036 76.0607 94.0888Z" fill="#333333"/>
<path d="M80.2058 293.715C83.364 308.124 87.1802 324.968 91.6544 344.247C112.117 356.682 135.277 365.236 160.083 368.723C156.135 339.641 150.805 314.967 144.423 293.715H80.2058Z" fill="#1C1C1C"/>
<path d="M88.562 156.134C88.8909 155.082 89.2199 154.095 89.5489 153.042L90.7332 153.634C90.9306 153.437 91.128 153.239 91.3254 153.042L129.093 158.898C129.093 180.15 146.002 200.021 156.727 217.128C173.374 243.709 202.916 273.186 183.967 312.73C166.86 348.326 122.381 354.116 50.4 330.1C50.4 310.953 66.1912 291.675 66.6517 268.317C67.0465 246.078 71.1917 178.834 88.562 156.134Z" fill="#2158A5"/>
<path d="M135.475 302.598C137.975 289.57 139.62 280.819 140.41 276.477C160.543 299.242 172.189 310.756 175.282 311.02C181.138 311.546 185.546 306.282 186.73 307.796C188.77 313.849 182.98 329.048 171.926 331.285C166.662 332.338 158.504 321.481 155.148 317.599C153.832 316.02 147.252 311.085 135.475 302.598Z" fill="#B18B67"/>
<path d="M124.947 322.469C124.618 323.587 124.289 324.706 124.026 325.89C64.8752 284.504 64.8094 234.433 82.4429 178.309C69.152 233.578 74.5473 280.161 124.947 322.469Z" fill="#224D82"/>
<path d="M194.297 77.8372L189.691 73.2314L173.9 109.354L174.36 108.893L194.297 77.8372Z" fill="#FADD4B"/>
<path d="M199.495 83.0348L194.297 77.8369L174.36 108.893L199.495 83.0348Z" fill="#FEF0BA"/>
<path d="M199.495 83.0352L174.36 108.893L174.097 109.288L210.614 94.1548L199.495 83.0352Z" fill="#FADD4B"/>
<path d="M218.049 108.63C219.431 107.577 220.352 106.722 221.405 106.064C222.918 105.143 224.563 105.011 225.879 106.393C227.458 107.972 227.985 110.078 227.919 112.249C227.919 113.104 227.064 112.907 226.471 112.973C224.958 113.17 225.09 112.051 224.761 111.065C224.3 109.617 224.3 107.38 221.8 109.551C216.668 114.025 216.602 113.96 214.167 107.709C213.18 109.091 212.457 110.538 211.404 111.657C209.43 113.762 206.798 113.104 205.745 110.472C205.022 108.63 206.14 107.775 207.39 108.498C209.956 109.946 210.22 108.038 210.943 106.656C211.075 106.459 211.207 106.196 211.338 105.998C212.259 104.551 212.523 102.248 214.694 102.511C216.997 102.774 217.062 105.077 217.523 106.854C217.589 107.38 217.786 107.84 218.049 108.63Z" fill="#E72262"/>
<path d="M177.321 67.441C173.637 64.6776 172.781 62.4405 174.558 60.2692C175.413 59.2823 176.598 58.2953 177.782 58.9533C178.637 59.4796 178.637 60.9272 177.519 61.8483C176.466 62.7037 177.058 63.23 177.782 63.888C182.125 67.8358 182.125 67.9016 177.65 71.5204C178.703 72.5731 180.019 71.981 181.138 72.1784C182.453 72.3758 183.572 72.8363 184.098 74.1523C184.625 75.534 183.769 76.5867 182.914 77.5079C181.467 78.9554 179.69 79.8108 177.782 80.6003C176.861 80.9951 176.203 80.9951 175.742 79.8108C175.347 78.758 175.545 78.1658 176.532 77.7711C177.716 77.1789 179.098 76.8499 180.151 75.534C177.65 74.876 174.558 75.3366 173.834 72.0468C173.242 69.5465 175.742 68.9543 177.321 67.441Z" fill="#2158A5"/>
<path d="M210.627 94.1606C212.837 91.9508 209.942 85.4727 204.16 79.6914C198.379 73.9101 191.901 71.0147 189.691 73.2245C187.481 75.4342 190.377 81.9123 196.158 87.6936C201.939 93.475 208.418 96.3703 210.627 94.1606Z" fill="#333333"/>
<path d="M173.9 109.353L174.097 109.287L174.36 108.893L173.9 109.353Z" fill="#FADD4B"/>
<path d="M205.943 81.2587C203.903 81.7851 201.863 82.3115 199.824 82.8378C200.021 81.9825 200.679 81.3245 201.403 80.7981C202.192 80.206 202.982 79.4822 203.772 79.0216C204.758 78.4295 205.943 78.2979 206.996 77.9031C208.772 77.2451 211.141 77.1793 212.128 75.9292C213.509 74.2185 210.812 72.9026 210.285 71.2577C209.364 68.4284 210.351 66.7835 213.246 66.7177C213.97 66.7177 214.76 66.8493 215.483 66.9809C217.984 67.5073 220.55 68.2968 219.036 63.8884C218.444 62.1777 219.694 60.7302 221.208 59.9407C223.116 58.8879 225.221 58.4931 227.392 58.9537C228.116 59.0853 227.919 59.9407 227.985 60.5986C228.05 61.5856 227.458 61.8488 226.603 61.9146C223.116 61.9804 221.01 62.7041 223.181 66.9809C224.497 69.5469 222.589 70.8629 219.892 70.9287C217.918 70.9287 216.01 69.7443 213.97 70.2707C213.904 70.5339 213.707 70.7971 213.773 70.9287C217.062 77.1135 216.339 78.6926 209.562 80.4692C208.311 80.6007 207.127 80.9297 205.943 81.2587Z" fill="#FADD4B"/>
<path d="M210.088 87.5755C208.969 87.6413 207.851 87.8386 206.732 87.9702C205.943 88.036 205.482 87.1149 206.074 86.5885C206.272 86.3911 206.469 86.2595 206.732 86.0621C208.838 84.812 210.943 84.6804 213.246 84.4172C216.141 84.0882 219.102 84.154 221.931 85.141C224.366 85.9305 226.603 87.0491 227.59 89.6151C227.853 90.2731 228.379 91.1285 227.59 91.589C226.866 92.0496 225.682 92.1812 225.155 91.4574C223.05 88.365 219.826 87.3123 216.207 87.3123C214.233 87.3123 212.259 87.3781 210.351 87.5097C210.22 87.5755 210.154 87.5755 210.088 87.5755Z" fill="#2158A5"/>
<path d="M198.574 75.2057C198.179 76.1926 197.521 77.1796 196.731 77.7717C196.336 78.0349 195.744 77.7717 195.679 77.3112C195.547 76.061 195.876 74.8109 196.073 73.6266C196.665 69.613 196.402 65.9942 191.468 64.9414C189.954 64.6125 190.217 63.6255 190.349 62.7044C190.546 61.3226 191.665 61.9148 192.389 62.0464C198.376 62.9676 199.824 68.955 198.903 74.0871C198.837 74.3503 198.705 74.7451 198.574 75.2057Z" fill="#E72262"/>
<path d="M202.785 62.0459C203.802 62.0459 204.627 61.2211 204.627 60.2036C204.627 59.1862 203.802 58.3613 202.785 58.3613C201.767 58.3613 200.942 59.1862 200.942 60.2036C200.942 61.2211 201.767 62.0459 202.785 62.0459Z" fill="#FADD4B"/>
<path d="M204.627 72.1787C205.644 72.1787 206.469 71.3539 206.469 70.3364C206.469 69.319 205.644 68.4941 204.627 68.4941C203.609 68.4941 202.785 69.319 202.785 70.3364C202.785 71.3539 203.609 72.1787 204.627 72.1787Z" fill="#2158A5"/>
<path d="M222.721 80.9951C223.738 80.9951 224.563 80.1703 224.563 79.1528C224.563 78.1354 223.738 77.3105 222.721 77.3105C221.703 77.3105 220.879 78.1354 220.879 79.1528C220.879 80.1703 221.703 80.9951 222.721 80.9951Z" fill="#E72262"/>
<path d="M225.879 99.6162C226.897 99.6162 227.721 98.7914 227.721 97.7739C227.721 96.7565 226.897 95.9316 225.879 95.9316C224.862 95.9316 224.037 96.7565 224.037 97.7739C224.037 98.7914 224.862 99.6162 225.879 99.6162Z" fill="#FADD4B"/>
<path d="M217.194 96.8526C218.211 96.8526 219.036 96.0277 219.036 95.0103C219.036 93.9928 218.211 93.168 217.194 93.168C216.177 93.168 215.352 93.9928 215.352 95.0103C215.352 96.0277 216.177 96.8526 217.194 96.8526Z" fill="#FADD4B"/>
<path d="M202.521 105.537C203.539 105.537 204.364 104.712 204.364 103.695C204.364 102.677 203.539 101.853 202.521 101.853C201.504 101.853 200.679 102.677 200.679 103.695C200.679 104.712 201.504 105.537 202.521 105.537Z" fill="#2158A5"/>
<path d="M190.481 111.13C191.498 111.13 192.323 110.305 192.323 109.288C192.323 108.27 191.498 107.445 190.481 107.445C189.463 107.445 188.638 108.27 188.638 109.288C188.638 110.305 189.463 111.13 190.481 111.13Z" fill="#FADD4B"/>
<path d="M176.334 90.5362C177.352 90.5362 178.177 89.7113 178.177 88.6939C178.177 87.6764 177.352 86.8516 176.334 86.8516C175.317 86.8516 174.492 87.6764 174.492 88.6939C174.492 89.7113 175.317 90.5362 176.334 90.5362Z" fill="#E72262"/>
<path d="M184.888 62.0459C185.905 62.0459 186.73 61.2211 186.73 60.2036C186.73 59.1862 185.905 58.3613 184.888 58.3613C183.87 58.3613 183.046 59.1862 183.046 60.2036C183.046 61.2211 183.87 62.0459 184.888 62.0459Z" fill="#FADD4B"/>
<path d="M253.448 99.7471C262.351 99.7471 269.568 92.5299 269.568 83.627C269.568 74.7241 262.351 67.5068 253.448 67.5068C244.545 67.5068 237.328 74.7241 237.328 83.627C237.328 92.5299 244.545 99.7471 253.448 99.7471Z" fill="#2158A5"/>
<path d="M255.29 75.7317H250.816V71.6523H255.29V75.7317ZM250.75 77.7714H255.224V94.7469H250.75V77.7714Z" fill="white"/>
</svg>
