<svg width="516" height="538" viewBox="0 0 516 538" fill="none" xmlns="http://www.w3.org/2000/svg">
<path d="M257.53 537.303C399.76 537.303 515.06 422.003 515.06 279.773C515.06 137.543 399.76 22.2432 257.53 22.2432C115.3 22.2432 0 137.543 0 279.773C0 422.003 115.3 537.303 257.53 537.303Z" fill="#C5CFD7"/>
<path d="M332 40.7138C336.927 39.0714 342.129 38.4122 347.31 38.7738C347.79 38.7738 348.31 38.8538 348.75 38.9038C337.976 34.8105 326.937 31.4495 315.71 28.8438C317.286 34.9467 318.102 41.2208 318.14 47.5238C322.89 45.5338 327.1 42.3238 332 40.7138Z" fill="#C5CFD7"/>
<path d="M195.66 323.654C195.802 322.586 196.005 321.528 196.27 320.484C195.21 320.244 194.13 320.024 193 319.864C157.63 314.864 148.57 356.354 145.44 381.744C141.01 417.634 133.53 453.354 119.98 486.874C118.84 489.674 117.65 492.464 116.44 495.234C126.362 501.738 136.72 507.552 147.44 512.634C167.62 447.784 187.59 384.644 195.66 323.654Z" fill="#EAC219"/>
<path d="M288.17 228.424C284.95 221.244 283.51 212.864 278.01 207.144C285.24 203.994 293.94 201.144 298.75 193.854C307.04 181.244 297.91 163.704 284.94 160.384C273.2 157.384 259.94 163.824 252.46 173.594C250.079 166.7 246.369 160.34 241.54 154.874C238.61 151.664 233.36 147.044 240.23 145.194C255.41 141.124 271.23 139.694 286.57 136.194C270.74 136.194 254.88 137.834 239.07 136.344C234.13 135.874 229.07 135.104 226.69 129.814C223.588 122.99 221.765 115.656 221.31 108.174C215.96 110.054 210.77 112.864 205.01 112.714C202.84 112.714 200.7 112.064 198.52 112.044C196.04 112.044 194.52 113.044 192.66 114.734C185.544 121.314 176.805 125.884 167.34 127.974C162.12 129.164 156.08 130.444 150.74 130.084C150.053 129.922 149.383 129.695 148.74 129.404C148.674 129.398 148.607 129.398 148.54 129.404C132.71 183.584 138.54 275.484 166.94 282.804C179.88 286.144 207.45 277.974 235.51 261.064L230.08 299.484H303.41L288.17 228.424Z" fill="#B18B67"/>
<path d="M348.79 38.9033C355.31 41.3767 361.7 44.1 367.96 47.0733C362.78 42.1033 355.62 39.6533 348.79 38.9033Z" fill="#333333"/>
<path d="M393.05 120.073C387.24 109.073 373.73 104.143 362.65 103.563C366.01 100.233 367.84 95.4834 369.43 90.9734C371.149 86.2938 372.598 81.5192 373.77 76.6734C375.95 66.9234 375.97 55.6734 369.02 48.1534C368.68 47.7834 368.32 47.4234 367.96 47.0734C361.7 44.1068 355.31 41.3834 348.79 38.9034C348.31 38.9034 347.79 38.8034 347.35 38.7734C342.156 38.4066 336.94 39.0658 332 40.7134C327.1 42.3234 322.89 45.5334 318.14 47.5234C318.102 41.2205 317.286 34.9464 315.71 28.8434C314.623 24.7143 312.982 20.7516 310.83 17.0634C308.456 13.0265 305.179 9.59418 301.256 7.0352C297.333 4.47622 292.872 2.86011 288.22 2.31345C278.67 0.993447 269.22 3.23345 260.68 7.85345C258.54 9.01345 256.42 10.2334 254.39 11.6034C252.69 12.7534 250.92 14.1434 248.92 14.6034C246.7 15.1334 245.6 13.8434 244.15 12.2234C242.46 10.3435 240.577 8.64738 238.53 7.16345C229.59 0.593447 217.87 -2.10655 207.53 1.83345C202.559 3.65984 198.186 6.81838 194.89 10.9634C192.01 14.7434 189.95 20.7534 185.97 23.3834C184.28 24.5034 183.09 23.0234 181.55 21.9234C179.24 20.2834 177.04 18.4634 174.7 16.8634C171.486 14.6079 167.877 12.9763 164.06 12.0534C158.48 10.7634 150.78 11.0534 149.19 18.3634C148.59 21.1034 149.05 24.0334 149.19 26.8034C149.45 30.5934 149.73 34.3834 150.06 38.1734C150.27 40.5734 150.53 42.9134 150.93 45.2634C151.01 45.7234 151.08 46.1834 151.17 46.6534C151.46 48.1534 152.37 50.9634 151.72 52.4734C150.91 54.3534 147.19 53.2834 145.6 53.3534C142.432 53.4117 139.306 54.0912 136.4 55.3534C134.14 56.3534 131.78 57.9234 130.83 60.5034C130.348 62.0773 130.292 63.7512 130.67 65.3534C131 67.3534 130.62 68.3534 130.38 70.3534C126.16 68.2734 111.53 63.6534 109.69 71.2234C109.08 73.7334 110.47 76.5834 111.54 78.7034C113.475 82.3746 115.758 85.8507 118.36 89.0834C123.575 95.7566 129.683 101.682 136.51 106.693C134.657 107.488 133.037 108.741 131.801 110.334C130.565 111.927 129.753 113.808 129.444 115.8C129.134 117.793 129.335 119.831 130.029 121.724C130.723 123.617 131.886 125.303 133.41 126.623C136.41 129.333 140.41 129.933 144.23 129.763C145.647 129.541 147.077 129.414 148.51 129.383C148.577 129.378 148.644 129.378 148.71 129.383C149.353 129.674 150.023 129.902 150.71 130.063C156.05 130.423 162.09 129.143 167.31 127.953C176.775 125.864 185.514 121.294 192.63 114.713C194.48 112.983 196.01 111.993 198.49 112.023C200.67 112.023 202.81 112.643 204.98 112.693C210.74 112.843 215.93 110.033 221.28 108.153C221.717 115.646 223.527 122.995 226.62 129.833C229.02 135.123 234.06 135.893 239 136.363C254.81 137.853 270.67 136.193 286.5 136.213C271.18 139.673 255.34 141.103 240.16 145.213C233.29 147.063 238.54 151.683 241.47 154.893C246.299 160.36 250.009 166.72 252.39 173.613C259.89 163.843 273.13 157.403 284.87 160.403C297.87 163.723 306.97 181.263 298.68 193.873C293.87 201.193 285.17 204.013 277.94 207.163C283.44 212.883 284.88 221.263 288.1 228.443L288.34 228.993C290.02 232.593 292.34 236.663 296.12 237.923C297.5 238.383 299.12 238.423 300.22 239.553C301.58 240.953 301.9 242.553 303.63 243.723C310.53 248.523 321.32 248.153 327.43 241.883C332.97 236.223 331.53 227.253 326.91 221.513C334.26 218.453 347.67 214.513 344.74 203.043C360.68 201.983 399.39 176.133 377.99 157.243C389.8 150.583 400.59 134.373 393.05 120.073Z" fill="#333333"/>
<path d="M222.31 354.573L230.11 299.453H223.19C217.008 299.457 211.004 301.525 206.13 305.329C201.257 309.134 197.794 314.456 196.29 320.453C213.31 324.413 220.72 338.873 222.31 354.573Z" fill="#FADD4B"/>
<path d="M318.44 299.453H303.44L321.92 385.623H218.92C207.8 432.783 196.677 479.943 185.55 527.103C222.829 537.907 262.064 540.163 300.336 533.705C338.608 527.247 374.93 512.241 406.6 489.803C380.59 394.953 328.31 299.453 318.44 299.453Z" fill="#FADD4B"/>
<path d="M217.9 385.623L222.31 354.573C220.74 338.873 213.31 324.413 196.31 320.483C196.045 321.527 195.842 322.586 195.7 323.653C187.63 384.653 167.7 447.783 147.46 512.653C159.765 518.483 172.516 523.322 185.59 527.123C196.717 479.963 207.84 432.803 218.96 385.643L217.9 385.623Z" fill="#FADD4B"/>
<path d="M220.63 378.393L218.92 385.623H321.92L303.41 299.453H230.09L222.31 354.573C223.049 362.552 222.482 370.597 220.63 378.393Z" fill="#FADD4B"/>
<path d="M222.31 354.573L217.92 385.623H218.92L220.63 378.393C222.482 370.597 223.049 362.552 222.31 354.573V354.573Z" fill="#FADD4B"/>
</svg>
